G04 #@! TF.GenerationSoftware,KiCad,Pcbnew,(5.1.5)-3*
G04 #@! TF.CreationDate,2020-01-03T21:25:54+01:00*
G04 #@! TF.ProjectId,DHT_Disp_1,4448545f-4469-4737-905f-312e6b696361,rev?*
G04 #@! TF.SameCoordinates,Original*
G04 #@! TF.FileFunction,Legend,Bot*
G04 #@! TF.FilePolarity,Positive*
%FSLAX46Y46*%
G04 Gerber Fmt 4.6, Leading zero omitted, Abs format (unit mm)*
G04 Created by KiCad (PCBNEW (5.1.5)-3) date 2020-01-03 21:25:54*
%MOMM*%
%LPD*%
G04 APERTURE LIST*
%ADD10C,1.000000*%
%ADD11C,0.120000*%
%ADD12C,0.150000*%
G04 APERTURE END LIST*
D10*
X153469523Y-74731904D02*
X153469523Y-78303333D01*
X153707619Y-79017619D01*
X154183809Y-79493809D01*
X154898095Y-79731904D01*
X155374285Y-79731904D01*
X151088571Y-79731904D02*
X151088571Y-74731904D01*
X148231428Y-79731904D02*
X150374285Y-76874761D01*
X148231428Y-74731904D02*
X151088571Y-77589047D01*
X144660000Y-74731904D02*
X144660000Y-78303333D01*
X144898095Y-79017619D01*
X145374285Y-79493809D01*
X146088571Y-79731904D01*
X146564761Y-79731904D01*
X142279047Y-77827142D02*
X138469523Y-77827142D01*
X136326666Y-75208095D02*
X136088571Y-74970000D01*
X135612380Y-74731904D01*
X134421904Y-74731904D01*
X133945714Y-74970000D01*
X133707619Y-75208095D01*
X133469523Y-75684285D01*
X133469523Y-76160476D01*
X133707619Y-76874761D01*
X136564761Y-79731904D01*
X133469523Y-79731904D01*
X130374285Y-74731904D02*
X129898095Y-74731904D01*
X129421904Y-74970000D01*
X129183809Y-75208095D01*
X128945714Y-75684285D01*
X128707619Y-76636666D01*
X128707619Y-77827142D01*
X128945714Y-78779523D01*
X129183809Y-79255714D01*
X129421904Y-79493809D01*
X129898095Y-79731904D01*
X130374285Y-79731904D01*
X130850476Y-79493809D01*
X131088571Y-79255714D01*
X131326666Y-78779523D01*
X131564761Y-77827142D01*
X131564761Y-76636666D01*
X131326666Y-75684285D01*
X131088571Y-75208095D01*
X130850476Y-74970000D01*
X130374285Y-74731904D01*
X126802857Y-75208095D02*
X126564761Y-74970000D01*
X126088571Y-74731904D01*
X124898095Y-74731904D01*
X124421904Y-74970000D01*
X124183809Y-75208095D01*
X123945714Y-75684285D01*
X123945714Y-76160476D01*
X124183809Y-76874761D01*
X127040952Y-79731904D01*
X123945714Y-79731904D01*
X120850476Y-74731904D02*
X120374285Y-74731904D01*
X119898095Y-74970000D01*
X119660000Y-75208095D01*
X119421904Y-75684285D01*
X119183809Y-76636666D01*
X119183809Y-77827142D01*
X119421904Y-78779523D01*
X119660000Y-79255714D01*
X119898095Y-79493809D01*
X120374285Y-79731904D01*
X120850476Y-79731904D01*
X121326666Y-79493809D01*
X121564761Y-79255714D01*
X121802857Y-78779523D01*
X122040952Y-77827142D01*
X122040952Y-76636666D01*
X121802857Y-75684285D01*
X121564761Y-75208095D01*
X121326666Y-74970000D01*
X120850476Y-74731904D01*
D11*
X146180000Y-121430000D02*
X146570000Y-121430000D01*
X146180000Y-121430000D02*
X146180000Y-121880000D01*
X146880000Y-127000000D02*
X146880000Y-126350000D01*
X148610000Y-127000000D02*
X146880000Y-127000000D01*
X151180000Y-119380000D02*
X150970000Y-119380000D01*
X151180000Y-127000000D02*
X150970000Y-127000000D01*
X148610000Y-119380000D02*
X146880000Y-119380000D01*
X146880000Y-119380000D02*
X146880000Y-120040000D01*
D12*
X144742380Y-122856666D02*
X145456666Y-122856666D01*
X145599523Y-122809047D01*
X145694761Y-122713809D01*
X145742380Y-122570952D01*
X145742380Y-122475714D01*
X145742380Y-123856666D02*
X145742380Y-123285238D01*
X145742380Y-123570952D02*
X144742380Y-123570952D01*
X144885238Y-123475714D01*
X144980476Y-123380476D01*
X145028095Y-123285238D01*
M02*
