G04 #@! TF.GenerationSoftware,KiCad,Pcbnew,(5.1.5)-3*
G04 #@! TF.CreationDate,2020-01-03T21:25:54+01:00*
G04 #@! TF.ProjectId,DHT_Disp_1,4448545f-4469-4737-905f-312e6b696361,rev?*
G04 #@! TF.SameCoordinates,Original*
G04 #@! TF.FileFunction,Legend,Top*
G04 #@! TF.FilePolarity,Positive*
%FSLAX46Y46*%
G04 Gerber Fmt 4.6, Leading zero omitted, Abs format (unit mm)*
G04 Created by KiCad (PCBNEW (5.1.5)-3) date 2020-01-03 21:25:54*
%MOMM*%
%LPD*%
G04 APERTURE LIST*
%ADD10C,0.150000*%
%ADD11C,0.225000*%
%ADD12C,0.312500*%
%ADD13C,0.120000*%
G04 APERTURE END LIST*
D10*
X132540952Y-109942380D02*
X132540952Y-110656666D01*
X132493333Y-110799523D01*
X132398095Y-110894761D01*
X132255238Y-110942380D01*
X132160000Y-110942380D01*
X133493333Y-110942380D02*
X133017142Y-110942380D01*
X133017142Y-109942380D01*
X134398095Y-110847142D02*
X134350476Y-110894761D01*
X134207619Y-110942380D01*
X134112380Y-110942380D01*
X133969523Y-110894761D01*
X133874285Y-110799523D01*
X133826666Y-110704285D01*
X133779047Y-110513809D01*
X133779047Y-110370952D01*
X133826666Y-110180476D01*
X133874285Y-110085238D01*
X133969523Y-109990000D01*
X134112380Y-109942380D01*
X134207619Y-109942380D01*
X134350476Y-109990000D01*
X134398095Y-110037619D01*
X135112380Y-109942380D02*
X135112380Y-110656666D01*
X135064761Y-110799523D01*
X134969523Y-110894761D01*
X134826666Y-110942380D01*
X134731428Y-110942380D01*
X136064761Y-110942380D02*
X135588571Y-110942380D01*
X135588571Y-109942380D01*
X136969523Y-110847142D02*
X136921904Y-110894761D01*
X136779047Y-110942380D01*
X136683809Y-110942380D01*
X136540952Y-110894761D01*
X136445714Y-110799523D01*
X136398095Y-110704285D01*
X136350476Y-110513809D01*
X136350476Y-110370952D01*
X136398095Y-110180476D01*
X136445714Y-110085238D01*
X136540952Y-109990000D01*
X136683809Y-109942380D01*
X136779047Y-109942380D01*
X136921904Y-109990000D01*
X136969523Y-110037619D01*
X137683809Y-109942380D02*
X137683809Y-110656666D01*
X137636190Y-110799523D01*
X137540952Y-110894761D01*
X137398095Y-110942380D01*
X137302857Y-110942380D01*
X138636190Y-110942380D02*
X138160000Y-110942380D01*
X138160000Y-109942380D01*
X139540952Y-110847142D02*
X139493333Y-110894761D01*
X139350476Y-110942380D01*
X139255238Y-110942380D01*
X139112380Y-110894761D01*
X139017142Y-110799523D01*
X138969523Y-110704285D01*
X138921904Y-110513809D01*
X138921904Y-110370952D01*
X138969523Y-110180476D01*
X139017142Y-110085238D01*
X139112380Y-109990000D01*
X139255238Y-109942380D01*
X139350476Y-109942380D01*
X139493333Y-109990000D01*
X139540952Y-110037619D01*
X140255238Y-109942380D02*
X140255238Y-110656666D01*
X140207619Y-110799523D01*
X140112380Y-110894761D01*
X139969523Y-110942380D01*
X139874285Y-110942380D01*
X141207619Y-110942380D02*
X140731428Y-110942380D01*
X140731428Y-109942380D01*
X142112380Y-110847142D02*
X142064761Y-110894761D01*
X141921904Y-110942380D01*
X141826666Y-110942380D01*
X141683809Y-110894761D01*
X141588571Y-110799523D01*
X141540952Y-110704285D01*
X141493333Y-110513809D01*
X141493333Y-110370952D01*
X141540952Y-110180476D01*
X141588571Y-110085238D01*
X141683809Y-109990000D01*
X141826666Y-109942380D01*
X141921904Y-109942380D01*
X142064761Y-109990000D01*
X142112380Y-110037619D01*
X129279047Y-87415714D02*
X129660000Y-87415714D01*
X129421904Y-87082380D02*
X129421904Y-87939523D01*
X129469523Y-88034761D01*
X129564761Y-88082380D01*
X129660000Y-88082380D01*
X130374285Y-88034761D02*
X130279047Y-88082380D01*
X130088571Y-88082380D01*
X129993333Y-88034761D01*
X129945714Y-87939523D01*
X129945714Y-87558571D01*
X129993333Y-87463333D01*
X130088571Y-87415714D01*
X130279047Y-87415714D01*
X130374285Y-87463333D01*
X130421904Y-87558571D01*
X130421904Y-87653809D01*
X129945714Y-87749047D01*
X130850476Y-88082380D02*
X130850476Y-87415714D01*
X130850476Y-87510952D02*
X130898095Y-87463333D01*
X130993333Y-87415714D01*
X131136190Y-87415714D01*
X131231428Y-87463333D01*
X131279047Y-87558571D01*
X131279047Y-88082380D01*
X131279047Y-87558571D02*
X131326666Y-87463333D01*
X131421904Y-87415714D01*
X131564761Y-87415714D01*
X131660000Y-87463333D01*
X131707619Y-87558571D01*
X131707619Y-88082380D01*
X132183809Y-87415714D02*
X132183809Y-88415714D01*
X132183809Y-87463333D02*
X132279047Y-87415714D01*
X132469523Y-87415714D01*
X132564761Y-87463333D01*
X132612380Y-87510952D01*
X132660000Y-87606190D01*
X132660000Y-87891904D01*
X132612380Y-87987142D01*
X132564761Y-88034761D01*
X132469523Y-88082380D01*
X132279047Y-88082380D01*
X132183809Y-88034761D01*
X133469523Y-88034761D02*
X133374285Y-88082380D01*
X133183809Y-88082380D01*
X133088571Y-88034761D01*
X133040952Y-87939523D01*
X133040952Y-87558571D01*
X133088571Y-87463333D01*
X133183809Y-87415714D01*
X133374285Y-87415714D01*
X133469523Y-87463333D01*
X133517142Y-87558571D01*
X133517142Y-87653809D01*
X133040952Y-87749047D01*
X133945714Y-88082380D02*
X133945714Y-87415714D01*
X133945714Y-87606190D02*
X133993333Y-87510952D01*
X134040952Y-87463333D01*
X134136190Y-87415714D01*
X134231428Y-87415714D01*
X134993333Y-88082380D02*
X134993333Y-87558571D01*
X134945714Y-87463333D01*
X134850476Y-87415714D01*
X134660000Y-87415714D01*
X134564761Y-87463333D01*
X134993333Y-88034761D02*
X134898095Y-88082380D01*
X134660000Y-88082380D01*
X134564761Y-88034761D01*
X134517142Y-87939523D01*
X134517142Y-87844285D01*
X134564761Y-87749047D01*
X134660000Y-87701428D01*
X134898095Y-87701428D01*
X134993333Y-87653809D01*
X135326666Y-87415714D02*
X135707619Y-87415714D01*
X135469523Y-87082380D02*
X135469523Y-87939523D01*
X135517142Y-88034761D01*
X135612380Y-88082380D01*
X135707619Y-88082380D01*
X136469523Y-87415714D02*
X136469523Y-88082380D01*
X136040952Y-87415714D02*
X136040952Y-87939523D01*
X136088571Y-88034761D01*
X136183809Y-88082380D01*
X136326666Y-88082380D01*
X136421904Y-88034761D01*
X136469523Y-87987142D01*
X136945714Y-88082380D02*
X136945714Y-87415714D01*
X136945714Y-87606190D02*
X136993333Y-87510952D01*
X137040952Y-87463333D01*
X137136190Y-87415714D01*
X137231428Y-87415714D01*
X137564761Y-87701428D02*
X138326666Y-87701428D01*
X137945714Y-88082380D02*
X137945714Y-87320476D01*
X138660000Y-87415714D02*
X139040952Y-87415714D01*
X138802857Y-88082380D02*
X138802857Y-87225238D01*
X138850476Y-87130000D01*
X138945714Y-87082380D01*
X139040952Y-87082380D01*
X139802857Y-87415714D02*
X139802857Y-88082380D01*
X139374285Y-87415714D02*
X139374285Y-87939523D01*
X139421904Y-88034761D01*
X139517142Y-88082380D01*
X139660000Y-88082380D01*
X139755238Y-88034761D01*
X139802857Y-87987142D01*
X140279047Y-88082380D02*
X140279047Y-87082380D01*
X140374285Y-87701428D02*
X140660000Y-88082380D01*
X140660000Y-87415714D02*
X140279047Y-87796666D01*
X140945714Y-87415714D02*
X141326666Y-87415714D01*
X141088571Y-87082380D02*
X141088571Y-87939523D01*
X141136190Y-88034761D01*
X141231428Y-88082380D01*
X141326666Y-88082380D01*
X141660000Y-88082380D02*
X141660000Y-87415714D01*
X141660000Y-87082380D02*
X141612380Y-87130000D01*
X141660000Y-87177619D01*
X141707619Y-87130000D01*
X141660000Y-87082380D01*
X141660000Y-87177619D01*
X142564761Y-87415714D02*
X142564761Y-88225238D01*
X142517142Y-88320476D01*
X142469523Y-88368095D01*
X142374285Y-88415714D01*
X142231428Y-88415714D01*
X142136190Y-88368095D01*
X142564761Y-88034761D02*
X142469523Y-88082380D01*
X142279047Y-88082380D01*
X142183809Y-88034761D01*
X142136190Y-87987142D01*
X142088571Y-87891904D01*
X142088571Y-87606190D01*
X142136190Y-87510952D01*
X142183809Y-87463333D01*
X142279047Y-87415714D01*
X142469523Y-87415714D01*
X142564761Y-87463333D01*
X143040952Y-88082380D02*
X143040952Y-87082380D01*
X143469523Y-88082380D02*
X143469523Y-87558571D01*
X143421904Y-87463333D01*
X143326666Y-87415714D01*
X143183809Y-87415714D01*
X143088571Y-87463333D01*
X143040952Y-87510952D01*
X144326666Y-88034761D02*
X144231428Y-88082380D01*
X144040952Y-88082380D01*
X143945714Y-88034761D01*
X143898095Y-87939523D01*
X143898095Y-87558571D01*
X143945714Y-87463333D01*
X144040952Y-87415714D01*
X144231428Y-87415714D01*
X144326666Y-87463333D01*
X144374285Y-87558571D01*
X144374285Y-87653809D01*
X143898095Y-87749047D01*
X144660000Y-87415714D02*
X145040952Y-87415714D01*
X144802857Y-87082380D02*
X144802857Y-87939523D01*
X144850476Y-88034761D01*
X144945714Y-88082380D01*
X145040952Y-88082380D01*
D11*
X154063438Y-75862610D02*
X154063438Y-75862610D01*
X154745728Y-75526115D02*
X154587133Y-75548570D01*
X154389778Y-75614165D02*
X154213018Y-75719795D01*
X154851448Y-75526115D02*
X154798633Y-75526115D01*
X154096318Y-75823145D02*
X154063438Y-75862610D01*
X154213018Y-75719795D02*
X154096318Y-75823145D01*
X154587133Y-75548570D02*
X154389778Y-75614165D01*
X154798633Y-75526115D02*
X154745728Y-75526115D01*
X153782998Y-77064530D02*
X154095913Y-76930400D01*
X154707898Y-76390940D02*
X154743042Y-76369295D01*
X154703008Y-76396790D02*
X154707898Y-76390940D01*
X154889293Y-76391030D02*
X154894257Y-76396880D01*
X153170608Y-76398080D02*
X153081343Y-76530500D01*
X153899938Y-76038065D02*
X153742228Y-76167875D01*
X154963258Y-76479485D02*
X155194288Y-76707665D01*
X158960818Y-78392150D02*
X158839153Y-78359436D01*
X159215293Y-78735500D02*
X159182503Y-78613835D01*
X154798633Y-76359440D02*
X154812463Y-76359440D01*
X154784713Y-76359440D02*
X154798633Y-76359440D01*
X154095913Y-76930400D02*
X154402873Y-76707590D01*
X153465298Y-77109440D02*
X153544738Y-77109440D01*
X153170608Y-76987385D02*
X153303028Y-77076650D01*
X159093238Y-78481415D02*
X158960818Y-78392150D01*
X153048628Y-76692770D02*
X153048628Y-76733300D01*
X153048628Y-76652165D02*
X153048628Y-76692770D01*
X154025023Y-75908510D02*
X153899938Y-76038065D01*
X159093238Y-79070705D02*
X159182503Y-78938300D01*
X159182503Y-78613835D02*
X159093238Y-78481415D01*
X156449668Y-77064530D02*
X156762583Y-76930400D01*
X156211393Y-77109440D02*
X156449668Y-77064530D01*
X156131968Y-77109440D02*
X156211393Y-77109440D01*
X155814162Y-77064530D02*
X156052468Y-77109440D01*
X154633918Y-76479485D02*
X154703008Y-76396790D01*
X153081343Y-76854965D02*
X153170608Y-76987385D01*
X153424693Y-76276115D02*
X153303028Y-76308815D01*
X155501278Y-76930400D02*
X155814162Y-77064530D01*
X154063438Y-75862610D02*
X154025023Y-75908510D01*
X154894257Y-76396880D02*
X154963258Y-76479485D01*
X154812463Y-76359440D02*
X154854133Y-76369385D01*
X153424693Y-77109440D02*
X153465298Y-77109440D01*
X153048628Y-76733300D02*
X153081343Y-76854965D01*
X154743042Y-76369295D02*
X154784713Y-76359440D01*
X154402873Y-76707590D02*
X154633918Y-76479485D01*
X153544738Y-77109440D02*
X153782998Y-77064530D01*
X153303028Y-77076650D02*
X153424693Y-77109440D01*
X159215293Y-78816635D02*
X159215293Y-78776105D01*
X153081343Y-76530500D02*
X153048628Y-76652165D01*
X153742228Y-76167875D02*
X153595588Y-76248440D01*
X153303028Y-76308815D02*
X153170608Y-76398080D01*
X153465298Y-76276115D02*
X153424693Y-76276115D01*
X153497863Y-76276115D02*
X153465298Y-76276115D01*
X158839153Y-78359436D02*
X158798623Y-78359436D01*
X159215293Y-78776105D02*
X159215293Y-78735500D01*
X159182503Y-78938300D02*
X159215293Y-78816635D01*
X158798623Y-78359436D02*
X158798623Y-78359436D01*
X153595588Y-76248440D02*
X153497863Y-76276115D01*
X156052468Y-77109440D02*
X156131968Y-77109440D01*
X158960818Y-79159985D02*
X159093238Y-79070705D01*
X155194288Y-76707665D02*
X155501278Y-76930400D01*
X154854133Y-76369385D02*
X154889293Y-76391030D01*
X154963258Y-78562820D02*
X155194288Y-78791000D01*
X157629913Y-78562820D02*
X157860958Y-78791000D01*
X152118043Y-78442775D02*
X152131963Y-78442775D01*
X155814162Y-79147865D02*
X156052468Y-79192775D01*
X157374568Y-78474275D02*
X157409713Y-78452630D01*
X157300588Y-78562820D02*
X157369663Y-78480125D01*
X156449668Y-79147865D02*
X156762583Y-79013735D01*
X155194288Y-78791000D02*
X155501278Y-79013735D01*
X152036338Y-78480125D02*
X152041227Y-78474275D01*
X154743042Y-78452630D02*
X154784713Y-78442775D01*
X153385798Y-79192775D02*
X153465298Y-79192775D01*
X153147508Y-79147865D02*
X153385798Y-79192775D01*
X154894257Y-78480215D02*
X154963258Y-78562820D01*
X154633918Y-78562820D02*
X154703008Y-78480125D01*
X152145793Y-78442775D02*
X152187463Y-78452720D01*
X151429258Y-79013735D02*
X151736218Y-78790925D01*
X157451383Y-78442775D02*
X157465288Y-78442775D01*
X157560913Y-78480215D02*
X157629913Y-78562820D01*
X150636358Y-79159985D02*
X150758023Y-79192775D01*
X152296588Y-78562820D02*
X152527633Y-78791000D01*
X155501278Y-79013735D02*
X155814162Y-79147865D01*
X153544738Y-79192775D02*
X153782998Y-79147865D01*
X158839153Y-79192775D02*
X158960818Y-79159985D01*
X158798623Y-79192775D02*
X158839153Y-79192775D01*
X158719123Y-79192775D02*
X158798623Y-79192775D01*
X151736218Y-78790925D02*
X151967248Y-78562820D01*
X152041227Y-78474275D02*
X152076373Y-78452630D01*
X151116343Y-79147865D02*
X151429258Y-79013735D01*
X158480833Y-79147865D02*
X158719123Y-79192775D01*
X154707898Y-78474275D02*
X154743042Y-78452630D01*
X157860958Y-78791000D02*
X158167933Y-79013735D01*
X154703008Y-78480125D02*
X154707898Y-78474275D01*
X152222622Y-78474365D02*
X152227588Y-78480215D01*
X150798628Y-79192775D02*
X150878068Y-79192775D01*
X157555963Y-78474365D02*
X157560913Y-78480215D01*
X152187463Y-78452720D02*
X152222622Y-78474365D01*
X157520788Y-78452720D02*
X157555963Y-78474365D01*
X157465288Y-78442775D02*
X157479133Y-78442775D01*
X156131968Y-79192775D02*
X156211393Y-79192775D01*
X152131963Y-78442775D02*
X152145793Y-78442775D01*
X157369663Y-78480125D02*
X157374568Y-78474275D01*
X156762583Y-79013735D02*
X157069543Y-78790925D01*
X156211393Y-79192775D02*
X156449668Y-79147865D01*
X154812463Y-78442775D02*
X154854133Y-78452720D01*
X151967248Y-78562820D02*
X152036338Y-78480125D01*
X156052468Y-79192775D02*
X156131968Y-79192775D01*
X154854133Y-78452720D02*
X154889293Y-78474365D01*
X152227588Y-78480215D02*
X152296588Y-78562820D01*
X154784713Y-78442775D02*
X154798633Y-78442775D01*
X150758023Y-79192775D02*
X150798628Y-79192775D01*
X157069543Y-78790925D02*
X157300588Y-78562820D01*
X154889293Y-78474365D02*
X154894257Y-78480215D01*
X154402873Y-78790925D02*
X154633918Y-78562820D01*
X154798633Y-78442775D02*
X154812463Y-78442775D01*
X154095913Y-79013735D02*
X154402873Y-78790925D01*
X152076373Y-78452630D02*
X152118043Y-78442775D01*
X157479133Y-78442775D02*
X157520788Y-78452720D01*
X153782998Y-79147865D02*
X154095913Y-79013735D01*
X157409713Y-78452630D02*
X157451383Y-78442775D01*
X152527633Y-78791000D02*
X152834608Y-79013735D01*
X152834608Y-79013735D02*
X153147508Y-79147865D01*
X153465298Y-79192775D02*
X153544738Y-79192775D01*
X150878068Y-79192775D02*
X151116343Y-79147865D01*
X158167933Y-79013735D02*
X158480833Y-79147865D01*
X151233268Y-78121401D02*
X151075573Y-78251210D01*
X154798633Y-77609436D02*
X154745728Y-77609436D01*
X155207398Y-77697501D02*
X155010043Y-77631906D01*
X156566608Y-78121401D02*
X156408897Y-78251210D01*
X156164518Y-78359436D02*
X156131968Y-78359436D01*
X152540728Y-77697501D02*
X152343373Y-77631906D01*
X153334918Y-78331776D02*
X153188278Y-78251210D01*
X150503953Y-79070705D02*
X150636358Y-79159985D01*
X150414673Y-78938300D02*
X150503953Y-79070705D01*
X150381958Y-78735500D02*
X150381958Y-78776105D01*
X150414673Y-78613835D02*
X150381958Y-78735500D01*
X150503953Y-78481415D02*
X150414673Y-78613835D01*
X150636358Y-78392150D02*
X150503953Y-78481415D01*
X151075573Y-78251210D02*
X150928918Y-78331776D01*
X151396768Y-77945945D02*
X151358353Y-77991830D01*
X151723108Y-77697501D02*
X151546363Y-77803130D01*
X152131963Y-77609436D02*
X152079057Y-77609436D01*
X152184778Y-77609436D02*
X152131963Y-77609436D01*
X155533813Y-77945945D02*
X155500858Y-77906480D01*
X154096318Y-77906480D02*
X154063438Y-77945945D01*
X155384143Y-77803130D02*
X155207398Y-77697501D01*
X155697238Y-78121401D02*
X155572152Y-77991830D01*
X156691693Y-77991830D02*
X156566608Y-78121401D01*
X153432673Y-78359436D02*
X153334918Y-78331776D01*
X150831193Y-78359436D02*
X150798628Y-78359436D01*
X150928918Y-78331776D02*
X150831193Y-78359436D01*
X154025023Y-77991830D02*
X153899938Y-78121401D01*
X154851448Y-77609436D02*
X154798633Y-77609436D01*
X156262258Y-78331776D02*
X156164518Y-78359436D01*
X153899938Y-78121401D02*
X153742228Y-78251210D01*
X151920463Y-77631906D02*
X151723108Y-77697501D01*
X152834188Y-77906480D02*
X152717488Y-77803130D01*
X155500858Y-77906480D02*
X155384143Y-77803130D01*
X156730108Y-77945945D02*
X156691693Y-77991830D01*
X151429648Y-77906480D02*
X151396768Y-77945945D01*
X153465298Y-78359436D02*
X153432673Y-78359436D01*
X152079057Y-77609436D02*
X151920463Y-77631906D01*
X153497863Y-78359436D02*
X153465298Y-78359436D01*
X152343373Y-77631906D02*
X152184778Y-77609436D01*
X153188278Y-78251210D02*
X153030568Y-78121401D01*
X153595588Y-78331776D02*
X153497863Y-78359436D01*
X154745728Y-77609436D02*
X154587133Y-77631906D01*
X155010043Y-77631906D02*
X154851448Y-77609436D01*
X156131968Y-78359436D02*
X156099343Y-78359436D01*
X156408897Y-78251210D02*
X156262258Y-78331776D01*
X154063438Y-77945945D02*
X154025023Y-77991830D01*
X154213018Y-77803130D02*
X154096318Y-77906480D01*
X154389778Y-77697501D02*
X154213018Y-77803130D01*
X155572152Y-77991830D02*
X155533813Y-77945945D01*
X155854947Y-78251210D02*
X155697238Y-78121401D01*
X156001588Y-78331776D02*
X155854947Y-78251210D01*
X153742228Y-78251210D02*
X153595588Y-78331776D01*
X152867143Y-77945945D02*
X152834188Y-77906480D01*
X150381958Y-78816635D02*
X150414673Y-78938300D01*
X151358353Y-77991830D02*
X151233268Y-78121401D01*
X151546363Y-77803130D02*
X151429648Y-77906480D01*
X152905483Y-77991830D02*
X152867143Y-77945945D01*
X152717488Y-77803130D02*
X152540728Y-77697501D01*
X153030568Y-78121401D02*
X152905483Y-77991830D01*
X154587133Y-77631906D02*
X154389778Y-77697501D01*
X156099343Y-78359436D02*
X156001588Y-78331776D01*
X150381958Y-78776105D02*
X150381958Y-78816635D01*
X150758023Y-78359436D02*
X150636358Y-78392150D01*
X150798628Y-78359436D02*
X150758023Y-78359436D01*
X151355353Y-80544338D02*
X151651903Y-80652410D01*
X158363893Y-78121401D02*
X158238823Y-77991830D01*
X158521603Y-78251210D02*
X158363893Y-78121401D01*
X152281378Y-80780339D02*
X152528698Y-80796941D01*
X158765998Y-78359436D02*
X158668258Y-78331776D01*
X154389043Y-80281399D02*
X154638958Y-80100815D01*
X152931913Y-80781967D02*
X153245248Y-80737780D01*
X153842488Y-80564113D02*
X154123003Y-80436022D01*
X151651903Y-80652410D02*
X151961143Y-80731594D01*
X149772262Y-79116605D02*
X149934125Y-79381085D01*
X149429651Y-77060615D02*
X149381962Y-77372885D01*
X149563438Y-76635320D02*
X149429651Y-77060615D01*
X158798623Y-78359436D02*
X158765998Y-78359436D01*
X149447635Y-78234366D02*
X149527307Y-78541565D01*
X151390918Y-74076005D02*
X151301488Y-74178605D01*
X151073128Y-80409083D02*
X151355353Y-80544338D01*
X154815718Y-79949285D02*
X154871067Y-79895165D01*
X155431918Y-79872215D02*
X155460343Y-79901195D01*
X155323378Y-79808180D02*
X155431918Y-79872215D01*
X150341428Y-75338136D02*
X150033247Y-75770900D01*
X151961143Y-80731594D02*
X152281378Y-80780339D01*
X149381962Y-77476970D02*
X149381962Y-77588615D01*
X158200483Y-77945945D02*
X158167528Y-77906480D01*
X156762988Y-77906480D02*
X156730108Y-77945945D01*
X157518103Y-77609436D02*
X157465288Y-77609436D01*
X156879687Y-77803130D02*
X156762988Y-77906480D01*
X157056448Y-77697501D02*
X156879687Y-77803130D01*
X157253788Y-77631906D02*
X157056448Y-77697501D01*
X157412398Y-77609436D02*
X157253788Y-77631906D01*
X149636111Y-78836165D02*
X149772262Y-79116605D01*
X157465288Y-77609436D02*
X157412398Y-77609436D01*
X149527307Y-78541565D02*
X149636111Y-78836165D01*
X151034233Y-74487456D02*
X150679738Y-74909165D01*
X157874068Y-77697501D02*
X157676713Y-77631906D01*
X158050813Y-77803130D02*
X157874068Y-77697501D01*
X151301488Y-74178605D02*
X151034233Y-74487456D01*
X158167528Y-77906480D02*
X158050813Y-77803130D01*
X158668258Y-78331776D02*
X158521603Y-78251210D01*
X152611123Y-80796941D02*
X152691298Y-80796941D01*
X155460343Y-79901195D02*
X155460343Y-79901195D01*
X155166883Y-79776110D02*
X155323378Y-79808180D01*
X155009818Y-79805000D02*
X155166883Y-79776110D01*
X154871067Y-79895165D02*
X154899943Y-79866770D01*
X150328813Y-79856105D02*
X150558223Y-80063375D01*
X153245248Y-80737780D02*
X153549358Y-80664945D01*
X152528698Y-80796941D02*
X152611123Y-80796941D01*
X152691298Y-80796941D02*
X152931913Y-80781967D01*
X150679738Y-74909165D02*
X150341428Y-75338136D01*
X150558223Y-80063375D02*
X150806863Y-80248196D01*
X149934125Y-79381085D02*
X150120237Y-79628165D01*
X153549358Y-80664945D02*
X153842488Y-80564113D01*
X150806863Y-80248196D02*
X151073128Y-80409083D01*
X149398645Y-77916170D02*
X149447635Y-78234366D01*
X154123003Y-80436022D02*
X154389043Y-80281399D01*
X150120237Y-79628165D02*
X150328813Y-79856105D01*
X149381962Y-77670485D02*
X149398645Y-77916170D01*
X154899943Y-79866770D02*
X155009818Y-79805000D01*
X149381962Y-77588615D02*
X149381962Y-77670485D01*
X154638958Y-80100815D02*
X154815718Y-79949285D01*
X150033247Y-75770900D02*
X149769248Y-76204340D01*
X149769248Y-76204340D02*
X149563438Y-76635320D01*
X158238823Y-77991830D02*
X158200483Y-77945945D01*
X149381962Y-77372885D02*
X149381962Y-77476970D01*
X157676713Y-77631906D02*
X157518103Y-77609436D01*
X151283338Y-72923090D02*
X151525018Y-72627020D01*
X152161753Y-71584460D02*
X152194467Y-71431295D01*
X154934863Y-74481665D02*
X154864213Y-74585915D01*
X152069713Y-71815415D02*
X152161753Y-71584460D01*
X154272253Y-74599760D02*
X154245808Y-74569070D01*
X153060838Y-71595605D02*
X153154258Y-71835365D01*
X152651653Y-70963610D02*
X152773318Y-70996310D01*
X151477588Y-73976465D02*
X151390918Y-74076005D01*
X152544643Y-72649880D02*
X152352582Y-72918860D01*
X152860573Y-72930905D02*
X152664027Y-72653060D01*
X153886273Y-74157216D02*
X153854128Y-74120675D01*
X154213258Y-74531315D02*
X153886273Y-74157216D01*
X154689343Y-74693585D02*
X154530733Y-74712470D01*
X154802773Y-74638895D02*
X154689343Y-74693585D01*
X154903273Y-74055485D02*
X154957963Y-74168915D01*
X154512418Y-73607316D02*
X154843633Y-73986320D01*
X154212523Y-73265210D02*
X154412968Y-73494215D01*
X151525018Y-72627020D02*
X151742487Y-72340880D01*
X150828643Y-73452770D02*
X151026253Y-73225010D01*
X150369508Y-73982316D02*
X150664018Y-73641665D01*
X153486133Y-72372635D02*
X153706753Y-72662420D01*
X152060503Y-73291730D02*
X151736773Y-73676990D01*
X153299038Y-72095615D02*
X153486133Y-72372635D01*
X152611123Y-70963610D02*
X152651653Y-70963610D01*
X152352582Y-72918860D02*
X152060503Y-73291730D01*
X152664027Y-72653060D02*
X152603878Y-72557195D01*
X153161248Y-73314845D02*
X152860573Y-72930905D01*
X152194467Y-71380280D02*
X152194467Y-71339675D01*
X154976863Y-74327540D02*
X154934863Y-74481665D01*
X152194467Y-71339675D02*
X152227168Y-71218010D01*
X153951853Y-72961250D02*
X154212523Y-73265210D01*
X151926958Y-72068915D02*
X152069713Y-71815415D01*
X153027793Y-71380280D02*
X153027793Y-71434070D01*
X153764218Y-74018375D02*
X153495733Y-73710755D01*
X154530733Y-74712470D02*
X154376503Y-74670486D01*
X152570518Y-70963610D02*
X152611123Y-70963610D01*
X154479943Y-73570460D02*
X154512418Y-73607316D01*
X152448853Y-70996310D02*
X152570518Y-70963610D01*
X153706753Y-72662420D02*
X153951853Y-72961250D01*
X150762643Y-73528550D02*
X150828643Y-73452770D01*
X152603878Y-72557195D02*
X152544643Y-72649880D01*
X153854128Y-74120675D02*
X153764218Y-74018375D01*
X154245808Y-74569070D02*
X154213258Y-74531315D01*
X154833538Y-74612465D02*
X154802773Y-74638895D01*
X154957963Y-74168915D02*
X154976863Y-74327540D01*
X152194467Y-71431295D02*
X152194467Y-71380280D01*
X151742487Y-72340880D02*
X151926958Y-72068915D01*
X154843633Y-73986320D02*
X154876843Y-74024795D01*
X152773318Y-70996310D02*
X152905738Y-71085590D01*
X153154258Y-71835365D02*
X153299038Y-72095615D01*
X152316433Y-71085590D02*
X152448853Y-70996310D01*
X152227168Y-71218010D02*
X152316433Y-71085590D01*
X153027793Y-71339675D02*
X153027793Y-71380280D01*
X154412968Y-73494215D02*
X154479943Y-73570460D01*
X153027793Y-71434070D02*
X153060838Y-71595605D01*
X150664018Y-73641665D02*
X150762643Y-73528550D01*
X152995003Y-71218010D02*
X153027793Y-71339675D01*
X152905738Y-71085590D02*
X152995003Y-71218010D01*
X151026253Y-73225010D02*
X151283338Y-72923090D01*
X151736773Y-73676990D02*
X151477588Y-73976465D01*
X153495733Y-73710755D02*
X153161248Y-73314845D01*
X154376503Y-74670486D02*
X154272253Y-74599760D01*
X154864213Y-74585915D02*
X154833538Y-74612465D01*
X154876843Y-74024795D02*
X154903273Y-74055485D01*
X158765998Y-76276115D02*
X158668258Y-76248440D01*
X156131968Y-76276115D02*
X156099343Y-76276115D01*
X157374568Y-76390940D02*
X157409713Y-76369295D01*
X158363893Y-76038065D02*
X158238823Y-75908510D01*
X157412398Y-75526115D02*
X157253788Y-75548570D01*
X157518103Y-75526115D02*
X157465288Y-75526115D01*
X158050813Y-75719795D02*
X157874068Y-75614165D01*
X158668258Y-76248440D02*
X158521603Y-76167875D01*
X157069543Y-76707590D02*
X157300588Y-76479485D01*
X159215293Y-76692770D02*
X159215293Y-76652165D01*
X158167933Y-76930400D02*
X158480833Y-77064530D01*
X157860958Y-76707665D02*
X158167933Y-76930400D01*
X156164518Y-76276115D02*
X156131968Y-76276115D01*
X159093238Y-76987385D02*
X159182503Y-76854965D01*
X157451383Y-76359440D02*
X157465288Y-76359440D01*
X158798623Y-76276115D02*
X158765998Y-76276115D01*
X157056448Y-75614165D02*
X156879687Y-75719795D01*
X156408897Y-76167875D02*
X156262258Y-76248440D01*
X156566608Y-76038065D02*
X156408897Y-76167875D01*
X157555963Y-76391030D02*
X157560913Y-76396880D01*
X158521603Y-76167875D02*
X158363893Y-76038065D01*
X158719123Y-77109440D02*
X158798623Y-77109440D01*
X155572152Y-75908510D02*
X155533813Y-75862610D01*
X155010043Y-75548570D02*
X154851448Y-75526115D01*
X155207398Y-75614165D02*
X155010043Y-75548570D01*
X155384143Y-75719795D02*
X155207398Y-75614165D01*
X157300588Y-76479485D02*
X157369663Y-76396790D01*
X155500858Y-75823145D02*
X155384143Y-75719795D01*
X155533813Y-75862610D02*
X155500858Y-75823145D01*
X159215293Y-76733300D02*
X159215293Y-76692770D01*
X155697238Y-76038065D02*
X155572152Y-75908510D01*
X159182503Y-76854965D02*
X159215293Y-76733300D01*
X157479133Y-76359440D02*
X157520788Y-76369385D01*
X156099343Y-76276115D02*
X156001588Y-76248440D01*
X156262258Y-76248440D02*
X156164518Y-76276115D01*
X157465288Y-76359440D02*
X157479133Y-76359440D01*
X156691693Y-75908510D02*
X156566608Y-76038065D01*
X156730108Y-75862610D02*
X156691693Y-75908510D01*
X158200483Y-75862610D02*
X158167528Y-75823145D01*
X157409713Y-76369295D02*
X157451383Y-76359440D01*
X156879687Y-75719795D02*
X156762988Y-75823145D01*
X157465288Y-75526115D02*
X157412398Y-75526115D01*
X157874068Y-75614165D02*
X157676713Y-75548570D01*
X159093238Y-76398080D02*
X158960818Y-76308815D01*
X156762583Y-76930400D02*
X157069543Y-76707590D01*
X158238823Y-75908510D02*
X158200483Y-75862610D01*
X158167528Y-75823145D02*
X158050813Y-75719795D01*
X157520788Y-76369385D02*
X157555963Y-76391030D01*
X158960818Y-76308815D02*
X158839153Y-76276115D01*
X159215293Y-76652165D02*
X159182503Y-76530500D01*
X157676713Y-75548570D02*
X157518103Y-75526115D01*
X158839153Y-76276115D02*
X158798623Y-76276115D01*
X158960818Y-77076650D02*
X159093238Y-76987385D01*
X159182503Y-76530500D02*
X159093238Y-76398080D01*
X158839153Y-77109440D02*
X158960818Y-77076650D01*
X157369663Y-76396790D02*
X157374568Y-76390940D01*
X156762988Y-75823145D02*
X156730108Y-75862610D01*
X158798623Y-77109440D02*
X158839153Y-77109440D01*
X157253788Y-75548570D02*
X157056448Y-75614165D01*
X157560913Y-76396880D02*
X157629913Y-76479485D01*
X157629913Y-76479485D02*
X157860958Y-76707665D01*
X155854947Y-76167875D02*
X155697238Y-76038065D01*
X158480833Y-77064530D02*
X158719123Y-77109440D01*
X156001588Y-76248440D02*
X155854947Y-76167875D01*
X149266481Y-75421460D02*
X149606000Y-74930000D01*
X148748579Y-76433585D02*
X148975467Y-75923000D01*
X152611123Y-81630275D02*
X152510128Y-81630275D01*
X151812073Y-81552964D02*
X151427383Y-81457750D01*
X148626671Y-78386300D02*
X148568240Y-77991695D01*
X154845913Y-80978500D02*
X154510633Y-81174059D01*
X155454313Y-80490383D02*
X155384398Y-80558824D01*
X155460343Y-79901195D02*
X155488648Y-79930086D01*
X148975467Y-75923000D02*
X149266481Y-75421460D01*
X148601118Y-76951955D02*
X148748579Y-76433585D01*
X148722944Y-78770165D02*
X148626671Y-78386300D01*
X150038374Y-80720687D02*
X149810915Y-80522609D01*
X155161168Y-80750392D02*
X154845913Y-80978500D01*
X153406858Y-81555487D02*
X153013543Y-81611395D01*
X152711712Y-81630275D02*
X152611123Y-81630275D01*
X155384398Y-80558824D02*
X155161168Y-80750392D01*
X148548628Y-77345690D02*
X148601118Y-76951955D01*
X148548628Y-77476970D02*
X148548628Y-77345690D01*
X149739709Y-80451971D02*
X149668256Y-80381090D01*
X152207398Y-81610744D02*
X151812073Y-81552964D01*
X149668256Y-80381090D02*
X149467979Y-80154608D01*
X148548628Y-77588615D02*
X148548628Y-77476970D01*
X148568240Y-77991695D02*
X148548628Y-77689356D01*
X153013543Y-81611395D02*
X152711712Y-81630275D01*
X148856081Y-79141175D02*
X148722944Y-78770165D01*
X149025272Y-79496990D02*
X148856081Y-79141175D01*
X149229536Y-79835510D02*
X149025272Y-79496990D01*
X149467979Y-80154608D02*
X149229536Y-79835510D01*
X149810915Y-80522609D02*
X149739709Y-80451971D01*
X155579308Y-80197007D02*
X155547162Y-80353418D01*
X151427383Y-81457750D02*
X151055383Y-81325994D01*
X152510128Y-81630275D02*
X152207398Y-81610744D01*
X150358768Y-80956610D02*
X150038374Y-80720687D01*
X155547162Y-80353418D02*
X155483187Y-80461982D01*
X150698443Y-81158677D02*
X150358768Y-80956610D01*
X153788938Y-81463364D02*
X153406858Y-81555487D01*
X155550343Y-80039870D02*
X155579308Y-80197007D01*
X154510633Y-81174059D02*
X154157593Y-81335923D01*
X148548628Y-77689356D02*
X148548628Y-77588615D01*
X155483187Y-80461982D02*
X155454313Y-80490383D01*
X154157593Y-81335923D02*
X153788938Y-81463364D01*
X151055383Y-81325994D02*
X150698443Y-81158677D01*
X149978884Y-74449941D02*
X150369508Y-73982316D01*
X155488648Y-79930086D02*
X155550343Y-80039870D01*
X149606000Y-74930000D02*
X149978884Y-74449941D01*
D12*
X122143900Y-72727075D02*
X122143900Y-72529050D01*
X122143900Y-77812000D02*
X122143900Y-72727075D01*
X121548475Y-71294775D02*
X120904200Y-70859400D01*
X122143900Y-72529050D02*
X121983850Y-71937700D01*
X121983850Y-71937700D02*
X121548475Y-71294775D01*
X120626175Y-80981753D02*
X121042575Y-80700993D01*
X121426400Y-79605075D02*
X121247350Y-79104575D01*
X120867599Y-78690900D02*
X120767225Y-78633950D01*
X120767225Y-78633950D02*
X120767225Y-78633950D01*
X121042575Y-80700993D02*
X121323325Y-80283250D01*
X121426400Y-79771900D02*
X121426400Y-79605075D01*
X121247350Y-79104575D02*
X120867599Y-78690900D01*
X121426400Y-79899400D02*
X121426400Y-79771900D01*
X121323325Y-80283250D02*
X121426400Y-79899400D01*
X118877850Y-72727075D02*
X118877850Y-72605025D01*
X120116175Y-81086195D02*
X120243675Y-81086195D01*
X119987325Y-81086195D02*
X120116175Y-81086195D01*
X118906325Y-80283250D02*
X119187075Y-80700993D01*
X120113475Y-81810475D02*
X120113475Y-81810475D01*
X118877850Y-72605025D02*
X118974125Y-72242875D01*
X119820475Y-73755200D02*
X120015800Y-73561250D01*
X120311500Y-81810475D02*
X120113475Y-81810475D01*
X120992350Y-71846825D02*
X121256874Y-72242875D01*
X120015800Y-73561250D02*
X120015800Y-73497500D01*
X118877850Y-74396725D02*
X118877850Y-73755200D01*
X119800150Y-74929776D02*
X119938500Y-74849750D01*
X121354525Y-72605025D02*
X121354525Y-72727075D01*
X119631975Y-71579600D02*
X119994100Y-71481975D01*
X122147975Y-79771900D02*
X122147975Y-79969925D01*
X120905550Y-81649073D02*
X120311500Y-81810475D01*
X121256874Y-72242875D02*
X121354525Y-72605025D01*
X119604825Y-80981753D02*
X119987325Y-81086195D01*
X119994100Y-71481975D02*
X120116175Y-71481975D01*
X119800150Y-74396725D02*
X119755375Y-74396725D01*
X119187075Y-80700993D02*
X119604825Y-80981753D01*
X120015800Y-74662600D02*
X120015800Y-74615100D01*
X120116175Y-71481975D02*
X120236900Y-71481975D01*
X118877850Y-73241150D02*
X118877850Y-72727075D01*
X118076250Y-79771900D02*
X118076250Y-79542675D01*
X118804625Y-79899400D02*
X118906325Y-80283250D01*
X118804625Y-79771900D02*
X118804625Y-79899400D01*
X119755375Y-74929776D02*
X119800150Y-74929776D01*
X118076250Y-79542675D02*
X118290550Y-78855025D01*
X119465150Y-75552351D02*
X119465150Y-78633950D01*
X120767225Y-78633950D02*
X120767225Y-75552351D01*
X119755375Y-73241150D02*
X118877850Y-73241150D01*
X122147975Y-79969925D02*
X121987925Y-80564003D01*
X120015800Y-73432400D02*
X119820475Y-73241150D01*
X122147975Y-79544050D02*
X122147975Y-79771900D01*
X119755375Y-73755200D02*
X119820475Y-73755200D01*
X119755375Y-74396725D02*
X118877850Y-74396725D01*
X121477950Y-78255525D02*
X121936400Y-78861800D01*
X120236900Y-71481975D02*
X120599024Y-71579600D01*
X119238650Y-71846825D02*
X119631975Y-71579600D01*
X118290550Y-78855025D02*
X118753050Y-78246025D01*
X118753050Y-78246025D02*
X118877850Y-78153775D01*
X118877850Y-78153775D02*
X118877850Y-74929776D01*
X119820475Y-73241150D02*
X119755375Y-73241150D01*
X118804625Y-79605075D02*
X118804625Y-79771900D01*
X118877850Y-74929776D02*
X119755375Y-74929776D01*
X121354525Y-78161950D02*
X121477950Y-78255525D01*
X119363400Y-78690900D02*
X118982300Y-79104575D01*
X120599024Y-71579600D02*
X120992350Y-71846825D01*
X120015800Y-74708700D02*
X120015800Y-74662600D01*
X118982300Y-79104575D02*
X118804625Y-79605075D01*
X120015800Y-73497500D02*
X120015800Y-73432400D01*
X120767225Y-75552351D02*
X119465150Y-75552351D01*
X120015800Y-74615100D02*
X119938500Y-74475401D01*
X118974125Y-72242875D02*
X119238650Y-71846825D01*
X119938500Y-74475401D02*
X119800150Y-74396725D01*
X119465150Y-78633950D02*
X119363400Y-78690900D01*
X121936400Y-78861800D02*
X122147975Y-79544050D01*
X119938500Y-74849750D02*
X120015800Y-74708700D01*
X121551175Y-81212333D02*
X120905550Y-81649073D01*
X121987925Y-80564003D02*
X121551175Y-81212333D01*
X118877850Y-73755200D02*
X119755375Y-73755200D01*
X120243675Y-81086195D02*
X120626175Y-80981753D01*
X121354525Y-72727075D02*
X121354525Y-78161950D01*
X120114825Y-82590370D02*
X120388825Y-82590370D01*
X119839475Y-82590370D02*
X120114825Y-82590370D01*
X117295000Y-80044525D02*
X117516074Y-80866466D01*
X117295000Y-79502000D02*
X117295000Y-79770550D01*
X118088474Y-72727075D02*
X118088474Y-77812000D01*
X118247150Y-71937700D02*
X118088474Y-72529050D01*
X117963675Y-77938125D02*
X117505225Y-78696300D01*
X120904200Y-70859400D02*
X120312850Y-70700725D01*
X120113475Y-81810475D02*
X119915450Y-81810475D01*
X122724400Y-78696300D02*
X122267325Y-77938125D01*
X122936000Y-79770550D02*
X122936000Y-79502000D01*
X120388825Y-82590370D02*
X121210725Y-82367930D01*
X118121000Y-81763003D02*
X119017525Y-82367930D01*
X117295000Y-79770550D02*
X117295000Y-80044525D01*
X120116175Y-70700725D02*
X119918150Y-70700725D01*
X122107300Y-81763003D02*
X122713575Y-80866466D01*
X121210725Y-82367930D02*
X122107300Y-81763003D01*
X117516074Y-80866466D02*
X118121000Y-81763003D01*
X118088474Y-77812000D02*
X117963675Y-77938125D01*
X117505225Y-78696300D02*
X117295000Y-79502000D01*
X118088474Y-72529050D02*
X118088474Y-72727075D01*
X119017525Y-82367930D02*
X119839475Y-82590370D01*
X122267325Y-77938125D02*
X122143900Y-77812000D01*
X118682525Y-71294775D02*
X118247150Y-71937700D01*
X122936000Y-80044525D02*
X122936000Y-79770550D01*
X119326800Y-70859400D02*
X118682525Y-71294775D01*
X122713575Y-80866466D02*
X122936000Y-80044525D01*
X119918150Y-70700725D02*
X119326800Y-70859400D01*
X118076250Y-79969925D02*
X118076250Y-79771900D01*
X118236274Y-80564003D02*
X118076250Y-79969925D01*
X122143900Y-77812000D02*
X122143900Y-77812000D01*
X118673050Y-81212333D02*
X118236274Y-80564003D01*
X119321350Y-81649073D02*
X118673050Y-81212333D01*
X119915450Y-81810475D02*
X119321350Y-81649073D01*
X120312850Y-70700725D02*
X120116175Y-70700725D01*
X122936000Y-79502000D02*
X122724400Y-78696300D01*
D13*
X134135000Y-96535000D02*
G75*
G03X134135000Y-101585000I0J-2525000D01*
G01*
X140385000Y-96535000D02*
G75*
G02X140385000Y-101585000I0J-2525000D01*
G01*
X140385000Y-96535000D02*
X134135000Y-96535000D01*
X140385000Y-101585000D02*
X134135000Y-101585000D01*
X155000000Y-111490000D02*
G75*
G02X155000000Y-109490000I0J1000000D01*
G01*
X155000000Y-109490000D02*
X155000000Y-107840000D01*
X155000000Y-107840000D02*
X119320000Y-107840000D01*
X119320000Y-107840000D02*
X119320000Y-113140000D01*
X119320000Y-113140000D02*
X155000000Y-113140000D01*
X155000000Y-113140000D02*
X155000000Y-111490000D01*
X143390000Y-118070000D02*
X143390000Y-128310000D01*
X159280000Y-118070000D02*
X159280000Y-128310000D01*
X159280000Y-118070000D02*
X143390000Y-118070000D01*
X159280000Y-128310000D02*
X143390000Y-128310000D01*
X143390000Y-120650000D02*
X140850000Y-120650000D01*
X143390000Y-123190000D02*
X140850000Y-123190000D01*
X143390000Y-125730000D02*
X140850000Y-125730000D01*
X126710000Y-85820000D02*
X126710000Y-83820000D01*
X126710000Y-85820000D02*
X128270000Y-85820000D01*
X126940000Y-85590000D02*
X126940000Y-69350000D01*
X126940000Y-69350000D02*
X147380000Y-69350000D01*
X147380000Y-69350000D02*
X147380000Y-85590000D01*
X147380000Y-85590000D02*
X126940000Y-85590000D01*
X116510000Y-117060000D02*
X122250000Y-117060000D01*
X122260000Y-117060000D02*
X122260000Y-129320000D01*
X122260000Y-129320000D02*
X116500000Y-129320000D01*
X116500000Y-129320000D02*
X116500000Y-117070000D01*
X116220000Y-116780000D02*
X116220000Y-118780000D01*
X116220000Y-116780000D02*
X117830000Y-116780000D01*
X139051000Y-89250000D02*
X140309000Y-89250000D01*
X139051000Y-91090000D02*
X140309000Y-91090000D01*
X135269000Y-89250000D02*
X134011000Y-89250000D01*
X135269000Y-91090000D02*
X134011000Y-91090000D01*
X145860000Y-133350000D02*
G75*
G03X145860000Y-133350000I-2620000J0D01*
G01*
X139510000Y-133350000D02*
G75*
G03X139510000Y-133350000I-2620000J0D01*
G01*
X152210000Y-133350000D02*
G75*
G03X152210000Y-133350000I-2620000J0D01*
G01*
X124520000Y-123360000D02*
X123470000Y-123360000D01*
X123470000Y-124410000D02*
X123470000Y-123360000D01*
X132870000Y-129460000D02*
X132870000Y-138260000D01*
X132870000Y-138260000D02*
X123670000Y-138260000D01*
X130170000Y-123560000D02*
X132870000Y-123560000D01*
X132870000Y-123560000D02*
X132870000Y-125460000D01*
X123670000Y-138260000D02*
X123670000Y-123560000D01*
X123670000Y-123560000D02*
X126270000Y-123560000D01*
X145820000Y-93250000D02*
X146150000Y-93250000D01*
X146150000Y-93250000D02*
X146150000Y-99790000D01*
X146150000Y-99790000D02*
X145820000Y-99790000D01*
X143740000Y-93250000D02*
X143410000Y-93250000D01*
X143410000Y-93250000D02*
X143410000Y-99790000D01*
X143410000Y-99790000D02*
X143740000Y-99790000D01*
X133890000Y-92940000D02*
X133890000Y-92610000D01*
X133890000Y-92610000D02*
X140430000Y-92610000D01*
X140430000Y-92610000D02*
X140430000Y-92940000D01*
X133890000Y-95020000D02*
X133890000Y-95350000D01*
X133890000Y-95350000D02*
X140430000Y-95350000D01*
X140430000Y-95350000D02*
X140430000Y-95020000D01*
X157580000Y-93250000D02*
X157250000Y-93250000D01*
X157580000Y-99790000D02*
X157580000Y-93250000D01*
X157250000Y-99790000D02*
X157580000Y-99790000D01*
X154840000Y-93250000D02*
X155170000Y-93250000D01*
X154840000Y-99790000D02*
X154840000Y-93250000D01*
X155170000Y-99790000D02*
X154840000Y-99790000D01*
X151360000Y-99790000D02*
X151030000Y-99790000D01*
X151030000Y-99790000D02*
X151030000Y-93250000D01*
X151030000Y-93250000D02*
X151360000Y-93250000D01*
X153440000Y-99790000D02*
X153770000Y-99790000D01*
X153770000Y-99790000D02*
X153770000Y-93250000D01*
X153770000Y-93250000D02*
X153440000Y-93250000D01*
X149960000Y-93250000D02*
X149630000Y-93250000D01*
X149960000Y-99790000D02*
X149960000Y-93250000D01*
X149630000Y-99790000D02*
X149960000Y-99790000D01*
X147220000Y-93250000D02*
X147550000Y-93250000D01*
X147220000Y-99790000D02*
X147220000Y-93250000D01*
X147550000Y-99790000D02*
X147220000Y-99790000D01*
X128500000Y-99790000D02*
X128170000Y-99790000D01*
X128170000Y-99790000D02*
X128170000Y-93250000D01*
X128170000Y-93250000D02*
X128500000Y-93250000D01*
X130580000Y-99790000D02*
X130910000Y-99790000D01*
X130910000Y-99790000D02*
X130910000Y-93250000D01*
X130910000Y-93250000D02*
X130580000Y-93250000D01*
X127100000Y-93250000D02*
X126770000Y-93250000D01*
X127100000Y-99790000D02*
X127100000Y-93250000D01*
X126770000Y-99790000D02*
X127100000Y-99790000D01*
X124360000Y-93250000D02*
X124690000Y-93250000D01*
X124360000Y-99790000D02*
X124360000Y-93250000D01*
X124690000Y-99790000D02*
X124360000Y-99790000D01*
X120880000Y-99790000D02*
X120550000Y-99790000D01*
X120550000Y-99790000D02*
X120550000Y-93250000D01*
X120550000Y-93250000D02*
X120880000Y-93250000D01*
X122960000Y-99790000D02*
X123290000Y-99790000D01*
X123290000Y-99790000D02*
X123290000Y-93250000D01*
X123290000Y-93250000D02*
X122960000Y-93250000D01*
X119480000Y-93250000D02*
X119150000Y-93250000D01*
X119480000Y-99790000D02*
X119480000Y-93250000D01*
X119150000Y-99790000D02*
X119480000Y-99790000D01*
X116740000Y-93250000D02*
X117070000Y-93250000D01*
X116740000Y-99790000D02*
X116740000Y-93250000D01*
X117070000Y-99790000D02*
X116740000Y-99790000D01*
D10*
X136783809Y-99036190D02*
X136783809Y-99512380D01*
X136450476Y-98512380D02*
X136783809Y-99036190D01*
X137117142Y-98512380D01*
X137974285Y-99512380D02*
X137402857Y-99512380D01*
X137688571Y-99512380D02*
X137688571Y-98512380D01*
X137593333Y-98655238D01*
X137498095Y-98750476D01*
X137402857Y-98798095D01*
X119888095Y-109942380D02*
X119888095Y-110751904D01*
X119935714Y-110847142D01*
X119983333Y-110894761D01*
X120078571Y-110942380D01*
X120269047Y-110942380D01*
X120364285Y-110894761D01*
X120411904Y-110847142D01*
X120459523Y-110751904D01*
X120459523Y-109942380D01*
X121459523Y-110942380D02*
X120888095Y-110942380D01*
X121173809Y-110942380D02*
X121173809Y-109942380D01*
X121078571Y-110085238D01*
X120983333Y-110180476D01*
X120888095Y-110228095D01*
X156718095Y-118832380D02*
X156718095Y-119641904D01*
X156765714Y-119737142D01*
X156813333Y-119784761D01*
X156908571Y-119832380D01*
X157099047Y-119832380D01*
X157194285Y-119784761D01*
X157241904Y-119737142D01*
X157289523Y-119641904D01*
X157289523Y-118832380D01*
X157718095Y-118927619D02*
X157765714Y-118880000D01*
X157860952Y-118832380D01*
X158099047Y-118832380D01*
X158194285Y-118880000D01*
X158241904Y-118927619D01*
X158289523Y-119022857D01*
X158289523Y-119118095D01*
X158241904Y-119260952D01*
X157670476Y-119832380D01*
X158289523Y-119832380D01*
X135128095Y-76922380D02*
X135128095Y-77731904D01*
X135175714Y-77827142D01*
X135223333Y-77874761D01*
X135318571Y-77922380D01*
X135509047Y-77922380D01*
X135604285Y-77874761D01*
X135651904Y-77827142D01*
X135699523Y-77731904D01*
X135699523Y-76922380D01*
X136080476Y-76922380D02*
X136699523Y-76922380D01*
X136366190Y-77303333D01*
X136509047Y-77303333D01*
X136604285Y-77350952D01*
X136651904Y-77398571D01*
X136699523Y-77493809D01*
X136699523Y-77731904D01*
X136651904Y-77827142D01*
X136604285Y-77874761D01*
X136509047Y-77922380D01*
X136223333Y-77922380D01*
X136128095Y-77874761D01*
X136080476Y-77827142D01*
X116840095Y-117308380D02*
X116840095Y-118117904D01*
X116887714Y-118213142D01*
X116935333Y-118260761D01*
X117030571Y-118308380D01*
X117221047Y-118308380D01*
X117316285Y-118260761D01*
X117363904Y-118213142D01*
X117411523Y-118117904D01*
X117411523Y-117308380D01*
X118316285Y-117641714D02*
X118316285Y-118308380D01*
X118078190Y-117260761D02*
X117840095Y-117975047D01*
X118459142Y-117975047D01*
X143089333Y-131929142D02*
X143041714Y-131976761D01*
X142898857Y-132024380D01*
X142803619Y-132024380D01*
X142660761Y-131976761D01*
X142565523Y-131881523D01*
X142517904Y-131786285D01*
X142470285Y-131595809D01*
X142470285Y-131452952D01*
X142517904Y-131262476D01*
X142565523Y-131167238D01*
X142660761Y-131072000D01*
X142803619Y-131024380D01*
X142898857Y-131024380D01*
X143041714Y-131072000D01*
X143089333Y-131119619D01*
X144041714Y-132024380D02*
X143470285Y-132024380D01*
X143756000Y-132024380D02*
X143756000Y-131024380D01*
X143660761Y-131167238D01*
X143565523Y-131262476D01*
X143470285Y-131310095D01*
X136739333Y-131929142D02*
X136691714Y-131976761D01*
X136548857Y-132024380D01*
X136453619Y-132024380D01*
X136310761Y-131976761D01*
X136215523Y-131881523D01*
X136167904Y-131786285D01*
X136120285Y-131595809D01*
X136120285Y-131452952D01*
X136167904Y-131262476D01*
X136215523Y-131167238D01*
X136310761Y-131072000D01*
X136453619Y-131024380D01*
X136548857Y-131024380D01*
X136691714Y-131072000D01*
X136739333Y-131119619D01*
X137120285Y-131119619D02*
X137167904Y-131072000D01*
X137263142Y-131024380D01*
X137501238Y-131024380D01*
X137596476Y-131072000D01*
X137644095Y-131119619D01*
X137691714Y-131214857D01*
X137691714Y-131310095D01*
X137644095Y-131452952D01*
X137072666Y-132024380D01*
X137691714Y-132024380D01*
X149423333Y-131929142D02*
X149375714Y-131976761D01*
X149232857Y-132024380D01*
X149137619Y-132024380D01*
X148994761Y-131976761D01*
X148899523Y-131881523D01*
X148851904Y-131786285D01*
X148804285Y-131595809D01*
X148804285Y-131452952D01*
X148851904Y-131262476D01*
X148899523Y-131167238D01*
X148994761Y-131072000D01*
X149137619Y-131024380D01*
X149232857Y-131024380D01*
X149375714Y-131072000D01*
X149423333Y-131119619D01*
X149756666Y-131024380D02*
X150375714Y-131024380D01*
X150042380Y-131405333D01*
X150185238Y-131405333D01*
X150280476Y-131452952D01*
X150328095Y-131500571D01*
X150375714Y-131595809D01*
X150375714Y-131833904D01*
X150328095Y-131929142D01*
X150280476Y-131976761D01*
X150185238Y-132024380D01*
X149899523Y-132024380D01*
X149804285Y-131976761D01*
X149756666Y-131929142D01*
X124380666Y-123912380D02*
X124380666Y-124626666D01*
X124333047Y-124769523D01*
X124237809Y-124864761D01*
X124094952Y-124912380D01*
X123999714Y-124912380D01*
X124809238Y-124007619D02*
X124856857Y-123960000D01*
X124952095Y-123912380D01*
X125190190Y-123912380D01*
X125285428Y-123960000D01*
X125333047Y-124007619D01*
X125380666Y-124102857D01*
X125380666Y-124198095D01*
X125333047Y-124340952D01*
X124761619Y-124912380D01*
X125380666Y-124912380D01*
X148423333Y-96972380D02*
X148090000Y-96496190D01*
X147851904Y-96972380D02*
X147851904Y-95972380D01*
X148232857Y-95972380D01*
X148328095Y-96020000D01*
X148375714Y-96067619D01*
X148423333Y-96162857D01*
X148423333Y-96305714D01*
X148375714Y-96400952D01*
X148328095Y-96448571D01*
X148232857Y-96496190D01*
X147851904Y-96496190D01*
X149375714Y-96972380D02*
X148804285Y-96972380D01*
X149090000Y-96972380D02*
X149090000Y-95972380D01*
X148994761Y-96115238D01*
X148899523Y-96210476D01*
X148804285Y-96258095D01*
X136993333Y-94432380D02*
X136660000Y-93956190D01*
X136421904Y-94432380D02*
X136421904Y-93432380D01*
X136802857Y-93432380D01*
X136898095Y-93480000D01*
X136945714Y-93527619D01*
X136993333Y-93622857D01*
X136993333Y-93765714D01*
X136945714Y-93860952D01*
X136898095Y-93908571D01*
X136802857Y-93956190D01*
X136421904Y-93956190D01*
X137374285Y-93527619D02*
X137421904Y-93480000D01*
X137517142Y-93432380D01*
X137755238Y-93432380D01*
X137850476Y-93480000D01*
X137898095Y-93527619D01*
X137945714Y-93622857D01*
X137945714Y-93718095D01*
X137898095Y-93860952D01*
X137326666Y-94432380D01*
X137945714Y-94432380D01*
X156043333Y-96972380D02*
X155710000Y-96496190D01*
X155471904Y-96972380D02*
X155471904Y-95972380D01*
X155852857Y-95972380D01*
X155948095Y-96020000D01*
X155995714Y-96067619D01*
X156043333Y-96162857D01*
X156043333Y-96305714D01*
X155995714Y-96400952D01*
X155948095Y-96448571D01*
X155852857Y-96496190D01*
X155471904Y-96496190D01*
X156376666Y-95972380D02*
X156995714Y-95972380D01*
X156662380Y-96353333D01*
X156805238Y-96353333D01*
X156900476Y-96400952D01*
X156948095Y-96448571D01*
X156995714Y-96543809D01*
X156995714Y-96781904D01*
X156948095Y-96877142D01*
X156900476Y-96924761D01*
X156805238Y-96972380D01*
X156519523Y-96972380D01*
X156424285Y-96924761D01*
X156376666Y-96877142D01*
X152233333Y-96972380D02*
X151900000Y-96496190D01*
X151661904Y-96972380D02*
X151661904Y-95972380D01*
X152042857Y-95972380D01*
X152138095Y-96020000D01*
X152185714Y-96067619D01*
X152233333Y-96162857D01*
X152233333Y-96305714D01*
X152185714Y-96400952D01*
X152138095Y-96448571D01*
X152042857Y-96496190D01*
X151661904Y-96496190D01*
X153090476Y-96305714D02*
X153090476Y-96972380D01*
X152852380Y-95924761D02*
X152614285Y-96639047D01*
X153233333Y-96639047D01*
X144613333Y-96972380D02*
X144280000Y-96496190D01*
X144041904Y-96972380D02*
X144041904Y-95972380D01*
X144422857Y-95972380D01*
X144518095Y-96020000D01*
X144565714Y-96067619D01*
X144613333Y-96162857D01*
X144613333Y-96305714D01*
X144565714Y-96400952D01*
X144518095Y-96448571D01*
X144422857Y-96496190D01*
X144041904Y-96496190D01*
X145518095Y-95972380D02*
X145041904Y-95972380D01*
X144994285Y-96448571D01*
X145041904Y-96400952D01*
X145137142Y-96353333D01*
X145375238Y-96353333D01*
X145470476Y-96400952D01*
X145518095Y-96448571D01*
X145565714Y-96543809D01*
X145565714Y-96781904D01*
X145518095Y-96877142D01*
X145470476Y-96924761D01*
X145375238Y-96972380D01*
X145137142Y-96972380D01*
X145041904Y-96924761D01*
X144994285Y-96877142D01*
X129373333Y-96972380D02*
X129040000Y-96496190D01*
X128801904Y-96972380D02*
X128801904Y-95972380D01*
X129182857Y-95972380D01*
X129278095Y-96020000D01*
X129325714Y-96067619D01*
X129373333Y-96162857D01*
X129373333Y-96305714D01*
X129325714Y-96400952D01*
X129278095Y-96448571D01*
X129182857Y-96496190D01*
X128801904Y-96496190D01*
X130230476Y-95972380D02*
X130040000Y-95972380D01*
X129944761Y-96020000D01*
X129897142Y-96067619D01*
X129801904Y-96210476D01*
X129754285Y-96400952D01*
X129754285Y-96781904D01*
X129801904Y-96877142D01*
X129849523Y-96924761D01*
X129944761Y-96972380D01*
X130135238Y-96972380D01*
X130230476Y-96924761D01*
X130278095Y-96877142D01*
X130325714Y-96781904D01*
X130325714Y-96543809D01*
X130278095Y-96448571D01*
X130230476Y-96400952D01*
X130135238Y-96353333D01*
X129944761Y-96353333D01*
X129849523Y-96400952D01*
X129801904Y-96448571D01*
X129754285Y-96543809D01*
X125563333Y-96972380D02*
X125230000Y-96496190D01*
X124991904Y-96972380D02*
X124991904Y-95972380D01*
X125372857Y-95972380D01*
X125468095Y-96020000D01*
X125515714Y-96067619D01*
X125563333Y-96162857D01*
X125563333Y-96305714D01*
X125515714Y-96400952D01*
X125468095Y-96448571D01*
X125372857Y-96496190D01*
X124991904Y-96496190D01*
X125896666Y-95972380D02*
X126563333Y-95972380D01*
X126134761Y-96972380D01*
X121753333Y-96972380D02*
X121420000Y-96496190D01*
X121181904Y-96972380D02*
X121181904Y-95972380D01*
X121562857Y-95972380D01*
X121658095Y-96020000D01*
X121705714Y-96067619D01*
X121753333Y-96162857D01*
X121753333Y-96305714D01*
X121705714Y-96400952D01*
X121658095Y-96448571D01*
X121562857Y-96496190D01*
X121181904Y-96496190D01*
X122324761Y-96400952D02*
X122229523Y-96353333D01*
X122181904Y-96305714D01*
X122134285Y-96210476D01*
X122134285Y-96162857D01*
X122181904Y-96067619D01*
X122229523Y-96020000D01*
X122324761Y-95972380D01*
X122515238Y-95972380D01*
X122610476Y-96020000D01*
X122658095Y-96067619D01*
X122705714Y-96162857D01*
X122705714Y-96210476D01*
X122658095Y-96305714D01*
X122610476Y-96353333D01*
X122515238Y-96400952D01*
X122324761Y-96400952D01*
X122229523Y-96448571D01*
X122181904Y-96496190D01*
X122134285Y-96591428D01*
X122134285Y-96781904D01*
X122181904Y-96877142D01*
X122229523Y-96924761D01*
X122324761Y-96972380D01*
X122515238Y-96972380D01*
X122610476Y-96924761D01*
X122658095Y-96877142D01*
X122705714Y-96781904D01*
X122705714Y-96591428D01*
X122658095Y-96496190D01*
X122610476Y-96448571D01*
X122515238Y-96400952D01*
X117943333Y-96972380D02*
X117610000Y-96496190D01*
X117371904Y-96972380D02*
X117371904Y-95972380D01*
X117752857Y-95972380D01*
X117848095Y-96020000D01*
X117895714Y-96067619D01*
X117943333Y-96162857D01*
X117943333Y-96305714D01*
X117895714Y-96400952D01*
X117848095Y-96448571D01*
X117752857Y-96496190D01*
X117371904Y-96496190D01*
X118419523Y-96972380D02*
X118610000Y-96972380D01*
X118705238Y-96924761D01*
X118752857Y-96877142D01*
X118848095Y-96734285D01*
X118895714Y-96543809D01*
X118895714Y-96162857D01*
X118848095Y-96067619D01*
X118800476Y-96020000D01*
X118705238Y-95972380D01*
X118514761Y-95972380D01*
X118419523Y-96020000D01*
X118371904Y-96067619D01*
X118324285Y-96162857D01*
X118324285Y-96400952D01*
X118371904Y-96496190D01*
X118419523Y-96543809D01*
X118514761Y-96591428D01*
X118705238Y-96591428D01*
X118800476Y-96543809D01*
X118848095Y-96496190D01*
X118895714Y-96400952D01*
M02*
