M48
; DRILL file {KiCad (5.1.5)-3} date 01/03/20 21:14:14
; FORMAT={-:-/ absolute / inch / decimal}
; #@! TF.CreationDate,2020-01-03T21:14:14+01:00
; #@! TF.GenerationSoftware,Kicad,Pcbnew,(5.1.5)-3
FMAT,2
INCH
T1C0.0177
T2C0.0315
T3C0.0394
T4C0.0433
T5C0.1260
T6C0.1378
%
G90
G05
T2
X5.3079Y-3.9
X5.5Y-3.9
X4.7Y-4.7
X4.7Y-4.8
X4.7Y-4.9
X4.7Y-5.0
X5.85Y-3.65
X5.85Y-3.95
X4.95Y-3.65
X4.95Y-3.95
X4.75Y-4.2
X4.75Y-4.5
X4.85Y-4.2
X4.85Y-4.5
X4.95Y-4.2
X4.95Y-4.5
X5.05Y-4.2
X5.05Y-4.5
X5.15Y-4.2
X5.15Y-4.5
X5.25Y-4.2
X5.25Y-4.5
X5.35Y-4.2
X5.35Y-4.5
X5.45Y-4.2
X5.45Y-4.5
X5.55Y-4.2
X5.55Y-4.5
X5.65Y-4.2
X5.65Y-4.5
X5.75Y-4.2
X5.75Y-4.5
X5.85Y-4.2
X5.85Y-4.5
X5.95Y-4.2
X5.95Y-4.5
X6.05Y-4.2
X6.05Y-4.5
X5.2516Y-3.55
X5.35Y-3.55
X4.65Y-3.65
X4.65Y-3.95
X4.8Y-3.65
X4.8Y-3.95
X5.35Y-5.25
X5.4287Y-5.25
X6.0Y-3.65
X6.0Y-3.95
X5.45Y-3.55
X5.5484Y-3.55
X5.25Y-3.7
X5.55Y-3.7
X5.85Y-5.25
X5.9287Y-5.25
X6.15Y-3.65
X6.15Y-3.95
X5.1Y-3.65
X5.1Y-3.95
X5.6Y-5.25
X5.6787Y-5.25
X5.7Y-3.65
X5.7Y-3.95
T3
X5.05Y-2.8
X5.05Y-3.3
X5.15Y-2.8
X5.15Y-3.3
X5.25Y-2.8
X5.25Y-3.3
X5.35Y-2.8
X5.35Y-3.3
X5.45Y-2.8
X5.45Y-3.3
X5.55Y-2.8
X5.55Y-3.3
X5.65Y-2.8
X5.65Y-3.3
X5.75Y-2.8
X5.75Y-3.3
T4
X5.5Y-4.75
X5.5Y-4.85
X5.5Y-4.95
T5
X4.65Y-5.3
X6.15Y-5.3
T6
X6.1559Y-4.85
T1
G00X5.8815Y-4.7093
M15
G01X5.913Y-4.7093
M16
G05
G00X5.913Y-4.9907
M15
G01X5.8815Y-4.9907
M16
G05
T3
G00X5.0106Y-4.9
M15
G01X5.0894Y-4.9
M16
G05
G00X5.0106Y-5.1362
M15
G01X5.0894Y-5.1362
M16
G05
G00X5.235Y-5.0575
M15
G01X5.235Y-4.9787
M16
G05
T0
M30
