G04 #@! TF.GenerationSoftware,KiCad,Pcbnew,(5.1.5)-3*
G04 #@! TF.CreationDate,2020-01-03T21:25:54+01:00*
G04 #@! TF.ProjectId,DHT_Disp_1,4448545f-4469-4737-905f-312e6b696361,rev?*
G04 #@! TF.SameCoordinates,Original*
G04 #@! TF.FileFunction,Copper,L1,Top*
G04 #@! TF.FilePolarity,Positive*
%FSLAX46Y46*%
G04 Gerber Fmt 4.6, Leading zero omitted, Abs format (unit mm)*
G04 Created by KiCad (PCBNEW (5.1.5)-3) date 2020-01-03 21:25:54*
%MOMM*%
%LPD*%
G04 APERTURE LIST*
%ADD10O,1.900000X1.050000*%
%ADD11C,1.500000*%
%ADD12R,1.600000X1.600000*%
%ADD13O,1.600000X1.600000*%
%ADD14R,2.000000X1.905000*%
%ADD15O,2.000000X1.905000*%
%ADD16R,1.700000X1.700000*%
%ADD17C,1.700000*%
%ADD18R,1.500000X1.500000*%
%ADD19C,1.600000*%
%ADD20R,3.500000X3.500000*%
%ADD21C,0.100000*%
%ADD22C,0.250000*%
%ADD23C,0.254000*%
G04 APERTURE END LIST*
D10*
X149790000Y-126765000D03*
X149790000Y-119615000D03*
D11*
X134820000Y-99060000D03*
X139700000Y-99060000D03*
D12*
X153670000Y-106680000D03*
D13*
X120650000Y-114300000D03*
X151130000Y-106680000D03*
X123190000Y-114300000D03*
X148590000Y-106680000D03*
X125730000Y-114300000D03*
X146050000Y-106680000D03*
X128270000Y-114300000D03*
X143510000Y-106680000D03*
X130810000Y-114300000D03*
X140970000Y-106680000D03*
X133350000Y-114300000D03*
X138430000Y-106680000D03*
X135890000Y-114300000D03*
X135890000Y-106680000D03*
X138430000Y-114300000D03*
X133350000Y-106680000D03*
X140970000Y-114300000D03*
X130810000Y-106680000D03*
X143510000Y-114300000D03*
X128270000Y-106680000D03*
X146050000Y-114300000D03*
X125730000Y-106680000D03*
X148590000Y-114300000D03*
X123190000Y-106680000D03*
X151130000Y-114300000D03*
X120650000Y-106680000D03*
X153670000Y-114300000D03*
D14*
X139700000Y-120650000D03*
D15*
X139700000Y-123190000D03*
X139700000Y-125730000D03*
D16*
X128270000Y-83820000D03*
D17*
X130810000Y-83820000D03*
X133350000Y-83820000D03*
X135890000Y-83820000D03*
X138430000Y-83820000D03*
X140970000Y-83820000D03*
X143510000Y-83820000D03*
X146050000Y-83820000D03*
X146050000Y-71120000D03*
X143510000Y-71120000D03*
X140970000Y-71120000D03*
X138430000Y-71120000D03*
X135890000Y-71120000D03*
X133350000Y-71120000D03*
X130810000Y-71120000D03*
X128270000Y-71120000D03*
D18*
X119380000Y-119380000D03*
D11*
X119380000Y-121920000D03*
X119380000Y-124460000D03*
X119380000Y-127000000D03*
D19*
X138430000Y-90170000D03*
X140930000Y-90170000D03*
X133390000Y-90170000D03*
X135890000Y-90170000D03*
X142240000Y-133350000D03*
X144240000Y-133350000D03*
X135890000Y-133350000D03*
X137890000Y-133350000D03*
X150590000Y-133350000D03*
X148590000Y-133350000D03*
D20*
X128270000Y-124460000D03*
G04 #@! TA.AperFunction,ComponentPad*
D21*
G36*
X129343513Y-128963611D02*
G01*
X129416318Y-128974411D01*
X129487714Y-128992295D01*
X129557013Y-129017090D01*
X129623548Y-129048559D01*
X129686678Y-129086398D01*
X129745795Y-129130242D01*
X129800330Y-129179670D01*
X129849758Y-129234205D01*
X129893602Y-129293322D01*
X129931441Y-129356452D01*
X129962910Y-129422987D01*
X129987705Y-129492286D01*
X130005589Y-129563682D01*
X130016389Y-129636487D01*
X130020000Y-129710000D01*
X130020000Y-131210000D01*
X130016389Y-131283513D01*
X130005589Y-131356318D01*
X129987705Y-131427714D01*
X129962910Y-131497013D01*
X129931441Y-131563548D01*
X129893602Y-131626678D01*
X129849758Y-131685795D01*
X129800330Y-131740330D01*
X129745795Y-131789758D01*
X129686678Y-131833602D01*
X129623548Y-131871441D01*
X129557013Y-131902910D01*
X129487714Y-131927705D01*
X129416318Y-131945589D01*
X129343513Y-131956389D01*
X129270000Y-131960000D01*
X127270000Y-131960000D01*
X127196487Y-131956389D01*
X127123682Y-131945589D01*
X127052286Y-131927705D01*
X126982987Y-131902910D01*
X126916452Y-131871441D01*
X126853322Y-131833602D01*
X126794205Y-131789758D01*
X126739670Y-131740330D01*
X126690242Y-131685795D01*
X126646398Y-131626678D01*
X126608559Y-131563548D01*
X126577090Y-131497013D01*
X126552295Y-131427714D01*
X126534411Y-131356318D01*
X126523611Y-131283513D01*
X126520000Y-131210000D01*
X126520000Y-129710000D01*
X126523611Y-129636487D01*
X126534411Y-129563682D01*
X126552295Y-129492286D01*
X126577090Y-129422987D01*
X126608559Y-129356452D01*
X126646398Y-129293322D01*
X126690242Y-129234205D01*
X126739670Y-129179670D01*
X126794205Y-129130242D01*
X126853322Y-129086398D01*
X126916452Y-129048559D01*
X126982987Y-129017090D01*
X127052286Y-128992295D01*
X127123682Y-128974411D01*
X127196487Y-128963611D01*
X127270000Y-128960000D01*
X129270000Y-128960000D01*
X129343513Y-128963611D01*
G37*
G04 #@! TD.AperFunction*
G04 #@! TA.AperFunction,ComponentPad*
G36*
X133930765Y-125714213D02*
G01*
X134015704Y-125726813D01*
X134098999Y-125747677D01*
X134179848Y-125776605D01*
X134257472Y-125813319D01*
X134331124Y-125857464D01*
X134400094Y-125908616D01*
X134463718Y-125966282D01*
X134521384Y-126029906D01*
X134572536Y-126098876D01*
X134616681Y-126172528D01*
X134653395Y-126250152D01*
X134682323Y-126331001D01*
X134703187Y-126414296D01*
X134715787Y-126499235D01*
X134720000Y-126585000D01*
X134720000Y-128335000D01*
X134715787Y-128420765D01*
X134703187Y-128505704D01*
X134682323Y-128588999D01*
X134653395Y-128669848D01*
X134616681Y-128747472D01*
X134572536Y-128821124D01*
X134521384Y-128890094D01*
X134463718Y-128953718D01*
X134400094Y-129011384D01*
X134331124Y-129062536D01*
X134257472Y-129106681D01*
X134179848Y-129143395D01*
X134098999Y-129172323D01*
X134015704Y-129193187D01*
X133930765Y-129205787D01*
X133845000Y-129210000D01*
X132095000Y-129210000D01*
X132009235Y-129205787D01*
X131924296Y-129193187D01*
X131841001Y-129172323D01*
X131760152Y-129143395D01*
X131682528Y-129106681D01*
X131608876Y-129062536D01*
X131539906Y-129011384D01*
X131476282Y-128953718D01*
X131418616Y-128890094D01*
X131367464Y-128821124D01*
X131323319Y-128747472D01*
X131286605Y-128669848D01*
X131257677Y-128588999D01*
X131236813Y-128505704D01*
X131224213Y-128420765D01*
X131220000Y-128335000D01*
X131220000Y-126585000D01*
X131224213Y-126499235D01*
X131236813Y-126414296D01*
X131257677Y-126331001D01*
X131286605Y-126250152D01*
X131323319Y-126172528D01*
X131367464Y-126098876D01*
X131418616Y-126029906D01*
X131476282Y-125966282D01*
X131539906Y-125908616D01*
X131608876Y-125857464D01*
X131682528Y-125813319D01*
X131760152Y-125776605D01*
X131841001Y-125747677D01*
X131924296Y-125726813D01*
X132009235Y-125714213D01*
X132095000Y-125710000D01*
X133845000Y-125710000D01*
X133930765Y-125714213D01*
G37*
G04 #@! TD.AperFunction*
D19*
X144780000Y-92710000D03*
D13*
X144780000Y-100330000D03*
D19*
X133350000Y-93980000D03*
D13*
X140970000Y-93980000D03*
X156210000Y-92710000D03*
D19*
X156210000Y-100330000D03*
X152400000Y-100330000D03*
D13*
X152400000Y-92710000D03*
X148590000Y-92710000D03*
D19*
X148590000Y-100330000D03*
X129540000Y-100330000D03*
D13*
X129540000Y-92710000D03*
X125730000Y-92710000D03*
D19*
X125730000Y-100330000D03*
X121920000Y-100330000D03*
D13*
X121920000Y-92710000D03*
X118110000Y-92710000D03*
D19*
X118110000Y-100330000D03*
D22*
X139700000Y-123190000D02*
X142240000Y-123190000D01*
X138430000Y-109220000D02*
X133350000Y-114300000D01*
X138430000Y-106680000D02*
X138430000Y-109220000D01*
D23*
G36*
X158867869Y-69254722D02*
G01*
X158981246Y-69288953D01*
X159085819Y-69344555D01*
X159177596Y-69419407D01*
X159253091Y-69510664D01*
X159309419Y-69614844D01*
X159344440Y-69727976D01*
X159360000Y-69876022D01*
X159360001Y-137127711D01*
X159345278Y-137277869D01*
X159311047Y-137391246D01*
X159255446Y-137495817D01*
X159180594Y-137587595D01*
X159089335Y-137663091D01*
X158985160Y-137719419D01*
X158872024Y-137754440D01*
X158723979Y-137770000D01*
X115602279Y-137770000D01*
X115452131Y-137755278D01*
X115338754Y-137721047D01*
X115234183Y-137665446D01*
X115142405Y-137590594D01*
X115066909Y-137499335D01*
X115010581Y-137395160D01*
X114975560Y-137282024D01*
X114960000Y-137133979D01*
X114960000Y-134399872D01*
X115875000Y-134399872D01*
X115875000Y-134840128D01*
X115960890Y-135271925D01*
X116129369Y-135678669D01*
X116373962Y-136044729D01*
X116685271Y-136356038D01*
X117051331Y-136600631D01*
X117458075Y-136769110D01*
X117889872Y-136855000D01*
X118330128Y-136855000D01*
X118761925Y-136769110D01*
X119168669Y-136600631D01*
X119534729Y-136356038D01*
X119846038Y-136044729D01*
X120090631Y-135678669D01*
X120259110Y-135271925D01*
X120345000Y-134840128D01*
X120345000Y-134399872D01*
X120259110Y-133968075D01*
X120090631Y-133561331D01*
X119854988Y-133208665D01*
X134455000Y-133208665D01*
X134455000Y-133491335D01*
X134510147Y-133768574D01*
X134618320Y-134029727D01*
X134775363Y-134264759D01*
X134975241Y-134464637D01*
X135210273Y-134621680D01*
X135471426Y-134729853D01*
X135748665Y-134785000D01*
X136031335Y-134785000D01*
X136308574Y-134729853D01*
X136569727Y-134621680D01*
X136804759Y-134464637D01*
X137004637Y-134264759D01*
X137161680Y-134029727D01*
X137269853Y-133768574D01*
X137325000Y-133491335D01*
X137325000Y-133208665D01*
X142805000Y-133208665D01*
X142805000Y-133491335D01*
X142860147Y-133768574D01*
X142968320Y-134029727D01*
X143125363Y-134264759D01*
X143325241Y-134464637D01*
X143560273Y-134621680D01*
X143821426Y-134729853D01*
X144098665Y-134785000D01*
X144381335Y-134785000D01*
X144658574Y-134729853D01*
X144919727Y-134621680D01*
X145154759Y-134464637D01*
X145354637Y-134264759D01*
X145511680Y-134029727D01*
X145619853Y-133768574D01*
X145675000Y-133491335D01*
X145675000Y-133208665D01*
X147155000Y-133208665D01*
X147155000Y-133491335D01*
X147210147Y-133768574D01*
X147318320Y-134029727D01*
X147475363Y-134264759D01*
X147675241Y-134464637D01*
X147910273Y-134621680D01*
X148171426Y-134729853D01*
X148448665Y-134785000D01*
X148731335Y-134785000D01*
X149008574Y-134729853D01*
X149269727Y-134621680D01*
X149504759Y-134464637D01*
X149569524Y-134399872D01*
X153975000Y-134399872D01*
X153975000Y-134840128D01*
X154060890Y-135271925D01*
X154229369Y-135678669D01*
X154473962Y-136044729D01*
X154785271Y-136356038D01*
X155151331Y-136600631D01*
X155558075Y-136769110D01*
X155989872Y-136855000D01*
X156430128Y-136855000D01*
X156861925Y-136769110D01*
X157268669Y-136600631D01*
X157634729Y-136356038D01*
X157946038Y-136044729D01*
X158190631Y-135678669D01*
X158359110Y-135271925D01*
X158445000Y-134840128D01*
X158445000Y-134399872D01*
X158359110Y-133968075D01*
X158190631Y-133561331D01*
X157946038Y-133195271D01*
X157634729Y-132883962D01*
X157268669Y-132639369D01*
X156861925Y-132470890D01*
X156430128Y-132385000D01*
X155989872Y-132385000D01*
X155558075Y-132470890D01*
X155151331Y-132639369D01*
X154785271Y-132883962D01*
X154473962Y-133195271D01*
X154229369Y-133561331D01*
X154060890Y-133968075D01*
X153975000Y-134399872D01*
X149569524Y-134399872D01*
X149704637Y-134264759D01*
X149861680Y-134029727D01*
X149969853Y-133768574D01*
X150025000Y-133491335D01*
X150025000Y-133208665D01*
X149969853Y-132931426D01*
X149861680Y-132670273D01*
X149704637Y-132435241D01*
X149504759Y-132235363D01*
X149269727Y-132078320D01*
X149008574Y-131970147D01*
X148731335Y-131915000D01*
X148448665Y-131915000D01*
X148171426Y-131970147D01*
X147910273Y-132078320D01*
X147675241Y-132235363D01*
X147475363Y-132435241D01*
X147318320Y-132670273D01*
X147210147Y-132931426D01*
X147155000Y-133208665D01*
X145675000Y-133208665D01*
X145619853Y-132931426D01*
X145511680Y-132670273D01*
X145354637Y-132435241D01*
X145154759Y-132235363D01*
X144919727Y-132078320D01*
X144658574Y-131970147D01*
X144381335Y-131915000D01*
X144098665Y-131915000D01*
X143821426Y-131970147D01*
X143560273Y-132078320D01*
X143325241Y-132235363D01*
X143125363Y-132435241D01*
X142968320Y-132670273D01*
X142860147Y-132931426D01*
X142805000Y-133208665D01*
X137325000Y-133208665D01*
X137269853Y-132931426D01*
X137161680Y-132670273D01*
X137004637Y-132435241D01*
X136804759Y-132235363D01*
X136569727Y-132078320D01*
X136308574Y-131970147D01*
X136031335Y-131915000D01*
X135748665Y-131915000D01*
X135471426Y-131970147D01*
X135210273Y-132078320D01*
X134975241Y-132235363D01*
X134775363Y-132435241D01*
X134618320Y-132670273D01*
X134510147Y-132931426D01*
X134455000Y-133208665D01*
X119854988Y-133208665D01*
X119846038Y-133195271D01*
X119534729Y-132883962D01*
X119168669Y-132639369D01*
X118761925Y-132470890D01*
X118330128Y-132385000D01*
X117889872Y-132385000D01*
X117458075Y-132470890D01*
X117051331Y-132639369D01*
X116685271Y-132883962D01*
X116373962Y-133195271D01*
X116129369Y-133561331D01*
X115960890Y-133968075D01*
X115875000Y-134399872D01*
X114960000Y-134399872D01*
X114960000Y-118630000D01*
X117991928Y-118630000D01*
X117991928Y-120130000D01*
X118004188Y-120254482D01*
X118040498Y-120374180D01*
X118099463Y-120484494D01*
X118178815Y-120581185D01*
X118275506Y-120660537D01*
X118385820Y-120719502D01*
X118505518Y-120755812D01*
X118613483Y-120766445D01*
X118497114Y-120844201D01*
X118304201Y-121037114D01*
X118152629Y-121263957D01*
X118048225Y-121516011D01*
X117995000Y-121783589D01*
X117995000Y-122056411D01*
X118048225Y-122323989D01*
X118152629Y-122576043D01*
X118304201Y-122802886D01*
X118497114Y-122995799D01*
X118723957Y-123147371D01*
X118826873Y-123190000D01*
X118723957Y-123232629D01*
X118497114Y-123384201D01*
X118304201Y-123577114D01*
X118152629Y-123803957D01*
X118048225Y-124056011D01*
X117995000Y-124323589D01*
X117995000Y-124596411D01*
X118048225Y-124863989D01*
X118152629Y-125116043D01*
X118304201Y-125342886D01*
X118497114Y-125535799D01*
X118723957Y-125687371D01*
X118976011Y-125791775D01*
X119243589Y-125845000D01*
X119516411Y-125845000D01*
X119783989Y-125791775D01*
X120036043Y-125687371D01*
X120262886Y-125535799D01*
X120455799Y-125342886D01*
X120607371Y-125116043D01*
X120711775Y-124863989D01*
X120765000Y-124596411D01*
X120765000Y-124323589D01*
X120711775Y-124056011D01*
X120607371Y-123803957D01*
X120455799Y-123577114D01*
X120262886Y-123384201D01*
X120036043Y-123232629D01*
X119933127Y-123190000D01*
X120036043Y-123147371D01*
X120262886Y-122995799D01*
X120455799Y-122802886D01*
X120517863Y-122710000D01*
X125881928Y-122710000D01*
X125881928Y-126210000D01*
X125894188Y-126334482D01*
X125930498Y-126454180D01*
X125989463Y-126564494D01*
X126068815Y-126661185D01*
X126165506Y-126740537D01*
X126275820Y-126799502D01*
X126395518Y-126835812D01*
X126520000Y-126848072D01*
X130020000Y-126848072D01*
X130144482Y-126835812D01*
X130264180Y-126799502D01*
X130374494Y-126740537D01*
X130471185Y-126661185D01*
X130550537Y-126564494D01*
X130591494Y-126487869D01*
X130581928Y-126585000D01*
X130581928Y-128335000D01*
X130611001Y-128630186D01*
X130697104Y-128914028D01*
X130836927Y-129175618D01*
X131025097Y-129404903D01*
X131254382Y-129593073D01*
X131515972Y-129732896D01*
X131799814Y-129818999D01*
X132095000Y-129848072D01*
X133845000Y-129848072D01*
X134140186Y-129818999D01*
X134424028Y-129732896D01*
X134685618Y-129593073D01*
X134914903Y-129404903D01*
X135103073Y-129175618D01*
X135242896Y-128914028D01*
X135328999Y-128630186D01*
X135358072Y-128335000D01*
X135358072Y-126585000D01*
X135328999Y-126289814D01*
X135242896Y-126005972D01*
X135103073Y-125744382D01*
X135091270Y-125730000D01*
X138057319Y-125730000D01*
X138087970Y-126041204D01*
X138178745Y-126340449D01*
X138326155Y-126616235D01*
X138524537Y-126857963D01*
X138766265Y-127056345D01*
X139042051Y-127203755D01*
X139341296Y-127294530D01*
X139574514Y-127317500D01*
X139825486Y-127317500D01*
X140058704Y-127294530D01*
X140357949Y-127203755D01*
X140633735Y-127056345D01*
X140875463Y-126857963D01*
X140951756Y-126765000D01*
X148199388Y-126765000D01*
X148221785Y-126992400D01*
X148288115Y-127211060D01*
X148395829Y-127412579D01*
X148540788Y-127589212D01*
X148717421Y-127734171D01*
X148918940Y-127841885D01*
X149137600Y-127908215D01*
X149308021Y-127925000D01*
X150271979Y-127925000D01*
X150442400Y-127908215D01*
X150661060Y-127841885D01*
X150862579Y-127734171D01*
X151039212Y-127589212D01*
X151184171Y-127412579D01*
X151291885Y-127211060D01*
X151358215Y-126992400D01*
X151380612Y-126765000D01*
X151358215Y-126537600D01*
X151291885Y-126318940D01*
X151184171Y-126117421D01*
X151039212Y-125940788D01*
X150862579Y-125795829D01*
X150661060Y-125688115D01*
X150442400Y-125621785D01*
X150271979Y-125605000D01*
X149308021Y-125605000D01*
X149137600Y-125621785D01*
X148918940Y-125688115D01*
X148717421Y-125795829D01*
X148540788Y-125940788D01*
X148395829Y-126117421D01*
X148288115Y-126318940D01*
X148221785Y-126537600D01*
X148199388Y-126765000D01*
X140951756Y-126765000D01*
X141073845Y-126616235D01*
X141221255Y-126340449D01*
X141312030Y-126041204D01*
X141342681Y-125730000D01*
X141312030Y-125418796D01*
X141221255Y-125119551D01*
X141073845Y-124843765D01*
X140875463Y-124602037D01*
X140633735Y-124403655D01*
X140357949Y-124256245D01*
X140058704Y-124165470D01*
X139825486Y-124142500D01*
X139574514Y-124142500D01*
X139341296Y-124165470D01*
X139042051Y-124256245D01*
X138766265Y-124403655D01*
X138524537Y-124602037D01*
X138326155Y-124843765D01*
X138178745Y-125119551D01*
X138087970Y-125418796D01*
X138057319Y-125730000D01*
X135091270Y-125730000D01*
X134914903Y-125515097D01*
X134685618Y-125326927D01*
X134424028Y-125187104D01*
X134140186Y-125101001D01*
X133845000Y-125071928D01*
X132095000Y-125071928D01*
X131799814Y-125101001D01*
X131515972Y-125187104D01*
X131254382Y-125326927D01*
X131025097Y-125515097D01*
X130836927Y-125744382D01*
X130697104Y-126005972D01*
X130658072Y-126134643D01*
X130658072Y-122955098D01*
X153975000Y-122955098D01*
X153975000Y-123424902D01*
X154066654Y-123885679D01*
X154246440Y-124319721D01*
X154507450Y-124710349D01*
X154839651Y-125042550D01*
X155230279Y-125303560D01*
X155664321Y-125483346D01*
X156125098Y-125575000D01*
X156594902Y-125575000D01*
X157055679Y-125483346D01*
X157489721Y-125303560D01*
X157880349Y-125042550D01*
X158212550Y-124710349D01*
X158473560Y-124319721D01*
X158653346Y-123885679D01*
X158745000Y-123424902D01*
X158745000Y-122955098D01*
X158653346Y-122494321D01*
X158473560Y-122060279D01*
X158212550Y-121669651D01*
X157880349Y-121337450D01*
X157489721Y-121076440D01*
X157055679Y-120896654D01*
X156594902Y-120805000D01*
X156125098Y-120805000D01*
X155664321Y-120896654D01*
X155230279Y-121076440D01*
X154839651Y-121337450D01*
X154507450Y-121669651D01*
X154246440Y-122060279D01*
X154066654Y-122494321D01*
X153975000Y-122955098D01*
X130658072Y-122955098D01*
X130658072Y-122710000D01*
X130645812Y-122585518D01*
X130609502Y-122465820D01*
X130550537Y-122355506D01*
X130471185Y-122258815D01*
X130374494Y-122179463D01*
X130264180Y-122120498D01*
X130144482Y-122084188D01*
X130020000Y-122071928D01*
X126520000Y-122071928D01*
X126395518Y-122084188D01*
X126275820Y-122120498D01*
X126165506Y-122179463D01*
X126068815Y-122258815D01*
X125989463Y-122355506D01*
X125930498Y-122465820D01*
X125894188Y-122585518D01*
X125881928Y-122710000D01*
X120517863Y-122710000D01*
X120607371Y-122576043D01*
X120711775Y-122323989D01*
X120765000Y-122056411D01*
X120765000Y-121783589D01*
X120711775Y-121516011D01*
X120607371Y-121263957D01*
X120455799Y-121037114D01*
X120262886Y-120844201D01*
X120146517Y-120766445D01*
X120254482Y-120755812D01*
X120374180Y-120719502D01*
X120484494Y-120660537D01*
X120581185Y-120581185D01*
X120660537Y-120484494D01*
X120719502Y-120374180D01*
X120755812Y-120254482D01*
X120768072Y-120130000D01*
X120768072Y-119697500D01*
X138061928Y-119697500D01*
X138061928Y-121602500D01*
X138074188Y-121726982D01*
X138110498Y-121846680D01*
X138169463Y-121956994D01*
X138248815Y-122053685D01*
X138345506Y-122133037D01*
X138455820Y-122192002D01*
X138575518Y-122228312D01*
X138700000Y-122240572D01*
X140700000Y-122240572D01*
X140824482Y-122228312D01*
X140944180Y-122192002D01*
X141054494Y-122133037D01*
X141151185Y-122053685D01*
X141230537Y-121956994D01*
X141289502Y-121846680D01*
X141325812Y-121726982D01*
X141338072Y-121602500D01*
X141338072Y-119697500D01*
X141329947Y-119615000D01*
X148199388Y-119615000D01*
X148221785Y-119842400D01*
X148288115Y-120061060D01*
X148395829Y-120262579D01*
X148540788Y-120439212D01*
X148717421Y-120584171D01*
X148918940Y-120691885D01*
X149137600Y-120758215D01*
X149308021Y-120775000D01*
X150271979Y-120775000D01*
X150442400Y-120758215D01*
X150661060Y-120691885D01*
X150862579Y-120584171D01*
X151039212Y-120439212D01*
X151184171Y-120262579D01*
X151291885Y-120061060D01*
X151358215Y-119842400D01*
X151380612Y-119615000D01*
X151358215Y-119387600D01*
X151291885Y-119168940D01*
X151184171Y-118967421D01*
X151039212Y-118790788D01*
X150862579Y-118645829D01*
X150661060Y-118538115D01*
X150442400Y-118471785D01*
X150271979Y-118455000D01*
X149308021Y-118455000D01*
X149137600Y-118471785D01*
X148918940Y-118538115D01*
X148717421Y-118645829D01*
X148540788Y-118790788D01*
X148395829Y-118967421D01*
X148288115Y-119168940D01*
X148221785Y-119387600D01*
X148199388Y-119615000D01*
X141329947Y-119615000D01*
X141325812Y-119573018D01*
X141289502Y-119453320D01*
X141230537Y-119343006D01*
X141151185Y-119246315D01*
X141054494Y-119166963D01*
X140944180Y-119107998D01*
X140824482Y-119071688D01*
X140700000Y-119059428D01*
X138700000Y-119059428D01*
X138575518Y-119071688D01*
X138455820Y-119107998D01*
X138345506Y-119166963D01*
X138248815Y-119246315D01*
X138169463Y-119343006D01*
X138110498Y-119453320D01*
X138074188Y-119573018D01*
X138061928Y-119697500D01*
X120768072Y-119697500D01*
X120768072Y-118630000D01*
X120755812Y-118505518D01*
X120719502Y-118385820D01*
X120660537Y-118275506D01*
X120581185Y-118178815D01*
X120484494Y-118099463D01*
X120374180Y-118040498D01*
X120254482Y-118004188D01*
X120130000Y-117991928D01*
X118630000Y-117991928D01*
X118505518Y-118004188D01*
X118385820Y-118040498D01*
X118275506Y-118099463D01*
X118178815Y-118178815D01*
X118099463Y-118275506D01*
X118040498Y-118385820D01*
X118004188Y-118505518D01*
X117991928Y-118630000D01*
X114960000Y-118630000D01*
X114960000Y-114158665D01*
X119215000Y-114158665D01*
X119215000Y-114441335D01*
X119270147Y-114718574D01*
X119378320Y-114979727D01*
X119535363Y-115214759D01*
X119735241Y-115414637D01*
X119970273Y-115571680D01*
X120231426Y-115679853D01*
X120508665Y-115735000D01*
X120791335Y-115735000D01*
X121068574Y-115679853D01*
X121329727Y-115571680D01*
X121564759Y-115414637D01*
X121764637Y-115214759D01*
X121920000Y-114982241D01*
X122075363Y-115214759D01*
X122275241Y-115414637D01*
X122510273Y-115571680D01*
X122771426Y-115679853D01*
X123048665Y-115735000D01*
X123331335Y-115735000D01*
X123608574Y-115679853D01*
X123869727Y-115571680D01*
X124104759Y-115414637D01*
X124304637Y-115214759D01*
X124460000Y-114982241D01*
X124615363Y-115214759D01*
X124815241Y-115414637D01*
X125050273Y-115571680D01*
X125311426Y-115679853D01*
X125588665Y-115735000D01*
X125871335Y-115735000D01*
X126148574Y-115679853D01*
X126409727Y-115571680D01*
X126644759Y-115414637D01*
X126844637Y-115214759D01*
X127000000Y-114982241D01*
X127155363Y-115214759D01*
X127355241Y-115414637D01*
X127590273Y-115571680D01*
X127851426Y-115679853D01*
X128128665Y-115735000D01*
X128411335Y-115735000D01*
X128688574Y-115679853D01*
X128949727Y-115571680D01*
X129184759Y-115414637D01*
X129384637Y-115214759D01*
X129540000Y-114982241D01*
X129695363Y-115214759D01*
X129895241Y-115414637D01*
X130130273Y-115571680D01*
X130391426Y-115679853D01*
X130668665Y-115735000D01*
X130951335Y-115735000D01*
X131228574Y-115679853D01*
X131489727Y-115571680D01*
X131724759Y-115414637D01*
X131924637Y-115214759D01*
X132080000Y-114982241D01*
X132235363Y-115214759D01*
X132435241Y-115414637D01*
X132670273Y-115571680D01*
X132931426Y-115679853D01*
X133208665Y-115735000D01*
X133491335Y-115735000D01*
X133768574Y-115679853D01*
X134029727Y-115571680D01*
X134264759Y-115414637D01*
X134464637Y-115214759D01*
X134620000Y-114982241D01*
X134775363Y-115214759D01*
X134975241Y-115414637D01*
X135210273Y-115571680D01*
X135471426Y-115679853D01*
X135748665Y-115735000D01*
X136031335Y-115735000D01*
X136308574Y-115679853D01*
X136569727Y-115571680D01*
X136804759Y-115414637D01*
X137004637Y-115214759D01*
X137161680Y-114979727D01*
X137269853Y-114718574D01*
X137325000Y-114441335D01*
X137325000Y-114158665D01*
X139535000Y-114158665D01*
X139535000Y-114441335D01*
X139590147Y-114718574D01*
X139698320Y-114979727D01*
X139855363Y-115214759D01*
X140055241Y-115414637D01*
X140290273Y-115571680D01*
X140551426Y-115679853D01*
X140828665Y-115735000D01*
X141111335Y-115735000D01*
X141388574Y-115679853D01*
X141649727Y-115571680D01*
X141884759Y-115414637D01*
X142084637Y-115214759D01*
X142240000Y-114982241D01*
X142395363Y-115214759D01*
X142595241Y-115414637D01*
X142830273Y-115571680D01*
X143091426Y-115679853D01*
X143368665Y-115735000D01*
X143651335Y-115735000D01*
X143928574Y-115679853D01*
X144189727Y-115571680D01*
X144424759Y-115414637D01*
X144624637Y-115214759D01*
X144780000Y-114982241D01*
X144935363Y-115214759D01*
X145135241Y-115414637D01*
X145370273Y-115571680D01*
X145631426Y-115679853D01*
X145908665Y-115735000D01*
X146191335Y-115735000D01*
X146468574Y-115679853D01*
X146729727Y-115571680D01*
X146964759Y-115414637D01*
X147164637Y-115214759D01*
X147320000Y-114982241D01*
X147475363Y-115214759D01*
X147675241Y-115414637D01*
X147910273Y-115571680D01*
X148171426Y-115679853D01*
X148448665Y-115735000D01*
X148731335Y-115735000D01*
X149008574Y-115679853D01*
X149269727Y-115571680D01*
X149504759Y-115414637D01*
X149704637Y-115214759D01*
X149860000Y-114982241D01*
X150015363Y-115214759D01*
X150215241Y-115414637D01*
X150450273Y-115571680D01*
X150711426Y-115679853D01*
X150988665Y-115735000D01*
X151271335Y-115735000D01*
X151548574Y-115679853D01*
X151809727Y-115571680D01*
X152044759Y-115414637D01*
X152244637Y-115214759D01*
X152400000Y-114982241D01*
X152555363Y-115214759D01*
X152755241Y-115414637D01*
X152990273Y-115571680D01*
X153251426Y-115679853D01*
X153528665Y-115735000D01*
X153811335Y-115735000D01*
X154088574Y-115679853D01*
X154349727Y-115571680D01*
X154584759Y-115414637D01*
X154784637Y-115214759D01*
X154941680Y-114979727D01*
X155049853Y-114718574D01*
X155105000Y-114441335D01*
X155105000Y-114158665D01*
X155049853Y-113881426D01*
X154941680Y-113620273D01*
X154784637Y-113385241D01*
X154584759Y-113185363D01*
X154349727Y-113028320D01*
X154088574Y-112920147D01*
X153811335Y-112865000D01*
X153528665Y-112865000D01*
X153251426Y-112920147D01*
X152990273Y-113028320D01*
X152755241Y-113185363D01*
X152555363Y-113385241D01*
X152400000Y-113617759D01*
X152244637Y-113385241D01*
X152044759Y-113185363D01*
X151809727Y-113028320D01*
X151548574Y-112920147D01*
X151271335Y-112865000D01*
X150988665Y-112865000D01*
X150711426Y-112920147D01*
X150450273Y-113028320D01*
X150215241Y-113185363D01*
X150015363Y-113385241D01*
X149860000Y-113617759D01*
X149704637Y-113385241D01*
X149504759Y-113185363D01*
X149269727Y-113028320D01*
X149008574Y-112920147D01*
X148731335Y-112865000D01*
X148448665Y-112865000D01*
X148171426Y-112920147D01*
X147910273Y-113028320D01*
X147675241Y-113185363D01*
X147475363Y-113385241D01*
X147320000Y-113617759D01*
X147164637Y-113385241D01*
X146964759Y-113185363D01*
X146729727Y-113028320D01*
X146468574Y-112920147D01*
X146191335Y-112865000D01*
X145908665Y-112865000D01*
X145631426Y-112920147D01*
X145370273Y-113028320D01*
X145135241Y-113185363D01*
X144935363Y-113385241D01*
X144780000Y-113617759D01*
X144624637Y-113385241D01*
X144424759Y-113185363D01*
X144189727Y-113028320D01*
X143928574Y-112920147D01*
X143651335Y-112865000D01*
X143368665Y-112865000D01*
X143091426Y-112920147D01*
X142830273Y-113028320D01*
X142595241Y-113185363D01*
X142395363Y-113385241D01*
X142240000Y-113617759D01*
X142084637Y-113385241D01*
X141884759Y-113185363D01*
X141649727Y-113028320D01*
X141388574Y-112920147D01*
X141111335Y-112865000D01*
X140828665Y-112865000D01*
X140551426Y-112920147D01*
X140290273Y-113028320D01*
X140055241Y-113185363D01*
X139855363Y-113385241D01*
X139698320Y-113620273D01*
X139590147Y-113881426D01*
X139535000Y-114158665D01*
X137325000Y-114158665D01*
X137269853Y-113881426D01*
X137161680Y-113620273D01*
X137004637Y-113385241D01*
X136804759Y-113185363D01*
X136569727Y-113028320D01*
X136308574Y-112920147D01*
X136031335Y-112865000D01*
X135859801Y-112865000D01*
X138941003Y-109783799D01*
X138970001Y-109760001D01*
X138996332Y-109727917D01*
X139064974Y-109644277D01*
X139135546Y-109512247D01*
X139179003Y-109368986D01*
X139190000Y-109257333D01*
X139190000Y-109257323D01*
X139193676Y-109220000D01*
X139190000Y-109182677D01*
X139190000Y-107898043D01*
X139344759Y-107794637D01*
X139544637Y-107594759D01*
X139700000Y-107362241D01*
X139855363Y-107594759D01*
X140055241Y-107794637D01*
X140290273Y-107951680D01*
X140551426Y-108059853D01*
X140828665Y-108115000D01*
X141111335Y-108115000D01*
X141388574Y-108059853D01*
X141649727Y-107951680D01*
X141884759Y-107794637D01*
X142084637Y-107594759D01*
X142240000Y-107362241D01*
X142395363Y-107594759D01*
X142595241Y-107794637D01*
X142830273Y-107951680D01*
X143091426Y-108059853D01*
X143368665Y-108115000D01*
X143651335Y-108115000D01*
X143928574Y-108059853D01*
X144189727Y-107951680D01*
X144424759Y-107794637D01*
X144624637Y-107594759D01*
X144780000Y-107362241D01*
X144935363Y-107594759D01*
X145135241Y-107794637D01*
X145370273Y-107951680D01*
X145631426Y-108059853D01*
X145908665Y-108115000D01*
X146191335Y-108115000D01*
X146468574Y-108059853D01*
X146729727Y-107951680D01*
X146964759Y-107794637D01*
X147164637Y-107594759D01*
X147320000Y-107362241D01*
X147475363Y-107594759D01*
X147675241Y-107794637D01*
X147910273Y-107951680D01*
X148171426Y-108059853D01*
X148448665Y-108115000D01*
X148731335Y-108115000D01*
X149008574Y-108059853D01*
X149269727Y-107951680D01*
X149504759Y-107794637D01*
X149704637Y-107594759D01*
X149860000Y-107362241D01*
X150015363Y-107594759D01*
X150215241Y-107794637D01*
X150450273Y-107951680D01*
X150711426Y-108059853D01*
X150988665Y-108115000D01*
X151271335Y-108115000D01*
X151548574Y-108059853D01*
X151809727Y-107951680D01*
X152044759Y-107794637D01*
X152243357Y-107596039D01*
X152244188Y-107604482D01*
X152280498Y-107724180D01*
X152339463Y-107834494D01*
X152418815Y-107931185D01*
X152515506Y-108010537D01*
X152625820Y-108069502D01*
X152745518Y-108105812D01*
X152870000Y-108118072D01*
X154470000Y-108118072D01*
X154594482Y-108105812D01*
X154714180Y-108069502D01*
X154824494Y-108010537D01*
X154921185Y-107931185D01*
X155000537Y-107834494D01*
X155059502Y-107724180D01*
X155095812Y-107604482D01*
X155108072Y-107480000D01*
X155108072Y-105880000D01*
X155095812Y-105755518D01*
X155059502Y-105635820D01*
X155000537Y-105525506D01*
X154921185Y-105428815D01*
X154824494Y-105349463D01*
X154714180Y-105290498D01*
X154594482Y-105254188D01*
X154470000Y-105241928D01*
X152870000Y-105241928D01*
X152745518Y-105254188D01*
X152625820Y-105290498D01*
X152515506Y-105349463D01*
X152418815Y-105428815D01*
X152339463Y-105525506D01*
X152280498Y-105635820D01*
X152244188Y-105755518D01*
X152243357Y-105763961D01*
X152044759Y-105565363D01*
X151809727Y-105408320D01*
X151548574Y-105300147D01*
X151271335Y-105245000D01*
X150988665Y-105245000D01*
X150711426Y-105300147D01*
X150450273Y-105408320D01*
X150215241Y-105565363D01*
X150015363Y-105765241D01*
X149860000Y-105997759D01*
X149704637Y-105765241D01*
X149504759Y-105565363D01*
X149269727Y-105408320D01*
X149008574Y-105300147D01*
X148731335Y-105245000D01*
X148448665Y-105245000D01*
X148171426Y-105300147D01*
X147910273Y-105408320D01*
X147675241Y-105565363D01*
X147475363Y-105765241D01*
X147320000Y-105997759D01*
X147164637Y-105765241D01*
X146964759Y-105565363D01*
X146729727Y-105408320D01*
X146468574Y-105300147D01*
X146191335Y-105245000D01*
X145908665Y-105245000D01*
X145631426Y-105300147D01*
X145370273Y-105408320D01*
X145135241Y-105565363D01*
X144935363Y-105765241D01*
X144780000Y-105997759D01*
X144624637Y-105765241D01*
X144424759Y-105565363D01*
X144189727Y-105408320D01*
X143928574Y-105300147D01*
X143651335Y-105245000D01*
X143368665Y-105245000D01*
X143091426Y-105300147D01*
X142830273Y-105408320D01*
X142595241Y-105565363D01*
X142395363Y-105765241D01*
X142240000Y-105997759D01*
X142084637Y-105765241D01*
X141884759Y-105565363D01*
X141649727Y-105408320D01*
X141388574Y-105300147D01*
X141111335Y-105245000D01*
X140828665Y-105245000D01*
X140551426Y-105300147D01*
X140290273Y-105408320D01*
X140055241Y-105565363D01*
X139855363Y-105765241D01*
X139700000Y-105997759D01*
X139544637Y-105765241D01*
X139344759Y-105565363D01*
X139109727Y-105408320D01*
X138848574Y-105300147D01*
X138571335Y-105245000D01*
X138288665Y-105245000D01*
X138011426Y-105300147D01*
X137750273Y-105408320D01*
X137515241Y-105565363D01*
X137315363Y-105765241D01*
X137158320Y-106000273D01*
X137050147Y-106261426D01*
X136995000Y-106538665D01*
X136995000Y-106821335D01*
X137050147Y-107098574D01*
X137158320Y-107359727D01*
X137315363Y-107594759D01*
X137515241Y-107794637D01*
X137670000Y-107898044D01*
X137670001Y-108905197D01*
X133673887Y-112901312D01*
X133491335Y-112865000D01*
X133208665Y-112865000D01*
X132931426Y-112920147D01*
X132670273Y-113028320D01*
X132435241Y-113185363D01*
X132235363Y-113385241D01*
X132080000Y-113617759D01*
X131924637Y-113385241D01*
X131724759Y-113185363D01*
X131489727Y-113028320D01*
X131228574Y-112920147D01*
X130951335Y-112865000D01*
X130668665Y-112865000D01*
X130391426Y-112920147D01*
X130130273Y-113028320D01*
X129895241Y-113185363D01*
X129695363Y-113385241D01*
X129540000Y-113617759D01*
X129384637Y-113385241D01*
X129184759Y-113185363D01*
X128949727Y-113028320D01*
X128688574Y-112920147D01*
X128411335Y-112865000D01*
X128128665Y-112865000D01*
X127851426Y-112920147D01*
X127590273Y-113028320D01*
X127355241Y-113185363D01*
X127155363Y-113385241D01*
X127000000Y-113617759D01*
X126844637Y-113385241D01*
X126644759Y-113185363D01*
X126409727Y-113028320D01*
X126148574Y-112920147D01*
X125871335Y-112865000D01*
X125588665Y-112865000D01*
X125311426Y-112920147D01*
X125050273Y-113028320D01*
X124815241Y-113185363D01*
X124615363Y-113385241D01*
X124460000Y-113617759D01*
X124304637Y-113385241D01*
X124104759Y-113185363D01*
X123869727Y-113028320D01*
X123608574Y-112920147D01*
X123331335Y-112865000D01*
X123048665Y-112865000D01*
X122771426Y-112920147D01*
X122510273Y-113028320D01*
X122275241Y-113185363D01*
X122075363Y-113385241D01*
X121920000Y-113617759D01*
X121764637Y-113385241D01*
X121564759Y-113185363D01*
X121329727Y-113028320D01*
X121068574Y-112920147D01*
X120791335Y-112865000D01*
X120508665Y-112865000D01*
X120231426Y-112920147D01*
X119970273Y-113028320D01*
X119735241Y-113185363D01*
X119535363Y-113385241D01*
X119378320Y-113620273D01*
X119270147Y-113881426D01*
X119215000Y-114158665D01*
X114960000Y-114158665D01*
X114960000Y-106538665D01*
X119215000Y-106538665D01*
X119215000Y-106821335D01*
X119270147Y-107098574D01*
X119378320Y-107359727D01*
X119535363Y-107594759D01*
X119735241Y-107794637D01*
X119970273Y-107951680D01*
X120231426Y-108059853D01*
X120508665Y-108115000D01*
X120791335Y-108115000D01*
X121068574Y-108059853D01*
X121329727Y-107951680D01*
X121564759Y-107794637D01*
X121764637Y-107594759D01*
X121920000Y-107362241D01*
X122075363Y-107594759D01*
X122275241Y-107794637D01*
X122510273Y-107951680D01*
X122771426Y-108059853D01*
X123048665Y-108115000D01*
X123331335Y-108115000D01*
X123608574Y-108059853D01*
X123869727Y-107951680D01*
X124104759Y-107794637D01*
X124304637Y-107594759D01*
X124460000Y-107362241D01*
X124615363Y-107594759D01*
X124815241Y-107794637D01*
X125050273Y-107951680D01*
X125311426Y-108059853D01*
X125588665Y-108115000D01*
X125871335Y-108115000D01*
X126148574Y-108059853D01*
X126409727Y-107951680D01*
X126644759Y-107794637D01*
X126844637Y-107594759D01*
X127000000Y-107362241D01*
X127155363Y-107594759D01*
X127355241Y-107794637D01*
X127590273Y-107951680D01*
X127851426Y-108059853D01*
X128128665Y-108115000D01*
X128411335Y-108115000D01*
X128688574Y-108059853D01*
X128949727Y-107951680D01*
X129184759Y-107794637D01*
X129384637Y-107594759D01*
X129540000Y-107362241D01*
X129695363Y-107594759D01*
X129895241Y-107794637D01*
X130130273Y-107951680D01*
X130391426Y-108059853D01*
X130668665Y-108115000D01*
X130951335Y-108115000D01*
X131228574Y-108059853D01*
X131489727Y-107951680D01*
X131724759Y-107794637D01*
X131924637Y-107594759D01*
X132080000Y-107362241D01*
X132235363Y-107594759D01*
X132435241Y-107794637D01*
X132670273Y-107951680D01*
X132931426Y-108059853D01*
X133208665Y-108115000D01*
X133491335Y-108115000D01*
X133768574Y-108059853D01*
X134029727Y-107951680D01*
X134264759Y-107794637D01*
X134464637Y-107594759D01*
X134621680Y-107359727D01*
X134729853Y-107098574D01*
X134785000Y-106821335D01*
X134785000Y-106538665D01*
X134729853Y-106261426D01*
X134621680Y-106000273D01*
X134464637Y-105765241D01*
X134264759Y-105565363D01*
X134029727Y-105408320D01*
X133768574Y-105300147D01*
X133491335Y-105245000D01*
X133208665Y-105245000D01*
X132931426Y-105300147D01*
X132670273Y-105408320D01*
X132435241Y-105565363D01*
X132235363Y-105765241D01*
X132080000Y-105997759D01*
X131924637Y-105765241D01*
X131724759Y-105565363D01*
X131489727Y-105408320D01*
X131228574Y-105300147D01*
X130951335Y-105245000D01*
X130668665Y-105245000D01*
X130391426Y-105300147D01*
X130130273Y-105408320D01*
X129895241Y-105565363D01*
X129695363Y-105765241D01*
X129540000Y-105997759D01*
X129384637Y-105765241D01*
X129184759Y-105565363D01*
X128949727Y-105408320D01*
X128688574Y-105300147D01*
X128411335Y-105245000D01*
X128128665Y-105245000D01*
X127851426Y-105300147D01*
X127590273Y-105408320D01*
X127355241Y-105565363D01*
X127155363Y-105765241D01*
X127000000Y-105997759D01*
X126844637Y-105765241D01*
X126644759Y-105565363D01*
X126409727Y-105408320D01*
X126148574Y-105300147D01*
X125871335Y-105245000D01*
X125588665Y-105245000D01*
X125311426Y-105300147D01*
X125050273Y-105408320D01*
X124815241Y-105565363D01*
X124615363Y-105765241D01*
X124460000Y-105997759D01*
X124304637Y-105765241D01*
X124104759Y-105565363D01*
X123869727Y-105408320D01*
X123608574Y-105300147D01*
X123331335Y-105245000D01*
X123048665Y-105245000D01*
X122771426Y-105300147D01*
X122510273Y-105408320D01*
X122275241Y-105565363D01*
X122075363Y-105765241D01*
X121920000Y-105997759D01*
X121764637Y-105765241D01*
X121564759Y-105565363D01*
X121329727Y-105408320D01*
X121068574Y-105300147D01*
X120791335Y-105245000D01*
X120508665Y-105245000D01*
X120231426Y-105300147D01*
X119970273Y-105408320D01*
X119735241Y-105565363D01*
X119535363Y-105765241D01*
X119378320Y-106000273D01*
X119270147Y-106261426D01*
X119215000Y-106538665D01*
X114960000Y-106538665D01*
X114960000Y-100188665D01*
X116675000Y-100188665D01*
X116675000Y-100471335D01*
X116730147Y-100748574D01*
X116838320Y-101009727D01*
X116995363Y-101244759D01*
X117195241Y-101444637D01*
X117430273Y-101601680D01*
X117691426Y-101709853D01*
X117968665Y-101765000D01*
X118251335Y-101765000D01*
X118528574Y-101709853D01*
X118789727Y-101601680D01*
X119024759Y-101444637D01*
X119224637Y-101244759D01*
X119381680Y-101009727D01*
X119489853Y-100748574D01*
X119545000Y-100471335D01*
X119545000Y-100188665D01*
X120485000Y-100188665D01*
X120485000Y-100471335D01*
X120540147Y-100748574D01*
X120648320Y-101009727D01*
X120805363Y-101244759D01*
X121005241Y-101444637D01*
X121240273Y-101601680D01*
X121501426Y-101709853D01*
X121778665Y-101765000D01*
X122061335Y-101765000D01*
X122338574Y-101709853D01*
X122599727Y-101601680D01*
X122834759Y-101444637D01*
X123034637Y-101244759D01*
X123191680Y-101009727D01*
X123299853Y-100748574D01*
X123355000Y-100471335D01*
X123355000Y-100188665D01*
X124295000Y-100188665D01*
X124295000Y-100471335D01*
X124350147Y-100748574D01*
X124458320Y-101009727D01*
X124615363Y-101244759D01*
X124815241Y-101444637D01*
X125050273Y-101601680D01*
X125311426Y-101709853D01*
X125588665Y-101765000D01*
X125871335Y-101765000D01*
X126148574Y-101709853D01*
X126409727Y-101601680D01*
X126644759Y-101444637D01*
X126844637Y-101244759D01*
X127001680Y-101009727D01*
X127109853Y-100748574D01*
X127165000Y-100471335D01*
X127165000Y-100188665D01*
X128105000Y-100188665D01*
X128105000Y-100471335D01*
X128160147Y-100748574D01*
X128268320Y-101009727D01*
X128425363Y-101244759D01*
X128625241Y-101444637D01*
X128860273Y-101601680D01*
X129121426Y-101709853D01*
X129398665Y-101765000D01*
X129681335Y-101765000D01*
X129958574Y-101709853D01*
X130219727Y-101601680D01*
X130454759Y-101444637D01*
X130654637Y-101244759D01*
X130811680Y-101009727D01*
X130919853Y-100748574D01*
X130975000Y-100471335D01*
X130975000Y-100188665D01*
X130919853Y-99911426D01*
X130811680Y-99650273D01*
X130654637Y-99415241D01*
X130454759Y-99215363D01*
X130219727Y-99058320D01*
X129958574Y-98950147D01*
X129825060Y-98923589D01*
X133435000Y-98923589D01*
X133435000Y-99196411D01*
X133488225Y-99463989D01*
X133592629Y-99716043D01*
X133744201Y-99942886D01*
X133937114Y-100135799D01*
X134163957Y-100287371D01*
X134416011Y-100391775D01*
X134683589Y-100445000D01*
X134956411Y-100445000D01*
X135223989Y-100391775D01*
X135476043Y-100287371D01*
X135702886Y-100135799D01*
X135895799Y-99942886D01*
X136047371Y-99716043D01*
X136151775Y-99463989D01*
X136205000Y-99196411D01*
X136205000Y-98923589D01*
X138315000Y-98923589D01*
X138315000Y-99196411D01*
X138368225Y-99463989D01*
X138472629Y-99716043D01*
X138624201Y-99942886D01*
X138817114Y-100135799D01*
X139043957Y-100287371D01*
X139296011Y-100391775D01*
X139563589Y-100445000D01*
X139836411Y-100445000D01*
X140103989Y-100391775D01*
X140356043Y-100287371D01*
X140503766Y-100188665D01*
X143345000Y-100188665D01*
X143345000Y-100471335D01*
X143400147Y-100748574D01*
X143508320Y-101009727D01*
X143665363Y-101244759D01*
X143865241Y-101444637D01*
X144100273Y-101601680D01*
X144361426Y-101709853D01*
X144638665Y-101765000D01*
X144921335Y-101765000D01*
X145198574Y-101709853D01*
X145459727Y-101601680D01*
X145694759Y-101444637D01*
X145894637Y-101244759D01*
X146051680Y-101009727D01*
X146159853Y-100748574D01*
X146215000Y-100471335D01*
X146215000Y-100188665D01*
X147155000Y-100188665D01*
X147155000Y-100471335D01*
X147210147Y-100748574D01*
X147318320Y-101009727D01*
X147475363Y-101244759D01*
X147675241Y-101444637D01*
X147910273Y-101601680D01*
X148171426Y-101709853D01*
X148448665Y-101765000D01*
X148731335Y-101765000D01*
X149008574Y-101709853D01*
X149269727Y-101601680D01*
X149504759Y-101444637D01*
X149704637Y-101244759D01*
X149861680Y-101009727D01*
X149969853Y-100748574D01*
X150025000Y-100471335D01*
X150025000Y-100188665D01*
X150965000Y-100188665D01*
X150965000Y-100471335D01*
X151020147Y-100748574D01*
X151128320Y-101009727D01*
X151285363Y-101244759D01*
X151485241Y-101444637D01*
X151720273Y-101601680D01*
X151981426Y-101709853D01*
X152258665Y-101765000D01*
X152541335Y-101765000D01*
X152818574Y-101709853D01*
X153079727Y-101601680D01*
X153314759Y-101444637D01*
X153514637Y-101244759D01*
X153671680Y-101009727D01*
X153779853Y-100748574D01*
X153835000Y-100471335D01*
X153835000Y-100188665D01*
X154775000Y-100188665D01*
X154775000Y-100471335D01*
X154830147Y-100748574D01*
X154938320Y-101009727D01*
X155095363Y-101244759D01*
X155295241Y-101444637D01*
X155530273Y-101601680D01*
X155791426Y-101709853D01*
X156068665Y-101765000D01*
X156351335Y-101765000D01*
X156628574Y-101709853D01*
X156889727Y-101601680D01*
X157124759Y-101444637D01*
X157324637Y-101244759D01*
X157481680Y-101009727D01*
X157589853Y-100748574D01*
X157645000Y-100471335D01*
X157645000Y-100188665D01*
X157589853Y-99911426D01*
X157481680Y-99650273D01*
X157324637Y-99415241D01*
X157124759Y-99215363D01*
X156889727Y-99058320D01*
X156628574Y-98950147D01*
X156351335Y-98895000D01*
X156068665Y-98895000D01*
X155791426Y-98950147D01*
X155530273Y-99058320D01*
X155295241Y-99215363D01*
X155095363Y-99415241D01*
X154938320Y-99650273D01*
X154830147Y-99911426D01*
X154775000Y-100188665D01*
X153835000Y-100188665D01*
X153779853Y-99911426D01*
X153671680Y-99650273D01*
X153514637Y-99415241D01*
X153314759Y-99215363D01*
X153079727Y-99058320D01*
X152818574Y-98950147D01*
X152541335Y-98895000D01*
X152258665Y-98895000D01*
X151981426Y-98950147D01*
X151720273Y-99058320D01*
X151485241Y-99215363D01*
X151285363Y-99415241D01*
X151128320Y-99650273D01*
X151020147Y-99911426D01*
X150965000Y-100188665D01*
X150025000Y-100188665D01*
X149969853Y-99911426D01*
X149861680Y-99650273D01*
X149704637Y-99415241D01*
X149504759Y-99215363D01*
X149269727Y-99058320D01*
X149008574Y-98950147D01*
X148731335Y-98895000D01*
X148448665Y-98895000D01*
X148171426Y-98950147D01*
X147910273Y-99058320D01*
X147675241Y-99215363D01*
X147475363Y-99415241D01*
X147318320Y-99650273D01*
X147210147Y-99911426D01*
X147155000Y-100188665D01*
X146215000Y-100188665D01*
X146159853Y-99911426D01*
X146051680Y-99650273D01*
X145894637Y-99415241D01*
X145694759Y-99215363D01*
X145459727Y-99058320D01*
X145198574Y-98950147D01*
X144921335Y-98895000D01*
X144638665Y-98895000D01*
X144361426Y-98950147D01*
X144100273Y-99058320D01*
X143865241Y-99215363D01*
X143665363Y-99415241D01*
X143508320Y-99650273D01*
X143400147Y-99911426D01*
X143345000Y-100188665D01*
X140503766Y-100188665D01*
X140582886Y-100135799D01*
X140775799Y-99942886D01*
X140927371Y-99716043D01*
X141031775Y-99463989D01*
X141085000Y-99196411D01*
X141085000Y-98923589D01*
X141031775Y-98656011D01*
X140927371Y-98403957D01*
X140775799Y-98177114D01*
X140582886Y-97984201D01*
X140356043Y-97832629D01*
X140103989Y-97728225D01*
X139836411Y-97675000D01*
X139563589Y-97675000D01*
X139296011Y-97728225D01*
X139043957Y-97832629D01*
X138817114Y-97984201D01*
X138624201Y-98177114D01*
X138472629Y-98403957D01*
X138368225Y-98656011D01*
X138315000Y-98923589D01*
X136205000Y-98923589D01*
X136151775Y-98656011D01*
X136047371Y-98403957D01*
X135895799Y-98177114D01*
X135702886Y-97984201D01*
X135476043Y-97832629D01*
X135223989Y-97728225D01*
X134956411Y-97675000D01*
X134683589Y-97675000D01*
X134416011Y-97728225D01*
X134163957Y-97832629D01*
X133937114Y-97984201D01*
X133744201Y-98177114D01*
X133592629Y-98403957D01*
X133488225Y-98656011D01*
X133435000Y-98923589D01*
X129825060Y-98923589D01*
X129681335Y-98895000D01*
X129398665Y-98895000D01*
X129121426Y-98950147D01*
X128860273Y-99058320D01*
X128625241Y-99215363D01*
X128425363Y-99415241D01*
X128268320Y-99650273D01*
X128160147Y-99911426D01*
X128105000Y-100188665D01*
X127165000Y-100188665D01*
X127109853Y-99911426D01*
X127001680Y-99650273D01*
X126844637Y-99415241D01*
X126644759Y-99215363D01*
X126409727Y-99058320D01*
X126148574Y-98950147D01*
X125871335Y-98895000D01*
X125588665Y-98895000D01*
X125311426Y-98950147D01*
X125050273Y-99058320D01*
X124815241Y-99215363D01*
X124615363Y-99415241D01*
X124458320Y-99650273D01*
X124350147Y-99911426D01*
X124295000Y-100188665D01*
X123355000Y-100188665D01*
X123299853Y-99911426D01*
X123191680Y-99650273D01*
X123034637Y-99415241D01*
X122834759Y-99215363D01*
X122599727Y-99058320D01*
X122338574Y-98950147D01*
X122061335Y-98895000D01*
X121778665Y-98895000D01*
X121501426Y-98950147D01*
X121240273Y-99058320D01*
X121005241Y-99215363D01*
X120805363Y-99415241D01*
X120648320Y-99650273D01*
X120540147Y-99911426D01*
X120485000Y-100188665D01*
X119545000Y-100188665D01*
X119489853Y-99911426D01*
X119381680Y-99650273D01*
X119224637Y-99415241D01*
X119024759Y-99215363D01*
X118789727Y-99058320D01*
X118528574Y-98950147D01*
X118251335Y-98895000D01*
X117968665Y-98895000D01*
X117691426Y-98950147D01*
X117430273Y-99058320D01*
X117195241Y-99215363D01*
X116995363Y-99415241D01*
X116838320Y-99650273D01*
X116730147Y-99911426D01*
X116675000Y-100188665D01*
X114960000Y-100188665D01*
X114960000Y-92568665D01*
X116675000Y-92568665D01*
X116675000Y-92851335D01*
X116730147Y-93128574D01*
X116838320Y-93389727D01*
X116995363Y-93624759D01*
X117195241Y-93824637D01*
X117430273Y-93981680D01*
X117691426Y-94089853D01*
X117968665Y-94145000D01*
X118251335Y-94145000D01*
X118528574Y-94089853D01*
X118789727Y-93981680D01*
X119024759Y-93824637D01*
X119224637Y-93624759D01*
X119381680Y-93389727D01*
X119489853Y-93128574D01*
X119545000Y-92851335D01*
X119545000Y-92568665D01*
X120485000Y-92568665D01*
X120485000Y-92851335D01*
X120540147Y-93128574D01*
X120648320Y-93389727D01*
X120805363Y-93624759D01*
X121005241Y-93824637D01*
X121240273Y-93981680D01*
X121501426Y-94089853D01*
X121778665Y-94145000D01*
X122061335Y-94145000D01*
X122338574Y-94089853D01*
X122599727Y-93981680D01*
X122834759Y-93824637D01*
X123034637Y-93624759D01*
X123191680Y-93389727D01*
X123299853Y-93128574D01*
X123355000Y-92851335D01*
X123355000Y-92568665D01*
X124295000Y-92568665D01*
X124295000Y-92851335D01*
X124350147Y-93128574D01*
X124458320Y-93389727D01*
X124615363Y-93624759D01*
X124815241Y-93824637D01*
X125050273Y-93981680D01*
X125311426Y-94089853D01*
X125588665Y-94145000D01*
X125871335Y-94145000D01*
X126148574Y-94089853D01*
X126409727Y-93981680D01*
X126644759Y-93824637D01*
X126844637Y-93624759D01*
X127001680Y-93389727D01*
X127109853Y-93128574D01*
X127165000Y-92851335D01*
X127165000Y-92568665D01*
X128105000Y-92568665D01*
X128105000Y-92851335D01*
X128160147Y-93128574D01*
X128268320Y-93389727D01*
X128425363Y-93624759D01*
X128625241Y-93824637D01*
X128860273Y-93981680D01*
X129121426Y-94089853D01*
X129398665Y-94145000D01*
X129681335Y-94145000D01*
X129958574Y-94089853D01*
X130219727Y-93981680D01*
X130433764Y-93838665D01*
X131915000Y-93838665D01*
X131915000Y-94121335D01*
X131970147Y-94398574D01*
X132078320Y-94659727D01*
X132235363Y-94894759D01*
X132435241Y-95094637D01*
X132670273Y-95251680D01*
X132931426Y-95359853D01*
X133208665Y-95415000D01*
X133491335Y-95415000D01*
X133768574Y-95359853D01*
X134029727Y-95251680D01*
X134264759Y-95094637D01*
X134464637Y-94894759D01*
X134621680Y-94659727D01*
X134729853Y-94398574D01*
X134785000Y-94121335D01*
X134785000Y-93838665D01*
X139535000Y-93838665D01*
X139535000Y-94121335D01*
X139590147Y-94398574D01*
X139698320Y-94659727D01*
X139855363Y-94894759D01*
X140055241Y-95094637D01*
X140290273Y-95251680D01*
X140551426Y-95359853D01*
X140828665Y-95415000D01*
X141111335Y-95415000D01*
X141388574Y-95359853D01*
X141649727Y-95251680D01*
X141884759Y-95094637D01*
X142084637Y-94894759D01*
X142241680Y-94659727D01*
X142349853Y-94398574D01*
X142405000Y-94121335D01*
X142405000Y-93838665D01*
X142349853Y-93561426D01*
X142241680Y-93300273D01*
X142084637Y-93065241D01*
X141884759Y-92865363D01*
X141649727Y-92708320D01*
X141388574Y-92600147D01*
X141230306Y-92568665D01*
X143345000Y-92568665D01*
X143345000Y-92851335D01*
X143400147Y-93128574D01*
X143508320Y-93389727D01*
X143665363Y-93624759D01*
X143865241Y-93824637D01*
X144100273Y-93981680D01*
X144361426Y-94089853D01*
X144638665Y-94145000D01*
X144921335Y-94145000D01*
X145198574Y-94089853D01*
X145459727Y-93981680D01*
X145694759Y-93824637D01*
X145894637Y-93624759D01*
X146051680Y-93389727D01*
X146159853Y-93128574D01*
X146215000Y-92851335D01*
X146215000Y-92568665D01*
X147155000Y-92568665D01*
X147155000Y-92851335D01*
X147210147Y-93128574D01*
X147318320Y-93389727D01*
X147475363Y-93624759D01*
X147675241Y-93824637D01*
X147910273Y-93981680D01*
X148171426Y-94089853D01*
X148448665Y-94145000D01*
X148731335Y-94145000D01*
X149008574Y-94089853D01*
X149269727Y-93981680D01*
X149504759Y-93824637D01*
X149704637Y-93624759D01*
X149861680Y-93389727D01*
X149969853Y-93128574D01*
X150025000Y-92851335D01*
X150025000Y-92568665D01*
X150965000Y-92568665D01*
X150965000Y-92851335D01*
X151020147Y-93128574D01*
X151128320Y-93389727D01*
X151285363Y-93624759D01*
X151485241Y-93824637D01*
X151720273Y-93981680D01*
X151981426Y-94089853D01*
X152258665Y-94145000D01*
X152541335Y-94145000D01*
X152818574Y-94089853D01*
X153079727Y-93981680D01*
X153314759Y-93824637D01*
X153514637Y-93624759D01*
X153671680Y-93389727D01*
X153779853Y-93128574D01*
X153835000Y-92851335D01*
X153835000Y-92568665D01*
X154775000Y-92568665D01*
X154775000Y-92851335D01*
X154830147Y-93128574D01*
X154938320Y-93389727D01*
X155095363Y-93624759D01*
X155295241Y-93824637D01*
X155530273Y-93981680D01*
X155791426Y-94089853D01*
X156068665Y-94145000D01*
X156351335Y-94145000D01*
X156628574Y-94089853D01*
X156889727Y-93981680D01*
X157124759Y-93824637D01*
X157324637Y-93624759D01*
X157481680Y-93389727D01*
X157589853Y-93128574D01*
X157645000Y-92851335D01*
X157645000Y-92568665D01*
X157589853Y-92291426D01*
X157481680Y-92030273D01*
X157324637Y-91795241D01*
X157124759Y-91595363D01*
X156889727Y-91438320D01*
X156628574Y-91330147D01*
X156351335Y-91275000D01*
X156068665Y-91275000D01*
X155791426Y-91330147D01*
X155530273Y-91438320D01*
X155295241Y-91595363D01*
X155095363Y-91795241D01*
X154938320Y-92030273D01*
X154830147Y-92291426D01*
X154775000Y-92568665D01*
X153835000Y-92568665D01*
X153779853Y-92291426D01*
X153671680Y-92030273D01*
X153514637Y-91795241D01*
X153314759Y-91595363D01*
X153079727Y-91438320D01*
X152818574Y-91330147D01*
X152541335Y-91275000D01*
X152258665Y-91275000D01*
X151981426Y-91330147D01*
X151720273Y-91438320D01*
X151485241Y-91595363D01*
X151285363Y-91795241D01*
X151128320Y-92030273D01*
X151020147Y-92291426D01*
X150965000Y-92568665D01*
X150025000Y-92568665D01*
X149969853Y-92291426D01*
X149861680Y-92030273D01*
X149704637Y-91795241D01*
X149504759Y-91595363D01*
X149269727Y-91438320D01*
X149008574Y-91330147D01*
X148731335Y-91275000D01*
X148448665Y-91275000D01*
X148171426Y-91330147D01*
X147910273Y-91438320D01*
X147675241Y-91595363D01*
X147475363Y-91795241D01*
X147318320Y-92030273D01*
X147210147Y-92291426D01*
X147155000Y-92568665D01*
X146215000Y-92568665D01*
X146159853Y-92291426D01*
X146051680Y-92030273D01*
X145894637Y-91795241D01*
X145694759Y-91595363D01*
X145459727Y-91438320D01*
X145198574Y-91330147D01*
X144921335Y-91275000D01*
X144638665Y-91275000D01*
X144361426Y-91330147D01*
X144100273Y-91438320D01*
X143865241Y-91595363D01*
X143665363Y-91795241D01*
X143508320Y-92030273D01*
X143400147Y-92291426D01*
X143345000Y-92568665D01*
X141230306Y-92568665D01*
X141111335Y-92545000D01*
X140828665Y-92545000D01*
X140551426Y-92600147D01*
X140290273Y-92708320D01*
X140055241Y-92865363D01*
X139855363Y-93065241D01*
X139698320Y-93300273D01*
X139590147Y-93561426D01*
X139535000Y-93838665D01*
X134785000Y-93838665D01*
X134729853Y-93561426D01*
X134621680Y-93300273D01*
X134464637Y-93065241D01*
X134264759Y-92865363D01*
X134029727Y-92708320D01*
X133768574Y-92600147D01*
X133491335Y-92545000D01*
X133208665Y-92545000D01*
X132931426Y-92600147D01*
X132670273Y-92708320D01*
X132435241Y-92865363D01*
X132235363Y-93065241D01*
X132078320Y-93300273D01*
X131970147Y-93561426D01*
X131915000Y-93838665D01*
X130433764Y-93838665D01*
X130454759Y-93824637D01*
X130654637Y-93624759D01*
X130811680Y-93389727D01*
X130919853Y-93128574D01*
X130975000Y-92851335D01*
X130975000Y-92568665D01*
X130919853Y-92291426D01*
X130811680Y-92030273D01*
X130654637Y-91795241D01*
X130454759Y-91595363D01*
X130219727Y-91438320D01*
X129958574Y-91330147D01*
X129681335Y-91275000D01*
X129398665Y-91275000D01*
X129121426Y-91330147D01*
X128860273Y-91438320D01*
X128625241Y-91595363D01*
X128425363Y-91795241D01*
X128268320Y-92030273D01*
X128160147Y-92291426D01*
X128105000Y-92568665D01*
X127165000Y-92568665D01*
X127109853Y-92291426D01*
X127001680Y-92030273D01*
X126844637Y-91795241D01*
X126644759Y-91595363D01*
X126409727Y-91438320D01*
X126148574Y-91330147D01*
X125871335Y-91275000D01*
X125588665Y-91275000D01*
X125311426Y-91330147D01*
X125050273Y-91438320D01*
X124815241Y-91595363D01*
X124615363Y-91795241D01*
X124458320Y-92030273D01*
X124350147Y-92291426D01*
X124295000Y-92568665D01*
X123355000Y-92568665D01*
X123299853Y-92291426D01*
X123191680Y-92030273D01*
X123034637Y-91795241D01*
X122834759Y-91595363D01*
X122599727Y-91438320D01*
X122338574Y-91330147D01*
X122061335Y-91275000D01*
X121778665Y-91275000D01*
X121501426Y-91330147D01*
X121240273Y-91438320D01*
X121005241Y-91595363D01*
X120805363Y-91795241D01*
X120648320Y-92030273D01*
X120540147Y-92291426D01*
X120485000Y-92568665D01*
X119545000Y-92568665D01*
X119489853Y-92291426D01*
X119381680Y-92030273D01*
X119224637Y-91795241D01*
X119024759Y-91595363D01*
X118789727Y-91438320D01*
X118528574Y-91330147D01*
X118251335Y-91275000D01*
X117968665Y-91275000D01*
X117691426Y-91330147D01*
X117430273Y-91438320D01*
X117195241Y-91595363D01*
X116995363Y-91795241D01*
X116838320Y-92030273D01*
X116730147Y-92291426D01*
X116675000Y-92568665D01*
X114960000Y-92568665D01*
X114960000Y-90028665D01*
X131955000Y-90028665D01*
X131955000Y-90311335D01*
X132010147Y-90588574D01*
X132118320Y-90849727D01*
X132275363Y-91084759D01*
X132475241Y-91284637D01*
X132710273Y-91441680D01*
X132971426Y-91549853D01*
X133248665Y-91605000D01*
X133531335Y-91605000D01*
X133808574Y-91549853D01*
X134069727Y-91441680D01*
X134304759Y-91284637D01*
X134504637Y-91084759D01*
X134661680Y-90849727D01*
X134769853Y-90588574D01*
X134825000Y-90311335D01*
X134825000Y-90028665D01*
X139495000Y-90028665D01*
X139495000Y-90311335D01*
X139550147Y-90588574D01*
X139658320Y-90849727D01*
X139815363Y-91084759D01*
X140015241Y-91284637D01*
X140250273Y-91441680D01*
X140511426Y-91549853D01*
X140788665Y-91605000D01*
X141071335Y-91605000D01*
X141348574Y-91549853D01*
X141609727Y-91441680D01*
X141844759Y-91284637D01*
X142044637Y-91084759D01*
X142201680Y-90849727D01*
X142309853Y-90588574D01*
X142365000Y-90311335D01*
X142365000Y-90028665D01*
X142309853Y-89751426D01*
X142201680Y-89490273D01*
X142044637Y-89255241D01*
X141844759Y-89055363D01*
X141609727Y-88898320D01*
X141348574Y-88790147D01*
X141071335Y-88735000D01*
X140788665Y-88735000D01*
X140511426Y-88790147D01*
X140250273Y-88898320D01*
X140015241Y-89055363D01*
X139815363Y-89255241D01*
X139658320Y-89490273D01*
X139550147Y-89751426D01*
X139495000Y-90028665D01*
X134825000Y-90028665D01*
X134769853Y-89751426D01*
X134661680Y-89490273D01*
X134504637Y-89255241D01*
X134304759Y-89055363D01*
X134069727Y-88898320D01*
X133808574Y-88790147D01*
X133531335Y-88735000D01*
X133248665Y-88735000D01*
X132971426Y-88790147D01*
X132710273Y-88898320D01*
X132475241Y-89055363D01*
X132275363Y-89255241D01*
X132118320Y-89490273D01*
X132010147Y-89751426D01*
X131955000Y-90028665D01*
X114960000Y-90028665D01*
X114960000Y-82970000D01*
X126781928Y-82970000D01*
X126781928Y-84670000D01*
X126794188Y-84794482D01*
X126830498Y-84914180D01*
X126889463Y-85024494D01*
X126968815Y-85121185D01*
X127065506Y-85200537D01*
X127175820Y-85259502D01*
X127295518Y-85295812D01*
X127420000Y-85308072D01*
X129120000Y-85308072D01*
X129244482Y-85295812D01*
X129364180Y-85259502D01*
X129474494Y-85200537D01*
X129571185Y-85121185D01*
X129650537Y-85024494D01*
X129709502Y-84914180D01*
X129731513Y-84841620D01*
X129863368Y-84973475D01*
X130106589Y-85135990D01*
X130376842Y-85247932D01*
X130663740Y-85305000D01*
X130956260Y-85305000D01*
X131243158Y-85247932D01*
X131513411Y-85135990D01*
X131756632Y-84973475D01*
X131963475Y-84766632D01*
X132080000Y-84592240D01*
X132196525Y-84766632D01*
X132403368Y-84973475D01*
X132646589Y-85135990D01*
X132916842Y-85247932D01*
X133203740Y-85305000D01*
X133496260Y-85305000D01*
X133783158Y-85247932D01*
X134053411Y-85135990D01*
X134296632Y-84973475D01*
X134503475Y-84766632D01*
X134620000Y-84592240D01*
X134736525Y-84766632D01*
X134943368Y-84973475D01*
X135186589Y-85135990D01*
X135456842Y-85247932D01*
X135743740Y-85305000D01*
X136036260Y-85305000D01*
X136323158Y-85247932D01*
X136593411Y-85135990D01*
X136836632Y-84973475D01*
X137043475Y-84766632D01*
X137160000Y-84592240D01*
X137276525Y-84766632D01*
X137483368Y-84973475D01*
X137726589Y-85135990D01*
X137996842Y-85247932D01*
X138283740Y-85305000D01*
X138576260Y-85305000D01*
X138863158Y-85247932D01*
X139133411Y-85135990D01*
X139376632Y-84973475D01*
X139583475Y-84766632D01*
X139700000Y-84592240D01*
X139816525Y-84766632D01*
X140023368Y-84973475D01*
X140266589Y-85135990D01*
X140536842Y-85247932D01*
X140823740Y-85305000D01*
X141116260Y-85305000D01*
X141403158Y-85247932D01*
X141673411Y-85135990D01*
X141916632Y-84973475D01*
X142123475Y-84766632D01*
X142240000Y-84592240D01*
X142356525Y-84766632D01*
X142563368Y-84973475D01*
X142806589Y-85135990D01*
X143076842Y-85247932D01*
X143363740Y-85305000D01*
X143656260Y-85305000D01*
X143943158Y-85247932D01*
X144213411Y-85135990D01*
X144456632Y-84973475D01*
X144663475Y-84766632D01*
X144780000Y-84592240D01*
X144896525Y-84766632D01*
X145103368Y-84973475D01*
X145346589Y-85135990D01*
X145616842Y-85247932D01*
X145903740Y-85305000D01*
X146196260Y-85305000D01*
X146483158Y-85247932D01*
X146753411Y-85135990D01*
X146996632Y-84973475D01*
X147203475Y-84766632D01*
X147365990Y-84523411D01*
X147477932Y-84253158D01*
X147535000Y-83966260D01*
X147535000Y-83673740D01*
X147477932Y-83386842D01*
X147365990Y-83116589D01*
X147203475Y-82873368D01*
X146996632Y-82666525D01*
X146753411Y-82504010D01*
X146483158Y-82392068D01*
X146196260Y-82335000D01*
X145903740Y-82335000D01*
X145616842Y-82392068D01*
X145346589Y-82504010D01*
X145103368Y-82666525D01*
X144896525Y-82873368D01*
X144780000Y-83047760D01*
X144663475Y-82873368D01*
X144456632Y-82666525D01*
X144213411Y-82504010D01*
X143943158Y-82392068D01*
X143656260Y-82335000D01*
X143363740Y-82335000D01*
X143076842Y-82392068D01*
X142806589Y-82504010D01*
X142563368Y-82666525D01*
X142356525Y-82873368D01*
X142240000Y-83047760D01*
X142123475Y-82873368D01*
X141916632Y-82666525D01*
X141673411Y-82504010D01*
X141403158Y-82392068D01*
X141116260Y-82335000D01*
X140823740Y-82335000D01*
X140536842Y-82392068D01*
X140266589Y-82504010D01*
X140023368Y-82666525D01*
X139816525Y-82873368D01*
X139700000Y-83047760D01*
X139583475Y-82873368D01*
X139376632Y-82666525D01*
X139133411Y-82504010D01*
X138863158Y-82392068D01*
X138576260Y-82335000D01*
X138283740Y-82335000D01*
X137996842Y-82392068D01*
X137726589Y-82504010D01*
X137483368Y-82666525D01*
X137276525Y-82873368D01*
X137160000Y-83047760D01*
X137043475Y-82873368D01*
X136836632Y-82666525D01*
X136593411Y-82504010D01*
X136323158Y-82392068D01*
X136036260Y-82335000D01*
X135743740Y-82335000D01*
X135456842Y-82392068D01*
X135186589Y-82504010D01*
X134943368Y-82666525D01*
X134736525Y-82873368D01*
X134620000Y-83047760D01*
X134503475Y-82873368D01*
X134296632Y-82666525D01*
X134053411Y-82504010D01*
X133783158Y-82392068D01*
X133496260Y-82335000D01*
X133203740Y-82335000D01*
X132916842Y-82392068D01*
X132646589Y-82504010D01*
X132403368Y-82666525D01*
X132196525Y-82873368D01*
X132080000Y-83047760D01*
X131963475Y-82873368D01*
X131756632Y-82666525D01*
X131513411Y-82504010D01*
X131243158Y-82392068D01*
X130956260Y-82335000D01*
X130663740Y-82335000D01*
X130376842Y-82392068D01*
X130106589Y-82504010D01*
X129863368Y-82666525D01*
X129731513Y-82798380D01*
X129709502Y-82725820D01*
X129650537Y-82615506D01*
X129571185Y-82518815D01*
X129474494Y-82439463D01*
X129364180Y-82380498D01*
X129244482Y-82344188D01*
X129120000Y-82331928D01*
X127420000Y-82331928D01*
X127295518Y-82344188D01*
X127175820Y-82380498D01*
X127065506Y-82439463D01*
X126968815Y-82518815D01*
X126889463Y-82615506D01*
X126830498Y-82725820D01*
X126794188Y-82845518D01*
X126781928Y-82970000D01*
X114960000Y-82970000D01*
X114960000Y-70973740D01*
X126785000Y-70973740D01*
X126785000Y-71266260D01*
X126842068Y-71553158D01*
X126954010Y-71823411D01*
X127116525Y-72066632D01*
X127323368Y-72273475D01*
X127566589Y-72435990D01*
X127836842Y-72547932D01*
X128123740Y-72605000D01*
X128416260Y-72605000D01*
X128703158Y-72547932D01*
X128973411Y-72435990D01*
X129216632Y-72273475D01*
X129423475Y-72066632D01*
X129540000Y-71892240D01*
X129656525Y-72066632D01*
X129863368Y-72273475D01*
X130106589Y-72435990D01*
X130376842Y-72547932D01*
X130663740Y-72605000D01*
X130956260Y-72605000D01*
X131243158Y-72547932D01*
X131513411Y-72435990D01*
X131756632Y-72273475D01*
X131963475Y-72066632D01*
X132080000Y-71892240D01*
X132196525Y-72066632D01*
X132403368Y-72273475D01*
X132646589Y-72435990D01*
X132916842Y-72547932D01*
X133203740Y-72605000D01*
X133496260Y-72605000D01*
X133783158Y-72547932D01*
X134053411Y-72435990D01*
X134296632Y-72273475D01*
X134503475Y-72066632D01*
X134620000Y-71892240D01*
X134736525Y-72066632D01*
X134943368Y-72273475D01*
X135186589Y-72435990D01*
X135456842Y-72547932D01*
X135743740Y-72605000D01*
X136036260Y-72605000D01*
X136323158Y-72547932D01*
X136593411Y-72435990D01*
X136836632Y-72273475D01*
X137043475Y-72066632D01*
X137160000Y-71892240D01*
X137276525Y-72066632D01*
X137483368Y-72273475D01*
X137726589Y-72435990D01*
X137996842Y-72547932D01*
X138283740Y-72605000D01*
X138576260Y-72605000D01*
X138863158Y-72547932D01*
X139133411Y-72435990D01*
X139376632Y-72273475D01*
X139583475Y-72066632D01*
X139700000Y-71892240D01*
X139816525Y-72066632D01*
X140023368Y-72273475D01*
X140266589Y-72435990D01*
X140536842Y-72547932D01*
X140823740Y-72605000D01*
X141116260Y-72605000D01*
X141403158Y-72547932D01*
X141673411Y-72435990D01*
X141916632Y-72273475D01*
X142123475Y-72066632D01*
X142240000Y-71892240D01*
X142356525Y-72066632D01*
X142563368Y-72273475D01*
X142806589Y-72435990D01*
X143076842Y-72547932D01*
X143363740Y-72605000D01*
X143656260Y-72605000D01*
X143943158Y-72547932D01*
X144213411Y-72435990D01*
X144456632Y-72273475D01*
X144663475Y-72066632D01*
X144780000Y-71892240D01*
X144896525Y-72066632D01*
X145103368Y-72273475D01*
X145346589Y-72435990D01*
X145616842Y-72547932D01*
X145903740Y-72605000D01*
X146196260Y-72605000D01*
X146483158Y-72547932D01*
X146753411Y-72435990D01*
X146996632Y-72273475D01*
X147203475Y-72066632D01*
X147365990Y-71823411D01*
X147477932Y-71553158D01*
X147535000Y-71266260D01*
X147535000Y-70973740D01*
X147477932Y-70686842D01*
X147365990Y-70416589D01*
X147203475Y-70173368D01*
X146996632Y-69966525D01*
X146753411Y-69804010D01*
X146483158Y-69692068D01*
X146196260Y-69635000D01*
X145903740Y-69635000D01*
X145616842Y-69692068D01*
X145346589Y-69804010D01*
X145103368Y-69966525D01*
X144896525Y-70173368D01*
X144780000Y-70347760D01*
X144663475Y-70173368D01*
X144456632Y-69966525D01*
X144213411Y-69804010D01*
X143943158Y-69692068D01*
X143656260Y-69635000D01*
X143363740Y-69635000D01*
X143076842Y-69692068D01*
X142806589Y-69804010D01*
X142563368Y-69966525D01*
X142356525Y-70173368D01*
X142240000Y-70347760D01*
X142123475Y-70173368D01*
X141916632Y-69966525D01*
X141673411Y-69804010D01*
X141403158Y-69692068D01*
X141116260Y-69635000D01*
X140823740Y-69635000D01*
X140536842Y-69692068D01*
X140266589Y-69804010D01*
X140023368Y-69966525D01*
X139816525Y-70173368D01*
X139700000Y-70347760D01*
X139583475Y-70173368D01*
X139376632Y-69966525D01*
X139133411Y-69804010D01*
X138863158Y-69692068D01*
X138576260Y-69635000D01*
X138283740Y-69635000D01*
X137996842Y-69692068D01*
X137726589Y-69804010D01*
X137483368Y-69966525D01*
X137276525Y-70173368D01*
X137160000Y-70347760D01*
X137043475Y-70173368D01*
X136836632Y-69966525D01*
X136593411Y-69804010D01*
X136323158Y-69692068D01*
X136036260Y-69635000D01*
X135743740Y-69635000D01*
X135456842Y-69692068D01*
X135186589Y-69804010D01*
X134943368Y-69966525D01*
X134736525Y-70173368D01*
X134620000Y-70347760D01*
X134503475Y-70173368D01*
X134296632Y-69966525D01*
X134053411Y-69804010D01*
X133783158Y-69692068D01*
X133496260Y-69635000D01*
X133203740Y-69635000D01*
X132916842Y-69692068D01*
X132646589Y-69804010D01*
X132403368Y-69966525D01*
X132196525Y-70173368D01*
X132080000Y-70347760D01*
X131963475Y-70173368D01*
X131756632Y-69966525D01*
X131513411Y-69804010D01*
X131243158Y-69692068D01*
X130956260Y-69635000D01*
X130663740Y-69635000D01*
X130376842Y-69692068D01*
X130106589Y-69804010D01*
X129863368Y-69966525D01*
X129656525Y-70173368D01*
X129540000Y-70347760D01*
X129423475Y-70173368D01*
X129216632Y-69966525D01*
X128973411Y-69804010D01*
X128703158Y-69692068D01*
X128416260Y-69635000D01*
X128123740Y-69635000D01*
X127836842Y-69692068D01*
X127566589Y-69804010D01*
X127323368Y-69966525D01*
X127116525Y-70173368D01*
X126954010Y-70416589D01*
X126842068Y-70686842D01*
X126785000Y-70973740D01*
X114960000Y-70973740D01*
X114960000Y-69882279D01*
X114974722Y-69732131D01*
X115008953Y-69618754D01*
X115064555Y-69514181D01*
X115139407Y-69422404D01*
X115230664Y-69346909D01*
X115334844Y-69290581D01*
X115447976Y-69255560D01*
X115596022Y-69240000D01*
X158717721Y-69240000D01*
X158867869Y-69254722D01*
G37*
X158867869Y-69254722D02*
X158981246Y-69288953D01*
X159085819Y-69344555D01*
X159177596Y-69419407D01*
X159253091Y-69510664D01*
X159309419Y-69614844D01*
X159344440Y-69727976D01*
X159360000Y-69876022D01*
X159360001Y-137127711D01*
X159345278Y-137277869D01*
X159311047Y-137391246D01*
X159255446Y-137495817D01*
X159180594Y-137587595D01*
X159089335Y-137663091D01*
X158985160Y-137719419D01*
X158872024Y-137754440D01*
X158723979Y-137770000D01*
X115602279Y-137770000D01*
X115452131Y-137755278D01*
X115338754Y-137721047D01*
X115234183Y-137665446D01*
X115142405Y-137590594D01*
X115066909Y-137499335D01*
X115010581Y-137395160D01*
X114975560Y-137282024D01*
X114960000Y-137133979D01*
X114960000Y-134399872D01*
X115875000Y-134399872D01*
X115875000Y-134840128D01*
X115960890Y-135271925D01*
X116129369Y-135678669D01*
X116373962Y-136044729D01*
X116685271Y-136356038D01*
X117051331Y-136600631D01*
X117458075Y-136769110D01*
X117889872Y-136855000D01*
X118330128Y-136855000D01*
X118761925Y-136769110D01*
X119168669Y-136600631D01*
X119534729Y-136356038D01*
X119846038Y-136044729D01*
X120090631Y-135678669D01*
X120259110Y-135271925D01*
X120345000Y-134840128D01*
X120345000Y-134399872D01*
X120259110Y-133968075D01*
X120090631Y-133561331D01*
X119854988Y-133208665D01*
X134455000Y-133208665D01*
X134455000Y-133491335D01*
X134510147Y-133768574D01*
X134618320Y-134029727D01*
X134775363Y-134264759D01*
X134975241Y-134464637D01*
X135210273Y-134621680D01*
X135471426Y-134729853D01*
X135748665Y-134785000D01*
X136031335Y-134785000D01*
X136308574Y-134729853D01*
X136569727Y-134621680D01*
X136804759Y-134464637D01*
X137004637Y-134264759D01*
X137161680Y-134029727D01*
X137269853Y-133768574D01*
X137325000Y-133491335D01*
X137325000Y-133208665D01*
X142805000Y-133208665D01*
X142805000Y-133491335D01*
X142860147Y-133768574D01*
X142968320Y-134029727D01*
X143125363Y-134264759D01*
X143325241Y-134464637D01*
X143560273Y-134621680D01*
X143821426Y-134729853D01*
X144098665Y-134785000D01*
X144381335Y-134785000D01*
X144658574Y-134729853D01*
X144919727Y-134621680D01*
X145154759Y-134464637D01*
X145354637Y-134264759D01*
X145511680Y-134029727D01*
X145619853Y-133768574D01*
X145675000Y-133491335D01*
X145675000Y-133208665D01*
X147155000Y-133208665D01*
X147155000Y-133491335D01*
X147210147Y-133768574D01*
X147318320Y-134029727D01*
X147475363Y-134264759D01*
X147675241Y-134464637D01*
X147910273Y-134621680D01*
X148171426Y-134729853D01*
X148448665Y-134785000D01*
X148731335Y-134785000D01*
X149008574Y-134729853D01*
X149269727Y-134621680D01*
X149504759Y-134464637D01*
X149569524Y-134399872D01*
X153975000Y-134399872D01*
X153975000Y-134840128D01*
X154060890Y-135271925D01*
X154229369Y-135678669D01*
X154473962Y-136044729D01*
X154785271Y-136356038D01*
X155151331Y-136600631D01*
X155558075Y-136769110D01*
X155989872Y-136855000D01*
X156430128Y-136855000D01*
X156861925Y-136769110D01*
X157268669Y-136600631D01*
X157634729Y-136356038D01*
X157946038Y-136044729D01*
X158190631Y-135678669D01*
X158359110Y-135271925D01*
X158445000Y-134840128D01*
X158445000Y-134399872D01*
X158359110Y-133968075D01*
X158190631Y-133561331D01*
X157946038Y-133195271D01*
X157634729Y-132883962D01*
X157268669Y-132639369D01*
X156861925Y-132470890D01*
X156430128Y-132385000D01*
X155989872Y-132385000D01*
X155558075Y-132470890D01*
X155151331Y-132639369D01*
X154785271Y-132883962D01*
X154473962Y-133195271D01*
X154229369Y-133561331D01*
X154060890Y-133968075D01*
X153975000Y-134399872D01*
X149569524Y-134399872D01*
X149704637Y-134264759D01*
X149861680Y-134029727D01*
X149969853Y-133768574D01*
X150025000Y-133491335D01*
X150025000Y-133208665D01*
X149969853Y-132931426D01*
X149861680Y-132670273D01*
X149704637Y-132435241D01*
X149504759Y-132235363D01*
X149269727Y-132078320D01*
X149008574Y-131970147D01*
X148731335Y-131915000D01*
X148448665Y-131915000D01*
X148171426Y-131970147D01*
X147910273Y-132078320D01*
X147675241Y-132235363D01*
X147475363Y-132435241D01*
X147318320Y-132670273D01*
X147210147Y-132931426D01*
X147155000Y-133208665D01*
X145675000Y-133208665D01*
X145619853Y-132931426D01*
X145511680Y-132670273D01*
X145354637Y-132435241D01*
X145154759Y-132235363D01*
X144919727Y-132078320D01*
X144658574Y-131970147D01*
X144381335Y-131915000D01*
X144098665Y-131915000D01*
X143821426Y-131970147D01*
X143560273Y-132078320D01*
X143325241Y-132235363D01*
X143125363Y-132435241D01*
X142968320Y-132670273D01*
X142860147Y-132931426D01*
X142805000Y-133208665D01*
X137325000Y-133208665D01*
X137269853Y-132931426D01*
X137161680Y-132670273D01*
X137004637Y-132435241D01*
X136804759Y-132235363D01*
X136569727Y-132078320D01*
X136308574Y-131970147D01*
X136031335Y-131915000D01*
X135748665Y-131915000D01*
X135471426Y-131970147D01*
X135210273Y-132078320D01*
X134975241Y-132235363D01*
X134775363Y-132435241D01*
X134618320Y-132670273D01*
X134510147Y-132931426D01*
X134455000Y-133208665D01*
X119854988Y-133208665D01*
X119846038Y-133195271D01*
X119534729Y-132883962D01*
X119168669Y-132639369D01*
X118761925Y-132470890D01*
X118330128Y-132385000D01*
X117889872Y-132385000D01*
X117458075Y-132470890D01*
X117051331Y-132639369D01*
X116685271Y-132883962D01*
X116373962Y-133195271D01*
X116129369Y-133561331D01*
X115960890Y-133968075D01*
X115875000Y-134399872D01*
X114960000Y-134399872D01*
X114960000Y-118630000D01*
X117991928Y-118630000D01*
X117991928Y-120130000D01*
X118004188Y-120254482D01*
X118040498Y-120374180D01*
X118099463Y-120484494D01*
X118178815Y-120581185D01*
X118275506Y-120660537D01*
X118385820Y-120719502D01*
X118505518Y-120755812D01*
X118613483Y-120766445D01*
X118497114Y-120844201D01*
X118304201Y-121037114D01*
X118152629Y-121263957D01*
X118048225Y-121516011D01*
X117995000Y-121783589D01*
X117995000Y-122056411D01*
X118048225Y-122323989D01*
X118152629Y-122576043D01*
X118304201Y-122802886D01*
X118497114Y-122995799D01*
X118723957Y-123147371D01*
X118826873Y-123190000D01*
X118723957Y-123232629D01*
X118497114Y-123384201D01*
X118304201Y-123577114D01*
X118152629Y-123803957D01*
X118048225Y-124056011D01*
X117995000Y-124323589D01*
X117995000Y-124596411D01*
X118048225Y-124863989D01*
X118152629Y-125116043D01*
X118304201Y-125342886D01*
X118497114Y-125535799D01*
X118723957Y-125687371D01*
X118976011Y-125791775D01*
X119243589Y-125845000D01*
X119516411Y-125845000D01*
X119783989Y-125791775D01*
X120036043Y-125687371D01*
X120262886Y-125535799D01*
X120455799Y-125342886D01*
X120607371Y-125116043D01*
X120711775Y-124863989D01*
X120765000Y-124596411D01*
X120765000Y-124323589D01*
X120711775Y-124056011D01*
X120607371Y-123803957D01*
X120455799Y-123577114D01*
X120262886Y-123384201D01*
X120036043Y-123232629D01*
X119933127Y-123190000D01*
X120036043Y-123147371D01*
X120262886Y-122995799D01*
X120455799Y-122802886D01*
X120517863Y-122710000D01*
X125881928Y-122710000D01*
X125881928Y-126210000D01*
X125894188Y-126334482D01*
X125930498Y-126454180D01*
X125989463Y-126564494D01*
X126068815Y-126661185D01*
X126165506Y-126740537D01*
X126275820Y-126799502D01*
X126395518Y-126835812D01*
X126520000Y-126848072D01*
X130020000Y-126848072D01*
X130144482Y-126835812D01*
X130264180Y-126799502D01*
X130374494Y-126740537D01*
X130471185Y-126661185D01*
X130550537Y-126564494D01*
X130591494Y-126487869D01*
X130581928Y-126585000D01*
X130581928Y-128335000D01*
X130611001Y-128630186D01*
X130697104Y-128914028D01*
X130836927Y-129175618D01*
X131025097Y-129404903D01*
X131254382Y-129593073D01*
X131515972Y-129732896D01*
X131799814Y-129818999D01*
X132095000Y-129848072D01*
X133845000Y-129848072D01*
X134140186Y-129818999D01*
X134424028Y-129732896D01*
X134685618Y-129593073D01*
X134914903Y-129404903D01*
X135103073Y-129175618D01*
X135242896Y-128914028D01*
X135328999Y-128630186D01*
X135358072Y-128335000D01*
X135358072Y-126585000D01*
X135328999Y-126289814D01*
X135242896Y-126005972D01*
X135103073Y-125744382D01*
X135091270Y-125730000D01*
X138057319Y-125730000D01*
X138087970Y-126041204D01*
X138178745Y-126340449D01*
X138326155Y-126616235D01*
X138524537Y-126857963D01*
X138766265Y-127056345D01*
X139042051Y-127203755D01*
X139341296Y-127294530D01*
X139574514Y-127317500D01*
X139825486Y-127317500D01*
X140058704Y-127294530D01*
X140357949Y-127203755D01*
X140633735Y-127056345D01*
X140875463Y-126857963D01*
X140951756Y-126765000D01*
X148199388Y-126765000D01*
X148221785Y-126992400D01*
X148288115Y-127211060D01*
X148395829Y-127412579D01*
X148540788Y-127589212D01*
X148717421Y-127734171D01*
X148918940Y-127841885D01*
X149137600Y-127908215D01*
X149308021Y-127925000D01*
X150271979Y-127925000D01*
X150442400Y-127908215D01*
X150661060Y-127841885D01*
X150862579Y-127734171D01*
X151039212Y-127589212D01*
X151184171Y-127412579D01*
X151291885Y-127211060D01*
X151358215Y-126992400D01*
X151380612Y-126765000D01*
X151358215Y-126537600D01*
X151291885Y-126318940D01*
X151184171Y-126117421D01*
X151039212Y-125940788D01*
X150862579Y-125795829D01*
X150661060Y-125688115D01*
X150442400Y-125621785D01*
X150271979Y-125605000D01*
X149308021Y-125605000D01*
X149137600Y-125621785D01*
X148918940Y-125688115D01*
X148717421Y-125795829D01*
X148540788Y-125940788D01*
X148395829Y-126117421D01*
X148288115Y-126318940D01*
X148221785Y-126537600D01*
X148199388Y-126765000D01*
X140951756Y-126765000D01*
X141073845Y-126616235D01*
X141221255Y-126340449D01*
X141312030Y-126041204D01*
X141342681Y-125730000D01*
X141312030Y-125418796D01*
X141221255Y-125119551D01*
X141073845Y-124843765D01*
X140875463Y-124602037D01*
X140633735Y-124403655D01*
X140357949Y-124256245D01*
X140058704Y-124165470D01*
X139825486Y-124142500D01*
X139574514Y-124142500D01*
X139341296Y-124165470D01*
X139042051Y-124256245D01*
X138766265Y-124403655D01*
X138524537Y-124602037D01*
X138326155Y-124843765D01*
X138178745Y-125119551D01*
X138087970Y-125418796D01*
X138057319Y-125730000D01*
X135091270Y-125730000D01*
X134914903Y-125515097D01*
X134685618Y-125326927D01*
X134424028Y-125187104D01*
X134140186Y-125101001D01*
X133845000Y-125071928D01*
X132095000Y-125071928D01*
X131799814Y-125101001D01*
X131515972Y-125187104D01*
X131254382Y-125326927D01*
X131025097Y-125515097D01*
X130836927Y-125744382D01*
X130697104Y-126005972D01*
X130658072Y-126134643D01*
X130658072Y-122955098D01*
X153975000Y-122955098D01*
X153975000Y-123424902D01*
X154066654Y-123885679D01*
X154246440Y-124319721D01*
X154507450Y-124710349D01*
X154839651Y-125042550D01*
X155230279Y-125303560D01*
X155664321Y-125483346D01*
X156125098Y-125575000D01*
X156594902Y-125575000D01*
X157055679Y-125483346D01*
X157489721Y-125303560D01*
X157880349Y-125042550D01*
X158212550Y-124710349D01*
X158473560Y-124319721D01*
X158653346Y-123885679D01*
X158745000Y-123424902D01*
X158745000Y-122955098D01*
X158653346Y-122494321D01*
X158473560Y-122060279D01*
X158212550Y-121669651D01*
X157880349Y-121337450D01*
X157489721Y-121076440D01*
X157055679Y-120896654D01*
X156594902Y-120805000D01*
X156125098Y-120805000D01*
X155664321Y-120896654D01*
X155230279Y-121076440D01*
X154839651Y-121337450D01*
X154507450Y-121669651D01*
X154246440Y-122060279D01*
X154066654Y-122494321D01*
X153975000Y-122955098D01*
X130658072Y-122955098D01*
X130658072Y-122710000D01*
X130645812Y-122585518D01*
X130609502Y-122465820D01*
X130550537Y-122355506D01*
X130471185Y-122258815D01*
X130374494Y-122179463D01*
X130264180Y-122120498D01*
X130144482Y-122084188D01*
X130020000Y-122071928D01*
X126520000Y-122071928D01*
X126395518Y-122084188D01*
X126275820Y-122120498D01*
X126165506Y-122179463D01*
X126068815Y-122258815D01*
X125989463Y-122355506D01*
X125930498Y-122465820D01*
X125894188Y-122585518D01*
X125881928Y-122710000D01*
X120517863Y-122710000D01*
X120607371Y-122576043D01*
X120711775Y-122323989D01*
X120765000Y-122056411D01*
X120765000Y-121783589D01*
X120711775Y-121516011D01*
X120607371Y-121263957D01*
X120455799Y-121037114D01*
X120262886Y-120844201D01*
X120146517Y-120766445D01*
X120254482Y-120755812D01*
X120374180Y-120719502D01*
X120484494Y-120660537D01*
X120581185Y-120581185D01*
X120660537Y-120484494D01*
X120719502Y-120374180D01*
X120755812Y-120254482D01*
X120768072Y-120130000D01*
X120768072Y-119697500D01*
X138061928Y-119697500D01*
X138061928Y-121602500D01*
X138074188Y-121726982D01*
X138110498Y-121846680D01*
X138169463Y-121956994D01*
X138248815Y-122053685D01*
X138345506Y-122133037D01*
X138455820Y-122192002D01*
X138575518Y-122228312D01*
X138700000Y-122240572D01*
X140700000Y-122240572D01*
X140824482Y-122228312D01*
X140944180Y-122192002D01*
X141054494Y-122133037D01*
X141151185Y-122053685D01*
X141230537Y-121956994D01*
X141289502Y-121846680D01*
X141325812Y-121726982D01*
X141338072Y-121602500D01*
X141338072Y-119697500D01*
X141329947Y-119615000D01*
X148199388Y-119615000D01*
X148221785Y-119842400D01*
X148288115Y-120061060D01*
X148395829Y-120262579D01*
X148540788Y-120439212D01*
X148717421Y-120584171D01*
X148918940Y-120691885D01*
X149137600Y-120758215D01*
X149308021Y-120775000D01*
X150271979Y-120775000D01*
X150442400Y-120758215D01*
X150661060Y-120691885D01*
X150862579Y-120584171D01*
X151039212Y-120439212D01*
X151184171Y-120262579D01*
X151291885Y-120061060D01*
X151358215Y-119842400D01*
X151380612Y-119615000D01*
X151358215Y-119387600D01*
X151291885Y-119168940D01*
X151184171Y-118967421D01*
X151039212Y-118790788D01*
X150862579Y-118645829D01*
X150661060Y-118538115D01*
X150442400Y-118471785D01*
X150271979Y-118455000D01*
X149308021Y-118455000D01*
X149137600Y-118471785D01*
X148918940Y-118538115D01*
X148717421Y-118645829D01*
X148540788Y-118790788D01*
X148395829Y-118967421D01*
X148288115Y-119168940D01*
X148221785Y-119387600D01*
X148199388Y-119615000D01*
X141329947Y-119615000D01*
X141325812Y-119573018D01*
X141289502Y-119453320D01*
X141230537Y-119343006D01*
X141151185Y-119246315D01*
X141054494Y-119166963D01*
X140944180Y-119107998D01*
X140824482Y-119071688D01*
X140700000Y-119059428D01*
X138700000Y-119059428D01*
X138575518Y-119071688D01*
X138455820Y-119107998D01*
X138345506Y-119166963D01*
X138248815Y-119246315D01*
X138169463Y-119343006D01*
X138110498Y-119453320D01*
X138074188Y-119573018D01*
X138061928Y-119697500D01*
X120768072Y-119697500D01*
X120768072Y-118630000D01*
X120755812Y-118505518D01*
X120719502Y-118385820D01*
X120660537Y-118275506D01*
X120581185Y-118178815D01*
X120484494Y-118099463D01*
X120374180Y-118040498D01*
X120254482Y-118004188D01*
X120130000Y-117991928D01*
X118630000Y-117991928D01*
X118505518Y-118004188D01*
X118385820Y-118040498D01*
X118275506Y-118099463D01*
X118178815Y-118178815D01*
X118099463Y-118275506D01*
X118040498Y-118385820D01*
X118004188Y-118505518D01*
X117991928Y-118630000D01*
X114960000Y-118630000D01*
X114960000Y-114158665D01*
X119215000Y-114158665D01*
X119215000Y-114441335D01*
X119270147Y-114718574D01*
X119378320Y-114979727D01*
X119535363Y-115214759D01*
X119735241Y-115414637D01*
X119970273Y-115571680D01*
X120231426Y-115679853D01*
X120508665Y-115735000D01*
X120791335Y-115735000D01*
X121068574Y-115679853D01*
X121329727Y-115571680D01*
X121564759Y-115414637D01*
X121764637Y-115214759D01*
X121920000Y-114982241D01*
X122075363Y-115214759D01*
X122275241Y-115414637D01*
X122510273Y-115571680D01*
X122771426Y-115679853D01*
X123048665Y-115735000D01*
X123331335Y-115735000D01*
X123608574Y-115679853D01*
X123869727Y-115571680D01*
X124104759Y-115414637D01*
X124304637Y-115214759D01*
X124460000Y-114982241D01*
X124615363Y-115214759D01*
X124815241Y-115414637D01*
X125050273Y-115571680D01*
X125311426Y-115679853D01*
X125588665Y-115735000D01*
X125871335Y-115735000D01*
X126148574Y-115679853D01*
X126409727Y-115571680D01*
X126644759Y-115414637D01*
X126844637Y-115214759D01*
X127000000Y-114982241D01*
X127155363Y-115214759D01*
X127355241Y-115414637D01*
X127590273Y-115571680D01*
X127851426Y-115679853D01*
X128128665Y-115735000D01*
X128411335Y-115735000D01*
X128688574Y-115679853D01*
X128949727Y-115571680D01*
X129184759Y-115414637D01*
X129384637Y-115214759D01*
X129540000Y-114982241D01*
X129695363Y-115214759D01*
X129895241Y-115414637D01*
X130130273Y-115571680D01*
X130391426Y-115679853D01*
X130668665Y-115735000D01*
X130951335Y-115735000D01*
X131228574Y-115679853D01*
X131489727Y-115571680D01*
X131724759Y-115414637D01*
X131924637Y-115214759D01*
X132080000Y-114982241D01*
X132235363Y-115214759D01*
X132435241Y-115414637D01*
X132670273Y-115571680D01*
X132931426Y-115679853D01*
X133208665Y-115735000D01*
X133491335Y-115735000D01*
X133768574Y-115679853D01*
X134029727Y-115571680D01*
X134264759Y-115414637D01*
X134464637Y-115214759D01*
X134620000Y-114982241D01*
X134775363Y-115214759D01*
X134975241Y-115414637D01*
X135210273Y-115571680D01*
X135471426Y-115679853D01*
X135748665Y-115735000D01*
X136031335Y-115735000D01*
X136308574Y-115679853D01*
X136569727Y-115571680D01*
X136804759Y-115414637D01*
X137004637Y-115214759D01*
X137161680Y-114979727D01*
X137269853Y-114718574D01*
X137325000Y-114441335D01*
X137325000Y-114158665D01*
X139535000Y-114158665D01*
X139535000Y-114441335D01*
X139590147Y-114718574D01*
X139698320Y-114979727D01*
X139855363Y-115214759D01*
X140055241Y-115414637D01*
X140290273Y-115571680D01*
X140551426Y-115679853D01*
X140828665Y-115735000D01*
X141111335Y-115735000D01*
X141388574Y-115679853D01*
X141649727Y-115571680D01*
X141884759Y-115414637D01*
X142084637Y-115214759D01*
X142240000Y-114982241D01*
X142395363Y-115214759D01*
X142595241Y-115414637D01*
X142830273Y-115571680D01*
X143091426Y-115679853D01*
X143368665Y-115735000D01*
X143651335Y-115735000D01*
X143928574Y-115679853D01*
X144189727Y-115571680D01*
X144424759Y-115414637D01*
X144624637Y-115214759D01*
X144780000Y-114982241D01*
X144935363Y-115214759D01*
X145135241Y-115414637D01*
X145370273Y-115571680D01*
X145631426Y-115679853D01*
X145908665Y-115735000D01*
X146191335Y-115735000D01*
X146468574Y-115679853D01*
X146729727Y-115571680D01*
X146964759Y-115414637D01*
X147164637Y-115214759D01*
X147320000Y-114982241D01*
X147475363Y-115214759D01*
X147675241Y-115414637D01*
X147910273Y-115571680D01*
X148171426Y-115679853D01*
X148448665Y-115735000D01*
X148731335Y-115735000D01*
X149008574Y-115679853D01*
X149269727Y-115571680D01*
X149504759Y-115414637D01*
X149704637Y-115214759D01*
X149860000Y-114982241D01*
X150015363Y-115214759D01*
X150215241Y-115414637D01*
X150450273Y-115571680D01*
X150711426Y-115679853D01*
X150988665Y-115735000D01*
X151271335Y-115735000D01*
X151548574Y-115679853D01*
X151809727Y-115571680D01*
X152044759Y-115414637D01*
X152244637Y-115214759D01*
X152400000Y-114982241D01*
X152555363Y-115214759D01*
X152755241Y-115414637D01*
X152990273Y-115571680D01*
X153251426Y-115679853D01*
X153528665Y-115735000D01*
X153811335Y-115735000D01*
X154088574Y-115679853D01*
X154349727Y-115571680D01*
X154584759Y-115414637D01*
X154784637Y-115214759D01*
X154941680Y-114979727D01*
X155049853Y-114718574D01*
X155105000Y-114441335D01*
X155105000Y-114158665D01*
X155049853Y-113881426D01*
X154941680Y-113620273D01*
X154784637Y-113385241D01*
X154584759Y-113185363D01*
X154349727Y-113028320D01*
X154088574Y-112920147D01*
X153811335Y-112865000D01*
X153528665Y-112865000D01*
X153251426Y-112920147D01*
X152990273Y-113028320D01*
X152755241Y-113185363D01*
X152555363Y-113385241D01*
X152400000Y-113617759D01*
X152244637Y-113385241D01*
X152044759Y-113185363D01*
X151809727Y-113028320D01*
X151548574Y-112920147D01*
X151271335Y-112865000D01*
X150988665Y-112865000D01*
X150711426Y-112920147D01*
X150450273Y-113028320D01*
X150215241Y-113185363D01*
X150015363Y-113385241D01*
X149860000Y-113617759D01*
X149704637Y-113385241D01*
X149504759Y-113185363D01*
X149269727Y-113028320D01*
X149008574Y-112920147D01*
X148731335Y-112865000D01*
X148448665Y-112865000D01*
X148171426Y-112920147D01*
X147910273Y-113028320D01*
X147675241Y-113185363D01*
X147475363Y-113385241D01*
X147320000Y-113617759D01*
X147164637Y-113385241D01*
X146964759Y-113185363D01*
X146729727Y-113028320D01*
X146468574Y-112920147D01*
X146191335Y-112865000D01*
X145908665Y-112865000D01*
X145631426Y-112920147D01*
X145370273Y-113028320D01*
X145135241Y-113185363D01*
X144935363Y-113385241D01*
X144780000Y-113617759D01*
X144624637Y-113385241D01*
X144424759Y-113185363D01*
X144189727Y-113028320D01*
X143928574Y-112920147D01*
X143651335Y-112865000D01*
X143368665Y-112865000D01*
X143091426Y-112920147D01*
X142830273Y-113028320D01*
X142595241Y-113185363D01*
X142395363Y-113385241D01*
X142240000Y-113617759D01*
X142084637Y-113385241D01*
X141884759Y-113185363D01*
X141649727Y-113028320D01*
X141388574Y-112920147D01*
X141111335Y-112865000D01*
X140828665Y-112865000D01*
X140551426Y-112920147D01*
X140290273Y-113028320D01*
X140055241Y-113185363D01*
X139855363Y-113385241D01*
X139698320Y-113620273D01*
X139590147Y-113881426D01*
X139535000Y-114158665D01*
X137325000Y-114158665D01*
X137269853Y-113881426D01*
X137161680Y-113620273D01*
X137004637Y-113385241D01*
X136804759Y-113185363D01*
X136569727Y-113028320D01*
X136308574Y-112920147D01*
X136031335Y-112865000D01*
X135859801Y-112865000D01*
X138941003Y-109783799D01*
X138970001Y-109760001D01*
X138996332Y-109727917D01*
X139064974Y-109644277D01*
X139135546Y-109512247D01*
X139179003Y-109368986D01*
X139190000Y-109257333D01*
X139190000Y-109257323D01*
X139193676Y-109220000D01*
X139190000Y-109182677D01*
X139190000Y-107898043D01*
X139344759Y-107794637D01*
X139544637Y-107594759D01*
X139700000Y-107362241D01*
X139855363Y-107594759D01*
X140055241Y-107794637D01*
X140290273Y-107951680D01*
X140551426Y-108059853D01*
X140828665Y-108115000D01*
X141111335Y-108115000D01*
X141388574Y-108059853D01*
X141649727Y-107951680D01*
X141884759Y-107794637D01*
X142084637Y-107594759D01*
X142240000Y-107362241D01*
X142395363Y-107594759D01*
X142595241Y-107794637D01*
X142830273Y-107951680D01*
X143091426Y-108059853D01*
X143368665Y-108115000D01*
X143651335Y-108115000D01*
X143928574Y-108059853D01*
X144189727Y-107951680D01*
X144424759Y-107794637D01*
X144624637Y-107594759D01*
X144780000Y-107362241D01*
X144935363Y-107594759D01*
X145135241Y-107794637D01*
X145370273Y-107951680D01*
X145631426Y-108059853D01*
X145908665Y-108115000D01*
X146191335Y-108115000D01*
X146468574Y-108059853D01*
X146729727Y-107951680D01*
X146964759Y-107794637D01*
X147164637Y-107594759D01*
X147320000Y-107362241D01*
X147475363Y-107594759D01*
X147675241Y-107794637D01*
X147910273Y-107951680D01*
X148171426Y-108059853D01*
X148448665Y-108115000D01*
X148731335Y-108115000D01*
X149008574Y-108059853D01*
X149269727Y-107951680D01*
X149504759Y-107794637D01*
X149704637Y-107594759D01*
X149860000Y-107362241D01*
X150015363Y-107594759D01*
X150215241Y-107794637D01*
X150450273Y-107951680D01*
X150711426Y-108059853D01*
X150988665Y-108115000D01*
X151271335Y-108115000D01*
X151548574Y-108059853D01*
X151809727Y-107951680D01*
X152044759Y-107794637D01*
X152243357Y-107596039D01*
X152244188Y-107604482D01*
X152280498Y-107724180D01*
X152339463Y-107834494D01*
X152418815Y-107931185D01*
X152515506Y-108010537D01*
X152625820Y-108069502D01*
X152745518Y-108105812D01*
X152870000Y-108118072D01*
X154470000Y-108118072D01*
X154594482Y-108105812D01*
X154714180Y-108069502D01*
X154824494Y-108010537D01*
X154921185Y-107931185D01*
X155000537Y-107834494D01*
X155059502Y-107724180D01*
X155095812Y-107604482D01*
X155108072Y-107480000D01*
X155108072Y-105880000D01*
X155095812Y-105755518D01*
X155059502Y-105635820D01*
X155000537Y-105525506D01*
X154921185Y-105428815D01*
X154824494Y-105349463D01*
X154714180Y-105290498D01*
X154594482Y-105254188D01*
X154470000Y-105241928D01*
X152870000Y-105241928D01*
X152745518Y-105254188D01*
X152625820Y-105290498D01*
X152515506Y-105349463D01*
X152418815Y-105428815D01*
X152339463Y-105525506D01*
X152280498Y-105635820D01*
X152244188Y-105755518D01*
X152243357Y-105763961D01*
X152044759Y-105565363D01*
X151809727Y-105408320D01*
X151548574Y-105300147D01*
X151271335Y-105245000D01*
X150988665Y-105245000D01*
X150711426Y-105300147D01*
X150450273Y-105408320D01*
X150215241Y-105565363D01*
X150015363Y-105765241D01*
X149860000Y-105997759D01*
X149704637Y-105765241D01*
X149504759Y-105565363D01*
X149269727Y-105408320D01*
X149008574Y-105300147D01*
X148731335Y-105245000D01*
X148448665Y-105245000D01*
X148171426Y-105300147D01*
X147910273Y-105408320D01*
X147675241Y-105565363D01*
X147475363Y-105765241D01*
X147320000Y-105997759D01*
X147164637Y-105765241D01*
X146964759Y-105565363D01*
X146729727Y-105408320D01*
X146468574Y-105300147D01*
X146191335Y-105245000D01*
X145908665Y-105245000D01*
X145631426Y-105300147D01*
X145370273Y-105408320D01*
X145135241Y-105565363D01*
X144935363Y-105765241D01*
X144780000Y-105997759D01*
X144624637Y-105765241D01*
X144424759Y-105565363D01*
X144189727Y-105408320D01*
X143928574Y-105300147D01*
X143651335Y-105245000D01*
X143368665Y-105245000D01*
X143091426Y-105300147D01*
X142830273Y-105408320D01*
X142595241Y-105565363D01*
X142395363Y-105765241D01*
X142240000Y-105997759D01*
X142084637Y-105765241D01*
X141884759Y-105565363D01*
X141649727Y-105408320D01*
X141388574Y-105300147D01*
X141111335Y-105245000D01*
X140828665Y-105245000D01*
X140551426Y-105300147D01*
X140290273Y-105408320D01*
X140055241Y-105565363D01*
X139855363Y-105765241D01*
X139700000Y-105997759D01*
X139544637Y-105765241D01*
X139344759Y-105565363D01*
X139109727Y-105408320D01*
X138848574Y-105300147D01*
X138571335Y-105245000D01*
X138288665Y-105245000D01*
X138011426Y-105300147D01*
X137750273Y-105408320D01*
X137515241Y-105565363D01*
X137315363Y-105765241D01*
X137158320Y-106000273D01*
X137050147Y-106261426D01*
X136995000Y-106538665D01*
X136995000Y-106821335D01*
X137050147Y-107098574D01*
X137158320Y-107359727D01*
X137315363Y-107594759D01*
X137515241Y-107794637D01*
X137670000Y-107898044D01*
X137670001Y-108905197D01*
X133673887Y-112901312D01*
X133491335Y-112865000D01*
X133208665Y-112865000D01*
X132931426Y-112920147D01*
X132670273Y-113028320D01*
X132435241Y-113185363D01*
X132235363Y-113385241D01*
X132080000Y-113617759D01*
X131924637Y-113385241D01*
X131724759Y-113185363D01*
X131489727Y-113028320D01*
X131228574Y-112920147D01*
X130951335Y-112865000D01*
X130668665Y-112865000D01*
X130391426Y-112920147D01*
X130130273Y-113028320D01*
X129895241Y-113185363D01*
X129695363Y-113385241D01*
X129540000Y-113617759D01*
X129384637Y-113385241D01*
X129184759Y-113185363D01*
X128949727Y-113028320D01*
X128688574Y-112920147D01*
X128411335Y-112865000D01*
X128128665Y-112865000D01*
X127851426Y-112920147D01*
X127590273Y-113028320D01*
X127355241Y-113185363D01*
X127155363Y-113385241D01*
X127000000Y-113617759D01*
X126844637Y-113385241D01*
X126644759Y-113185363D01*
X126409727Y-113028320D01*
X126148574Y-112920147D01*
X125871335Y-112865000D01*
X125588665Y-112865000D01*
X125311426Y-112920147D01*
X125050273Y-113028320D01*
X124815241Y-113185363D01*
X124615363Y-113385241D01*
X124460000Y-113617759D01*
X124304637Y-113385241D01*
X124104759Y-113185363D01*
X123869727Y-113028320D01*
X123608574Y-112920147D01*
X123331335Y-112865000D01*
X123048665Y-112865000D01*
X122771426Y-112920147D01*
X122510273Y-113028320D01*
X122275241Y-113185363D01*
X122075363Y-113385241D01*
X121920000Y-113617759D01*
X121764637Y-113385241D01*
X121564759Y-113185363D01*
X121329727Y-113028320D01*
X121068574Y-112920147D01*
X120791335Y-112865000D01*
X120508665Y-112865000D01*
X120231426Y-112920147D01*
X119970273Y-113028320D01*
X119735241Y-113185363D01*
X119535363Y-113385241D01*
X119378320Y-113620273D01*
X119270147Y-113881426D01*
X119215000Y-114158665D01*
X114960000Y-114158665D01*
X114960000Y-106538665D01*
X119215000Y-106538665D01*
X119215000Y-106821335D01*
X119270147Y-107098574D01*
X119378320Y-107359727D01*
X119535363Y-107594759D01*
X119735241Y-107794637D01*
X119970273Y-107951680D01*
X120231426Y-108059853D01*
X120508665Y-108115000D01*
X120791335Y-108115000D01*
X121068574Y-108059853D01*
X121329727Y-107951680D01*
X121564759Y-107794637D01*
X121764637Y-107594759D01*
X121920000Y-107362241D01*
X122075363Y-107594759D01*
X122275241Y-107794637D01*
X122510273Y-107951680D01*
X122771426Y-108059853D01*
X123048665Y-108115000D01*
X123331335Y-108115000D01*
X123608574Y-108059853D01*
X123869727Y-107951680D01*
X124104759Y-107794637D01*
X124304637Y-107594759D01*
X124460000Y-107362241D01*
X124615363Y-107594759D01*
X124815241Y-107794637D01*
X125050273Y-107951680D01*
X125311426Y-108059853D01*
X125588665Y-108115000D01*
X125871335Y-108115000D01*
X126148574Y-108059853D01*
X126409727Y-107951680D01*
X126644759Y-107794637D01*
X126844637Y-107594759D01*
X127000000Y-107362241D01*
X127155363Y-107594759D01*
X127355241Y-107794637D01*
X127590273Y-107951680D01*
X127851426Y-108059853D01*
X128128665Y-108115000D01*
X128411335Y-108115000D01*
X128688574Y-108059853D01*
X128949727Y-107951680D01*
X129184759Y-107794637D01*
X129384637Y-107594759D01*
X129540000Y-107362241D01*
X129695363Y-107594759D01*
X129895241Y-107794637D01*
X130130273Y-107951680D01*
X130391426Y-108059853D01*
X130668665Y-108115000D01*
X130951335Y-108115000D01*
X131228574Y-108059853D01*
X131489727Y-107951680D01*
X131724759Y-107794637D01*
X131924637Y-107594759D01*
X132080000Y-107362241D01*
X132235363Y-107594759D01*
X132435241Y-107794637D01*
X132670273Y-107951680D01*
X132931426Y-108059853D01*
X133208665Y-108115000D01*
X133491335Y-108115000D01*
X133768574Y-108059853D01*
X134029727Y-107951680D01*
X134264759Y-107794637D01*
X134464637Y-107594759D01*
X134621680Y-107359727D01*
X134729853Y-107098574D01*
X134785000Y-106821335D01*
X134785000Y-106538665D01*
X134729853Y-106261426D01*
X134621680Y-106000273D01*
X134464637Y-105765241D01*
X134264759Y-105565363D01*
X134029727Y-105408320D01*
X133768574Y-105300147D01*
X133491335Y-105245000D01*
X133208665Y-105245000D01*
X132931426Y-105300147D01*
X132670273Y-105408320D01*
X132435241Y-105565363D01*
X132235363Y-105765241D01*
X132080000Y-105997759D01*
X131924637Y-105765241D01*
X131724759Y-105565363D01*
X131489727Y-105408320D01*
X131228574Y-105300147D01*
X130951335Y-105245000D01*
X130668665Y-105245000D01*
X130391426Y-105300147D01*
X130130273Y-105408320D01*
X129895241Y-105565363D01*
X129695363Y-105765241D01*
X129540000Y-105997759D01*
X129384637Y-105765241D01*
X129184759Y-105565363D01*
X128949727Y-105408320D01*
X128688574Y-105300147D01*
X128411335Y-105245000D01*
X128128665Y-105245000D01*
X127851426Y-105300147D01*
X127590273Y-105408320D01*
X127355241Y-105565363D01*
X127155363Y-105765241D01*
X127000000Y-105997759D01*
X126844637Y-105765241D01*
X126644759Y-105565363D01*
X126409727Y-105408320D01*
X126148574Y-105300147D01*
X125871335Y-105245000D01*
X125588665Y-105245000D01*
X125311426Y-105300147D01*
X125050273Y-105408320D01*
X124815241Y-105565363D01*
X124615363Y-105765241D01*
X124460000Y-105997759D01*
X124304637Y-105765241D01*
X124104759Y-105565363D01*
X123869727Y-105408320D01*
X123608574Y-105300147D01*
X123331335Y-105245000D01*
X123048665Y-105245000D01*
X122771426Y-105300147D01*
X122510273Y-105408320D01*
X122275241Y-105565363D01*
X122075363Y-105765241D01*
X121920000Y-105997759D01*
X121764637Y-105765241D01*
X121564759Y-105565363D01*
X121329727Y-105408320D01*
X121068574Y-105300147D01*
X120791335Y-105245000D01*
X120508665Y-105245000D01*
X120231426Y-105300147D01*
X119970273Y-105408320D01*
X119735241Y-105565363D01*
X119535363Y-105765241D01*
X119378320Y-106000273D01*
X119270147Y-106261426D01*
X119215000Y-106538665D01*
X114960000Y-106538665D01*
X114960000Y-100188665D01*
X116675000Y-100188665D01*
X116675000Y-100471335D01*
X116730147Y-100748574D01*
X116838320Y-101009727D01*
X116995363Y-101244759D01*
X117195241Y-101444637D01*
X117430273Y-101601680D01*
X117691426Y-101709853D01*
X117968665Y-101765000D01*
X118251335Y-101765000D01*
X118528574Y-101709853D01*
X118789727Y-101601680D01*
X119024759Y-101444637D01*
X119224637Y-101244759D01*
X119381680Y-101009727D01*
X119489853Y-100748574D01*
X119545000Y-100471335D01*
X119545000Y-100188665D01*
X120485000Y-100188665D01*
X120485000Y-100471335D01*
X120540147Y-100748574D01*
X120648320Y-101009727D01*
X120805363Y-101244759D01*
X121005241Y-101444637D01*
X121240273Y-101601680D01*
X121501426Y-101709853D01*
X121778665Y-101765000D01*
X122061335Y-101765000D01*
X122338574Y-101709853D01*
X122599727Y-101601680D01*
X122834759Y-101444637D01*
X123034637Y-101244759D01*
X123191680Y-101009727D01*
X123299853Y-100748574D01*
X123355000Y-100471335D01*
X123355000Y-100188665D01*
X124295000Y-100188665D01*
X124295000Y-100471335D01*
X124350147Y-100748574D01*
X124458320Y-101009727D01*
X124615363Y-101244759D01*
X124815241Y-101444637D01*
X125050273Y-101601680D01*
X125311426Y-101709853D01*
X125588665Y-101765000D01*
X125871335Y-101765000D01*
X126148574Y-101709853D01*
X126409727Y-101601680D01*
X126644759Y-101444637D01*
X126844637Y-101244759D01*
X127001680Y-101009727D01*
X127109853Y-100748574D01*
X127165000Y-100471335D01*
X127165000Y-100188665D01*
X128105000Y-100188665D01*
X128105000Y-100471335D01*
X128160147Y-100748574D01*
X128268320Y-101009727D01*
X128425363Y-101244759D01*
X128625241Y-101444637D01*
X128860273Y-101601680D01*
X129121426Y-101709853D01*
X129398665Y-101765000D01*
X129681335Y-101765000D01*
X129958574Y-101709853D01*
X130219727Y-101601680D01*
X130454759Y-101444637D01*
X130654637Y-101244759D01*
X130811680Y-101009727D01*
X130919853Y-100748574D01*
X130975000Y-100471335D01*
X130975000Y-100188665D01*
X130919853Y-99911426D01*
X130811680Y-99650273D01*
X130654637Y-99415241D01*
X130454759Y-99215363D01*
X130219727Y-99058320D01*
X129958574Y-98950147D01*
X129825060Y-98923589D01*
X133435000Y-98923589D01*
X133435000Y-99196411D01*
X133488225Y-99463989D01*
X133592629Y-99716043D01*
X133744201Y-99942886D01*
X133937114Y-100135799D01*
X134163957Y-100287371D01*
X134416011Y-100391775D01*
X134683589Y-100445000D01*
X134956411Y-100445000D01*
X135223989Y-100391775D01*
X135476043Y-100287371D01*
X135702886Y-100135799D01*
X135895799Y-99942886D01*
X136047371Y-99716043D01*
X136151775Y-99463989D01*
X136205000Y-99196411D01*
X136205000Y-98923589D01*
X138315000Y-98923589D01*
X138315000Y-99196411D01*
X138368225Y-99463989D01*
X138472629Y-99716043D01*
X138624201Y-99942886D01*
X138817114Y-100135799D01*
X139043957Y-100287371D01*
X139296011Y-100391775D01*
X139563589Y-100445000D01*
X139836411Y-100445000D01*
X140103989Y-100391775D01*
X140356043Y-100287371D01*
X140503766Y-100188665D01*
X143345000Y-100188665D01*
X143345000Y-100471335D01*
X143400147Y-100748574D01*
X143508320Y-101009727D01*
X143665363Y-101244759D01*
X143865241Y-101444637D01*
X144100273Y-101601680D01*
X144361426Y-101709853D01*
X144638665Y-101765000D01*
X144921335Y-101765000D01*
X145198574Y-101709853D01*
X145459727Y-101601680D01*
X145694759Y-101444637D01*
X145894637Y-101244759D01*
X146051680Y-101009727D01*
X146159853Y-100748574D01*
X146215000Y-100471335D01*
X146215000Y-100188665D01*
X147155000Y-100188665D01*
X147155000Y-100471335D01*
X147210147Y-100748574D01*
X147318320Y-101009727D01*
X147475363Y-101244759D01*
X147675241Y-101444637D01*
X147910273Y-101601680D01*
X148171426Y-101709853D01*
X148448665Y-101765000D01*
X148731335Y-101765000D01*
X149008574Y-101709853D01*
X149269727Y-101601680D01*
X149504759Y-101444637D01*
X149704637Y-101244759D01*
X149861680Y-101009727D01*
X149969853Y-100748574D01*
X150025000Y-100471335D01*
X150025000Y-100188665D01*
X150965000Y-100188665D01*
X150965000Y-100471335D01*
X151020147Y-100748574D01*
X151128320Y-101009727D01*
X151285363Y-101244759D01*
X151485241Y-101444637D01*
X151720273Y-101601680D01*
X151981426Y-101709853D01*
X152258665Y-101765000D01*
X152541335Y-101765000D01*
X152818574Y-101709853D01*
X153079727Y-101601680D01*
X153314759Y-101444637D01*
X153514637Y-101244759D01*
X153671680Y-101009727D01*
X153779853Y-100748574D01*
X153835000Y-100471335D01*
X153835000Y-100188665D01*
X154775000Y-100188665D01*
X154775000Y-100471335D01*
X154830147Y-100748574D01*
X154938320Y-101009727D01*
X155095363Y-101244759D01*
X155295241Y-101444637D01*
X155530273Y-101601680D01*
X155791426Y-101709853D01*
X156068665Y-101765000D01*
X156351335Y-101765000D01*
X156628574Y-101709853D01*
X156889727Y-101601680D01*
X157124759Y-101444637D01*
X157324637Y-101244759D01*
X157481680Y-101009727D01*
X157589853Y-100748574D01*
X157645000Y-100471335D01*
X157645000Y-100188665D01*
X157589853Y-99911426D01*
X157481680Y-99650273D01*
X157324637Y-99415241D01*
X157124759Y-99215363D01*
X156889727Y-99058320D01*
X156628574Y-98950147D01*
X156351335Y-98895000D01*
X156068665Y-98895000D01*
X155791426Y-98950147D01*
X155530273Y-99058320D01*
X155295241Y-99215363D01*
X155095363Y-99415241D01*
X154938320Y-99650273D01*
X154830147Y-99911426D01*
X154775000Y-100188665D01*
X153835000Y-100188665D01*
X153779853Y-99911426D01*
X153671680Y-99650273D01*
X153514637Y-99415241D01*
X153314759Y-99215363D01*
X153079727Y-99058320D01*
X152818574Y-98950147D01*
X152541335Y-98895000D01*
X152258665Y-98895000D01*
X151981426Y-98950147D01*
X151720273Y-99058320D01*
X151485241Y-99215363D01*
X151285363Y-99415241D01*
X151128320Y-99650273D01*
X151020147Y-99911426D01*
X150965000Y-100188665D01*
X150025000Y-100188665D01*
X149969853Y-99911426D01*
X149861680Y-99650273D01*
X149704637Y-99415241D01*
X149504759Y-99215363D01*
X149269727Y-99058320D01*
X149008574Y-98950147D01*
X148731335Y-98895000D01*
X148448665Y-98895000D01*
X148171426Y-98950147D01*
X147910273Y-99058320D01*
X147675241Y-99215363D01*
X147475363Y-99415241D01*
X147318320Y-99650273D01*
X147210147Y-99911426D01*
X147155000Y-100188665D01*
X146215000Y-100188665D01*
X146159853Y-99911426D01*
X146051680Y-99650273D01*
X145894637Y-99415241D01*
X145694759Y-99215363D01*
X145459727Y-99058320D01*
X145198574Y-98950147D01*
X144921335Y-98895000D01*
X144638665Y-98895000D01*
X144361426Y-98950147D01*
X144100273Y-99058320D01*
X143865241Y-99215363D01*
X143665363Y-99415241D01*
X143508320Y-99650273D01*
X143400147Y-99911426D01*
X143345000Y-100188665D01*
X140503766Y-100188665D01*
X140582886Y-100135799D01*
X140775799Y-99942886D01*
X140927371Y-99716043D01*
X141031775Y-99463989D01*
X141085000Y-99196411D01*
X141085000Y-98923589D01*
X141031775Y-98656011D01*
X140927371Y-98403957D01*
X140775799Y-98177114D01*
X140582886Y-97984201D01*
X140356043Y-97832629D01*
X140103989Y-97728225D01*
X139836411Y-97675000D01*
X139563589Y-97675000D01*
X139296011Y-97728225D01*
X139043957Y-97832629D01*
X138817114Y-97984201D01*
X138624201Y-98177114D01*
X138472629Y-98403957D01*
X138368225Y-98656011D01*
X138315000Y-98923589D01*
X136205000Y-98923589D01*
X136151775Y-98656011D01*
X136047371Y-98403957D01*
X135895799Y-98177114D01*
X135702886Y-97984201D01*
X135476043Y-97832629D01*
X135223989Y-97728225D01*
X134956411Y-97675000D01*
X134683589Y-97675000D01*
X134416011Y-97728225D01*
X134163957Y-97832629D01*
X133937114Y-97984201D01*
X133744201Y-98177114D01*
X133592629Y-98403957D01*
X133488225Y-98656011D01*
X133435000Y-98923589D01*
X129825060Y-98923589D01*
X129681335Y-98895000D01*
X129398665Y-98895000D01*
X129121426Y-98950147D01*
X128860273Y-99058320D01*
X128625241Y-99215363D01*
X128425363Y-99415241D01*
X128268320Y-99650273D01*
X128160147Y-99911426D01*
X128105000Y-100188665D01*
X127165000Y-100188665D01*
X127109853Y-99911426D01*
X127001680Y-99650273D01*
X126844637Y-99415241D01*
X126644759Y-99215363D01*
X126409727Y-99058320D01*
X126148574Y-98950147D01*
X125871335Y-98895000D01*
X125588665Y-98895000D01*
X125311426Y-98950147D01*
X125050273Y-99058320D01*
X124815241Y-99215363D01*
X124615363Y-99415241D01*
X124458320Y-99650273D01*
X124350147Y-99911426D01*
X124295000Y-100188665D01*
X123355000Y-100188665D01*
X123299853Y-99911426D01*
X123191680Y-99650273D01*
X123034637Y-99415241D01*
X122834759Y-99215363D01*
X122599727Y-99058320D01*
X122338574Y-98950147D01*
X122061335Y-98895000D01*
X121778665Y-98895000D01*
X121501426Y-98950147D01*
X121240273Y-99058320D01*
X121005241Y-99215363D01*
X120805363Y-99415241D01*
X120648320Y-99650273D01*
X120540147Y-99911426D01*
X120485000Y-100188665D01*
X119545000Y-100188665D01*
X119489853Y-99911426D01*
X119381680Y-99650273D01*
X119224637Y-99415241D01*
X119024759Y-99215363D01*
X118789727Y-99058320D01*
X118528574Y-98950147D01*
X118251335Y-98895000D01*
X117968665Y-98895000D01*
X117691426Y-98950147D01*
X117430273Y-99058320D01*
X117195241Y-99215363D01*
X116995363Y-99415241D01*
X116838320Y-99650273D01*
X116730147Y-99911426D01*
X116675000Y-100188665D01*
X114960000Y-100188665D01*
X114960000Y-92568665D01*
X116675000Y-92568665D01*
X116675000Y-92851335D01*
X116730147Y-93128574D01*
X116838320Y-93389727D01*
X116995363Y-93624759D01*
X117195241Y-93824637D01*
X117430273Y-93981680D01*
X117691426Y-94089853D01*
X117968665Y-94145000D01*
X118251335Y-94145000D01*
X118528574Y-94089853D01*
X118789727Y-93981680D01*
X119024759Y-93824637D01*
X119224637Y-93624759D01*
X119381680Y-93389727D01*
X119489853Y-93128574D01*
X119545000Y-92851335D01*
X119545000Y-92568665D01*
X120485000Y-92568665D01*
X120485000Y-92851335D01*
X120540147Y-93128574D01*
X120648320Y-93389727D01*
X120805363Y-93624759D01*
X121005241Y-93824637D01*
X121240273Y-93981680D01*
X121501426Y-94089853D01*
X121778665Y-94145000D01*
X122061335Y-94145000D01*
X122338574Y-94089853D01*
X122599727Y-93981680D01*
X122834759Y-93824637D01*
X123034637Y-93624759D01*
X123191680Y-93389727D01*
X123299853Y-93128574D01*
X123355000Y-92851335D01*
X123355000Y-92568665D01*
X124295000Y-92568665D01*
X124295000Y-92851335D01*
X124350147Y-93128574D01*
X124458320Y-93389727D01*
X124615363Y-93624759D01*
X124815241Y-93824637D01*
X125050273Y-93981680D01*
X125311426Y-94089853D01*
X125588665Y-94145000D01*
X125871335Y-94145000D01*
X126148574Y-94089853D01*
X126409727Y-93981680D01*
X126644759Y-93824637D01*
X126844637Y-93624759D01*
X127001680Y-93389727D01*
X127109853Y-93128574D01*
X127165000Y-92851335D01*
X127165000Y-92568665D01*
X128105000Y-92568665D01*
X128105000Y-92851335D01*
X128160147Y-93128574D01*
X128268320Y-93389727D01*
X128425363Y-93624759D01*
X128625241Y-93824637D01*
X128860273Y-93981680D01*
X129121426Y-94089853D01*
X129398665Y-94145000D01*
X129681335Y-94145000D01*
X129958574Y-94089853D01*
X130219727Y-93981680D01*
X130433764Y-93838665D01*
X131915000Y-93838665D01*
X131915000Y-94121335D01*
X131970147Y-94398574D01*
X132078320Y-94659727D01*
X132235363Y-94894759D01*
X132435241Y-95094637D01*
X132670273Y-95251680D01*
X132931426Y-95359853D01*
X133208665Y-95415000D01*
X133491335Y-95415000D01*
X133768574Y-95359853D01*
X134029727Y-95251680D01*
X134264759Y-95094637D01*
X134464637Y-94894759D01*
X134621680Y-94659727D01*
X134729853Y-94398574D01*
X134785000Y-94121335D01*
X134785000Y-93838665D01*
X139535000Y-93838665D01*
X139535000Y-94121335D01*
X139590147Y-94398574D01*
X139698320Y-94659727D01*
X139855363Y-94894759D01*
X140055241Y-95094637D01*
X140290273Y-95251680D01*
X140551426Y-95359853D01*
X140828665Y-95415000D01*
X141111335Y-95415000D01*
X141388574Y-95359853D01*
X141649727Y-95251680D01*
X141884759Y-95094637D01*
X142084637Y-94894759D01*
X142241680Y-94659727D01*
X142349853Y-94398574D01*
X142405000Y-94121335D01*
X142405000Y-93838665D01*
X142349853Y-93561426D01*
X142241680Y-93300273D01*
X142084637Y-93065241D01*
X141884759Y-92865363D01*
X141649727Y-92708320D01*
X141388574Y-92600147D01*
X141230306Y-92568665D01*
X143345000Y-92568665D01*
X143345000Y-92851335D01*
X143400147Y-93128574D01*
X143508320Y-93389727D01*
X143665363Y-93624759D01*
X143865241Y-93824637D01*
X144100273Y-93981680D01*
X144361426Y-94089853D01*
X144638665Y-94145000D01*
X144921335Y-94145000D01*
X145198574Y-94089853D01*
X145459727Y-93981680D01*
X145694759Y-93824637D01*
X145894637Y-93624759D01*
X146051680Y-93389727D01*
X146159853Y-93128574D01*
X146215000Y-92851335D01*
X146215000Y-92568665D01*
X147155000Y-92568665D01*
X147155000Y-92851335D01*
X147210147Y-93128574D01*
X147318320Y-93389727D01*
X147475363Y-93624759D01*
X147675241Y-93824637D01*
X147910273Y-93981680D01*
X148171426Y-94089853D01*
X148448665Y-94145000D01*
X148731335Y-94145000D01*
X149008574Y-94089853D01*
X149269727Y-93981680D01*
X149504759Y-93824637D01*
X149704637Y-93624759D01*
X149861680Y-93389727D01*
X149969853Y-93128574D01*
X150025000Y-92851335D01*
X150025000Y-92568665D01*
X150965000Y-92568665D01*
X150965000Y-92851335D01*
X151020147Y-93128574D01*
X151128320Y-93389727D01*
X151285363Y-93624759D01*
X151485241Y-93824637D01*
X151720273Y-93981680D01*
X151981426Y-94089853D01*
X152258665Y-94145000D01*
X152541335Y-94145000D01*
X152818574Y-94089853D01*
X153079727Y-93981680D01*
X153314759Y-93824637D01*
X153514637Y-93624759D01*
X153671680Y-93389727D01*
X153779853Y-93128574D01*
X153835000Y-92851335D01*
X153835000Y-92568665D01*
X154775000Y-92568665D01*
X154775000Y-92851335D01*
X154830147Y-93128574D01*
X154938320Y-93389727D01*
X155095363Y-93624759D01*
X155295241Y-93824637D01*
X155530273Y-93981680D01*
X155791426Y-94089853D01*
X156068665Y-94145000D01*
X156351335Y-94145000D01*
X156628574Y-94089853D01*
X156889727Y-93981680D01*
X157124759Y-93824637D01*
X157324637Y-93624759D01*
X157481680Y-93389727D01*
X157589853Y-93128574D01*
X157645000Y-92851335D01*
X157645000Y-92568665D01*
X157589853Y-92291426D01*
X157481680Y-92030273D01*
X157324637Y-91795241D01*
X157124759Y-91595363D01*
X156889727Y-91438320D01*
X156628574Y-91330147D01*
X156351335Y-91275000D01*
X156068665Y-91275000D01*
X155791426Y-91330147D01*
X155530273Y-91438320D01*
X155295241Y-91595363D01*
X155095363Y-91795241D01*
X154938320Y-92030273D01*
X154830147Y-92291426D01*
X154775000Y-92568665D01*
X153835000Y-92568665D01*
X153779853Y-92291426D01*
X153671680Y-92030273D01*
X153514637Y-91795241D01*
X153314759Y-91595363D01*
X153079727Y-91438320D01*
X152818574Y-91330147D01*
X152541335Y-91275000D01*
X152258665Y-91275000D01*
X151981426Y-91330147D01*
X151720273Y-91438320D01*
X151485241Y-91595363D01*
X151285363Y-91795241D01*
X151128320Y-92030273D01*
X151020147Y-92291426D01*
X150965000Y-92568665D01*
X150025000Y-92568665D01*
X149969853Y-92291426D01*
X149861680Y-92030273D01*
X149704637Y-91795241D01*
X149504759Y-91595363D01*
X149269727Y-91438320D01*
X149008574Y-91330147D01*
X148731335Y-91275000D01*
X148448665Y-91275000D01*
X148171426Y-91330147D01*
X147910273Y-91438320D01*
X147675241Y-91595363D01*
X147475363Y-91795241D01*
X147318320Y-92030273D01*
X147210147Y-92291426D01*
X147155000Y-92568665D01*
X146215000Y-92568665D01*
X146159853Y-92291426D01*
X146051680Y-92030273D01*
X145894637Y-91795241D01*
X145694759Y-91595363D01*
X145459727Y-91438320D01*
X145198574Y-91330147D01*
X144921335Y-91275000D01*
X144638665Y-91275000D01*
X144361426Y-91330147D01*
X144100273Y-91438320D01*
X143865241Y-91595363D01*
X143665363Y-91795241D01*
X143508320Y-92030273D01*
X143400147Y-92291426D01*
X143345000Y-92568665D01*
X141230306Y-92568665D01*
X141111335Y-92545000D01*
X140828665Y-92545000D01*
X140551426Y-92600147D01*
X140290273Y-92708320D01*
X140055241Y-92865363D01*
X139855363Y-93065241D01*
X139698320Y-93300273D01*
X139590147Y-93561426D01*
X139535000Y-93838665D01*
X134785000Y-93838665D01*
X134729853Y-93561426D01*
X134621680Y-93300273D01*
X134464637Y-93065241D01*
X134264759Y-92865363D01*
X134029727Y-92708320D01*
X133768574Y-92600147D01*
X133491335Y-92545000D01*
X133208665Y-92545000D01*
X132931426Y-92600147D01*
X132670273Y-92708320D01*
X132435241Y-92865363D01*
X132235363Y-93065241D01*
X132078320Y-93300273D01*
X131970147Y-93561426D01*
X131915000Y-93838665D01*
X130433764Y-93838665D01*
X130454759Y-93824637D01*
X130654637Y-93624759D01*
X130811680Y-93389727D01*
X130919853Y-93128574D01*
X130975000Y-92851335D01*
X130975000Y-92568665D01*
X130919853Y-92291426D01*
X130811680Y-92030273D01*
X130654637Y-91795241D01*
X130454759Y-91595363D01*
X130219727Y-91438320D01*
X129958574Y-91330147D01*
X129681335Y-91275000D01*
X129398665Y-91275000D01*
X129121426Y-91330147D01*
X128860273Y-91438320D01*
X128625241Y-91595363D01*
X128425363Y-91795241D01*
X128268320Y-92030273D01*
X128160147Y-92291426D01*
X128105000Y-92568665D01*
X127165000Y-92568665D01*
X127109853Y-92291426D01*
X127001680Y-92030273D01*
X126844637Y-91795241D01*
X126644759Y-91595363D01*
X126409727Y-91438320D01*
X126148574Y-91330147D01*
X125871335Y-91275000D01*
X125588665Y-91275000D01*
X125311426Y-91330147D01*
X125050273Y-91438320D01*
X124815241Y-91595363D01*
X124615363Y-91795241D01*
X124458320Y-92030273D01*
X124350147Y-92291426D01*
X124295000Y-92568665D01*
X123355000Y-92568665D01*
X123299853Y-92291426D01*
X123191680Y-92030273D01*
X123034637Y-91795241D01*
X122834759Y-91595363D01*
X122599727Y-91438320D01*
X122338574Y-91330147D01*
X122061335Y-91275000D01*
X121778665Y-91275000D01*
X121501426Y-91330147D01*
X121240273Y-91438320D01*
X121005241Y-91595363D01*
X120805363Y-91795241D01*
X120648320Y-92030273D01*
X120540147Y-92291426D01*
X120485000Y-92568665D01*
X119545000Y-92568665D01*
X119489853Y-92291426D01*
X119381680Y-92030273D01*
X119224637Y-91795241D01*
X119024759Y-91595363D01*
X118789727Y-91438320D01*
X118528574Y-91330147D01*
X118251335Y-91275000D01*
X117968665Y-91275000D01*
X117691426Y-91330147D01*
X117430273Y-91438320D01*
X117195241Y-91595363D01*
X116995363Y-91795241D01*
X116838320Y-92030273D01*
X116730147Y-92291426D01*
X116675000Y-92568665D01*
X114960000Y-92568665D01*
X114960000Y-90028665D01*
X131955000Y-90028665D01*
X131955000Y-90311335D01*
X132010147Y-90588574D01*
X132118320Y-90849727D01*
X132275363Y-91084759D01*
X132475241Y-91284637D01*
X132710273Y-91441680D01*
X132971426Y-91549853D01*
X133248665Y-91605000D01*
X133531335Y-91605000D01*
X133808574Y-91549853D01*
X134069727Y-91441680D01*
X134304759Y-91284637D01*
X134504637Y-91084759D01*
X134661680Y-90849727D01*
X134769853Y-90588574D01*
X134825000Y-90311335D01*
X134825000Y-90028665D01*
X139495000Y-90028665D01*
X139495000Y-90311335D01*
X139550147Y-90588574D01*
X139658320Y-90849727D01*
X139815363Y-91084759D01*
X140015241Y-91284637D01*
X140250273Y-91441680D01*
X140511426Y-91549853D01*
X140788665Y-91605000D01*
X141071335Y-91605000D01*
X141348574Y-91549853D01*
X141609727Y-91441680D01*
X141844759Y-91284637D01*
X142044637Y-91084759D01*
X142201680Y-90849727D01*
X142309853Y-90588574D01*
X142365000Y-90311335D01*
X142365000Y-90028665D01*
X142309853Y-89751426D01*
X142201680Y-89490273D01*
X142044637Y-89255241D01*
X141844759Y-89055363D01*
X141609727Y-88898320D01*
X141348574Y-88790147D01*
X141071335Y-88735000D01*
X140788665Y-88735000D01*
X140511426Y-88790147D01*
X140250273Y-88898320D01*
X140015241Y-89055363D01*
X139815363Y-89255241D01*
X139658320Y-89490273D01*
X139550147Y-89751426D01*
X139495000Y-90028665D01*
X134825000Y-90028665D01*
X134769853Y-89751426D01*
X134661680Y-89490273D01*
X134504637Y-89255241D01*
X134304759Y-89055363D01*
X134069727Y-88898320D01*
X133808574Y-88790147D01*
X133531335Y-88735000D01*
X133248665Y-88735000D01*
X132971426Y-88790147D01*
X132710273Y-88898320D01*
X132475241Y-89055363D01*
X132275363Y-89255241D01*
X132118320Y-89490273D01*
X132010147Y-89751426D01*
X131955000Y-90028665D01*
X114960000Y-90028665D01*
X114960000Y-82970000D01*
X126781928Y-82970000D01*
X126781928Y-84670000D01*
X126794188Y-84794482D01*
X126830498Y-84914180D01*
X126889463Y-85024494D01*
X126968815Y-85121185D01*
X127065506Y-85200537D01*
X127175820Y-85259502D01*
X127295518Y-85295812D01*
X127420000Y-85308072D01*
X129120000Y-85308072D01*
X129244482Y-85295812D01*
X129364180Y-85259502D01*
X129474494Y-85200537D01*
X129571185Y-85121185D01*
X129650537Y-85024494D01*
X129709502Y-84914180D01*
X129731513Y-84841620D01*
X129863368Y-84973475D01*
X130106589Y-85135990D01*
X130376842Y-85247932D01*
X130663740Y-85305000D01*
X130956260Y-85305000D01*
X131243158Y-85247932D01*
X131513411Y-85135990D01*
X131756632Y-84973475D01*
X131963475Y-84766632D01*
X132080000Y-84592240D01*
X132196525Y-84766632D01*
X132403368Y-84973475D01*
X132646589Y-85135990D01*
X132916842Y-85247932D01*
X133203740Y-85305000D01*
X133496260Y-85305000D01*
X133783158Y-85247932D01*
X134053411Y-85135990D01*
X134296632Y-84973475D01*
X134503475Y-84766632D01*
X134620000Y-84592240D01*
X134736525Y-84766632D01*
X134943368Y-84973475D01*
X135186589Y-85135990D01*
X135456842Y-85247932D01*
X135743740Y-85305000D01*
X136036260Y-85305000D01*
X136323158Y-85247932D01*
X136593411Y-85135990D01*
X136836632Y-84973475D01*
X137043475Y-84766632D01*
X137160000Y-84592240D01*
X137276525Y-84766632D01*
X137483368Y-84973475D01*
X137726589Y-85135990D01*
X137996842Y-85247932D01*
X138283740Y-85305000D01*
X138576260Y-85305000D01*
X138863158Y-85247932D01*
X139133411Y-85135990D01*
X139376632Y-84973475D01*
X139583475Y-84766632D01*
X139700000Y-84592240D01*
X139816525Y-84766632D01*
X140023368Y-84973475D01*
X140266589Y-85135990D01*
X140536842Y-85247932D01*
X140823740Y-85305000D01*
X141116260Y-85305000D01*
X141403158Y-85247932D01*
X141673411Y-85135990D01*
X141916632Y-84973475D01*
X142123475Y-84766632D01*
X142240000Y-84592240D01*
X142356525Y-84766632D01*
X142563368Y-84973475D01*
X142806589Y-85135990D01*
X143076842Y-85247932D01*
X143363740Y-85305000D01*
X143656260Y-85305000D01*
X143943158Y-85247932D01*
X144213411Y-85135990D01*
X144456632Y-84973475D01*
X144663475Y-84766632D01*
X144780000Y-84592240D01*
X144896525Y-84766632D01*
X145103368Y-84973475D01*
X145346589Y-85135990D01*
X145616842Y-85247932D01*
X145903740Y-85305000D01*
X146196260Y-85305000D01*
X146483158Y-85247932D01*
X146753411Y-85135990D01*
X146996632Y-84973475D01*
X147203475Y-84766632D01*
X147365990Y-84523411D01*
X147477932Y-84253158D01*
X147535000Y-83966260D01*
X147535000Y-83673740D01*
X147477932Y-83386842D01*
X147365990Y-83116589D01*
X147203475Y-82873368D01*
X146996632Y-82666525D01*
X146753411Y-82504010D01*
X146483158Y-82392068D01*
X146196260Y-82335000D01*
X145903740Y-82335000D01*
X145616842Y-82392068D01*
X145346589Y-82504010D01*
X145103368Y-82666525D01*
X144896525Y-82873368D01*
X144780000Y-83047760D01*
X144663475Y-82873368D01*
X144456632Y-82666525D01*
X144213411Y-82504010D01*
X143943158Y-82392068D01*
X143656260Y-82335000D01*
X143363740Y-82335000D01*
X143076842Y-82392068D01*
X142806589Y-82504010D01*
X142563368Y-82666525D01*
X142356525Y-82873368D01*
X142240000Y-83047760D01*
X142123475Y-82873368D01*
X141916632Y-82666525D01*
X141673411Y-82504010D01*
X141403158Y-82392068D01*
X141116260Y-82335000D01*
X140823740Y-82335000D01*
X140536842Y-82392068D01*
X140266589Y-82504010D01*
X140023368Y-82666525D01*
X139816525Y-82873368D01*
X139700000Y-83047760D01*
X139583475Y-82873368D01*
X139376632Y-82666525D01*
X139133411Y-82504010D01*
X138863158Y-82392068D01*
X138576260Y-82335000D01*
X138283740Y-82335000D01*
X137996842Y-82392068D01*
X137726589Y-82504010D01*
X137483368Y-82666525D01*
X137276525Y-82873368D01*
X137160000Y-83047760D01*
X137043475Y-82873368D01*
X136836632Y-82666525D01*
X136593411Y-82504010D01*
X136323158Y-82392068D01*
X136036260Y-82335000D01*
X135743740Y-82335000D01*
X135456842Y-82392068D01*
X135186589Y-82504010D01*
X134943368Y-82666525D01*
X134736525Y-82873368D01*
X134620000Y-83047760D01*
X134503475Y-82873368D01*
X134296632Y-82666525D01*
X134053411Y-82504010D01*
X133783158Y-82392068D01*
X133496260Y-82335000D01*
X133203740Y-82335000D01*
X132916842Y-82392068D01*
X132646589Y-82504010D01*
X132403368Y-82666525D01*
X132196525Y-82873368D01*
X132080000Y-83047760D01*
X131963475Y-82873368D01*
X131756632Y-82666525D01*
X131513411Y-82504010D01*
X131243158Y-82392068D01*
X130956260Y-82335000D01*
X130663740Y-82335000D01*
X130376842Y-82392068D01*
X130106589Y-82504010D01*
X129863368Y-82666525D01*
X129731513Y-82798380D01*
X129709502Y-82725820D01*
X129650537Y-82615506D01*
X129571185Y-82518815D01*
X129474494Y-82439463D01*
X129364180Y-82380498D01*
X129244482Y-82344188D01*
X129120000Y-82331928D01*
X127420000Y-82331928D01*
X127295518Y-82344188D01*
X127175820Y-82380498D01*
X127065506Y-82439463D01*
X126968815Y-82518815D01*
X126889463Y-82615506D01*
X126830498Y-82725820D01*
X126794188Y-82845518D01*
X126781928Y-82970000D01*
X114960000Y-82970000D01*
X114960000Y-70973740D01*
X126785000Y-70973740D01*
X126785000Y-71266260D01*
X126842068Y-71553158D01*
X126954010Y-71823411D01*
X127116525Y-72066632D01*
X127323368Y-72273475D01*
X127566589Y-72435990D01*
X127836842Y-72547932D01*
X128123740Y-72605000D01*
X128416260Y-72605000D01*
X128703158Y-72547932D01*
X128973411Y-72435990D01*
X129216632Y-72273475D01*
X129423475Y-72066632D01*
X129540000Y-71892240D01*
X129656525Y-72066632D01*
X129863368Y-72273475D01*
X130106589Y-72435990D01*
X130376842Y-72547932D01*
X130663740Y-72605000D01*
X130956260Y-72605000D01*
X131243158Y-72547932D01*
X131513411Y-72435990D01*
X131756632Y-72273475D01*
X131963475Y-72066632D01*
X132080000Y-71892240D01*
X132196525Y-72066632D01*
X132403368Y-72273475D01*
X132646589Y-72435990D01*
X132916842Y-72547932D01*
X133203740Y-72605000D01*
X133496260Y-72605000D01*
X133783158Y-72547932D01*
X134053411Y-72435990D01*
X134296632Y-72273475D01*
X134503475Y-72066632D01*
X134620000Y-71892240D01*
X134736525Y-72066632D01*
X134943368Y-72273475D01*
X135186589Y-72435990D01*
X135456842Y-72547932D01*
X135743740Y-72605000D01*
X136036260Y-72605000D01*
X136323158Y-72547932D01*
X136593411Y-72435990D01*
X136836632Y-72273475D01*
X137043475Y-72066632D01*
X137160000Y-71892240D01*
X137276525Y-72066632D01*
X137483368Y-72273475D01*
X137726589Y-72435990D01*
X137996842Y-72547932D01*
X138283740Y-72605000D01*
X138576260Y-72605000D01*
X138863158Y-72547932D01*
X139133411Y-72435990D01*
X139376632Y-72273475D01*
X139583475Y-72066632D01*
X139700000Y-71892240D01*
X139816525Y-72066632D01*
X140023368Y-72273475D01*
X140266589Y-72435990D01*
X140536842Y-72547932D01*
X140823740Y-72605000D01*
X141116260Y-72605000D01*
X141403158Y-72547932D01*
X141673411Y-72435990D01*
X141916632Y-72273475D01*
X142123475Y-72066632D01*
X142240000Y-71892240D01*
X142356525Y-72066632D01*
X142563368Y-72273475D01*
X142806589Y-72435990D01*
X143076842Y-72547932D01*
X143363740Y-72605000D01*
X143656260Y-72605000D01*
X143943158Y-72547932D01*
X144213411Y-72435990D01*
X144456632Y-72273475D01*
X144663475Y-72066632D01*
X144780000Y-71892240D01*
X144896525Y-72066632D01*
X145103368Y-72273475D01*
X145346589Y-72435990D01*
X145616842Y-72547932D01*
X145903740Y-72605000D01*
X146196260Y-72605000D01*
X146483158Y-72547932D01*
X146753411Y-72435990D01*
X146996632Y-72273475D01*
X147203475Y-72066632D01*
X147365990Y-71823411D01*
X147477932Y-71553158D01*
X147535000Y-71266260D01*
X147535000Y-70973740D01*
X147477932Y-70686842D01*
X147365990Y-70416589D01*
X147203475Y-70173368D01*
X146996632Y-69966525D01*
X146753411Y-69804010D01*
X146483158Y-69692068D01*
X146196260Y-69635000D01*
X145903740Y-69635000D01*
X145616842Y-69692068D01*
X145346589Y-69804010D01*
X145103368Y-69966525D01*
X144896525Y-70173368D01*
X144780000Y-70347760D01*
X144663475Y-70173368D01*
X144456632Y-69966525D01*
X144213411Y-69804010D01*
X143943158Y-69692068D01*
X143656260Y-69635000D01*
X143363740Y-69635000D01*
X143076842Y-69692068D01*
X142806589Y-69804010D01*
X142563368Y-69966525D01*
X142356525Y-70173368D01*
X142240000Y-70347760D01*
X142123475Y-70173368D01*
X141916632Y-69966525D01*
X141673411Y-69804010D01*
X141403158Y-69692068D01*
X141116260Y-69635000D01*
X140823740Y-69635000D01*
X140536842Y-69692068D01*
X140266589Y-69804010D01*
X140023368Y-69966525D01*
X139816525Y-70173368D01*
X139700000Y-70347760D01*
X139583475Y-70173368D01*
X139376632Y-69966525D01*
X139133411Y-69804010D01*
X138863158Y-69692068D01*
X138576260Y-69635000D01*
X138283740Y-69635000D01*
X137996842Y-69692068D01*
X137726589Y-69804010D01*
X137483368Y-69966525D01*
X137276525Y-70173368D01*
X137160000Y-70347760D01*
X137043475Y-70173368D01*
X136836632Y-69966525D01*
X136593411Y-69804010D01*
X136323158Y-69692068D01*
X136036260Y-69635000D01*
X135743740Y-69635000D01*
X135456842Y-69692068D01*
X135186589Y-69804010D01*
X134943368Y-69966525D01*
X134736525Y-70173368D01*
X134620000Y-70347760D01*
X134503475Y-70173368D01*
X134296632Y-69966525D01*
X134053411Y-69804010D01*
X133783158Y-69692068D01*
X133496260Y-69635000D01*
X133203740Y-69635000D01*
X132916842Y-69692068D01*
X132646589Y-69804010D01*
X132403368Y-69966525D01*
X132196525Y-70173368D01*
X132080000Y-70347760D01*
X131963475Y-70173368D01*
X131756632Y-69966525D01*
X131513411Y-69804010D01*
X131243158Y-69692068D01*
X130956260Y-69635000D01*
X130663740Y-69635000D01*
X130376842Y-69692068D01*
X130106589Y-69804010D01*
X129863368Y-69966525D01*
X129656525Y-70173368D01*
X129540000Y-70347760D01*
X129423475Y-70173368D01*
X129216632Y-69966525D01*
X128973411Y-69804010D01*
X128703158Y-69692068D01*
X128416260Y-69635000D01*
X128123740Y-69635000D01*
X127836842Y-69692068D01*
X127566589Y-69804010D01*
X127323368Y-69966525D01*
X127116525Y-70173368D01*
X126954010Y-70416589D01*
X126842068Y-70686842D01*
X126785000Y-70973740D01*
X114960000Y-70973740D01*
X114960000Y-69882279D01*
X114974722Y-69732131D01*
X115008953Y-69618754D01*
X115064555Y-69514181D01*
X115139407Y-69422404D01*
X115230664Y-69346909D01*
X115334844Y-69290581D01*
X115447976Y-69255560D01*
X115596022Y-69240000D01*
X158717721Y-69240000D01*
X158867869Y-69254722D01*
M02*
