G04 #@! TF.GenerationSoftware,KiCad,Pcbnew,(5.1.5)-3*
G04 #@! TF.CreationDate,2020-01-03T21:25:54+01:00*
G04 #@! TF.ProjectId,DHT_Disp_1,4448545f-4469-4737-905f-312e6b696361,rev?*
G04 #@! TF.SameCoordinates,Original*
G04 #@! TF.FileFunction,Copper,L2,Bot*
G04 #@! TF.FilePolarity,Positive*
%FSLAX46Y46*%
G04 Gerber Fmt 4.6, Leading zero omitted, Abs format (unit mm)*
G04 Created by KiCad (PCBNEW (5.1.5)-3) date 2020-01-03 21:25:54*
%MOMM*%
%LPD*%
G04 APERTURE LIST*
%ADD10C,0.050000*%
%ADD11R,1.450000X1.150000*%
%ADD12O,1.900000X1.050000*%
%ADD13R,1.900000X1.750000*%
%ADD14R,1.400000X0.400000*%
%ADD15C,1.500000*%
%ADD16R,1.600000X1.600000*%
%ADD17O,1.600000X1.600000*%
%ADD18R,2.000000X1.905000*%
%ADD19O,2.000000X1.905000*%
%ADD20R,1.700000X1.700000*%
%ADD21C,1.700000*%
%ADD22R,1.500000X1.500000*%
%ADD23C,1.600000*%
%ADD24R,3.500000X3.500000*%
%ADD25C,0.100000*%
%ADD26C,0.250000*%
%ADD27C,0.254000*%
G04 APERTURE END LIST*
D10*
X114300000Y-68580000D02*
X114300000Y-138430000D01*
X160020000Y-138430000D02*
X114300000Y-138430000D01*
X160020000Y-68580000D02*
X160020000Y-138430000D01*
X114300000Y-68580000D02*
X160020000Y-68580000D01*
D11*
X147560000Y-120870000D03*
X147560000Y-125510000D03*
D12*
X149790000Y-126765000D03*
X149790000Y-119615000D03*
D13*
X149790000Y-122065000D03*
D14*
X147140000Y-123190000D03*
X147140000Y-123840000D03*
X147140000Y-124490000D03*
X147140000Y-121890000D03*
X147140000Y-122540000D03*
D13*
X149790000Y-124315000D03*
D15*
X134820000Y-99060000D03*
X139700000Y-99060000D03*
D16*
X153670000Y-106680000D03*
D17*
X120650000Y-114300000D03*
X151130000Y-106680000D03*
X123190000Y-114300000D03*
X148590000Y-106680000D03*
X125730000Y-114300000D03*
X146050000Y-106680000D03*
X128270000Y-114300000D03*
X143510000Y-106680000D03*
X130810000Y-114300000D03*
X140970000Y-106680000D03*
X133350000Y-114300000D03*
X138430000Y-106680000D03*
X135890000Y-114300000D03*
X135890000Y-106680000D03*
X138430000Y-114300000D03*
X133350000Y-106680000D03*
X140970000Y-114300000D03*
X130810000Y-106680000D03*
X143510000Y-114300000D03*
X128270000Y-106680000D03*
X146050000Y-114300000D03*
X125730000Y-106680000D03*
X148590000Y-114300000D03*
X123190000Y-106680000D03*
X151130000Y-114300000D03*
X120650000Y-106680000D03*
X153670000Y-114300000D03*
D18*
X139700000Y-120650000D03*
D19*
X139700000Y-123190000D03*
X139700000Y-125730000D03*
D20*
X128270000Y-83820000D03*
D21*
X130810000Y-83820000D03*
X133350000Y-83820000D03*
X135890000Y-83820000D03*
X138430000Y-83820000D03*
X140970000Y-83820000D03*
X143510000Y-83820000D03*
X146050000Y-83820000D03*
X146050000Y-71120000D03*
X143510000Y-71120000D03*
X140970000Y-71120000D03*
X138430000Y-71120000D03*
X135890000Y-71120000D03*
X133350000Y-71120000D03*
X130810000Y-71120000D03*
X128270000Y-71120000D03*
D22*
X119380000Y-119380000D03*
D15*
X119380000Y-121920000D03*
X119380000Y-124460000D03*
X119380000Y-127000000D03*
D23*
X138430000Y-90170000D03*
X140930000Y-90170000D03*
X133390000Y-90170000D03*
X135890000Y-90170000D03*
X142240000Y-133350000D03*
X144240000Y-133350000D03*
X135890000Y-133350000D03*
X137890000Y-133350000D03*
X150590000Y-133350000D03*
X148590000Y-133350000D03*
D24*
X128270000Y-124460000D03*
G04 #@! TA.AperFunction,ComponentPad*
D25*
G36*
X129343513Y-128963611D02*
G01*
X129416318Y-128974411D01*
X129487714Y-128992295D01*
X129557013Y-129017090D01*
X129623548Y-129048559D01*
X129686678Y-129086398D01*
X129745795Y-129130242D01*
X129800330Y-129179670D01*
X129849758Y-129234205D01*
X129893602Y-129293322D01*
X129931441Y-129356452D01*
X129962910Y-129422987D01*
X129987705Y-129492286D01*
X130005589Y-129563682D01*
X130016389Y-129636487D01*
X130020000Y-129710000D01*
X130020000Y-131210000D01*
X130016389Y-131283513D01*
X130005589Y-131356318D01*
X129987705Y-131427714D01*
X129962910Y-131497013D01*
X129931441Y-131563548D01*
X129893602Y-131626678D01*
X129849758Y-131685795D01*
X129800330Y-131740330D01*
X129745795Y-131789758D01*
X129686678Y-131833602D01*
X129623548Y-131871441D01*
X129557013Y-131902910D01*
X129487714Y-131927705D01*
X129416318Y-131945589D01*
X129343513Y-131956389D01*
X129270000Y-131960000D01*
X127270000Y-131960000D01*
X127196487Y-131956389D01*
X127123682Y-131945589D01*
X127052286Y-131927705D01*
X126982987Y-131902910D01*
X126916452Y-131871441D01*
X126853322Y-131833602D01*
X126794205Y-131789758D01*
X126739670Y-131740330D01*
X126690242Y-131685795D01*
X126646398Y-131626678D01*
X126608559Y-131563548D01*
X126577090Y-131497013D01*
X126552295Y-131427714D01*
X126534411Y-131356318D01*
X126523611Y-131283513D01*
X126520000Y-131210000D01*
X126520000Y-129710000D01*
X126523611Y-129636487D01*
X126534411Y-129563682D01*
X126552295Y-129492286D01*
X126577090Y-129422987D01*
X126608559Y-129356452D01*
X126646398Y-129293322D01*
X126690242Y-129234205D01*
X126739670Y-129179670D01*
X126794205Y-129130242D01*
X126853322Y-129086398D01*
X126916452Y-129048559D01*
X126982987Y-129017090D01*
X127052286Y-128992295D01*
X127123682Y-128974411D01*
X127196487Y-128963611D01*
X127270000Y-128960000D01*
X129270000Y-128960000D01*
X129343513Y-128963611D01*
G37*
G04 #@! TD.AperFunction*
G04 #@! TA.AperFunction,ComponentPad*
G36*
X133930765Y-125714213D02*
G01*
X134015704Y-125726813D01*
X134098999Y-125747677D01*
X134179848Y-125776605D01*
X134257472Y-125813319D01*
X134331124Y-125857464D01*
X134400094Y-125908616D01*
X134463718Y-125966282D01*
X134521384Y-126029906D01*
X134572536Y-126098876D01*
X134616681Y-126172528D01*
X134653395Y-126250152D01*
X134682323Y-126331001D01*
X134703187Y-126414296D01*
X134715787Y-126499235D01*
X134720000Y-126585000D01*
X134720000Y-128335000D01*
X134715787Y-128420765D01*
X134703187Y-128505704D01*
X134682323Y-128588999D01*
X134653395Y-128669848D01*
X134616681Y-128747472D01*
X134572536Y-128821124D01*
X134521384Y-128890094D01*
X134463718Y-128953718D01*
X134400094Y-129011384D01*
X134331124Y-129062536D01*
X134257472Y-129106681D01*
X134179848Y-129143395D01*
X134098999Y-129172323D01*
X134015704Y-129193187D01*
X133930765Y-129205787D01*
X133845000Y-129210000D01*
X132095000Y-129210000D01*
X132009235Y-129205787D01*
X131924296Y-129193187D01*
X131841001Y-129172323D01*
X131760152Y-129143395D01*
X131682528Y-129106681D01*
X131608876Y-129062536D01*
X131539906Y-129011384D01*
X131476282Y-128953718D01*
X131418616Y-128890094D01*
X131367464Y-128821124D01*
X131323319Y-128747472D01*
X131286605Y-128669848D01*
X131257677Y-128588999D01*
X131236813Y-128505704D01*
X131224213Y-128420765D01*
X131220000Y-128335000D01*
X131220000Y-126585000D01*
X131224213Y-126499235D01*
X131236813Y-126414296D01*
X131257677Y-126331001D01*
X131286605Y-126250152D01*
X131323319Y-126172528D01*
X131367464Y-126098876D01*
X131418616Y-126029906D01*
X131476282Y-125966282D01*
X131539906Y-125908616D01*
X131608876Y-125857464D01*
X131682528Y-125813319D01*
X131760152Y-125776605D01*
X131841001Y-125747677D01*
X131924296Y-125726813D01*
X132009235Y-125714213D01*
X132095000Y-125710000D01*
X133845000Y-125710000D01*
X133930765Y-125714213D01*
G37*
G04 #@! TD.AperFunction*
D23*
X144780000Y-92710000D03*
D17*
X144780000Y-100330000D03*
D23*
X133350000Y-93980000D03*
D17*
X140970000Y-93980000D03*
X156210000Y-92710000D03*
D23*
X156210000Y-100330000D03*
X152400000Y-100330000D03*
D17*
X152400000Y-92710000D03*
X148590000Y-92710000D03*
D23*
X148590000Y-100330000D03*
X129540000Y-100330000D03*
D17*
X129540000Y-92710000D03*
X125730000Y-92710000D03*
D23*
X125730000Y-100330000D03*
X121920000Y-100330000D03*
D17*
X121920000Y-92710000D03*
X118110000Y-92710000D03*
D23*
X118110000Y-100330000D03*
D26*
X144780000Y-100330000D02*
X138430000Y-106680000D01*
X133350000Y-115431370D02*
X133350000Y-114300000D01*
X138450000Y-125730000D02*
X133350000Y-120630000D01*
X139700000Y-125730000D02*
X138450000Y-125730000D01*
X124604999Y-115155001D02*
X124604999Y-113759999D01*
X119380000Y-119380000D02*
X120380000Y-119380000D01*
X124604999Y-113759999D02*
X125334998Y-113030000D01*
X120380000Y-119380000D02*
X124604999Y-115155001D01*
X132080000Y-113030000D02*
X133350000Y-114300000D01*
X125334998Y-113030000D02*
X132080000Y-113030000D01*
X138427502Y-116840000D02*
X133350000Y-116840000D01*
X144240000Y-122652498D02*
X138427502Y-116840000D01*
X144240000Y-133350000D02*
X144240000Y-122652498D01*
X133350000Y-120630000D02*
X133350000Y-116840000D01*
X133350000Y-116840000D02*
X133350000Y-115431370D01*
X145002498Y-121890000D02*
X144240000Y-122652498D01*
X147140000Y-121890000D02*
X145002498Y-121890000D01*
X148590000Y-133350000D02*
X144240000Y-133350000D01*
X133417070Y-124460000D02*
X130270000Y-124460000D01*
X130270000Y-124460000D02*
X128270000Y-124460000D01*
X135964580Y-127007510D02*
X133417070Y-124460000D01*
X140276661Y-127007510D02*
X135964580Y-127007510D01*
X141025010Y-126259161D02*
X140276661Y-127007510D01*
X141025010Y-120725010D02*
X141025010Y-126259161D01*
X140950000Y-120650000D02*
X141025010Y-120725010D01*
X139700000Y-120650000D02*
X140950000Y-120650000D01*
X135890000Y-127082090D02*
X135964580Y-127007510D01*
X135890000Y-133350000D02*
X135890000Y-127082090D01*
X139700000Y-100330000D02*
X133350000Y-106680000D01*
X139700000Y-99060000D02*
X139700000Y-100330000D01*
X139700000Y-95250000D02*
X140970000Y-93980000D01*
X139700000Y-99060000D02*
X139700000Y-95250000D01*
X140970000Y-90210000D02*
X140930000Y-90170000D01*
X140970000Y-93980000D02*
X140970000Y-90210000D01*
X134820000Y-102670000D02*
X130810000Y-106680000D01*
X134820000Y-99060000D02*
X134820000Y-102670000D01*
X134820000Y-95450000D02*
X133350000Y-93980000D01*
X134820000Y-99060000D02*
X134820000Y-95450000D01*
X133390000Y-93940000D02*
X133350000Y-93980000D01*
X133390000Y-90170000D02*
X133390000Y-93940000D01*
X154720000Y-106680000D02*
X153670000Y-106680000D01*
X157335001Y-104064999D02*
X154720000Y-106680000D01*
X157335001Y-99789999D02*
X157335001Y-104064999D01*
X151380003Y-93835001D02*
X157335001Y-99789999D01*
X145905001Y-93835001D02*
X151380003Y-93835001D01*
X144780000Y-92710000D02*
X145905001Y-93835001D01*
X156210000Y-83820000D02*
X143510000Y-71120000D01*
X156210000Y-92710000D02*
X156210000Y-83820000D01*
X142660001Y-70270001D02*
X143510000Y-71120000D01*
X141884990Y-69494990D02*
X142660001Y-70270001D01*
X132435010Y-69494990D02*
X141884990Y-69494990D01*
X130810000Y-71120000D02*
X132435010Y-69494990D01*
X146849999Y-105880001D02*
X146050000Y-106680000D01*
X150824989Y-101905011D02*
X146849999Y-105880001D01*
X154634989Y-101905011D02*
X150824989Y-101905011D01*
X156210000Y-100330000D02*
X154634989Y-101905011D01*
X144309999Y-105880001D02*
X143510000Y-106680000D01*
X151274999Y-101455001D02*
X148734999Y-101455001D01*
X148734999Y-101455001D02*
X144309999Y-105880001D01*
X152400000Y-100330000D02*
X151274999Y-101455001D01*
X152400000Y-85090000D02*
X138430000Y-71120000D01*
X152400000Y-92710000D02*
X152400000Y-85090000D01*
X135890000Y-71120000D02*
X138430000Y-71120000D01*
X148590000Y-86360000D02*
X146050000Y-83820000D01*
X148590000Y-92710000D02*
X148590000Y-86360000D01*
X129245020Y-81744980D02*
X128270000Y-82720000D01*
X143974980Y-81744980D02*
X129245020Y-81744980D01*
X128270000Y-82720000D02*
X128270000Y-83820000D01*
X146050000Y-83820000D02*
X143974980Y-81744980D01*
X147320000Y-100330000D02*
X140970000Y-106680000D01*
X148590000Y-100330000D02*
X147320000Y-100330000D01*
X129540000Y-105410000D02*
X128270000Y-106680000D01*
X129540000Y-100330000D02*
X129540000Y-105410000D01*
X129540000Y-87630000D02*
X133350000Y-83820000D01*
X129540000Y-92710000D02*
X129540000Y-87630000D01*
X134525001Y-82644999D02*
X134199999Y-82970001D01*
X139794999Y-82644999D02*
X134525001Y-82644999D01*
X134199999Y-82970001D02*
X133350000Y-83820000D01*
X140970000Y-83820000D02*
X139794999Y-82644999D01*
X125730000Y-88900000D02*
X130810000Y-83820000D01*
X125730000Y-92710000D02*
X125730000Y-88900000D01*
X131659999Y-82970001D02*
X130810000Y-83820000D01*
X132435011Y-82194989D02*
X131659999Y-82970001D01*
X141884989Y-82194989D02*
X132435011Y-82194989D01*
X143510000Y-83820000D02*
X141884989Y-82194989D01*
X125730000Y-100330000D02*
X125730000Y-106680000D01*
X121920000Y-105410000D02*
X123190000Y-106680000D01*
X121920000Y-100330000D02*
X121920000Y-105410000D01*
X121920000Y-82550000D02*
X133350000Y-71120000D01*
X121920000Y-92710000D02*
X121920000Y-82550000D01*
X139794999Y-69944999D02*
X134525001Y-69944999D01*
X134199999Y-70270001D02*
X133350000Y-71120000D01*
X134525001Y-69944999D02*
X134199999Y-70270001D01*
X140970000Y-71120000D02*
X139794999Y-69944999D01*
X118110000Y-81280000D02*
X128270000Y-71120000D01*
X118110000Y-92710000D02*
X118110000Y-81280000D01*
X145200001Y-70270001D02*
X146050000Y-71120000D01*
X130345019Y-69044981D02*
X143974981Y-69044981D01*
X143974981Y-69044981D02*
X145200001Y-70270001D01*
X128270000Y-71120000D02*
X130345019Y-69044981D01*
X118110000Y-104140000D02*
X120650000Y-106680000D01*
X118110000Y-100330000D02*
X118110000Y-104140000D01*
X130665001Y-93250001D02*
X128665002Y-95250000D01*
X135890000Y-83820000D02*
X130665001Y-89044999D01*
X130665001Y-89044999D02*
X130665001Y-93250001D01*
X119380000Y-95250000D02*
X115570000Y-99060000D01*
X128665002Y-95250000D02*
X119380000Y-95250000D01*
X115570000Y-109220000D02*
X120650000Y-114300000D01*
X115570000Y-99060000D02*
X115570000Y-109220000D01*
X131115010Y-93436402D02*
X131115011Y-89864989D01*
X123190000Y-114300000D02*
X116020010Y-107130010D01*
X116020010Y-99246400D02*
X119566400Y-95700010D01*
X119566400Y-95700010D02*
X128851402Y-95700010D01*
X116020010Y-107130010D02*
X116020010Y-99246400D01*
X128851402Y-95700010D02*
X131115010Y-93436402D01*
X135890000Y-86360000D02*
X134620000Y-86360000D01*
X138430000Y-83820000D02*
X135890000Y-86360000D01*
X131115011Y-89864989D02*
X134620000Y-86360000D01*
X119380000Y-121920000D02*
X121920000Y-121920000D01*
X125730000Y-118110000D02*
X125730000Y-114300000D01*
X121920000Y-121920000D02*
X125730000Y-118110000D01*
D27*
G36*
X158867869Y-69254722D02*
G01*
X158981246Y-69288953D01*
X159085819Y-69344555D01*
X159177596Y-69419407D01*
X159253091Y-69510664D01*
X159309419Y-69614844D01*
X159344440Y-69727976D01*
X159360000Y-69876022D01*
X159360001Y-137127711D01*
X159345278Y-137277869D01*
X159311047Y-137391246D01*
X159255446Y-137495817D01*
X159180594Y-137587595D01*
X159089335Y-137663091D01*
X158985160Y-137719419D01*
X158872024Y-137754440D01*
X158723979Y-137770000D01*
X115602279Y-137770000D01*
X115452131Y-137755278D01*
X115338754Y-137721047D01*
X115234183Y-137665446D01*
X115142405Y-137590594D01*
X115066909Y-137499335D01*
X115010581Y-137395160D01*
X114975560Y-137282024D01*
X114960000Y-137133979D01*
X114960000Y-134399872D01*
X115875000Y-134399872D01*
X115875000Y-134840128D01*
X115960890Y-135271925D01*
X116129369Y-135678669D01*
X116373962Y-136044729D01*
X116685271Y-136356038D01*
X117051331Y-136600631D01*
X117458075Y-136769110D01*
X117889872Y-136855000D01*
X118330128Y-136855000D01*
X118761925Y-136769110D01*
X119168669Y-136600631D01*
X119534729Y-136356038D01*
X119846038Y-136044729D01*
X120090631Y-135678669D01*
X120259110Y-135271925D01*
X120345000Y-134840128D01*
X120345000Y-134399872D01*
X120259110Y-133968075D01*
X120090631Y-133561331D01*
X119846038Y-133195271D01*
X119534729Y-132883962D01*
X119168669Y-132639369D01*
X118761925Y-132470890D01*
X118330128Y-132385000D01*
X117889872Y-132385000D01*
X117458075Y-132470890D01*
X117051331Y-132639369D01*
X116685271Y-132883962D01*
X116373962Y-133195271D01*
X116129369Y-133561331D01*
X115960890Y-133968075D01*
X115875000Y-134399872D01*
X114960000Y-134399872D01*
X114960000Y-109674707D01*
X115006201Y-109731002D01*
X115030000Y-109760001D01*
X115058998Y-109783799D01*
X119251312Y-113976114D01*
X119215000Y-114158665D01*
X119215000Y-114441335D01*
X119270147Y-114718574D01*
X119378320Y-114979727D01*
X119535363Y-115214759D01*
X119735241Y-115414637D01*
X119970273Y-115571680D01*
X120231426Y-115679853D01*
X120508665Y-115735000D01*
X120791335Y-115735000D01*
X121068574Y-115679853D01*
X121329727Y-115571680D01*
X121564759Y-115414637D01*
X121764637Y-115214759D01*
X121920000Y-114982241D01*
X122075363Y-115214759D01*
X122275241Y-115414637D01*
X122510273Y-115571680D01*
X122771426Y-115679853D01*
X122966535Y-115718663D01*
X120540101Y-118145098D01*
X120484494Y-118099463D01*
X120374180Y-118040498D01*
X120254482Y-118004188D01*
X120130000Y-117991928D01*
X118630000Y-117991928D01*
X118505518Y-118004188D01*
X118385820Y-118040498D01*
X118275506Y-118099463D01*
X118178815Y-118178815D01*
X118099463Y-118275506D01*
X118040498Y-118385820D01*
X118004188Y-118505518D01*
X117991928Y-118630000D01*
X117991928Y-120130000D01*
X118004188Y-120254482D01*
X118040498Y-120374180D01*
X118099463Y-120484494D01*
X118178815Y-120581185D01*
X118275506Y-120660537D01*
X118385820Y-120719502D01*
X118505518Y-120755812D01*
X118613483Y-120766445D01*
X118497114Y-120844201D01*
X118304201Y-121037114D01*
X118152629Y-121263957D01*
X118048225Y-121516011D01*
X117995000Y-121783589D01*
X117995000Y-122056411D01*
X118048225Y-122323989D01*
X118152629Y-122576043D01*
X118304201Y-122802886D01*
X118497114Y-122995799D01*
X118723957Y-123147371D01*
X118826873Y-123190000D01*
X118723957Y-123232629D01*
X118497114Y-123384201D01*
X118304201Y-123577114D01*
X118152629Y-123803957D01*
X118048225Y-124056011D01*
X117995000Y-124323589D01*
X117995000Y-124596411D01*
X118048225Y-124863989D01*
X118152629Y-125116043D01*
X118304201Y-125342886D01*
X118497114Y-125535799D01*
X118723957Y-125687371D01*
X118976011Y-125791775D01*
X119243589Y-125845000D01*
X119516411Y-125845000D01*
X119783989Y-125791775D01*
X120036043Y-125687371D01*
X120262886Y-125535799D01*
X120455799Y-125342886D01*
X120607371Y-125116043D01*
X120711775Y-124863989D01*
X120765000Y-124596411D01*
X120765000Y-124323589D01*
X120711775Y-124056011D01*
X120607371Y-123803957D01*
X120455799Y-123577114D01*
X120262886Y-123384201D01*
X120036043Y-123232629D01*
X119933127Y-123190000D01*
X120036043Y-123147371D01*
X120262886Y-122995799D01*
X120455799Y-122802886D01*
X120537909Y-122680000D01*
X121882678Y-122680000D01*
X121920000Y-122683676D01*
X121957322Y-122680000D01*
X121957333Y-122680000D01*
X122068986Y-122669003D01*
X122212247Y-122625546D01*
X122344276Y-122554974D01*
X122460001Y-122460001D01*
X122483804Y-122430997D01*
X126241004Y-118673798D01*
X126270001Y-118650001D01*
X126364974Y-118534276D01*
X126435546Y-118402247D01*
X126479003Y-118258986D01*
X126490000Y-118147333D01*
X126490000Y-118147325D01*
X126493676Y-118110000D01*
X126490000Y-118072675D01*
X126490000Y-115518043D01*
X126644759Y-115414637D01*
X126844637Y-115214759D01*
X127000000Y-114982241D01*
X127155363Y-115214759D01*
X127355241Y-115414637D01*
X127590273Y-115571680D01*
X127851426Y-115679853D01*
X128128665Y-115735000D01*
X128411335Y-115735000D01*
X128688574Y-115679853D01*
X128949727Y-115571680D01*
X129184759Y-115414637D01*
X129384637Y-115214759D01*
X129540000Y-114982241D01*
X129695363Y-115214759D01*
X129895241Y-115414637D01*
X130130273Y-115571680D01*
X130391426Y-115679853D01*
X130668665Y-115735000D01*
X130951335Y-115735000D01*
X131228574Y-115679853D01*
X131489727Y-115571680D01*
X131724759Y-115414637D01*
X131924637Y-115214759D01*
X132080000Y-114982241D01*
X132235363Y-115214759D01*
X132435241Y-115414637D01*
X132590001Y-115518044D01*
X132590000Y-116802667D01*
X132586323Y-116840000D01*
X132590001Y-116877343D01*
X132590000Y-120592677D01*
X132586324Y-120630000D01*
X132590000Y-120667322D01*
X132590000Y-120667332D01*
X132600997Y-120778985D01*
X132636691Y-120896654D01*
X132644454Y-120922246D01*
X132715026Y-121054276D01*
X132731440Y-121074276D01*
X132809999Y-121170001D01*
X132839003Y-121193804D01*
X137886201Y-126241003D01*
X137891541Y-126247510D01*
X136279382Y-126247510D01*
X133980874Y-123949003D01*
X133957071Y-123919999D01*
X133841346Y-123825026D01*
X133709317Y-123754454D01*
X133566056Y-123710997D01*
X133454403Y-123700000D01*
X133454392Y-123700000D01*
X133417070Y-123696324D01*
X133379748Y-123700000D01*
X130658072Y-123700000D01*
X130658072Y-122710000D01*
X130645812Y-122585518D01*
X130609502Y-122465820D01*
X130550537Y-122355506D01*
X130471185Y-122258815D01*
X130374494Y-122179463D01*
X130264180Y-122120498D01*
X130144482Y-122084188D01*
X130020000Y-122071928D01*
X126520000Y-122071928D01*
X126395518Y-122084188D01*
X126275820Y-122120498D01*
X126165506Y-122179463D01*
X126068815Y-122258815D01*
X125989463Y-122355506D01*
X125930498Y-122465820D01*
X125894188Y-122585518D01*
X125881928Y-122710000D01*
X125881928Y-126210000D01*
X125894188Y-126334482D01*
X125930498Y-126454180D01*
X125989463Y-126564494D01*
X126068815Y-126661185D01*
X126165506Y-126740537D01*
X126275820Y-126799502D01*
X126395518Y-126835812D01*
X126520000Y-126848072D01*
X130020000Y-126848072D01*
X130144482Y-126835812D01*
X130264180Y-126799502D01*
X130374494Y-126740537D01*
X130471185Y-126661185D01*
X130550537Y-126564494D01*
X130591494Y-126487869D01*
X130581928Y-126585000D01*
X130581928Y-128335000D01*
X130611001Y-128630186D01*
X130697104Y-128914028D01*
X130836927Y-129175618D01*
X131025097Y-129404903D01*
X131254382Y-129593073D01*
X131515972Y-129732896D01*
X131799814Y-129818999D01*
X132095000Y-129848072D01*
X133845000Y-129848072D01*
X134140186Y-129818999D01*
X134424028Y-129732896D01*
X134685618Y-129593073D01*
X134914903Y-129404903D01*
X135103073Y-129175618D01*
X135130001Y-129125240D01*
X135130000Y-132131956D01*
X134975241Y-132235363D01*
X134775363Y-132435241D01*
X134618320Y-132670273D01*
X134510147Y-132931426D01*
X134455000Y-133208665D01*
X134455000Y-133491335D01*
X134510147Y-133768574D01*
X134618320Y-134029727D01*
X134775363Y-134264759D01*
X134975241Y-134464637D01*
X135210273Y-134621680D01*
X135471426Y-134729853D01*
X135748665Y-134785000D01*
X136031335Y-134785000D01*
X136308574Y-134729853D01*
X136569727Y-134621680D01*
X136804759Y-134464637D01*
X137004637Y-134264759D01*
X137161680Y-134029727D01*
X137269853Y-133768574D01*
X137325000Y-133491335D01*
X137325000Y-133208665D01*
X137269853Y-132931426D01*
X137161680Y-132670273D01*
X137004637Y-132435241D01*
X136804759Y-132235363D01*
X136650000Y-132131957D01*
X136650000Y-127767510D01*
X140239339Y-127767510D01*
X140276661Y-127771186D01*
X140313983Y-127767510D01*
X140313994Y-127767510D01*
X140425647Y-127756513D01*
X140568908Y-127713056D01*
X140700937Y-127642484D01*
X140816662Y-127547511D01*
X140840464Y-127518508D01*
X141536012Y-126822960D01*
X141565011Y-126799162D01*
X141659984Y-126683437D01*
X141730556Y-126551408D01*
X141774013Y-126408147D01*
X141785010Y-126296494D01*
X141785010Y-126296485D01*
X141788686Y-126259162D01*
X141785010Y-126221839D01*
X141785010Y-121272310D01*
X143480001Y-122967301D01*
X143480000Y-132131957D01*
X143325241Y-132235363D01*
X143125363Y-132435241D01*
X142968320Y-132670273D01*
X142860147Y-132931426D01*
X142805000Y-133208665D01*
X142805000Y-133491335D01*
X142860147Y-133768574D01*
X142968320Y-134029727D01*
X143125363Y-134264759D01*
X143325241Y-134464637D01*
X143560273Y-134621680D01*
X143821426Y-134729853D01*
X144098665Y-134785000D01*
X144381335Y-134785000D01*
X144658574Y-134729853D01*
X144919727Y-134621680D01*
X145154759Y-134464637D01*
X145354637Y-134264759D01*
X145458043Y-134110000D01*
X147371957Y-134110000D01*
X147475363Y-134264759D01*
X147675241Y-134464637D01*
X147910273Y-134621680D01*
X148171426Y-134729853D01*
X148448665Y-134785000D01*
X148731335Y-134785000D01*
X149008574Y-134729853D01*
X149269727Y-134621680D01*
X149504759Y-134464637D01*
X149569524Y-134399872D01*
X153975000Y-134399872D01*
X153975000Y-134840128D01*
X154060890Y-135271925D01*
X154229369Y-135678669D01*
X154473962Y-136044729D01*
X154785271Y-136356038D01*
X155151331Y-136600631D01*
X155558075Y-136769110D01*
X155989872Y-136855000D01*
X156430128Y-136855000D01*
X156861925Y-136769110D01*
X157268669Y-136600631D01*
X157634729Y-136356038D01*
X157946038Y-136044729D01*
X158190631Y-135678669D01*
X158359110Y-135271925D01*
X158445000Y-134840128D01*
X158445000Y-134399872D01*
X158359110Y-133968075D01*
X158190631Y-133561331D01*
X157946038Y-133195271D01*
X157634729Y-132883962D01*
X157268669Y-132639369D01*
X156861925Y-132470890D01*
X156430128Y-132385000D01*
X155989872Y-132385000D01*
X155558075Y-132470890D01*
X155151331Y-132639369D01*
X154785271Y-132883962D01*
X154473962Y-133195271D01*
X154229369Y-133561331D01*
X154060890Y-133968075D01*
X153975000Y-134399872D01*
X149569524Y-134399872D01*
X149704637Y-134264759D01*
X149861680Y-134029727D01*
X149969853Y-133768574D01*
X150025000Y-133491335D01*
X150025000Y-133208665D01*
X149969853Y-132931426D01*
X149861680Y-132670273D01*
X149704637Y-132435241D01*
X149504759Y-132235363D01*
X149269727Y-132078320D01*
X149008574Y-131970147D01*
X148731335Y-131915000D01*
X148448665Y-131915000D01*
X148171426Y-131970147D01*
X147910273Y-132078320D01*
X147675241Y-132235363D01*
X147475363Y-132435241D01*
X147371957Y-132590000D01*
X145458043Y-132590000D01*
X145354637Y-132435241D01*
X145154759Y-132235363D01*
X145000000Y-132131957D01*
X145000000Y-122967299D01*
X145317300Y-122650000D01*
X145801928Y-122650000D01*
X145801928Y-122740000D01*
X145814188Y-122864482D01*
X145814345Y-122865000D01*
X145814188Y-122865518D01*
X145801928Y-122990000D01*
X145801928Y-123390000D01*
X145814188Y-123514482D01*
X145814345Y-123515000D01*
X145814188Y-123515518D01*
X145801928Y-123640000D01*
X145801928Y-124040000D01*
X145814188Y-124164482D01*
X145850498Y-124284180D01*
X145909463Y-124394494D01*
X145988815Y-124491185D01*
X146085506Y-124570537D01*
X146195820Y-124629502D01*
X146266770Y-124651024D01*
X146245498Y-124690820D01*
X146209188Y-124810518D01*
X146196928Y-124935000D01*
X146196928Y-126085000D01*
X146209188Y-126209482D01*
X146245498Y-126329180D01*
X146304463Y-126439494D01*
X146383815Y-126536185D01*
X146480506Y-126615537D01*
X146590820Y-126674502D01*
X146710518Y-126710812D01*
X146835000Y-126723072D01*
X148203518Y-126723072D01*
X148199388Y-126765000D01*
X148221785Y-126992400D01*
X148288115Y-127211060D01*
X148395829Y-127412579D01*
X148540788Y-127589212D01*
X148717421Y-127734171D01*
X148918940Y-127841885D01*
X149137600Y-127908215D01*
X149308021Y-127925000D01*
X150271979Y-127925000D01*
X150442400Y-127908215D01*
X150661060Y-127841885D01*
X150862579Y-127734171D01*
X151039212Y-127589212D01*
X151184171Y-127412579D01*
X151291885Y-127211060D01*
X151358215Y-126992400D01*
X151380612Y-126765000D01*
X151358215Y-126537600D01*
X151291885Y-126318940D01*
X151184171Y-126117421D01*
X151039212Y-125940788D01*
X150880871Y-125810841D01*
X150984180Y-125779502D01*
X151094494Y-125720537D01*
X151191185Y-125641185D01*
X151270537Y-125544494D01*
X151329502Y-125434180D01*
X151365812Y-125314482D01*
X151378072Y-125190000D01*
X151378072Y-123440000D01*
X151365812Y-123315518D01*
X151329502Y-123195820D01*
X151326391Y-123190000D01*
X151329502Y-123184180D01*
X151365812Y-123064482D01*
X151376585Y-122955098D01*
X153975000Y-122955098D01*
X153975000Y-123424902D01*
X154066654Y-123885679D01*
X154246440Y-124319721D01*
X154507450Y-124710349D01*
X154839651Y-125042550D01*
X155230279Y-125303560D01*
X155664321Y-125483346D01*
X156125098Y-125575000D01*
X156594902Y-125575000D01*
X157055679Y-125483346D01*
X157489721Y-125303560D01*
X157880349Y-125042550D01*
X158212550Y-124710349D01*
X158473560Y-124319721D01*
X158653346Y-123885679D01*
X158745000Y-123424902D01*
X158745000Y-122955098D01*
X158653346Y-122494321D01*
X158473560Y-122060279D01*
X158212550Y-121669651D01*
X157880349Y-121337450D01*
X157489721Y-121076440D01*
X157055679Y-120896654D01*
X156594902Y-120805000D01*
X156125098Y-120805000D01*
X155664321Y-120896654D01*
X155230279Y-121076440D01*
X154839651Y-121337450D01*
X154507450Y-121669651D01*
X154246440Y-122060279D01*
X154066654Y-122494321D01*
X153975000Y-122955098D01*
X151376585Y-122955098D01*
X151378072Y-122940000D01*
X151378072Y-121190000D01*
X151365812Y-121065518D01*
X151329502Y-120945820D01*
X151270537Y-120835506D01*
X151191185Y-120738815D01*
X151094494Y-120659463D01*
X150984180Y-120600498D01*
X150880871Y-120569159D01*
X151039212Y-120439212D01*
X151184171Y-120262579D01*
X151291885Y-120061060D01*
X151358215Y-119842400D01*
X151380612Y-119615000D01*
X151358215Y-119387600D01*
X151291885Y-119168940D01*
X151184171Y-118967421D01*
X151039212Y-118790788D01*
X150862579Y-118645829D01*
X150661060Y-118538115D01*
X150442400Y-118471785D01*
X150271979Y-118455000D01*
X149308021Y-118455000D01*
X149137600Y-118471785D01*
X148918940Y-118538115D01*
X148717421Y-118645829D01*
X148540788Y-118790788D01*
X148395829Y-118967421D01*
X148288115Y-119168940D01*
X148221785Y-119387600D01*
X148199388Y-119615000D01*
X148203518Y-119656928D01*
X146835000Y-119656928D01*
X146710518Y-119669188D01*
X146590820Y-119705498D01*
X146480506Y-119764463D01*
X146383815Y-119843815D01*
X146304463Y-119940506D01*
X146245498Y-120050820D01*
X146209188Y-120170518D01*
X146196928Y-120295000D01*
X146196928Y-121100162D01*
X146195820Y-121100498D01*
X146140627Y-121130000D01*
X145039820Y-121130000D01*
X145002497Y-121126324D01*
X144965175Y-121130000D01*
X144965165Y-121130000D01*
X144853512Y-121140997D01*
X144710251Y-121184454D01*
X144578221Y-121255026D01*
X144537057Y-121288809D01*
X144462497Y-121349999D01*
X144438699Y-121378998D01*
X144240000Y-121577696D01*
X138991306Y-116329003D01*
X138967503Y-116299999D01*
X138851778Y-116205026D01*
X138719749Y-116134454D01*
X138576488Y-116090997D01*
X138464835Y-116080000D01*
X138464824Y-116080000D01*
X138427502Y-116076324D01*
X138390180Y-116080000D01*
X134110000Y-116080000D01*
X134110000Y-115518043D01*
X134264759Y-115414637D01*
X134464637Y-115214759D01*
X134620000Y-114982241D01*
X134775363Y-115214759D01*
X134975241Y-115414637D01*
X135210273Y-115571680D01*
X135471426Y-115679853D01*
X135748665Y-115735000D01*
X136031335Y-115735000D01*
X136308574Y-115679853D01*
X136569727Y-115571680D01*
X136804759Y-115414637D01*
X137004637Y-115214759D01*
X137161680Y-114979727D01*
X137269853Y-114718574D01*
X137325000Y-114441335D01*
X137325000Y-114158665D01*
X139535000Y-114158665D01*
X139535000Y-114441335D01*
X139590147Y-114718574D01*
X139698320Y-114979727D01*
X139855363Y-115214759D01*
X140055241Y-115414637D01*
X140290273Y-115571680D01*
X140551426Y-115679853D01*
X140828665Y-115735000D01*
X141111335Y-115735000D01*
X141388574Y-115679853D01*
X141649727Y-115571680D01*
X141884759Y-115414637D01*
X142084637Y-115214759D01*
X142240000Y-114982241D01*
X142395363Y-115214759D01*
X142595241Y-115414637D01*
X142830273Y-115571680D01*
X143091426Y-115679853D01*
X143368665Y-115735000D01*
X143651335Y-115735000D01*
X143928574Y-115679853D01*
X144189727Y-115571680D01*
X144424759Y-115414637D01*
X144624637Y-115214759D01*
X144780000Y-114982241D01*
X144935363Y-115214759D01*
X145135241Y-115414637D01*
X145370273Y-115571680D01*
X145631426Y-115679853D01*
X145908665Y-115735000D01*
X146191335Y-115735000D01*
X146468574Y-115679853D01*
X146729727Y-115571680D01*
X146964759Y-115414637D01*
X147164637Y-115214759D01*
X147320000Y-114982241D01*
X147475363Y-115214759D01*
X147675241Y-115414637D01*
X147910273Y-115571680D01*
X148171426Y-115679853D01*
X148448665Y-115735000D01*
X148731335Y-115735000D01*
X149008574Y-115679853D01*
X149269727Y-115571680D01*
X149504759Y-115414637D01*
X149704637Y-115214759D01*
X149860000Y-114982241D01*
X150015363Y-115214759D01*
X150215241Y-115414637D01*
X150450273Y-115571680D01*
X150711426Y-115679853D01*
X150988665Y-115735000D01*
X151271335Y-115735000D01*
X151548574Y-115679853D01*
X151809727Y-115571680D01*
X152044759Y-115414637D01*
X152244637Y-115214759D01*
X152400000Y-114982241D01*
X152555363Y-115214759D01*
X152755241Y-115414637D01*
X152990273Y-115571680D01*
X153251426Y-115679853D01*
X153528665Y-115735000D01*
X153811335Y-115735000D01*
X154088574Y-115679853D01*
X154349727Y-115571680D01*
X154584759Y-115414637D01*
X154784637Y-115214759D01*
X154941680Y-114979727D01*
X155049853Y-114718574D01*
X155105000Y-114441335D01*
X155105000Y-114158665D01*
X155049853Y-113881426D01*
X154941680Y-113620273D01*
X154784637Y-113385241D01*
X154584759Y-113185363D01*
X154349727Y-113028320D01*
X154088574Y-112920147D01*
X153811335Y-112865000D01*
X153528665Y-112865000D01*
X153251426Y-112920147D01*
X152990273Y-113028320D01*
X152755241Y-113185363D01*
X152555363Y-113385241D01*
X152400000Y-113617759D01*
X152244637Y-113385241D01*
X152044759Y-113185363D01*
X151809727Y-113028320D01*
X151548574Y-112920147D01*
X151271335Y-112865000D01*
X150988665Y-112865000D01*
X150711426Y-112920147D01*
X150450273Y-113028320D01*
X150215241Y-113185363D01*
X150015363Y-113385241D01*
X149860000Y-113617759D01*
X149704637Y-113385241D01*
X149504759Y-113185363D01*
X149269727Y-113028320D01*
X149008574Y-112920147D01*
X148731335Y-112865000D01*
X148448665Y-112865000D01*
X148171426Y-112920147D01*
X147910273Y-113028320D01*
X147675241Y-113185363D01*
X147475363Y-113385241D01*
X147320000Y-113617759D01*
X147164637Y-113385241D01*
X146964759Y-113185363D01*
X146729727Y-113028320D01*
X146468574Y-112920147D01*
X146191335Y-112865000D01*
X145908665Y-112865000D01*
X145631426Y-112920147D01*
X145370273Y-113028320D01*
X145135241Y-113185363D01*
X144935363Y-113385241D01*
X144780000Y-113617759D01*
X144624637Y-113385241D01*
X144424759Y-113185363D01*
X144189727Y-113028320D01*
X143928574Y-112920147D01*
X143651335Y-112865000D01*
X143368665Y-112865000D01*
X143091426Y-112920147D01*
X142830273Y-113028320D01*
X142595241Y-113185363D01*
X142395363Y-113385241D01*
X142240000Y-113617759D01*
X142084637Y-113385241D01*
X141884759Y-113185363D01*
X141649727Y-113028320D01*
X141388574Y-112920147D01*
X141111335Y-112865000D01*
X140828665Y-112865000D01*
X140551426Y-112920147D01*
X140290273Y-113028320D01*
X140055241Y-113185363D01*
X139855363Y-113385241D01*
X139698320Y-113620273D01*
X139590147Y-113881426D01*
X139535000Y-114158665D01*
X137325000Y-114158665D01*
X137269853Y-113881426D01*
X137161680Y-113620273D01*
X137004637Y-113385241D01*
X136804759Y-113185363D01*
X136569727Y-113028320D01*
X136308574Y-112920147D01*
X136031335Y-112865000D01*
X135748665Y-112865000D01*
X135471426Y-112920147D01*
X135210273Y-113028320D01*
X134975241Y-113185363D01*
X134775363Y-113385241D01*
X134620000Y-113617759D01*
X134464637Y-113385241D01*
X134264759Y-113185363D01*
X134029727Y-113028320D01*
X133768574Y-112920147D01*
X133491335Y-112865000D01*
X133208665Y-112865000D01*
X133026114Y-112901312D01*
X132643804Y-112519003D01*
X132620001Y-112489999D01*
X132504276Y-112395026D01*
X132372247Y-112324454D01*
X132228986Y-112280997D01*
X132117333Y-112270000D01*
X132117322Y-112270000D01*
X132080000Y-112266324D01*
X132042678Y-112270000D01*
X125372320Y-112270000D01*
X125334997Y-112266324D01*
X125297674Y-112270000D01*
X125297665Y-112270000D01*
X125186012Y-112280997D01*
X125042751Y-112324454D01*
X124910722Y-112395026D01*
X124910720Y-112395027D01*
X124910721Y-112395027D01*
X124823994Y-112466201D01*
X124823990Y-112466205D01*
X124794997Y-112489999D01*
X124771203Y-112518992D01*
X124104796Y-113185400D01*
X124104759Y-113185363D01*
X123869727Y-113028320D01*
X123608574Y-112920147D01*
X123331335Y-112865000D01*
X123048665Y-112865000D01*
X122866114Y-112901312D01*
X116780010Y-106815209D01*
X116780010Y-100868954D01*
X116838320Y-101009727D01*
X116995363Y-101244759D01*
X117195241Y-101444637D01*
X117350000Y-101548044D01*
X117350001Y-104102668D01*
X117346324Y-104140000D01*
X117360998Y-104288985D01*
X117404454Y-104432246D01*
X117475026Y-104564276D01*
X117508448Y-104605000D01*
X117570000Y-104680001D01*
X117598998Y-104703799D01*
X119251312Y-106356114D01*
X119215000Y-106538665D01*
X119215000Y-106821335D01*
X119270147Y-107098574D01*
X119378320Y-107359727D01*
X119535363Y-107594759D01*
X119735241Y-107794637D01*
X119970273Y-107951680D01*
X120231426Y-108059853D01*
X120508665Y-108115000D01*
X120791335Y-108115000D01*
X121068574Y-108059853D01*
X121329727Y-107951680D01*
X121564759Y-107794637D01*
X121764637Y-107594759D01*
X121920000Y-107362241D01*
X122075363Y-107594759D01*
X122275241Y-107794637D01*
X122510273Y-107951680D01*
X122771426Y-108059853D01*
X123048665Y-108115000D01*
X123331335Y-108115000D01*
X123608574Y-108059853D01*
X123869727Y-107951680D01*
X124104759Y-107794637D01*
X124304637Y-107594759D01*
X124460000Y-107362241D01*
X124615363Y-107594759D01*
X124815241Y-107794637D01*
X125050273Y-107951680D01*
X125311426Y-108059853D01*
X125588665Y-108115000D01*
X125871335Y-108115000D01*
X126148574Y-108059853D01*
X126409727Y-107951680D01*
X126644759Y-107794637D01*
X126844637Y-107594759D01*
X127000000Y-107362241D01*
X127155363Y-107594759D01*
X127355241Y-107794637D01*
X127590273Y-107951680D01*
X127851426Y-108059853D01*
X128128665Y-108115000D01*
X128411335Y-108115000D01*
X128688574Y-108059853D01*
X128949727Y-107951680D01*
X129184759Y-107794637D01*
X129384637Y-107594759D01*
X129540000Y-107362241D01*
X129695363Y-107594759D01*
X129895241Y-107794637D01*
X130130273Y-107951680D01*
X130391426Y-108059853D01*
X130668665Y-108115000D01*
X130951335Y-108115000D01*
X131228574Y-108059853D01*
X131489727Y-107951680D01*
X131724759Y-107794637D01*
X131924637Y-107594759D01*
X132080000Y-107362241D01*
X132235363Y-107594759D01*
X132435241Y-107794637D01*
X132670273Y-107951680D01*
X132931426Y-108059853D01*
X133208665Y-108115000D01*
X133491335Y-108115000D01*
X133768574Y-108059853D01*
X134029727Y-107951680D01*
X134264759Y-107794637D01*
X134464637Y-107594759D01*
X134621680Y-107359727D01*
X134729853Y-107098574D01*
X134785000Y-106821335D01*
X134785000Y-106538665D01*
X134748688Y-106356113D01*
X140211003Y-100893799D01*
X140240001Y-100870001D01*
X140281014Y-100820027D01*
X140334974Y-100754277D01*
X140405546Y-100622247D01*
X140449003Y-100478986D01*
X140460000Y-100367333D01*
X140460000Y-100367324D01*
X140463676Y-100330001D01*
X140460000Y-100292678D01*
X140460000Y-100217909D01*
X140582886Y-100135799D01*
X140775799Y-99942886D01*
X140927371Y-99716043D01*
X141031775Y-99463989D01*
X141085000Y-99196411D01*
X141085000Y-98923589D01*
X141031775Y-98656011D01*
X140927371Y-98403957D01*
X140775799Y-98177114D01*
X140582886Y-97984201D01*
X140460000Y-97902091D01*
X140460000Y-95564801D01*
X140646114Y-95378688D01*
X140828665Y-95415000D01*
X141111335Y-95415000D01*
X141388574Y-95359853D01*
X141649727Y-95251680D01*
X141884759Y-95094637D01*
X142084637Y-94894759D01*
X142241680Y-94659727D01*
X142349853Y-94398574D01*
X142405000Y-94121335D01*
X142405000Y-93838665D01*
X142349853Y-93561426D01*
X142241680Y-93300273D01*
X142084637Y-93065241D01*
X141884759Y-92865363D01*
X141730000Y-92761957D01*
X141730000Y-91361316D01*
X141844759Y-91284637D01*
X142044637Y-91084759D01*
X142201680Y-90849727D01*
X142309853Y-90588574D01*
X142365000Y-90311335D01*
X142365000Y-90028665D01*
X142309853Y-89751426D01*
X142201680Y-89490273D01*
X142044637Y-89255241D01*
X141844759Y-89055363D01*
X141609727Y-88898320D01*
X141348574Y-88790147D01*
X141071335Y-88735000D01*
X140788665Y-88735000D01*
X140511426Y-88790147D01*
X140250273Y-88898320D01*
X140015241Y-89055363D01*
X139815363Y-89255241D01*
X139658320Y-89490273D01*
X139550147Y-89751426D01*
X139495000Y-90028665D01*
X139495000Y-90311335D01*
X139550147Y-90588574D01*
X139658320Y-90849727D01*
X139815363Y-91084759D01*
X140015241Y-91284637D01*
X140210001Y-91414771D01*
X140210000Y-92761956D01*
X140055241Y-92865363D01*
X139855363Y-93065241D01*
X139698320Y-93300273D01*
X139590147Y-93561426D01*
X139535000Y-93838665D01*
X139535000Y-94121335D01*
X139571312Y-94303886D01*
X139188998Y-94686201D01*
X139160000Y-94709999D01*
X139136202Y-94738997D01*
X139136201Y-94738998D01*
X139065026Y-94825724D01*
X138994454Y-94957754D01*
X138964180Y-95057558D01*
X138952933Y-95094637D01*
X138950998Y-95101015D01*
X138936324Y-95250000D01*
X138940001Y-95287332D01*
X138940000Y-97902091D01*
X138817114Y-97984201D01*
X138624201Y-98177114D01*
X138472629Y-98403957D01*
X138368225Y-98656011D01*
X138315000Y-98923589D01*
X138315000Y-99196411D01*
X138368225Y-99463989D01*
X138472629Y-99716043D01*
X138624201Y-99942886D01*
X138817114Y-100135799D01*
X138818484Y-100136714D01*
X133673887Y-105281312D01*
X133491335Y-105245000D01*
X133319802Y-105245000D01*
X135331008Y-103233795D01*
X135360001Y-103210001D01*
X135383795Y-103181008D01*
X135383799Y-103181004D01*
X135454973Y-103094277D01*
X135454974Y-103094276D01*
X135525546Y-102962247D01*
X135569003Y-102818986D01*
X135580000Y-102707333D01*
X135580000Y-102707324D01*
X135583676Y-102670001D01*
X135580000Y-102632678D01*
X135580000Y-100217909D01*
X135702886Y-100135799D01*
X135895799Y-99942886D01*
X136047371Y-99716043D01*
X136151775Y-99463989D01*
X136205000Y-99196411D01*
X136205000Y-98923589D01*
X136151775Y-98656011D01*
X136047371Y-98403957D01*
X135895799Y-98177114D01*
X135702886Y-97984201D01*
X135580000Y-97902091D01*
X135580000Y-95487323D01*
X135583676Y-95450000D01*
X135580000Y-95412677D01*
X135580000Y-95412667D01*
X135569003Y-95301014D01*
X135525546Y-95157753D01*
X135514031Y-95136211D01*
X135454974Y-95025723D01*
X135383799Y-94938997D01*
X135360001Y-94909999D01*
X135331003Y-94886201D01*
X134748688Y-94303886D01*
X134785000Y-94121335D01*
X134785000Y-93838665D01*
X134729853Y-93561426D01*
X134621680Y-93300273D01*
X134464637Y-93065241D01*
X134264759Y-92865363D01*
X134150000Y-92788684D01*
X134150000Y-91388043D01*
X134304759Y-91284637D01*
X134504637Y-91084759D01*
X134661680Y-90849727D01*
X134769853Y-90588574D01*
X134825000Y-90311335D01*
X134825000Y-90028665D01*
X134769853Y-89751426D01*
X134661680Y-89490273D01*
X134504637Y-89255241D01*
X134304759Y-89055363D01*
X134069727Y-88898320D01*
X133808574Y-88790147D01*
X133531335Y-88735000D01*
X133319801Y-88735000D01*
X134934802Y-87120000D01*
X135852678Y-87120000D01*
X135890000Y-87123676D01*
X135927322Y-87120000D01*
X135927333Y-87120000D01*
X136038986Y-87109003D01*
X136182247Y-87065546D01*
X136314276Y-86994974D01*
X136430001Y-86900001D01*
X136453804Y-86870997D01*
X138063593Y-85261210D01*
X138283740Y-85305000D01*
X138576260Y-85305000D01*
X138863158Y-85247932D01*
X139133411Y-85135990D01*
X139376632Y-84973475D01*
X139583475Y-84766632D01*
X139700000Y-84592240D01*
X139816525Y-84766632D01*
X140023368Y-84973475D01*
X140266589Y-85135990D01*
X140536842Y-85247932D01*
X140823740Y-85305000D01*
X141116260Y-85305000D01*
X141403158Y-85247932D01*
X141673411Y-85135990D01*
X141916632Y-84973475D01*
X142123475Y-84766632D01*
X142240000Y-84592240D01*
X142356525Y-84766632D01*
X142563368Y-84973475D01*
X142806589Y-85135990D01*
X143076842Y-85247932D01*
X143363740Y-85305000D01*
X143656260Y-85305000D01*
X143943158Y-85247932D01*
X144213411Y-85135990D01*
X144456632Y-84973475D01*
X144663475Y-84766632D01*
X144780000Y-84592240D01*
X144896525Y-84766632D01*
X145103368Y-84973475D01*
X145346589Y-85135990D01*
X145616842Y-85247932D01*
X145903740Y-85305000D01*
X146196260Y-85305000D01*
X146416408Y-85261210D01*
X147830001Y-86674804D01*
X147830000Y-91491956D01*
X147675241Y-91595363D01*
X147475363Y-91795241D01*
X147318320Y-92030273D01*
X147210147Y-92291426D01*
X147155000Y-92568665D01*
X147155000Y-92851335D01*
X147199491Y-93075001D01*
X146219803Y-93075001D01*
X146178688Y-93033886D01*
X146215000Y-92851335D01*
X146215000Y-92568665D01*
X146159853Y-92291426D01*
X146051680Y-92030273D01*
X145894637Y-91795241D01*
X145694759Y-91595363D01*
X145459727Y-91438320D01*
X145198574Y-91330147D01*
X144921335Y-91275000D01*
X144638665Y-91275000D01*
X144361426Y-91330147D01*
X144100273Y-91438320D01*
X143865241Y-91595363D01*
X143665363Y-91795241D01*
X143508320Y-92030273D01*
X143400147Y-92291426D01*
X143345000Y-92568665D01*
X143345000Y-92851335D01*
X143400147Y-93128574D01*
X143508320Y-93389727D01*
X143665363Y-93624759D01*
X143865241Y-93824637D01*
X144100273Y-93981680D01*
X144361426Y-94089853D01*
X144638665Y-94145000D01*
X144921335Y-94145000D01*
X145103886Y-94108688D01*
X145341201Y-94346003D01*
X145365000Y-94375002D01*
X145480725Y-94469975D01*
X145612754Y-94540547D01*
X145756015Y-94584004D01*
X145867668Y-94595001D01*
X145867676Y-94595001D01*
X145905001Y-94598677D01*
X145942326Y-94595001D01*
X151065202Y-94595001D01*
X155529222Y-99059022D01*
X155295241Y-99215363D01*
X155095363Y-99415241D01*
X154938320Y-99650273D01*
X154830147Y-99911426D01*
X154775000Y-100188665D01*
X154775000Y-100471335D01*
X154811312Y-100653886D01*
X154320188Y-101145011D01*
X153581286Y-101145011D01*
X153671680Y-101009727D01*
X153779853Y-100748574D01*
X153835000Y-100471335D01*
X153835000Y-100188665D01*
X153779853Y-99911426D01*
X153671680Y-99650273D01*
X153514637Y-99415241D01*
X153314759Y-99215363D01*
X153079727Y-99058320D01*
X152818574Y-98950147D01*
X152541335Y-98895000D01*
X152258665Y-98895000D01*
X151981426Y-98950147D01*
X151720273Y-99058320D01*
X151485241Y-99215363D01*
X151285363Y-99415241D01*
X151128320Y-99650273D01*
X151020147Y-99911426D01*
X150965000Y-100188665D01*
X150965000Y-100471335D01*
X151001312Y-100653887D01*
X150960198Y-100695001D01*
X149980509Y-100695001D01*
X150025000Y-100471335D01*
X150025000Y-100188665D01*
X149969853Y-99911426D01*
X149861680Y-99650273D01*
X149704637Y-99415241D01*
X149504759Y-99215363D01*
X149269727Y-99058320D01*
X149008574Y-98950147D01*
X148731335Y-98895000D01*
X148448665Y-98895000D01*
X148171426Y-98950147D01*
X147910273Y-99058320D01*
X147675241Y-99215363D01*
X147475363Y-99415241D01*
X147371957Y-99570000D01*
X147357322Y-99570000D01*
X147319999Y-99566324D01*
X147282676Y-99570000D01*
X147282667Y-99570000D01*
X147171014Y-99580997D01*
X147029912Y-99623799D01*
X147027753Y-99624454D01*
X146895723Y-99695026D01*
X146825489Y-99752666D01*
X146779999Y-99789999D01*
X146756201Y-99818997D01*
X146215000Y-100360198D01*
X146215000Y-100188665D01*
X146159853Y-99911426D01*
X146051680Y-99650273D01*
X145894637Y-99415241D01*
X145694759Y-99215363D01*
X145459727Y-99058320D01*
X145198574Y-98950147D01*
X144921335Y-98895000D01*
X144638665Y-98895000D01*
X144361426Y-98950147D01*
X144100273Y-99058320D01*
X143865241Y-99215363D01*
X143665363Y-99415241D01*
X143508320Y-99650273D01*
X143400147Y-99911426D01*
X143345000Y-100188665D01*
X143345000Y-100471335D01*
X143381312Y-100653886D01*
X138753887Y-105281312D01*
X138571335Y-105245000D01*
X138288665Y-105245000D01*
X138011426Y-105300147D01*
X137750273Y-105408320D01*
X137515241Y-105565363D01*
X137315363Y-105765241D01*
X137158320Y-106000273D01*
X137050147Y-106261426D01*
X136995000Y-106538665D01*
X136995000Y-106821335D01*
X137050147Y-107098574D01*
X137158320Y-107359727D01*
X137315363Y-107594759D01*
X137515241Y-107794637D01*
X137750273Y-107951680D01*
X138011426Y-108059853D01*
X138288665Y-108115000D01*
X138571335Y-108115000D01*
X138848574Y-108059853D01*
X139109727Y-107951680D01*
X139344759Y-107794637D01*
X139544637Y-107594759D01*
X139700000Y-107362241D01*
X139855363Y-107594759D01*
X140055241Y-107794637D01*
X140290273Y-107951680D01*
X140551426Y-108059853D01*
X140828665Y-108115000D01*
X141111335Y-108115000D01*
X141388574Y-108059853D01*
X141649727Y-107951680D01*
X141884759Y-107794637D01*
X142084637Y-107594759D01*
X142240000Y-107362241D01*
X142395363Y-107594759D01*
X142595241Y-107794637D01*
X142830273Y-107951680D01*
X143091426Y-108059853D01*
X143368665Y-108115000D01*
X143651335Y-108115000D01*
X143928574Y-108059853D01*
X144189727Y-107951680D01*
X144424759Y-107794637D01*
X144624637Y-107594759D01*
X144780000Y-107362241D01*
X144935363Y-107594759D01*
X145135241Y-107794637D01*
X145370273Y-107951680D01*
X145631426Y-108059853D01*
X145908665Y-108115000D01*
X146191335Y-108115000D01*
X146468574Y-108059853D01*
X146729727Y-107951680D01*
X146964759Y-107794637D01*
X147164637Y-107594759D01*
X147320000Y-107362241D01*
X147475363Y-107594759D01*
X147675241Y-107794637D01*
X147910273Y-107951680D01*
X148171426Y-108059853D01*
X148448665Y-108115000D01*
X148731335Y-108115000D01*
X149008574Y-108059853D01*
X149269727Y-107951680D01*
X149504759Y-107794637D01*
X149704637Y-107594759D01*
X149860000Y-107362241D01*
X150015363Y-107594759D01*
X150215241Y-107794637D01*
X150450273Y-107951680D01*
X150711426Y-108059853D01*
X150988665Y-108115000D01*
X151271335Y-108115000D01*
X151548574Y-108059853D01*
X151809727Y-107951680D01*
X152044759Y-107794637D01*
X152243357Y-107596039D01*
X152244188Y-107604482D01*
X152280498Y-107724180D01*
X152339463Y-107834494D01*
X152418815Y-107931185D01*
X152515506Y-108010537D01*
X152625820Y-108069502D01*
X152745518Y-108105812D01*
X152870000Y-108118072D01*
X154470000Y-108118072D01*
X154594482Y-108105812D01*
X154714180Y-108069502D01*
X154824494Y-108010537D01*
X154921185Y-107931185D01*
X155000537Y-107834494D01*
X155059502Y-107724180D01*
X155095812Y-107604482D01*
X155108072Y-107480000D01*
X155108072Y-107334326D01*
X155144276Y-107314974D01*
X155260001Y-107220001D01*
X155283804Y-107190997D01*
X157846004Y-104628798D01*
X157875002Y-104605000D01*
X157908423Y-104564276D01*
X157969975Y-104489276D01*
X158040547Y-104357246D01*
X158061253Y-104288985D01*
X158084004Y-104213985D01*
X158095001Y-104102332D01*
X158095001Y-104102322D01*
X158098677Y-104064999D01*
X158095001Y-104027676D01*
X158095001Y-99827322D01*
X158098677Y-99789999D01*
X158095001Y-99752676D01*
X158095001Y-99752666D01*
X158084004Y-99641013D01*
X158040547Y-99497752D01*
X158022500Y-99463989D01*
X157969975Y-99365722D01*
X157898800Y-99278996D01*
X157875002Y-99249998D01*
X157846005Y-99226201D01*
X152727727Y-94107924D01*
X152818574Y-94089853D01*
X153079727Y-93981680D01*
X153314759Y-93824637D01*
X153514637Y-93624759D01*
X153671680Y-93389727D01*
X153779853Y-93128574D01*
X153835000Y-92851335D01*
X153835000Y-92568665D01*
X153779853Y-92291426D01*
X153671680Y-92030273D01*
X153514637Y-91795241D01*
X153314759Y-91595363D01*
X153160000Y-91491957D01*
X153160000Y-85127322D01*
X153163676Y-85089999D01*
X153160000Y-85052676D01*
X153160000Y-85052667D01*
X153149003Y-84941014D01*
X153105546Y-84797753D01*
X153034974Y-84665724D01*
X153021811Y-84649685D01*
X152963799Y-84578996D01*
X152963795Y-84578992D01*
X152940001Y-84549999D01*
X152911008Y-84526205D01*
X140989801Y-72605000D01*
X141116260Y-72605000D01*
X141403158Y-72547932D01*
X141673411Y-72435990D01*
X141916632Y-72273475D01*
X142123475Y-72066632D01*
X142240000Y-71892240D01*
X142356525Y-72066632D01*
X142563368Y-72273475D01*
X142806589Y-72435990D01*
X143076842Y-72547932D01*
X143363740Y-72605000D01*
X143656260Y-72605000D01*
X143876408Y-72561209D01*
X155450001Y-84134803D01*
X155450000Y-91491956D01*
X155295241Y-91595363D01*
X155095363Y-91795241D01*
X154938320Y-92030273D01*
X154830147Y-92291426D01*
X154775000Y-92568665D01*
X154775000Y-92851335D01*
X154830147Y-93128574D01*
X154938320Y-93389727D01*
X155095363Y-93624759D01*
X155295241Y-93824637D01*
X155530273Y-93981680D01*
X155791426Y-94089853D01*
X156068665Y-94145000D01*
X156351335Y-94145000D01*
X156628574Y-94089853D01*
X156889727Y-93981680D01*
X157124759Y-93824637D01*
X157324637Y-93624759D01*
X157481680Y-93389727D01*
X157589853Y-93128574D01*
X157645000Y-92851335D01*
X157645000Y-92568665D01*
X157589853Y-92291426D01*
X157481680Y-92030273D01*
X157324637Y-91795241D01*
X157124759Y-91595363D01*
X156970000Y-91491957D01*
X156970000Y-83857322D01*
X156973676Y-83819999D01*
X156970000Y-83782676D01*
X156970000Y-83782667D01*
X156959003Y-83671014D01*
X156915546Y-83527753D01*
X156844974Y-83395724D01*
X156750001Y-83279999D01*
X156721003Y-83256201D01*
X146069801Y-72605000D01*
X146196260Y-72605000D01*
X146483158Y-72547932D01*
X146753411Y-72435990D01*
X146996632Y-72273475D01*
X147203475Y-72066632D01*
X147365990Y-71823411D01*
X147477932Y-71553158D01*
X147535000Y-71266260D01*
X147535000Y-70973740D01*
X147477932Y-70686842D01*
X147365990Y-70416589D01*
X147203475Y-70173368D01*
X146996632Y-69966525D01*
X146753411Y-69804010D01*
X146483158Y-69692068D01*
X146196260Y-69635000D01*
X145903740Y-69635000D01*
X145683592Y-69678790D01*
X145244802Y-69240000D01*
X158717721Y-69240000D01*
X158867869Y-69254722D01*
G37*
X158867869Y-69254722D02*
X158981246Y-69288953D01*
X159085819Y-69344555D01*
X159177596Y-69419407D01*
X159253091Y-69510664D01*
X159309419Y-69614844D01*
X159344440Y-69727976D01*
X159360000Y-69876022D01*
X159360001Y-137127711D01*
X159345278Y-137277869D01*
X159311047Y-137391246D01*
X159255446Y-137495817D01*
X159180594Y-137587595D01*
X159089335Y-137663091D01*
X158985160Y-137719419D01*
X158872024Y-137754440D01*
X158723979Y-137770000D01*
X115602279Y-137770000D01*
X115452131Y-137755278D01*
X115338754Y-137721047D01*
X115234183Y-137665446D01*
X115142405Y-137590594D01*
X115066909Y-137499335D01*
X115010581Y-137395160D01*
X114975560Y-137282024D01*
X114960000Y-137133979D01*
X114960000Y-134399872D01*
X115875000Y-134399872D01*
X115875000Y-134840128D01*
X115960890Y-135271925D01*
X116129369Y-135678669D01*
X116373962Y-136044729D01*
X116685271Y-136356038D01*
X117051331Y-136600631D01*
X117458075Y-136769110D01*
X117889872Y-136855000D01*
X118330128Y-136855000D01*
X118761925Y-136769110D01*
X119168669Y-136600631D01*
X119534729Y-136356038D01*
X119846038Y-136044729D01*
X120090631Y-135678669D01*
X120259110Y-135271925D01*
X120345000Y-134840128D01*
X120345000Y-134399872D01*
X120259110Y-133968075D01*
X120090631Y-133561331D01*
X119846038Y-133195271D01*
X119534729Y-132883962D01*
X119168669Y-132639369D01*
X118761925Y-132470890D01*
X118330128Y-132385000D01*
X117889872Y-132385000D01*
X117458075Y-132470890D01*
X117051331Y-132639369D01*
X116685271Y-132883962D01*
X116373962Y-133195271D01*
X116129369Y-133561331D01*
X115960890Y-133968075D01*
X115875000Y-134399872D01*
X114960000Y-134399872D01*
X114960000Y-109674707D01*
X115006201Y-109731002D01*
X115030000Y-109760001D01*
X115058998Y-109783799D01*
X119251312Y-113976114D01*
X119215000Y-114158665D01*
X119215000Y-114441335D01*
X119270147Y-114718574D01*
X119378320Y-114979727D01*
X119535363Y-115214759D01*
X119735241Y-115414637D01*
X119970273Y-115571680D01*
X120231426Y-115679853D01*
X120508665Y-115735000D01*
X120791335Y-115735000D01*
X121068574Y-115679853D01*
X121329727Y-115571680D01*
X121564759Y-115414637D01*
X121764637Y-115214759D01*
X121920000Y-114982241D01*
X122075363Y-115214759D01*
X122275241Y-115414637D01*
X122510273Y-115571680D01*
X122771426Y-115679853D01*
X122966535Y-115718663D01*
X120540101Y-118145098D01*
X120484494Y-118099463D01*
X120374180Y-118040498D01*
X120254482Y-118004188D01*
X120130000Y-117991928D01*
X118630000Y-117991928D01*
X118505518Y-118004188D01*
X118385820Y-118040498D01*
X118275506Y-118099463D01*
X118178815Y-118178815D01*
X118099463Y-118275506D01*
X118040498Y-118385820D01*
X118004188Y-118505518D01*
X117991928Y-118630000D01*
X117991928Y-120130000D01*
X118004188Y-120254482D01*
X118040498Y-120374180D01*
X118099463Y-120484494D01*
X118178815Y-120581185D01*
X118275506Y-120660537D01*
X118385820Y-120719502D01*
X118505518Y-120755812D01*
X118613483Y-120766445D01*
X118497114Y-120844201D01*
X118304201Y-121037114D01*
X118152629Y-121263957D01*
X118048225Y-121516011D01*
X117995000Y-121783589D01*
X117995000Y-122056411D01*
X118048225Y-122323989D01*
X118152629Y-122576043D01*
X118304201Y-122802886D01*
X118497114Y-122995799D01*
X118723957Y-123147371D01*
X118826873Y-123190000D01*
X118723957Y-123232629D01*
X118497114Y-123384201D01*
X118304201Y-123577114D01*
X118152629Y-123803957D01*
X118048225Y-124056011D01*
X117995000Y-124323589D01*
X117995000Y-124596411D01*
X118048225Y-124863989D01*
X118152629Y-125116043D01*
X118304201Y-125342886D01*
X118497114Y-125535799D01*
X118723957Y-125687371D01*
X118976011Y-125791775D01*
X119243589Y-125845000D01*
X119516411Y-125845000D01*
X119783989Y-125791775D01*
X120036043Y-125687371D01*
X120262886Y-125535799D01*
X120455799Y-125342886D01*
X120607371Y-125116043D01*
X120711775Y-124863989D01*
X120765000Y-124596411D01*
X120765000Y-124323589D01*
X120711775Y-124056011D01*
X120607371Y-123803957D01*
X120455799Y-123577114D01*
X120262886Y-123384201D01*
X120036043Y-123232629D01*
X119933127Y-123190000D01*
X120036043Y-123147371D01*
X120262886Y-122995799D01*
X120455799Y-122802886D01*
X120537909Y-122680000D01*
X121882678Y-122680000D01*
X121920000Y-122683676D01*
X121957322Y-122680000D01*
X121957333Y-122680000D01*
X122068986Y-122669003D01*
X122212247Y-122625546D01*
X122344276Y-122554974D01*
X122460001Y-122460001D01*
X122483804Y-122430997D01*
X126241004Y-118673798D01*
X126270001Y-118650001D01*
X126364974Y-118534276D01*
X126435546Y-118402247D01*
X126479003Y-118258986D01*
X126490000Y-118147333D01*
X126490000Y-118147325D01*
X126493676Y-118110000D01*
X126490000Y-118072675D01*
X126490000Y-115518043D01*
X126644759Y-115414637D01*
X126844637Y-115214759D01*
X127000000Y-114982241D01*
X127155363Y-115214759D01*
X127355241Y-115414637D01*
X127590273Y-115571680D01*
X127851426Y-115679853D01*
X128128665Y-115735000D01*
X128411335Y-115735000D01*
X128688574Y-115679853D01*
X128949727Y-115571680D01*
X129184759Y-115414637D01*
X129384637Y-115214759D01*
X129540000Y-114982241D01*
X129695363Y-115214759D01*
X129895241Y-115414637D01*
X130130273Y-115571680D01*
X130391426Y-115679853D01*
X130668665Y-115735000D01*
X130951335Y-115735000D01*
X131228574Y-115679853D01*
X131489727Y-115571680D01*
X131724759Y-115414637D01*
X131924637Y-115214759D01*
X132080000Y-114982241D01*
X132235363Y-115214759D01*
X132435241Y-115414637D01*
X132590001Y-115518044D01*
X132590000Y-116802667D01*
X132586323Y-116840000D01*
X132590001Y-116877343D01*
X132590000Y-120592677D01*
X132586324Y-120630000D01*
X132590000Y-120667322D01*
X132590000Y-120667332D01*
X132600997Y-120778985D01*
X132636691Y-120896654D01*
X132644454Y-120922246D01*
X132715026Y-121054276D01*
X132731440Y-121074276D01*
X132809999Y-121170001D01*
X132839003Y-121193804D01*
X137886201Y-126241003D01*
X137891541Y-126247510D01*
X136279382Y-126247510D01*
X133980874Y-123949003D01*
X133957071Y-123919999D01*
X133841346Y-123825026D01*
X133709317Y-123754454D01*
X133566056Y-123710997D01*
X133454403Y-123700000D01*
X133454392Y-123700000D01*
X133417070Y-123696324D01*
X133379748Y-123700000D01*
X130658072Y-123700000D01*
X130658072Y-122710000D01*
X130645812Y-122585518D01*
X130609502Y-122465820D01*
X130550537Y-122355506D01*
X130471185Y-122258815D01*
X130374494Y-122179463D01*
X130264180Y-122120498D01*
X130144482Y-122084188D01*
X130020000Y-122071928D01*
X126520000Y-122071928D01*
X126395518Y-122084188D01*
X126275820Y-122120498D01*
X126165506Y-122179463D01*
X126068815Y-122258815D01*
X125989463Y-122355506D01*
X125930498Y-122465820D01*
X125894188Y-122585518D01*
X125881928Y-122710000D01*
X125881928Y-126210000D01*
X125894188Y-126334482D01*
X125930498Y-126454180D01*
X125989463Y-126564494D01*
X126068815Y-126661185D01*
X126165506Y-126740537D01*
X126275820Y-126799502D01*
X126395518Y-126835812D01*
X126520000Y-126848072D01*
X130020000Y-126848072D01*
X130144482Y-126835812D01*
X130264180Y-126799502D01*
X130374494Y-126740537D01*
X130471185Y-126661185D01*
X130550537Y-126564494D01*
X130591494Y-126487869D01*
X130581928Y-126585000D01*
X130581928Y-128335000D01*
X130611001Y-128630186D01*
X130697104Y-128914028D01*
X130836927Y-129175618D01*
X131025097Y-129404903D01*
X131254382Y-129593073D01*
X131515972Y-129732896D01*
X131799814Y-129818999D01*
X132095000Y-129848072D01*
X133845000Y-129848072D01*
X134140186Y-129818999D01*
X134424028Y-129732896D01*
X134685618Y-129593073D01*
X134914903Y-129404903D01*
X135103073Y-129175618D01*
X135130001Y-129125240D01*
X135130000Y-132131956D01*
X134975241Y-132235363D01*
X134775363Y-132435241D01*
X134618320Y-132670273D01*
X134510147Y-132931426D01*
X134455000Y-133208665D01*
X134455000Y-133491335D01*
X134510147Y-133768574D01*
X134618320Y-134029727D01*
X134775363Y-134264759D01*
X134975241Y-134464637D01*
X135210273Y-134621680D01*
X135471426Y-134729853D01*
X135748665Y-134785000D01*
X136031335Y-134785000D01*
X136308574Y-134729853D01*
X136569727Y-134621680D01*
X136804759Y-134464637D01*
X137004637Y-134264759D01*
X137161680Y-134029727D01*
X137269853Y-133768574D01*
X137325000Y-133491335D01*
X137325000Y-133208665D01*
X137269853Y-132931426D01*
X137161680Y-132670273D01*
X137004637Y-132435241D01*
X136804759Y-132235363D01*
X136650000Y-132131957D01*
X136650000Y-127767510D01*
X140239339Y-127767510D01*
X140276661Y-127771186D01*
X140313983Y-127767510D01*
X140313994Y-127767510D01*
X140425647Y-127756513D01*
X140568908Y-127713056D01*
X140700937Y-127642484D01*
X140816662Y-127547511D01*
X140840464Y-127518508D01*
X141536012Y-126822960D01*
X141565011Y-126799162D01*
X141659984Y-126683437D01*
X141730556Y-126551408D01*
X141774013Y-126408147D01*
X141785010Y-126296494D01*
X141785010Y-126296485D01*
X141788686Y-126259162D01*
X141785010Y-126221839D01*
X141785010Y-121272310D01*
X143480001Y-122967301D01*
X143480000Y-132131957D01*
X143325241Y-132235363D01*
X143125363Y-132435241D01*
X142968320Y-132670273D01*
X142860147Y-132931426D01*
X142805000Y-133208665D01*
X142805000Y-133491335D01*
X142860147Y-133768574D01*
X142968320Y-134029727D01*
X143125363Y-134264759D01*
X143325241Y-134464637D01*
X143560273Y-134621680D01*
X143821426Y-134729853D01*
X144098665Y-134785000D01*
X144381335Y-134785000D01*
X144658574Y-134729853D01*
X144919727Y-134621680D01*
X145154759Y-134464637D01*
X145354637Y-134264759D01*
X145458043Y-134110000D01*
X147371957Y-134110000D01*
X147475363Y-134264759D01*
X147675241Y-134464637D01*
X147910273Y-134621680D01*
X148171426Y-134729853D01*
X148448665Y-134785000D01*
X148731335Y-134785000D01*
X149008574Y-134729853D01*
X149269727Y-134621680D01*
X149504759Y-134464637D01*
X149569524Y-134399872D01*
X153975000Y-134399872D01*
X153975000Y-134840128D01*
X154060890Y-135271925D01*
X154229369Y-135678669D01*
X154473962Y-136044729D01*
X154785271Y-136356038D01*
X155151331Y-136600631D01*
X155558075Y-136769110D01*
X155989872Y-136855000D01*
X156430128Y-136855000D01*
X156861925Y-136769110D01*
X157268669Y-136600631D01*
X157634729Y-136356038D01*
X157946038Y-136044729D01*
X158190631Y-135678669D01*
X158359110Y-135271925D01*
X158445000Y-134840128D01*
X158445000Y-134399872D01*
X158359110Y-133968075D01*
X158190631Y-133561331D01*
X157946038Y-133195271D01*
X157634729Y-132883962D01*
X157268669Y-132639369D01*
X156861925Y-132470890D01*
X156430128Y-132385000D01*
X155989872Y-132385000D01*
X155558075Y-132470890D01*
X155151331Y-132639369D01*
X154785271Y-132883962D01*
X154473962Y-133195271D01*
X154229369Y-133561331D01*
X154060890Y-133968075D01*
X153975000Y-134399872D01*
X149569524Y-134399872D01*
X149704637Y-134264759D01*
X149861680Y-134029727D01*
X149969853Y-133768574D01*
X150025000Y-133491335D01*
X150025000Y-133208665D01*
X149969853Y-132931426D01*
X149861680Y-132670273D01*
X149704637Y-132435241D01*
X149504759Y-132235363D01*
X149269727Y-132078320D01*
X149008574Y-131970147D01*
X148731335Y-131915000D01*
X148448665Y-131915000D01*
X148171426Y-131970147D01*
X147910273Y-132078320D01*
X147675241Y-132235363D01*
X147475363Y-132435241D01*
X147371957Y-132590000D01*
X145458043Y-132590000D01*
X145354637Y-132435241D01*
X145154759Y-132235363D01*
X145000000Y-132131957D01*
X145000000Y-122967299D01*
X145317300Y-122650000D01*
X145801928Y-122650000D01*
X145801928Y-122740000D01*
X145814188Y-122864482D01*
X145814345Y-122865000D01*
X145814188Y-122865518D01*
X145801928Y-122990000D01*
X145801928Y-123390000D01*
X145814188Y-123514482D01*
X145814345Y-123515000D01*
X145814188Y-123515518D01*
X145801928Y-123640000D01*
X145801928Y-124040000D01*
X145814188Y-124164482D01*
X145850498Y-124284180D01*
X145909463Y-124394494D01*
X145988815Y-124491185D01*
X146085506Y-124570537D01*
X146195820Y-124629502D01*
X146266770Y-124651024D01*
X146245498Y-124690820D01*
X146209188Y-124810518D01*
X146196928Y-124935000D01*
X146196928Y-126085000D01*
X146209188Y-126209482D01*
X146245498Y-126329180D01*
X146304463Y-126439494D01*
X146383815Y-126536185D01*
X146480506Y-126615537D01*
X146590820Y-126674502D01*
X146710518Y-126710812D01*
X146835000Y-126723072D01*
X148203518Y-126723072D01*
X148199388Y-126765000D01*
X148221785Y-126992400D01*
X148288115Y-127211060D01*
X148395829Y-127412579D01*
X148540788Y-127589212D01*
X148717421Y-127734171D01*
X148918940Y-127841885D01*
X149137600Y-127908215D01*
X149308021Y-127925000D01*
X150271979Y-127925000D01*
X150442400Y-127908215D01*
X150661060Y-127841885D01*
X150862579Y-127734171D01*
X151039212Y-127589212D01*
X151184171Y-127412579D01*
X151291885Y-127211060D01*
X151358215Y-126992400D01*
X151380612Y-126765000D01*
X151358215Y-126537600D01*
X151291885Y-126318940D01*
X151184171Y-126117421D01*
X151039212Y-125940788D01*
X150880871Y-125810841D01*
X150984180Y-125779502D01*
X151094494Y-125720537D01*
X151191185Y-125641185D01*
X151270537Y-125544494D01*
X151329502Y-125434180D01*
X151365812Y-125314482D01*
X151378072Y-125190000D01*
X151378072Y-123440000D01*
X151365812Y-123315518D01*
X151329502Y-123195820D01*
X151326391Y-123190000D01*
X151329502Y-123184180D01*
X151365812Y-123064482D01*
X151376585Y-122955098D01*
X153975000Y-122955098D01*
X153975000Y-123424902D01*
X154066654Y-123885679D01*
X154246440Y-124319721D01*
X154507450Y-124710349D01*
X154839651Y-125042550D01*
X155230279Y-125303560D01*
X155664321Y-125483346D01*
X156125098Y-125575000D01*
X156594902Y-125575000D01*
X157055679Y-125483346D01*
X157489721Y-125303560D01*
X157880349Y-125042550D01*
X158212550Y-124710349D01*
X158473560Y-124319721D01*
X158653346Y-123885679D01*
X158745000Y-123424902D01*
X158745000Y-122955098D01*
X158653346Y-122494321D01*
X158473560Y-122060279D01*
X158212550Y-121669651D01*
X157880349Y-121337450D01*
X157489721Y-121076440D01*
X157055679Y-120896654D01*
X156594902Y-120805000D01*
X156125098Y-120805000D01*
X155664321Y-120896654D01*
X155230279Y-121076440D01*
X154839651Y-121337450D01*
X154507450Y-121669651D01*
X154246440Y-122060279D01*
X154066654Y-122494321D01*
X153975000Y-122955098D01*
X151376585Y-122955098D01*
X151378072Y-122940000D01*
X151378072Y-121190000D01*
X151365812Y-121065518D01*
X151329502Y-120945820D01*
X151270537Y-120835506D01*
X151191185Y-120738815D01*
X151094494Y-120659463D01*
X150984180Y-120600498D01*
X150880871Y-120569159D01*
X151039212Y-120439212D01*
X151184171Y-120262579D01*
X151291885Y-120061060D01*
X151358215Y-119842400D01*
X151380612Y-119615000D01*
X151358215Y-119387600D01*
X151291885Y-119168940D01*
X151184171Y-118967421D01*
X151039212Y-118790788D01*
X150862579Y-118645829D01*
X150661060Y-118538115D01*
X150442400Y-118471785D01*
X150271979Y-118455000D01*
X149308021Y-118455000D01*
X149137600Y-118471785D01*
X148918940Y-118538115D01*
X148717421Y-118645829D01*
X148540788Y-118790788D01*
X148395829Y-118967421D01*
X148288115Y-119168940D01*
X148221785Y-119387600D01*
X148199388Y-119615000D01*
X148203518Y-119656928D01*
X146835000Y-119656928D01*
X146710518Y-119669188D01*
X146590820Y-119705498D01*
X146480506Y-119764463D01*
X146383815Y-119843815D01*
X146304463Y-119940506D01*
X146245498Y-120050820D01*
X146209188Y-120170518D01*
X146196928Y-120295000D01*
X146196928Y-121100162D01*
X146195820Y-121100498D01*
X146140627Y-121130000D01*
X145039820Y-121130000D01*
X145002497Y-121126324D01*
X144965175Y-121130000D01*
X144965165Y-121130000D01*
X144853512Y-121140997D01*
X144710251Y-121184454D01*
X144578221Y-121255026D01*
X144537057Y-121288809D01*
X144462497Y-121349999D01*
X144438699Y-121378998D01*
X144240000Y-121577696D01*
X138991306Y-116329003D01*
X138967503Y-116299999D01*
X138851778Y-116205026D01*
X138719749Y-116134454D01*
X138576488Y-116090997D01*
X138464835Y-116080000D01*
X138464824Y-116080000D01*
X138427502Y-116076324D01*
X138390180Y-116080000D01*
X134110000Y-116080000D01*
X134110000Y-115518043D01*
X134264759Y-115414637D01*
X134464637Y-115214759D01*
X134620000Y-114982241D01*
X134775363Y-115214759D01*
X134975241Y-115414637D01*
X135210273Y-115571680D01*
X135471426Y-115679853D01*
X135748665Y-115735000D01*
X136031335Y-115735000D01*
X136308574Y-115679853D01*
X136569727Y-115571680D01*
X136804759Y-115414637D01*
X137004637Y-115214759D01*
X137161680Y-114979727D01*
X137269853Y-114718574D01*
X137325000Y-114441335D01*
X137325000Y-114158665D01*
X139535000Y-114158665D01*
X139535000Y-114441335D01*
X139590147Y-114718574D01*
X139698320Y-114979727D01*
X139855363Y-115214759D01*
X140055241Y-115414637D01*
X140290273Y-115571680D01*
X140551426Y-115679853D01*
X140828665Y-115735000D01*
X141111335Y-115735000D01*
X141388574Y-115679853D01*
X141649727Y-115571680D01*
X141884759Y-115414637D01*
X142084637Y-115214759D01*
X142240000Y-114982241D01*
X142395363Y-115214759D01*
X142595241Y-115414637D01*
X142830273Y-115571680D01*
X143091426Y-115679853D01*
X143368665Y-115735000D01*
X143651335Y-115735000D01*
X143928574Y-115679853D01*
X144189727Y-115571680D01*
X144424759Y-115414637D01*
X144624637Y-115214759D01*
X144780000Y-114982241D01*
X144935363Y-115214759D01*
X145135241Y-115414637D01*
X145370273Y-115571680D01*
X145631426Y-115679853D01*
X145908665Y-115735000D01*
X146191335Y-115735000D01*
X146468574Y-115679853D01*
X146729727Y-115571680D01*
X146964759Y-115414637D01*
X147164637Y-115214759D01*
X147320000Y-114982241D01*
X147475363Y-115214759D01*
X147675241Y-115414637D01*
X147910273Y-115571680D01*
X148171426Y-115679853D01*
X148448665Y-115735000D01*
X148731335Y-115735000D01*
X149008574Y-115679853D01*
X149269727Y-115571680D01*
X149504759Y-115414637D01*
X149704637Y-115214759D01*
X149860000Y-114982241D01*
X150015363Y-115214759D01*
X150215241Y-115414637D01*
X150450273Y-115571680D01*
X150711426Y-115679853D01*
X150988665Y-115735000D01*
X151271335Y-115735000D01*
X151548574Y-115679853D01*
X151809727Y-115571680D01*
X152044759Y-115414637D01*
X152244637Y-115214759D01*
X152400000Y-114982241D01*
X152555363Y-115214759D01*
X152755241Y-115414637D01*
X152990273Y-115571680D01*
X153251426Y-115679853D01*
X153528665Y-115735000D01*
X153811335Y-115735000D01*
X154088574Y-115679853D01*
X154349727Y-115571680D01*
X154584759Y-115414637D01*
X154784637Y-115214759D01*
X154941680Y-114979727D01*
X155049853Y-114718574D01*
X155105000Y-114441335D01*
X155105000Y-114158665D01*
X155049853Y-113881426D01*
X154941680Y-113620273D01*
X154784637Y-113385241D01*
X154584759Y-113185363D01*
X154349727Y-113028320D01*
X154088574Y-112920147D01*
X153811335Y-112865000D01*
X153528665Y-112865000D01*
X153251426Y-112920147D01*
X152990273Y-113028320D01*
X152755241Y-113185363D01*
X152555363Y-113385241D01*
X152400000Y-113617759D01*
X152244637Y-113385241D01*
X152044759Y-113185363D01*
X151809727Y-113028320D01*
X151548574Y-112920147D01*
X151271335Y-112865000D01*
X150988665Y-112865000D01*
X150711426Y-112920147D01*
X150450273Y-113028320D01*
X150215241Y-113185363D01*
X150015363Y-113385241D01*
X149860000Y-113617759D01*
X149704637Y-113385241D01*
X149504759Y-113185363D01*
X149269727Y-113028320D01*
X149008574Y-112920147D01*
X148731335Y-112865000D01*
X148448665Y-112865000D01*
X148171426Y-112920147D01*
X147910273Y-113028320D01*
X147675241Y-113185363D01*
X147475363Y-113385241D01*
X147320000Y-113617759D01*
X147164637Y-113385241D01*
X146964759Y-113185363D01*
X146729727Y-113028320D01*
X146468574Y-112920147D01*
X146191335Y-112865000D01*
X145908665Y-112865000D01*
X145631426Y-112920147D01*
X145370273Y-113028320D01*
X145135241Y-113185363D01*
X144935363Y-113385241D01*
X144780000Y-113617759D01*
X144624637Y-113385241D01*
X144424759Y-113185363D01*
X144189727Y-113028320D01*
X143928574Y-112920147D01*
X143651335Y-112865000D01*
X143368665Y-112865000D01*
X143091426Y-112920147D01*
X142830273Y-113028320D01*
X142595241Y-113185363D01*
X142395363Y-113385241D01*
X142240000Y-113617759D01*
X142084637Y-113385241D01*
X141884759Y-113185363D01*
X141649727Y-113028320D01*
X141388574Y-112920147D01*
X141111335Y-112865000D01*
X140828665Y-112865000D01*
X140551426Y-112920147D01*
X140290273Y-113028320D01*
X140055241Y-113185363D01*
X139855363Y-113385241D01*
X139698320Y-113620273D01*
X139590147Y-113881426D01*
X139535000Y-114158665D01*
X137325000Y-114158665D01*
X137269853Y-113881426D01*
X137161680Y-113620273D01*
X137004637Y-113385241D01*
X136804759Y-113185363D01*
X136569727Y-113028320D01*
X136308574Y-112920147D01*
X136031335Y-112865000D01*
X135748665Y-112865000D01*
X135471426Y-112920147D01*
X135210273Y-113028320D01*
X134975241Y-113185363D01*
X134775363Y-113385241D01*
X134620000Y-113617759D01*
X134464637Y-113385241D01*
X134264759Y-113185363D01*
X134029727Y-113028320D01*
X133768574Y-112920147D01*
X133491335Y-112865000D01*
X133208665Y-112865000D01*
X133026114Y-112901312D01*
X132643804Y-112519003D01*
X132620001Y-112489999D01*
X132504276Y-112395026D01*
X132372247Y-112324454D01*
X132228986Y-112280997D01*
X132117333Y-112270000D01*
X132117322Y-112270000D01*
X132080000Y-112266324D01*
X132042678Y-112270000D01*
X125372320Y-112270000D01*
X125334997Y-112266324D01*
X125297674Y-112270000D01*
X125297665Y-112270000D01*
X125186012Y-112280997D01*
X125042751Y-112324454D01*
X124910722Y-112395026D01*
X124910720Y-112395027D01*
X124910721Y-112395027D01*
X124823994Y-112466201D01*
X124823990Y-112466205D01*
X124794997Y-112489999D01*
X124771203Y-112518992D01*
X124104796Y-113185400D01*
X124104759Y-113185363D01*
X123869727Y-113028320D01*
X123608574Y-112920147D01*
X123331335Y-112865000D01*
X123048665Y-112865000D01*
X122866114Y-112901312D01*
X116780010Y-106815209D01*
X116780010Y-100868954D01*
X116838320Y-101009727D01*
X116995363Y-101244759D01*
X117195241Y-101444637D01*
X117350000Y-101548044D01*
X117350001Y-104102668D01*
X117346324Y-104140000D01*
X117360998Y-104288985D01*
X117404454Y-104432246D01*
X117475026Y-104564276D01*
X117508448Y-104605000D01*
X117570000Y-104680001D01*
X117598998Y-104703799D01*
X119251312Y-106356114D01*
X119215000Y-106538665D01*
X119215000Y-106821335D01*
X119270147Y-107098574D01*
X119378320Y-107359727D01*
X119535363Y-107594759D01*
X119735241Y-107794637D01*
X119970273Y-107951680D01*
X120231426Y-108059853D01*
X120508665Y-108115000D01*
X120791335Y-108115000D01*
X121068574Y-108059853D01*
X121329727Y-107951680D01*
X121564759Y-107794637D01*
X121764637Y-107594759D01*
X121920000Y-107362241D01*
X122075363Y-107594759D01*
X122275241Y-107794637D01*
X122510273Y-107951680D01*
X122771426Y-108059853D01*
X123048665Y-108115000D01*
X123331335Y-108115000D01*
X123608574Y-108059853D01*
X123869727Y-107951680D01*
X124104759Y-107794637D01*
X124304637Y-107594759D01*
X124460000Y-107362241D01*
X124615363Y-107594759D01*
X124815241Y-107794637D01*
X125050273Y-107951680D01*
X125311426Y-108059853D01*
X125588665Y-108115000D01*
X125871335Y-108115000D01*
X126148574Y-108059853D01*
X126409727Y-107951680D01*
X126644759Y-107794637D01*
X126844637Y-107594759D01*
X127000000Y-107362241D01*
X127155363Y-107594759D01*
X127355241Y-107794637D01*
X127590273Y-107951680D01*
X127851426Y-108059853D01*
X128128665Y-108115000D01*
X128411335Y-108115000D01*
X128688574Y-108059853D01*
X128949727Y-107951680D01*
X129184759Y-107794637D01*
X129384637Y-107594759D01*
X129540000Y-107362241D01*
X129695363Y-107594759D01*
X129895241Y-107794637D01*
X130130273Y-107951680D01*
X130391426Y-108059853D01*
X130668665Y-108115000D01*
X130951335Y-108115000D01*
X131228574Y-108059853D01*
X131489727Y-107951680D01*
X131724759Y-107794637D01*
X131924637Y-107594759D01*
X132080000Y-107362241D01*
X132235363Y-107594759D01*
X132435241Y-107794637D01*
X132670273Y-107951680D01*
X132931426Y-108059853D01*
X133208665Y-108115000D01*
X133491335Y-108115000D01*
X133768574Y-108059853D01*
X134029727Y-107951680D01*
X134264759Y-107794637D01*
X134464637Y-107594759D01*
X134621680Y-107359727D01*
X134729853Y-107098574D01*
X134785000Y-106821335D01*
X134785000Y-106538665D01*
X134748688Y-106356113D01*
X140211003Y-100893799D01*
X140240001Y-100870001D01*
X140281014Y-100820027D01*
X140334974Y-100754277D01*
X140405546Y-100622247D01*
X140449003Y-100478986D01*
X140460000Y-100367333D01*
X140460000Y-100367324D01*
X140463676Y-100330001D01*
X140460000Y-100292678D01*
X140460000Y-100217909D01*
X140582886Y-100135799D01*
X140775799Y-99942886D01*
X140927371Y-99716043D01*
X141031775Y-99463989D01*
X141085000Y-99196411D01*
X141085000Y-98923589D01*
X141031775Y-98656011D01*
X140927371Y-98403957D01*
X140775799Y-98177114D01*
X140582886Y-97984201D01*
X140460000Y-97902091D01*
X140460000Y-95564801D01*
X140646114Y-95378688D01*
X140828665Y-95415000D01*
X141111335Y-95415000D01*
X141388574Y-95359853D01*
X141649727Y-95251680D01*
X141884759Y-95094637D01*
X142084637Y-94894759D01*
X142241680Y-94659727D01*
X142349853Y-94398574D01*
X142405000Y-94121335D01*
X142405000Y-93838665D01*
X142349853Y-93561426D01*
X142241680Y-93300273D01*
X142084637Y-93065241D01*
X141884759Y-92865363D01*
X141730000Y-92761957D01*
X141730000Y-91361316D01*
X141844759Y-91284637D01*
X142044637Y-91084759D01*
X142201680Y-90849727D01*
X142309853Y-90588574D01*
X142365000Y-90311335D01*
X142365000Y-90028665D01*
X142309853Y-89751426D01*
X142201680Y-89490273D01*
X142044637Y-89255241D01*
X141844759Y-89055363D01*
X141609727Y-88898320D01*
X141348574Y-88790147D01*
X141071335Y-88735000D01*
X140788665Y-88735000D01*
X140511426Y-88790147D01*
X140250273Y-88898320D01*
X140015241Y-89055363D01*
X139815363Y-89255241D01*
X139658320Y-89490273D01*
X139550147Y-89751426D01*
X139495000Y-90028665D01*
X139495000Y-90311335D01*
X139550147Y-90588574D01*
X139658320Y-90849727D01*
X139815363Y-91084759D01*
X140015241Y-91284637D01*
X140210001Y-91414771D01*
X140210000Y-92761956D01*
X140055241Y-92865363D01*
X139855363Y-93065241D01*
X139698320Y-93300273D01*
X139590147Y-93561426D01*
X139535000Y-93838665D01*
X139535000Y-94121335D01*
X139571312Y-94303886D01*
X139188998Y-94686201D01*
X139160000Y-94709999D01*
X139136202Y-94738997D01*
X139136201Y-94738998D01*
X139065026Y-94825724D01*
X138994454Y-94957754D01*
X138964180Y-95057558D01*
X138952933Y-95094637D01*
X138950998Y-95101015D01*
X138936324Y-95250000D01*
X138940001Y-95287332D01*
X138940000Y-97902091D01*
X138817114Y-97984201D01*
X138624201Y-98177114D01*
X138472629Y-98403957D01*
X138368225Y-98656011D01*
X138315000Y-98923589D01*
X138315000Y-99196411D01*
X138368225Y-99463989D01*
X138472629Y-99716043D01*
X138624201Y-99942886D01*
X138817114Y-100135799D01*
X138818484Y-100136714D01*
X133673887Y-105281312D01*
X133491335Y-105245000D01*
X133319802Y-105245000D01*
X135331008Y-103233795D01*
X135360001Y-103210001D01*
X135383795Y-103181008D01*
X135383799Y-103181004D01*
X135454973Y-103094277D01*
X135454974Y-103094276D01*
X135525546Y-102962247D01*
X135569003Y-102818986D01*
X135580000Y-102707333D01*
X135580000Y-102707324D01*
X135583676Y-102670001D01*
X135580000Y-102632678D01*
X135580000Y-100217909D01*
X135702886Y-100135799D01*
X135895799Y-99942886D01*
X136047371Y-99716043D01*
X136151775Y-99463989D01*
X136205000Y-99196411D01*
X136205000Y-98923589D01*
X136151775Y-98656011D01*
X136047371Y-98403957D01*
X135895799Y-98177114D01*
X135702886Y-97984201D01*
X135580000Y-97902091D01*
X135580000Y-95487323D01*
X135583676Y-95450000D01*
X135580000Y-95412677D01*
X135580000Y-95412667D01*
X135569003Y-95301014D01*
X135525546Y-95157753D01*
X135514031Y-95136211D01*
X135454974Y-95025723D01*
X135383799Y-94938997D01*
X135360001Y-94909999D01*
X135331003Y-94886201D01*
X134748688Y-94303886D01*
X134785000Y-94121335D01*
X134785000Y-93838665D01*
X134729853Y-93561426D01*
X134621680Y-93300273D01*
X134464637Y-93065241D01*
X134264759Y-92865363D01*
X134150000Y-92788684D01*
X134150000Y-91388043D01*
X134304759Y-91284637D01*
X134504637Y-91084759D01*
X134661680Y-90849727D01*
X134769853Y-90588574D01*
X134825000Y-90311335D01*
X134825000Y-90028665D01*
X134769853Y-89751426D01*
X134661680Y-89490273D01*
X134504637Y-89255241D01*
X134304759Y-89055363D01*
X134069727Y-88898320D01*
X133808574Y-88790147D01*
X133531335Y-88735000D01*
X133319801Y-88735000D01*
X134934802Y-87120000D01*
X135852678Y-87120000D01*
X135890000Y-87123676D01*
X135927322Y-87120000D01*
X135927333Y-87120000D01*
X136038986Y-87109003D01*
X136182247Y-87065546D01*
X136314276Y-86994974D01*
X136430001Y-86900001D01*
X136453804Y-86870997D01*
X138063593Y-85261210D01*
X138283740Y-85305000D01*
X138576260Y-85305000D01*
X138863158Y-85247932D01*
X139133411Y-85135990D01*
X139376632Y-84973475D01*
X139583475Y-84766632D01*
X139700000Y-84592240D01*
X139816525Y-84766632D01*
X140023368Y-84973475D01*
X140266589Y-85135990D01*
X140536842Y-85247932D01*
X140823740Y-85305000D01*
X141116260Y-85305000D01*
X141403158Y-85247932D01*
X141673411Y-85135990D01*
X141916632Y-84973475D01*
X142123475Y-84766632D01*
X142240000Y-84592240D01*
X142356525Y-84766632D01*
X142563368Y-84973475D01*
X142806589Y-85135990D01*
X143076842Y-85247932D01*
X143363740Y-85305000D01*
X143656260Y-85305000D01*
X143943158Y-85247932D01*
X144213411Y-85135990D01*
X144456632Y-84973475D01*
X144663475Y-84766632D01*
X144780000Y-84592240D01*
X144896525Y-84766632D01*
X145103368Y-84973475D01*
X145346589Y-85135990D01*
X145616842Y-85247932D01*
X145903740Y-85305000D01*
X146196260Y-85305000D01*
X146416408Y-85261210D01*
X147830001Y-86674804D01*
X147830000Y-91491956D01*
X147675241Y-91595363D01*
X147475363Y-91795241D01*
X147318320Y-92030273D01*
X147210147Y-92291426D01*
X147155000Y-92568665D01*
X147155000Y-92851335D01*
X147199491Y-93075001D01*
X146219803Y-93075001D01*
X146178688Y-93033886D01*
X146215000Y-92851335D01*
X146215000Y-92568665D01*
X146159853Y-92291426D01*
X146051680Y-92030273D01*
X145894637Y-91795241D01*
X145694759Y-91595363D01*
X145459727Y-91438320D01*
X145198574Y-91330147D01*
X144921335Y-91275000D01*
X144638665Y-91275000D01*
X144361426Y-91330147D01*
X144100273Y-91438320D01*
X143865241Y-91595363D01*
X143665363Y-91795241D01*
X143508320Y-92030273D01*
X143400147Y-92291426D01*
X143345000Y-92568665D01*
X143345000Y-92851335D01*
X143400147Y-93128574D01*
X143508320Y-93389727D01*
X143665363Y-93624759D01*
X143865241Y-93824637D01*
X144100273Y-93981680D01*
X144361426Y-94089853D01*
X144638665Y-94145000D01*
X144921335Y-94145000D01*
X145103886Y-94108688D01*
X145341201Y-94346003D01*
X145365000Y-94375002D01*
X145480725Y-94469975D01*
X145612754Y-94540547D01*
X145756015Y-94584004D01*
X145867668Y-94595001D01*
X145867676Y-94595001D01*
X145905001Y-94598677D01*
X145942326Y-94595001D01*
X151065202Y-94595001D01*
X155529222Y-99059022D01*
X155295241Y-99215363D01*
X155095363Y-99415241D01*
X154938320Y-99650273D01*
X154830147Y-99911426D01*
X154775000Y-100188665D01*
X154775000Y-100471335D01*
X154811312Y-100653886D01*
X154320188Y-101145011D01*
X153581286Y-101145011D01*
X153671680Y-101009727D01*
X153779853Y-100748574D01*
X153835000Y-100471335D01*
X153835000Y-100188665D01*
X153779853Y-99911426D01*
X153671680Y-99650273D01*
X153514637Y-99415241D01*
X153314759Y-99215363D01*
X153079727Y-99058320D01*
X152818574Y-98950147D01*
X152541335Y-98895000D01*
X152258665Y-98895000D01*
X151981426Y-98950147D01*
X151720273Y-99058320D01*
X151485241Y-99215363D01*
X151285363Y-99415241D01*
X151128320Y-99650273D01*
X151020147Y-99911426D01*
X150965000Y-100188665D01*
X150965000Y-100471335D01*
X151001312Y-100653887D01*
X150960198Y-100695001D01*
X149980509Y-100695001D01*
X150025000Y-100471335D01*
X150025000Y-100188665D01*
X149969853Y-99911426D01*
X149861680Y-99650273D01*
X149704637Y-99415241D01*
X149504759Y-99215363D01*
X149269727Y-99058320D01*
X149008574Y-98950147D01*
X148731335Y-98895000D01*
X148448665Y-98895000D01*
X148171426Y-98950147D01*
X147910273Y-99058320D01*
X147675241Y-99215363D01*
X147475363Y-99415241D01*
X147371957Y-99570000D01*
X147357322Y-99570000D01*
X147319999Y-99566324D01*
X147282676Y-99570000D01*
X147282667Y-99570000D01*
X147171014Y-99580997D01*
X147029912Y-99623799D01*
X147027753Y-99624454D01*
X146895723Y-99695026D01*
X146825489Y-99752666D01*
X146779999Y-99789999D01*
X146756201Y-99818997D01*
X146215000Y-100360198D01*
X146215000Y-100188665D01*
X146159853Y-99911426D01*
X146051680Y-99650273D01*
X145894637Y-99415241D01*
X145694759Y-99215363D01*
X145459727Y-99058320D01*
X145198574Y-98950147D01*
X144921335Y-98895000D01*
X144638665Y-98895000D01*
X144361426Y-98950147D01*
X144100273Y-99058320D01*
X143865241Y-99215363D01*
X143665363Y-99415241D01*
X143508320Y-99650273D01*
X143400147Y-99911426D01*
X143345000Y-100188665D01*
X143345000Y-100471335D01*
X143381312Y-100653886D01*
X138753887Y-105281312D01*
X138571335Y-105245000D01*
X138288665Y-105245000D01*
X138011426Y-105300147D01*
X137750273Y-105408320D01*
X137515241Y-105565363D01*
X137315363Y-105765241D01*
X137158320Y-106000273D01*
X137050147Y-106261426D01*
X136995000Y-106538665D01*
X136995000Y-106821335D01*
X137050147Y-107098574D01*
X137158320Y-107359727D01*
X137315363Y-107594759D01*
X137515241Y-107794637D01*
X137750273Y-107951680D01*
X138011426Y-108059853D01*
X138288665Y-108115000D01*
X138571335Y-108115000D01*
X138848574Y-108059853D01*
X139109727Y-107951680D01*
X139344759Y-107794637D01*
X139544637Y-107594759D01*
X139700000Y-107362241D01*
X139855363Y-107594759D01*
X140055241Y-107794637D01*
X140290273Y-107951680D01*
X140551426Y-108059853D01*
X140828665Y-108115000D01*
X141111335Y-108115000D01*
X141388574Y-108059853D01*
X141649727Y-107951680D01*
X141884759Y-107794637D01*
X142084637Y-107594759D01*
X142240000Y-107362241D01*
X142395363Y-107594759D01*
X142595241Y-107794637D01*
X142830273Y-107951680D01*
X143091426Y-108059853D01*
X143368665Y-108115000D01*
X143651335Y-108115000D01*
X143928574Y-108059853D01*
X144189727Y-107951680D01*
X144424759Y-107794637D01*
X144624637Y-107594759D01*
X144780000Y-107362241D01*
X144935363Y-107594759D01*
X145135241Y-107794637D01*
X145370273Y-107951680D01*
X145631426Y-108059853D01*
X145908665Y-108115000D01*
X146191335Y-108115000D01*
X146468574Y-108059853D01*
X146729727Y-107951680D01*
X146964759Y-107794637D01*
X147164637Y-107594759D01*
X147320000Y-107362241D01*
X147475363Y-107594759D01*
X147675241Y-107794637D01*
X147910273Y-107951680D01*
X148171426Y-108059853D01*
X148448665Y-108115000D01*
X148731335Y-108115000D01*
X149008574Y-108059853D01*
X149269727Y-107951680D01*
X149504759Y-107794637D01*
X149704637Y-107594759D01*
X149860000Y-107362241D01*
X150015363Y-107594759D01*
X150215241Y-107794637D01*
X150450273Y-107951680D01*
X150711426Y-108059853D01*
X150988665Y-108115000D01*
X151271335Y-108115000D01*
X151548574Y-108059853D01*
X151809727Y-107951680D01*
X152044759Y-107794637D01*
X152243357Y-107596039D01*
X152244188Y-107604482D01*
X152280498Y-107724180D01*
X152339463Y-107834494D01*
X152418815Y-107931185D01*
X152515506Y-108010537D01*
X152625820Y-108069502D01*
X152745518Y-108105812D01*
X152870000Y-108118072D01*
X154470000Y-108118072D01*
X154594482Y-108105812D01*
X154714180Y-108069502D01*
X154824494Y-108010537D01*
X154921185Y-107931185D01*
X155000537Y-107834494D01*
X155059502Y-107724180D01*
X155095812Y-107604482D01*
X155108072Y-107480000D01*
X155108072Y-107334326D01*
X155144276Y-107314974D01*
X155260001Y-107220001D01*
X155283804Y-107190997D01*
X157846004Y-104628798D01*
X157875002Y-104605000D01*
X157908423Y-104564276D01*
X157969975Y-104489276D01*
X158040547Y-104357246D01*
X158061253Y-104288985D01*
X158084004Y-104213985D01*
X158095001Y-104102332D01*
X158095001Y-104102322D01*
X158098677Y-104064999D01*
X158095001Y-104027676D01*
X158095001Y-99827322D01*
X158098677Y-99789999D01*
X158095001Y-99752676D01*
X158095001Y-99752666D01*
X158084004Y-99641013D01*
X158040547Y-99497752D01*
X158022500Y-99463989D01*
X157969975Y-99365722D01*
X157898800Y-99278996D01*
X157875002Y-99249998D01*
X157846005Y-99226201D01*
X152727727Y-94107924D01*
X152818574Y-94089853D01*
X153079727Y-93981680D01*
X153314759Y-93824637D01*
X153514637Y-93624759D01*
X153671680Y-93389727D01*
X153779853Y-93128574D01*
X153835000Y-92851335D01*
X153835000Y-92568665D01*
X153779853Y-92291426D01*
X153671680Y-92030273D01*
X153514637Y-91795241D01*
X153314759Y-91595363D01*
X153160000Y-91491957D01*
X153160000Y-85127322D01*
X153163676Y-85089999D01*
X153160000Y-85052676D01*
X153160000Y-85052667D01*
X153149003Y-84941014D01*
X153105546Y-84797753D01*
X153034974Y-84665724D01*
X153021811Y-84649685D01*
X152963799Y-84578996D01*
X152963795Y-84578992D01*
X152940001Y-84549999D01*
X152911008Y-84526205D01*
X140989801Y-72605000D01*
X141116260Y-72605000D01*
X141403158Y-72547932D01*
X141673411Y-72435990D01*
X141916632Y-72273475D01*
X142123475Y-72066632D01*
X142240000Y-71892240D01*
X142356525Y-72066632D01*
X142563368Y-72273475D01*
X142806589Y-72435990D01*
X143076842Y-72547932D01*
X143363740Y-72605000D01*
X143656260Y-72605000D01*
X143876408Y-72561209D01*
X155450001Y-84134803D01*
X155450000Y-91491956D01*
X155295241Y-91595363D01*
X155095363Y-91795241D01*
X154938320Y-92030273D01*
X154830147Y-92291426D01*
X154775000Y-92568665D01*
X154775000Y-92851335D01*
X154830147Y-93128574D01*
X154938320Y-93389727D01*
X155095363Y-93624759D01*
X155295241Y-93824637D01*
X155530273Y-93981680D01*
X155791426Y-94089853D01*
X156068665Y-94145000D01*
X156351335Y-94145000D01*
X156628574Y-94089853D01*
X156889727Y-93981680D01*
X157124759Y-93824637D01*
X157324637Y-93624759D01*
X157481680Y-93389727D01*
X157589853Y-93128574D01*
X157645000Y-92851335D01*
X157645000Y-92568665D01*
X157589853Y-92291426D01*
X157481680Y-92030273D01*
X157324637Y-91795241D01*
X157124759Y-91595363D01*
X156970000Y-91491957D01*
X156970000Y-83857322D01*
X156973676Y-83819999D01*
X156970000Y-83782676D01*
X156970000Y-83782667D01*
X156959003Y-83671014D01*
X156915546Y-83527753D01*
X156844974Y-83395724D01*
X156750001Y-83279999D01*
X156721003Y-83256201D01*
X146069801Y-72605000D01*
X146196260Y-72605000D01*
X146483158Y-72547932D01*
X146753411Y-72435990D01*
X146996632Y-72273475D01*
X147203475Y-72066632D01*
X147365990Y-71823411D01*
X147477932Y-71553158D01*
X147535000Y-71266260D01*
X147535000Y-70973740D01*
X147477932Y-70686842D01*
X147365990Y-70416589D01*
X147203475Y-70173368D01*
X146996632Y-69966525D01*
X146753411Y-69804010D01*
X146483158Y-69692068D01*
X146196260Y-69635000D01*
X145903740Y-69635000D01*
X145683592Y-69678790D01*
X145244802Y-69240000D01*
X158717721Y-69240000D01*
X158867869Y-69254722D01*
G36*
X139572129Y-119059428D02*
G01*
X138700000Y-119059428D01*
X138575518Y-119071688D01*
X138455820Y-119107998D01*
X138345506Y-119166963D01*
X138248815Y-119246315D01*
X138169463Y-119343006D01*
X138110498Y-119453320D01*
X138074188Y-119573018D01*
X138061928Y-119697500D01*
X138061928Y-121602500D01*
X138074188Y-121726982D01*
X138110498Y-121846680D01*
X138169463Y-121956994D01*
X138248815Y-122053685D01*
X138345506Y-122133037D01*
X138455820Y-122192002D01*
X138575518Y-122228312D01*
X138700000Y-122240572D01*
X140265010Y-122240572D01*
X140265011Y-124228052D01*
X140058704Y-124165470D01*
X139825486Y-124142500D01*
X139574514Y-124142500D01*
X139341296Y-124165470D01*
X139042051Y-124256245D01*
X138766265Y-124403655D01*
X138524537Y-124602037D01*
X138466976Y-124672174D01*
X134110000Y-120315199D01*
X134110000Y-117600000D01*
X138112701Y-117600000D01*
X139572129Y-119059428D01*
G37*
X139572129Y-119059428D02*
X138700000Y-119059428D01*
X138575518Y-119071688D01*
X138455820Y-119107998D01*
X138345506Y-119166963D01*
X138248815Y-119246315D01*
X138169463Y-119343006D01*
X138110498Y-119453320D01*
X138074188Y-119573018D01*
X138061928Y-119697500D01*
X138061928Y-121602500D01*
X138074188Y-121726982D01*
X138110498Y-121846680D01*
X138169463Y-121956994D01*
X138248815Y-122053685D01*
X138345506Y-122133037D01*
X138455820Y-122192002D01*
X138575518Y-122228312D01*
X138700000Y-122240572D01*
X140265010Y-122240572D01*
X140265011Y-124228052D01*
X140058704Y-124165470D01*
X139825486Y-124142500D01*
X139574514Y-124142500D01*
X139341296Y-124165470D01*
X139042051Y-124256245D01*
X138766265Y-124403655D01*
X138524537Y-124602037D01*
X138466976Y-124672174D01*
X134110000Y-120315199D01*
X134110000Y-117600000D01*
X138112701Y-117600000D01*
X139572129Y-119059428D01*
M02*
