  0
SECTION
  2
HEADER
  9
$ACADVER
  1
AC1009
  9
$EXTMIN
 10
0.0
 20
0.0
 30
0.0
  9
$EXTMAX
 10
1000.0
 20
1000.0
 30
0.0
  9
$FILLMODE
 70
 0
  9
$SPLFRAME
 70
 1
  0
ENDSEC
  0
SECTION
  2
TABLES
  0
TABLE
  2
LAYER
 70
1
  0
LAYER
  2
0
 70
     0
 62
     7
  6
CONTINUOUS
  0
ENDTAB
  0
ENDSEC
  0
SECTION
  2
ENTITIES
  0
POLYLINE
  8
0
 62
     0
 66
     1
 10
0
 20
0
 30
0.0
 70
     1
 40
0
 41
0
  0
VERTEX
  8
0
 10
4.60781
 20
1.15272
 30
0.0
 40
0
 41
0
  0
VERTEX
  8
0
 10
4.62668
 20
1.13346
 30
0.0
 40
0
 41
0
  0
VERTEX
  8
0
 10
4.66781
 20
1.06027
 30
0.0
 40
0
 41
0
  0
VERTEX
  8
0
 10
4.68712
 20
0.955512
 30
0.0
 40
0
 41
0
  0
VERTEX
  8
0
 10
4.66569
 20
0.851238
 30
0.0
 40
0
 41
0
  0
VERTEX
  8
0
 10
4.62304
 20
0.778862
 30
0.0
 40
0
 41
0
  0
VERTEX
  8
0
 10
4.60379
 20
0.759928
 30
0.0
 40
0
 41
0
  0
VERTEX
  8
0
 10
4.55718
 20
0.714301
 30
0.0
 40
0
 41
0
  0
VERTEX
  8
0
 10
4.40836
 20
0.586589
 30
0.0
 40
0
 41
0
  0
VERTEX
  8
0
 10
4.19819
 20
0.434517
 30
0.0
 40
0
 41
0
  0
VERTEX
  8
0
 10
3.97467
 20
0.304144
 30
0.0
 40
0
 41
0
  0
VERTEX
  8
0
 10
3.73931
 20
0.196235
 30
0.0
 40
0
 41
0
  0
VERTEX
  8
0
 10
3.49354
 20
0.111274
 30
0.0
 40
0
 41
0
  0
VERTEX
  8
0
 10
3.23882
 20
0.0498589
 30
0.0
 40
0
 41
0
  0
VERTEX
  8
0
 10
2.97661
 20
0.0125868
 30
0.0
 40
0
 41
0
  0
VERTEX
  8
0
 10
2.77539
 20
0
 30
0.0
 40
0
 41
0
  0
VERTEX
  8
0
 10
2.70833
 20
0
 30
0.0
 40
0
 41
0
  0
VERTEX
  8
0
 10
2.641
 20
0
 30
0.0
 40
0
 41
0
  0
VERTEX
  8
0
 10
2.43918
 20
0.0130208
 30
0.0
 40
0
 41
0
  0
VERTEX
  8
0
 10
2.17563
 20
0.0515408
 30
0.0
 40
0
 41
0
  0
VERTEX
  8
0
 10
1.91917
 20
0.115017
 30
0.0
 40
0
 41
0
  0
VERTEX
  8
0
 10
1.67117
 20
0.202854
 30
0.0
 40
0
 41
0
  0
VERTEX
  8
0
 10
1.43321
 20
0.314399
 30
0.0
 40
0
 41
0
  0
VERTEX
  8
0
 10
1.20676
 20
0.44911
 30
0.0
 40
0
 41
0
  0
VERTEX
  8
0
 10
0.993164
 20
0.606392
 30
0.0
 40
0
 41
0
  0
VERTEX
  8
0
 10
0.841525
 20
0.738444
 30
0.0
 40
0
 41
0
  0
VERTEX
  8
0
 10
0.794054
 20
0.785536
 30
0.0
 40
0
 41
0
  0
VERTEX
  8
0
 10
0.746419
 20
0.83279
 30
0.0
 40
0
 41
0
  0
VERTEX
  8
0
 10
0.612901
 20
0.983778
 30
0.0
 40
0
 41
0
  0
VERTEX
  8
0
 10
0.453939
 20
1.19651
 30
0.0
 40
0
 41
0
  0
VERTEX
  8
0
 10
0.317763
 20
1.42219
 30
0.0
 40
0
 41
0
  0
VERTEX
  8
0
 10
0.204969
 20
1.6594
 30
0.0
 40
0
 41
0
  0
VERTEX
  8
0
 10
0.116211
 20
1.90674
 30
0.0
 40
0
 41
0
  0
VERTEX
  8
0
 10
0.052029
 20
2.16265
 30
0.0
 40
0
 41
0
  0
VERTEX
  8
0
 10
0.0130751
 20
2.42572
 30
0.0
 40
0
 41
0
  0
VERTEX
  8
0
 10
0
 20
2.62728
 30
0.0
 40
0
 41
0
  0
VERTEX
  8
0
 10
0
 20
2.69444
 30
0.0
 40
0
 41
0
  0
VERTEX
  8
0
 10
0
 20
2.76887
 30
0.0
 40
0
 41
0
  0
VERTEX
  8
0
 10
0
 20
2.85639
 30
0.0
 40
0
 41
0
  0
VERTEX
  8
0
 10
0.0349935
 20
3.11888
 30
0.0
 40
0
 41
0
  0
VERTEX
  8
0
 10
0.133301
 20
3.46446
 30
0.0
 40
0
 41
0
  0
VERTEX
  8
0
 10
0.28456
 20
3.80485
 30
0.0
 40
0
 41
0
  0
VERTEX
  8
0
 10
0.478569
 20
4.13921
 30
0.0
 40
0
 41
0
  0
VERTEX
  8
0
 10
0.704915
 20
4.46685
 30
0.0
 40
0
 41
0
  0
VERTEX
  8
0
 10
0.953504
 20
4.78689
 30
0.0
 40
0
 41
0
  0
VERTEX
  8
0
 10
1.21392
 20
5.09864
 30
0.0
 40
0
 41
0
  0
VERTEX
  8
0
 10
1.41026
 20
5.32574
 30
0.0
 40
0
 41
0
  0
VERTEX
  8
0
 10
1.47601
 20
5.40115
 30
0.0
 40
0
 41
0
  0
VERTEX
  8
0
 10
1.52001
 20
5.45167
 30
0.0
 40
0
 41
0
  0
VERTEX
  8
0
 10
1.65175
 20
5.60351
 30
0.0
 40
0
 41
0
  0
VERTEX
  8
0
 10
1.82314
 20
5.80479
 30
0.0
 40
0
 41
0
  0
VERTEX
  8
0
 10
1.98426
 20
6.00217
 30
0.0
 40
0
 41
0
  0
VERTEX
  8
0
 10
2.12924
 20
6.19293
 30
0.0
 40
0
 41
0
  0
VERTEX
  8
0
 10
2.25222
 20
6.37424
 30
0.0
 40
0
 41
0
  0
VERTEX
  8
0
 10
2.34739
 20
6.54324
 30
0.0
 40
0
 41
0
  0
VERTEX
  8
0
 10
2.40875
 20
6.69721
 30
0.0
 40
0
 41
0
  0
VERTEX
  8
0
 10
2.43056
 20
6.79932
 30
0.0
 40
0
 41
0
  0
VERTEX
  8
0
 10
2.43056
 20
6.83333
 30
0.0
 40
0
 41
0
  0
VERTEX
  8
0
 10
2.43056
 20
6.8604
 30
0.0
 40
0
 41
0
  0
VERTEX
  8
0
 10
2.45236
 20
6.94151
 30
0.0
 40
0
 41
0
  0
VERTEX
  8
0
 10
2.51187
 20
7.02979
 30
0.0
 40
0
 41
0
  0
VERTEX
  8
0
 10
2.60015
 20
7.08931
 30
0.0
 40
0
 41
0
  0
VERTEX
  8
0
 10
2.68126
 20
7.11111
 30
0.0
 40
0
 41
0
  0
VERTEX
  8
0
 10
2.70833
 20
7.11111
 30
0.0
 40
0
 41
0
  0
VERTEX
  8
0
 10
2.73535
 20
7.11111
 30
0.0
 40
0
 41
0
  0
VERTEX
  8
0
 10
2.81646
 20
7.08931
 30
0.0
 40
0
 41
0
  0
VERTEX
  8
0
 10
2.90474
 20
7.02979
 30
0.0
 40
0
 41
0
  0
VERTEX
  8
0
 10
2.96425
 20
6.94151
 30
0.0
 40
0
 41
0
  0
VERTEX
  8
0
 10
2.98611
 20
6.8604
 30
0.0
 40
0
 41
0
  0
VERTEX
  8
0
 10
2.98611
 20
6.83333
 30
0.0
 40
0
 41
0
  0
VERTEX
  8
0
 10
2.98611
 20
6.79747
 30
0.0
 40
0
 41
0
  0
VERTEX
  8
0
 10
3.00814
 20
6.68978
 30
0.0
 40
0
 41
0
  0
VERTEX
  8
0
 10
3.07042
 20
6.52994
 30
0.0
 40
0
 41
0
  0
VERTEX
  8
0
 10
3.16694
 20
6.35644
 30
0.0
 40
0
 41
0
  0
VERTEX
  8
0
 10
3.29167
 20
6.17176
 30
0.0
 40
0
 41
0
  0
VERTEX
  8
0
 10
3.43875
 20
5.97857
 30
0.0
 40
0
 41
0
  0
VERTEX
  8
0
 10
3.60215
 20
5.77935
 30
0.0
 40
0
 41
0
  0
VERTEX
  8
0
 10
3.77593
 20
5.57671
 30
0.0
 40
0
 41
0
  0
VERTEX
  8
0
 10
3.90956
 20
5.42404
 30
0.0
 40
0
 41
0
  0
VERTEX
  8
0
 10
3.95421
 20
5.37321
 30
0.0
 40
0
 41
0
  0
VERTEX
  8
0
 10
3.97586
 20
5.34864
 30
0.0
 40
0
 41
0
  0
VERTEX
  8
0
 10
4.19667
 20
5.09597
 30
0.0
 40
0
 41
0
  0
VERTEX
  8
0
 10
4.21881
 20
5.07032
 30
0.0
 40
0
 41
0
  0
VERTEX
  8
0
 10
4.23643
 20
5.04986
 30
0.0
 40
0
 41
0
  0
VERTEX
  8
0
 10
4.27289
 20
4.97424
 30
0.0
 40
0
 41
0
  0
VERTEX
  8
0
 10
4.28549
 20
4.86849
 30
0.0
 40
0
 41
0
  0
VERTEX
  8
0
 10
4.25749
 20
4.76574
 30
0.0
 40
0
 41
0
  0
VERTEX
  8
0
 10
4.21039
 20
4.69624
 30
0.0
 40
0
 41
0
  0
VERTEX
  8
0
 10
4.18994
 20
4.67854
 30
0.0
 40
0
 41
0
  0
VERTEX
  8
0
 10
4.16943
 20
4.66092
 30
0.0
 40
0
 41
0
  0
VERTEX
  8
0
 10
4.09381
 20
4.62446
 30
0.0
 40
0
 41
0
  0
VERTEX
  8
0
 10
3.98807
 20
4.61187
 30
0.0
 40
0
 41
0
  0
VERTEX
  8
0
 10
3.88525
 20
4.63986
 30
0.0
 40
0
 41
0
  0
VERTEX
  8
0
 10
3.81575
 20
4.68701
 30
0.0
 40
0
 41
0
  0
VERTEX
  8
0
 10
3.79812
 20
4.70747
 30
0.0
 40
0
 41
0
  0
VERTEX
  8
0
 10
3.77642
 20
4.73264
 30
0.0
 40
0
 41
0
  0
VERTEX
  8
0
 10
3.55843
 20
4.98204
 30
0.0
 40
0
 41
0
  0
VERTEX
  8
0
 10
3.537
 20
5.0064
 30
0.0
 40
0
 41
0
  0
VERTEX
  8
0
 10
3.47706
 20
5.0746
 30
0.0
 40
0
 41
0
  0
VERTEX
  8
0
 10
3.29807
 20
5.27968
 30
0.0
 40
0
 41
0
  0
VERTEX
  8
0
 10
3.07508
 20
5.54362
 30
0.0
 40
0
 41
0
  0
VERTEX
  8
0
 10
2.87463
 20
5.79958
 30
0.0
 40
0
 41
0
  0
VERTEX
  8
0
 10
2.7436
 20
5.98481
 30
0.0
 40
0
 41
0
  0
VERTEX
  8
0
 10
2.7035
 20
6.04872
 30
0.0
 40
0
 41
0
  0
VERTEX
  8
0
 10
2.66401
 20
5.98693
 30
0.0
 40
0
 41
0
  0
VERTEX
  8
0
 10
2.53597
 20
5.80761
 30
0.0
 40
0
 41
0
  0
VERTEX
  8
0
 10
2.34125
 20
5.55903
 30
0.0
 40
0
 41
0
  0
VERTEX
  8
0
 10
2.12543
 20
5.30219
 30
0.0
 40
0
 41
0
  0
VERTEX
  8
0
 10
1.95264
 20
5.10254
 30
0.0
 40
0
 41
0
  0
VERTEX
  8
0
 10
1.89486
 20
5.03618
 30
0.0
 40
0
 41
0
  0
VERTEX
  8
0
 10
1.83524
 20
4.96778
 30
0.0
 40
0
 41
0
  0
VERTEX
  8
0
 10
1.65707
 20
4.76188
 30
0.0
 40
0
 41
0
  0
VERTEX
  8
0
 10
1.42074
 20
4.48074
 30
0.0
 40
0
 41
0
  0
VERTEX
  8
0
 10
1.1952
 20
4.19476
 30
0.0
 40
0
 41
0
  0
VERTEX
  8
0
 10
0.989746
 20
3.90625
 30
0.0
 40
0
 41
0
  0
VERTEX
  8
0
 10
0.813747
 20
3.61729
 30
0.0
 40
0
 41
0
  0
VERTEX
  8
0
 10
0.67654
 20
3.32997
 30
0.0
 40
0
 41
0
  0
VERTEX
  8
0
 10
0.587349
 20
3.04644
 30
0.0
 40
0
 41
0
  0
VERTEX
  8
0
 10
0.555556
 20
2.83826
 30
0.0
 40
0
 41
0
  0
VERTEX
  8
0
 10
0.555556
 20
2.76887
 30
0.0
 40
0
 41
0
  0
VERTEX
  8
0
 10
0.555556
 20
2.69444
 30
0.0
 40
0
 41
0
  0
VERTEX
  8
0
 10
0.555556
 20
2.63986
 30
0.0
 40
0
 41
0
  0
VERTEX
  8
0
 10
0.566678
 20
2.47607
 30
0.0
 40
0
 41
0
  0
VERTEX
  8
0
 10
0.599338
 20
2.26394
 30
0.0
 40
0
 41
0
  0
VERTEX
  8
0
 10
0.652453
 20
2.05914
 30
0.0
 40
0
 41
0
  0
VERTEX
  8
0
 10
0.724989
 20
1.86274
 30
0.0
 40
0
 41
0
  0
VERTEX
  8
0
 10
0.815756
 20
1.67578
 30
0.0
 40
0
 41
0
  0
VERTEX
  8
0
 10
0.923665
 20
1.49946
 30
0.0
 40
0
 41
0
  0
VERTEX
  8
0
 10
1.04774
 20
1.33474
 30
0.0
 40
0
 41
0
  0
VERTEX
  8
0
 10
1.18679
 20
1.18278
 30
0.0
 40
0
 41
0
  0
VERTEX
  8
0
 10
1.33973
 20
1.0446
 30
0.0
 40
0
 41
0
  0
VERTEX
  8
0
 10
1.50549
 20
0.921386
 30
0.0
 40
0
 41
0
  0
VERTEX
  8
0
 10
1.683
 20
0.814128
 30
0.0
 40
0
 41
0
  0
VERTEX
  8
0
 10
1.87115
 20
0.723958
 30
0.0
 40
0
 41
0
  0
VERTEX
  8
0
 10
2.06885
 20
0.65191
 30
0.0
 40
0
 41
0
  0
VERTEX
  8
0
 10
2.27501
 20
0.599121
 30
0.0
 40
0
 41
0
  0
VERTEX
  8
0
 10
2.4885
 20
0.566624
 30
0.0
 40
0
 41
0
  0
VERTEX
  8
0
 10
2.65338
 20
0.555556
 30
0.0
 40
0
 41
0
  0
VERTEX
  8
0
 10
2.70833
 20
0.555556
 30
0.0
 40
0
 41
0
  0
VERTEX
  8
0
 10
2.76178
 20
0.555556
 30
0.0
 40
0
 41
0
  0
VERTEX
  8
0
 10
2.92219
 20
0.565539
 30
0.0
 40
0
 41
0
  0
VERTEX
  8
0
 10
3.13108
 20
0.594997
 30
0.0
 40
0
 41
0
  0
VERTEX
  8
0
 10
3.33382
 20
0.643554
 30
0.0
 40
0
 41
0
  0
VERTEX
  8
0
 10
3.52924
 20
0.710775
 30
0.0
 40
0
 41
0
  0
VERTEX
  8
0
 10
3.71625
 20
0.796169
 30
0.0
 40
0
 41
0
  0
VERTEX
  8
0
 10
3.89361
 20
0.899251
 30
0.0
 40
0
 41
0
  0
VERTEX
  8
0
 10
4.06022
 20
1.01964
 30
0.0
 40
0
 41
0
  0
VERTEX
  8
0
 10
4.17806
 20
1.12066
 30
0.0
 40
0
 41
0
  0
VERTEX
  8
0
 10
4.21496
 20
1.15674
 30
0.0
 40
0
 41
0
  0
VERTEX
  8
0
 10
4.23421
 20
1.17567
 30
0.0
 40
0
 41
0
  0
VERTEX
  8
0
 10
4.30746
 20
1.21685
 30
0.0
 40
0
 41
0
  0
VERTEX
  8
0
 10
4.41217
 20
1.23611
 30
0.0
 40
0
 41
0
  0
VERTEX
  8
0
 10
4.5165
 20
1.21473
 30
0.0
 40
0
 41
0
  0
VERTEX
  8
0
 10
4.58886
 20
1.17204
 30
0.0
 40
0
 41
0
  0
VERTEX
  8
0
 10
4.60781
 20
1.15272
 30
0.0
 40
0
 41
0
  0
SEQEND
 8
0
  0
POLYLINE
  8
0
 62
     0
 66
     1
 10
0
 20
0
 30
0.0
 70
     1
 40
0
 41
0
  0
VERTEX
  8
0
 10
6.83333
 20
2.18056
 30
0.0
 40
0
 41
0
  0
VERTEX
  8
0
 10
6.81158
 20
2.18056
 30
0.0
 40
0
 41
0
  0
VERTEX
  8
0
 10
6.74642
 20
2.199
 30
0.0
 40
0
 41
0
  0
VERTEX
  8
0
 10
6.64865
 20
2.25271
 30
0.0
 40
0
 41
0
  0
VERTEX
  8
0
 10
6.54351
 20
2.33925
 30
0.0
 40
0
 41
0
  0
VERTEX
  8
0
 10
6.46013
 20
2.42563
 30
0.0
 40
0
 41
0
  0
VERTEX
  8
0
 10
6.43457
 20
2.45622
 30
0.0
 40
0
 41
0
  0
VERTEX
  8
0
 10
6.4126
 20
2.48253
 30
0.0
 40
0
 41
0
  0
VERTEX
  8
0
 10
6.33479
 20
2.55143
 30
0.0
 40
0
 41
0
  0
VERTEX
  8
0
 10
6.21696
 20
2.62185
 30
0.0
 40
0
 41
0
  0
VERTEX
  8
0
 10
6.08539
 20
2.66558
 30
0.0
 40
0
 41
0
  0
VERTEX
  8
0
 10
5.97965
 20
2.68056
 30
0.0
 40
0
 41
0
  0
VERTEX
  8
0
 10
5.94444
 20
2.68056
 30
0.0
 40
0
 41
0
  0
VERTEX
  8
0
 10
5.90918
 20
2.68056
 30
0.0
 40
0
 41
0
  0
VERTEX
  8
0
 10
5.80344
 20
2.66558
 30
0.0
 40
0
 41
0
  0
VERTEX
  8
0
 10
5.67188
 20
2.62185
 30
0.0
 40
0
 41
0
  0
VERTEX
  8
0
 10
5.55404
 20
2.55143
 30
0.0
 40
0
 41
0
  0
VERTEX
  8
0
 10
5.47624
 20
2.48253
 30
0.0
 40
0
 41
0
  0
VERTEX
  8
0
 10
5.45432
 20
2.45622
 30
0.0
 40
0
 41
0
  0
VERTEX
  8
0
 10
5.42871
 20
2.42563
 30
0.0
 40
0
 41
0
  0
VERTEX
  8
0
 10
5.34532
 20
2.33925
 30
0.0
 40
0
 41
0
  0
VERTEX
  8
0
 10
5.24018
 20
2.25271
 30
0.0
 40
0
 41
0
  0
VERTEX
  8
0
 10
5.14242
 20
2.199
 30
0.0
 40
0
 41
0
  0
VERTEX
  8
0
 10
5.07726
 20
2.18056
 30
0.0
 40
0
 41
0
  0
VERTEX
  8
0
 10
5.05556
 20
2.18056
 30
0.0
 40
0
 41
0
  0
VERTEX
  8
0
 10
5.03381
 20
2.18056
 30
0.0
 40
0
 41
0
  0
VERTEX
  8
0
 10
4.96864
 20
2.199
 30
0.0
 40
0
 41
0
  0
VERTEX
  8
0
 10
4.87088
 20
2.25271
 30
0.0
 40
0
 41
0
  0
VERTEX
  8
0
 10
4.76574
 20
2.33925
 30
0.0
 40
0
 41
0
  0
VERTEX
  8
0
 10
4.68235
 20
2.42563
 30
0.0
 40
0
 41
0
  0
VERTEX
  8
0
 10
4.65679
 20
2.45622
 30
0.0
 40
0
 41
0
  0
VERTEX
  8
0
 10
4.63482
 20
2.48253
 30
0.0
 40
0
 41
0
  0
VERTEX
  8
0
 10
4.55701
 20
2.55143
 30
0.0
 40
0
 41
0
  0
VERTEX
  8
0
 10
4.43918
 20
2.62185
 30
0.0
 40
0
 41
0
  0
VERTEX
  8
0
 10
4.30761
 20
2.66558
 30
0.0
 40
0
 41
0
  0
VERTEX
  8
0
 10
4.20188
 20
2.68056
 30
0.0
 40
0
 41
0
  0
VERTEX
  8
0
 10
4.16667
 20
2.68056
 30
0.0
 40
0
 41
0
  0
VERTEX
  8
0
 10
4.1314
 20
2.68056
 30
0.0
 40
0
 41
0
  0
VERTEX
  8
0
 10
4.02567
 20
2.66558
 30
0.0
 40
0
 41
0
  0
VERTEX
  8
0
 10
3.8941
 20
2.62185
 30
0.0
 40
0
 41
0
  0
VERTEX
  8
0
 10
3.77626
 20
2.55143
 30
0.0
 40
0
 41
0
  0
VERTEX
  8
0
 10
3.69846
 20
2.48253
 30
0.0
 40
0
 41
0
  0
VERTEX
  8
0
 10
3.67654
 20
2.45622
 30
0.0
 40
0
 41
0
  0
VERTEX
  8
0
 10
3.65093
 20
2.42563
 30
0.0
 40
0
 41
0
  0
VERTEX
  8
0
 10
3.56754
 20
2.33925
 30
0.0
 40
0
 41
0
  0
VERTEX
  8
0
 10
3.4624
 20
2.25271
 30
0.0
 40
0
 41
0
  0
VERTEX
  8
0
 10
3.36464
 20
2.199
 30
0.0
 40
0
 41
0
  0
VERTEX
  8
0
 10
3.29949
 20
2.18056
 30
0.0
 40
0
 41
0
  0
VERTEX
  8
0
 10
3.27778
 20
2.18056
 30
0.0
 40
0
 41
0
  0
VERTEX
  8
0
 10
3.25603
 20
2.18056
 30
0.0
 40
0
 41
0
  0
VERTEX
  8
0
 10
3.19086
 20
2.199
 30
0.0
 40
0
 41
0
  0
VERTEX
  8
0
 10
3.0931
 20
2.25271
 30
0.0
 40
0
 41
0
  0
VERTEX
  8
0
 10
2.98796
 20
2.33925
 30
0.0
 40
0
 41
0
  0
VERTEX
  8
0
 10
2.90457
 20
2.42563
 30
0.0
 40
0
 41
0
  0
VERTEX
  8
0
 10
2.87901
 20
2.45622
 30
0.0
 40
0
 41
0
  0
VERTEX
  8
0
 10
2.85704
 20
2.48253
 30
0.0
 40
0
 41
0
  0
VERTEX
  8
0
 10
2.77924
 20
2.55143
 30
0.0
 40
0
 41
0
  0
VERTEX
  8
0
 10
2.6614
 20
2.62185
 30
0.0
 40
0
 41
0
  0
VERTEX
  8
0
 10
2.52983
 20
2.66558
 30
0.0
 40
0
 41
0
  0
VERTEX
  8
0
 10
2.4241
 20
2.68056
 30
0.0
 40
0
 41
0
  0
VERTEX
  8
0
 10
2.38889
 20
2.68056
 30
0.0
 40
0
 41
0
  0
VERTEX
  8
0
 10
2.35362
 20
2.68056
 30
0.0
 40
0
 41
0
  0
VERTEX
  8
0
 10
2.24789
 20
2.66558
 30
0.0
 40
0
 41
0
  0
VERTEX
  8
0
 10
2.11632
 20
2.62185
 30
0.0
 40
0
 41
0
  0
VERTEX
  8
0
 10
1.99849
 20
2.55143
 30
0.0
 40
0
 41
0
  0
VERTEX
  8
0
 10
1.92068
 20
2.48253
 30
0.0
 40
0
 41
0
  0
VERTEX
  8
0
 10
1.89876
 20
2.45622
 30
0.0
 40
0
 41
0
  0
VERTEX
  8
0
 10
1.87315
 20
2.42563
 30
0.0
 40
0
 41
0
  0
VERTEX
  8
0
 10
1.78976
 20
2.33925
 30
0.0
 40
0
 41
0
  0
VERTEX
  8
0
 10
1.68463
 20
2.25271
 30
0.0
 40
0
 41
0
  0
VERTEX
  8
0
 10
1.58686
 20
2.199
 30
0.0
 40
0
 41
0
  0
VERTEX
  8
0
 10
1.52171
 20
2.18056
 30
0.0
 40
0
 41
0
  0
VERTEX
  8
0
 10
1.5
 20
2.18056
 30
0.0
 40
0
 41
0
  0
VERTEX
  8
0
 10
1.47293
 20
2.18056
 30
0.0
 40
0
 41
0
  0
VERTEX
  8
0
 10
1.39182
 20
2.15875
 30
0.0
 40
0
 41
0
  0
VERTEX
  8
0
 10
1.30355
 20
2.09924
 30
0.0
 40
0
 41
0
  0
VERTEX
  8
0
 10
1.24403
 20
2.01096
 30
0.0
 40
0
 41
0
  0
VERTEX
  8
0
 10
1.22222
 20
1.92985
 30
0.0
 40
0
 41
0
  0
VERTEX
  8
0
 10
1.22222
 20
1.90278
 30
0.0
 40
0
 41
0
  0
VERTEX
  8
0
 10
1.22222
 20
1.87576
 30
0.0
 40
0
 41
0
  0
VERTEX
  8
0
 10
1.24403
 20
1.79465
 30
0.0
 40
0
 41
0
  0
VERTEX
  8
0
 10
1.30355
 20
1.70638
 30
0.0
 40
0
 41
0
  0
VERTEX
  8
0
 10
1.39182
 20
1.64686
 30
0.0
 40
0
 41
0
  0
VERTEX
  8
0
 10
1.47293
 20
1.625
 30
0.0
 40
0
 41
0
  0
VERTEX
  8
0
 10
1.5
 20
1.625
 30
0.0
 40
0
 41
0
  0
VERTEX
  8
0
 10
1.55296
 20
1.625
 30
0.0
 40
0
 41
0
  0
VERTEX
  8
0
 10
1.71181
 20
1.65494
 30
0.0
 40
0
 41
0
  0
VERTEX
  8
0
 10
1.92042
 20
1.74436
 30
0.0
 40
0
 41
0
  0
VERTEX
  8
0
 10
2.12506
 20
1.8929
 30
0.0
 40
0
 41
0
  0
VERTEX
  8
0
 10
2.27908
 20
2.04497
 30
0.0
 40
0
 41
0
  0
VERTEX
  8
0
 10
2.32514
 20
2.1001
 30
0.0
 40
0
 41
0
  0
VERTEX
  8
0
 10
2.3284
 20
2.104
 30
0.0
 40
0
 41
0
  0
VERTEX
  8
0
 10
2.35183
 20
2.11843
 30
0.0
 40
0
 41
0
  0
VERTEX
  8
0
 10
2.37961
 20
2.125
 30
0.0
 40
0
 41
0
  0
VERTEX
  8
0
 10
2.38889
 20
2.125
 30
0.0
 40
0
 41
0
  0
VERTEX
  8
0
 10
2.39811
 20
2.125
 30
0.0
 40
0
 41
0
  0
VERTEX
  8
0
 10
2.42589
 20
2.11837
 30
0.0
 40
0
 41
0
  0
VERTEX
  8
0
 10
2.44933
 20
2.10394
 30
0.0
 40
0
 41
0
  0
VERTEX
  8
0
 10
2.45264
 20
2.10004
 30
0.0
 40
0
 41
0
  0
VERTEX
  8
0
 10
2.49864
 20
2.04497
 30
0.0
 40
0
 41
0
  0
VERTEX
  8
0
 10
2.65267
 20
1.89285
 30
0.0
 40
0
 41
0
  0
VERTEX
  8
0
 10
2.85732
 20
1.74436
 30
0.0
 40
0
 41
0
  0
VERTEX
  8
0
 10
3.06592
 20
1.65494
 30
0.0
 40
0
 41
0
  0
VERTEX
  8
0
 10
3.22478
 20
1.625
 30
0.0
 40
0
 41
0
  0
VERTEX
  8
0
 10
3.27778
 20
1.625
 30
0.0
 40
0
 41
0
  0
VERTEX
  8
0
 10
3.33074
 20
1.625
 30
0.0
 40
0
 41
0
  0
VERTEX
  8
0
 10
3.48958
 20
1.65494
 30
0.0
 40
0
 41
0
  0
VERTEX
  8
0
 10
3.69819
 20
1.74436
 30
0.0
 40
0
 41
0
  0
VERTEX
  8
0
 10
3.90283
 20
1.8929
 30
0.0
 40
0
 41
0
  0
VERTEX
  8
0
 10
4.05686
 20
2.04497
 30
0.0
 40
0
 41
0
  0
VERTEX
  8
0
 10
4.10292
 20
2.1001
 30
0.0
 40
0
 41
0
  0
VERTEX
  8
0
 10
4.10618
 20
2.104
 30
0.0
 40
0
 41
0
  0
VERTEX
  8
0
 10
4.12961
 20
2.11843
 30
0.0
 40
0
 41
0
  0
VERTEX
  8
0
 10
4.15739
 20
2.125
 30
0.0
 40
0
 41
0
  0
VERTEX
  8
0
 10
4.16667
 20
2.125
 30
0.0
 40
0
 41
0
  0
VERTEX
  8
0
 10
4.17589
 20
2.125
 30
0.0
 40
0
 41
0
  0
VERTEX
  8
0
 10
4.20367
 20
2.11837
 30
0.0
 40
0
 41
0
  0
VERTEX
  8
0
 10
4.22711
 20
2.10394
 30
0.0
 40
0
 41
0
  0
VERTEX
  8
0
 10
4.23042
 20
2.10004
 30
0.0
 40
0
 41
0
  0
VERTEX
  8
0
 10
4.27642
 20
2.04497
 30
0.0
 40
0
 41
0
  0
VERTEX
  8
0
 10
4.43044
 20
1.89285
 30
0.0
 40
0
 41
0
  0
VERTEX
  8
0
 10
4.6351
 20
1.74436
 30
0.0
 40
0
 41
0
  0
VERTEX
  8
0
 10
4.84369
 20
1.65494
 30
0.0
 40
0
 41
0
  0
VERTEX
  8
0
 10
5.00256
 20
1.625
 30
0.0
 40
0
 41
0
  0
VERTEX
  8
0
 10
5.05556
 20
1.625
 30
0.0
 40
0
 41
0
  0
VERTEX
  8
0
 10
5.10851
 20
1.625
 30
0.0
 40
0
 41
0
  0
VERTEX
  8
0
 10
5.26736
 20
1.65494
 30
0.0
 40
0
 41
0
  0
VERTEX
  8
0
 10
5.47597
 20
1.74436
 30
0.0
 40
0
 41
0
  0
VERTEX
  8
0
 10
5.68061
 20
1.8929
 30
0.0
 40
0
 41
0
  0
VERTEX
  8
0
 10
5.83464
 20
2.04497
 30
0.0
 40
0
 41
0
  0
VERTEX
  8
0
 10
5.88069
 20
2.1001
 30
0.0
 40
0
 41
0
  0
VERTEX
  8
0
 10
5.88396
 20
2.104
 30
0.0
 40
0
 41
0
  0
VERTEX
  8
0
 10
5.90739
 20
2.11843
 30
0.0
 40
0
 41
0
  0
VERTEX
  8
0
 10
5.93517
 20
2.125
 30
0.0
 40
0
 41
0
  0
VERTEX
  8
0
 10
5.94444
 20
2.125
 30
0.0
 40
0
 41
0
  0
VERTEX
  8
0
 10
5.95367
 20
2.125
 30
0.0
 40
0
 41
0
  0
VERTEX
  8
0
 10
5.98144
 20
2.11837
 30
0.0
 40
0
 41
0
  0
VERTEX
  8
0
 10
6.00489
 20
2.10394
 30
0.0
 40
0
 41
0
  0
VERTEX
  8
0
 10
6.00819
 20
2.10004
 30
0.0
 40
0
 41
0
  0
VERTEX
  8
0
 10
6.05419
 20
2.04497
 30
0.0
 40
0
 41
0
  0
VERTEX
  8
0
 10
6.20822
 20
1.89285
 30
0.0
 40
0
 41
0
  0
VERTEX
  8
0
 10
6.41287
 20
1.74436
 30
0.0
 40
0
 41
0
  0
VERTEX
  8
0
 10
6.62147
 20
1.65494
 30
0.0
 40
0
 41
0
  0
VERTEX
  8
0
 10
6.78033
 20
1.625
 30
0.0
 40
0
 41
0
  0
VERTEX
  8
0
 10
6.83333
 20
1.625
 30
0.0
 40
0
 41
0
  0
VERTEX
  8
0
 10
6.86035
 20
1.625
 30
0.0
 40
0
 41
0
  0
VERTEX
  8
0
 10
6.94146
 20
1.64686
 30
0.0
 40
0
 41
0
  0
VERTEX
  8
0
 10
7.02974
 20
1.70638
 30
0.0
 40
0
 41
0
  0
VERTEX
  8
0
 10
7.08925
 20
1.79465
 30
0.0
 40
0
 41
0
  0
VERTEX
  8
0
 10
7.11111
 20
1.87576
 30
0.0
 40
0
 41
0
  0
VERTEX
  8
0
 10
7.11111
 20
1.90278
 30
0.0
 40
0
 41
0
  0
VERTEX
  8
0
 10
7.11111
 20
1.92985
 30
0.0
 40
0
 41
0
  0
VERTEX
  8
0
 10
7.08925
 20
2.01096
 30
0.0
 40
0
 41
0
  0
VERTEX
  8
0
 10
7.02974
 20
2.09924
 30
0.0
 40
0
 41
0
  0
VERTEX
  8
0
 10
6.94146
 20
2.15875
 30
0.0
 40
0
 41
0
  0
VERTEX
  8
0
 10
6.86035
 20
2.18056
 30
0.0
 40
0
 41
0
  0
VERTEX
  8
0
 10
6.83333
 20
2.18056
 30
0.0
 40
0
 41
0
  0
SEQEND
 8
0
  0
POLYLINE
  8
0
 62
     0
 66
     1
 10
0
 20
0
 30
0.0
 70
     1
 40
0
 41
0
  0
VERTEX
  8
0
 10
3.67654
 20
3.84511
 30
0.0
 40
0
 41
0
  0
VERTEX
  8
0
 10
3.65093
 20
3.81451
 30
0.0
 40
0
 41
0
  0
VERTEX
  8
0
 10
3.56754
 20
3.72814
 30
0.0
 40
0
 41
0
  0
VERTEX
  8
0
 10
3.4624
 20
3.6416
 30
0.0
 40
0
 41
0
  0
VERTEX
  8
0
 10
3.36464
 20
3.58789
 30
0.0
 40
0
 41
0
  0
VERTEX
  8
0
 10
3.29949
 20
3.56944
 30
0.0
 40
0
 41
0
  0
VERTEX
  8
0
 10
3.27778
 20
3.56944
 30
0.0
 40
0
 41
0
  0
VERTEX
  8
0
 10
3.25071
 20
3.56944
 30
0.0
 40
0
 41
0
  0
VERTEX
  8
0
 10
3.1696
 20
3.54764
 30
0.0
 40
0
 41
0
  0
VERTEX
  8
0
 10
3.08132
 20
3.48813
 30
0.0
 40
0
 41
0
  0
VERTEX
  8
0
 10
3.02181
 20
3.39985
 30
0.0
 40
0
 41
0
  0
VERTEX
  8
0
 10
3
 20
3.31874
 30
0.0
 40
0
 41
0
  0
VERTEX
  8
0
 10
3
 20
3.29167
 30
0.0
 40
0
 41
0
  0
VERTEX
  8
0
 10
3
 20
3.26465
 30
0.0
 40
0
 41
0
  0
VERTEX
  8
0
 10
3.02181
 20
3.18354
 30
0.0
 40
0
 41
0
  0
VERTEX
  8
0
 10
3.08132
 20
3.09526
 30
0.0
 40
0
 41
0
  0
VERTEX
  8
0
 10
3.1696
 20
3.03575
 30
0.0
 40
0
 41
0
  0
VERTEX
  8
0
 10
3.25071
 20
3.01389
 30
0.0
 40
0
 41
0
  0
VERTEX
  8
0
 10
3.27778
 20
3.01389
 30
0.0
 40
0
 41
0
  0
VERTEX
  8
0
 10
3.33074
 20
3.01389
 30
0.0
 40
0
 41
0
  0
VERTEX
  8
0
 10
3.48958
 20
3.04383
 30
0.0
 40
0
 41
0
  0
VERTEX
  8
0
 10
3.69819
 20
3.13325
 30
0.0
 40
0
 41
0
  0
VERTEX
  8
0
 10
3.90283
 20
3.28179
 30
0.0
 40
0
 41
0
  0
VERTEX
  8
0
 10
4.05686
 20
3.43386
 30
0.0
 40
0
 41
0
  0
VERTEX
  8
0
 10
4.10292
 20
3.48899
 30
0.0
 40
0
 41
0
  0
VERTEX
  8
0
 10
4.10618
 20
3.49289
 30
0.0
 40
0
 41
0
  0
VERTEX
  8
0
 10
4.12961
 20
3.50732
 30
0.0
 40
0
 41
0
  0
VERTEX
  8
0
 10
4.15739
 20
3.51389
 30
0.0
 40
0
 41
0
  0
VERTEX
  8
0
 10
4.16667
 20
3.51389
 30
0.0
 40
0
 41
0
  0
VERTEX
  8
0
 10
4.17589
 20
3.51389
 30
0.0
 40
0
 41
0
  0
VERTEX
  8
0
 10
4.20367
 20
3.50726
 30
0.0
 40
0
 41
0
  0
VERTEX
  8
0
 10
4.22711
 20
3.49283
 30
0.0
 40
0
 41
0
  0
VERTEX
  8
0
 10
4.23042
 20
3.48893
 30
0.0
 40
0
 41
0
  0
VERTEX
  8
0
 10
4.27642
 20
3.43386
 30
0.0
 40
0
 41
0
  0
VERTEX
  8
0
 10
4.43044
 20
3.28174
 30
0.0
 40
0
 41
0
  0
VERTEX
  8
0
 10
4.6351
 20
3.13325
 30
0.0
 40
0
 41
0
  0
VERTEX
  8
0
 10
4.84369
 20
3.04383
 30
0.0
 40
0
 41
0
  0
VERTEX
  8
0
 10
5.00256
 20
3.01389
 30
0.0
 40
0
 41
0
  0
VERTEX
  8
0
 10
5.05556
 20
3.01389
 30
0.0
 40
0
 41
0
  0
VERTEX
  8
0
 10
5.10851
 20
3.01389
 30
0.0
 40
0
 41
0
  0
VERTEX
  8
0
 10
5.26736
 20
3.04383
 30
0.0
 40
0
 41
0
  0
VERTEX
  8
0
 10
5.47597
 20
3.13325
 30
0.0
 40
0
 41
0
  0
VERTEX
  8
0
 10
5.68061
 20
3.28179
 30
0.0
 40
0
 41
0
  0
VERTEX
  8
0
 10
5.83464
 20
3.43386
 30
0.0
 40
0
 41
0
  0
VERTEX
  8
0
 10
5.88069
 20
3.48899
 30
0.0
 40
0
 41
0
  0
VERTEX
  8
0
 10
5.88396
 20
3.49289
 30
0.0
 40
0
 41
0
  0
VERTEX
  8
0
 10
5.90739
 20
3.50732
 30
0.0
 40
0
 41
0
  0
VERTEX
  8
0
 10
5.93517
 20
3.51389
 30
0.0
 40
0
 41
0
  0
VERTEX
  8
0
 10
5.94444
 20
3.51389
 30
0.0
 40
0
 41
0
  0
VERTEX
  8
0
 10
5.95367
 20
3.51389
 30
0.0
 40
0
 41
0
  0
VERTEX
  8
0
 10
5.98144
 20
3.50726
 30
0.0
 40
0
 41
0
  0
VERTEX
  8
0
 10
6.00489
 20
3.49283
 30
0.0
 40
0
 41
0
  0
VERTEX
  8
0
 10
6.00819
 20
3.48893
 30
0.0
 40
0
 41
0
  0
VERTEX
  8
0
 10
6.05419
 20
3.43386
 30
0.0
 40
0
 41
0
  0
VERTEX
  8
0
 10
6.20822
 20
3.28174
 30
0.0
 40
0
 41
0
  0
VERTEX
  8
0
 10
6.41287
 20
3.13325
 30
0.0
 40
0
 41
0
  0
VERTEX
  8
0
 10
6.62147
 20
3.04383
 30
0.0
 40
0
 41
0
  0
VERTEX
  8
0
 10
6.78033
 20
3.01389
 30
0.0
 40
0
 41
0
  0
VERTEX
  8
0
 10
6.83333
 20
3.01389
 30
0.0
 40
0
 41
0
  0
VERTEX
  8
0
 10
6.86035
 20
3.01389
 30
0.0
 40
0
 41
0
  0
VERTEX
  8
0
 10
6.94146
 20
3.03575
 30
0.0
 40
0
 41
0
  0
VERTEX
  8
0
 10
7.02974
 20
3.09526
 30
0.0
 40
0
 41
0
  0
VERTEX
  8
0
 10
7.08925
 20
3.18354
 30
0.0
 40
0
 41
0
  0
VERTEX
  8
0
 10
7.11111
 20
3.26465
 30
0.0
 40
0
 41
0
  0
VERTEX
  8
0
 10
7.11111
 20
3.29167
 30
0.0
 40
0
 41
0
  0
VERTEX
  8
0
 10
7.11111
 20
3.31874
 30
0.0
 40
0
 41
0
  0
VERTEX
  8
0
 10
7.08925
 20
3.39985
 30
0.0
 40
0
 41
0
  0
VERTEX
  8
0
 10
7.02974
 20
3.48813
 30
0.0
 40
0
 41
0
  0
VERTEX
  8
0
 10
6.94146
 20
3.54764
 30
0.0
 40
0
 41
0
  0
VERTEX
  8
0
 10
6.86035
 20
3.56944
 30
0.0
 40
0
 41
0
  0
VERTEX
  8
0
 10
6.83333
 20
3.56944
 30
0.0
 40
0
 41
0
  0
VERTEX
  8
0
 10
6.81158
 20
3.56944
 30
0.0
 40
0
 41
0
  0
VERTEX
  8
0
 10
6.74642
 20
3.58789
 30
0.0
 40
0
 41
0
  0
VERTEX
  8
0
 10
6.64865
 20
3.6416
 30
0.0
 40
0
 41
0
  0
VERTEX
  8
0
 10
6.54351
 20
3.72814
 30
0.0
 40
0
 41
0
  0
VERTEX
  8
0
 10
6.46013
 20
3.81451
 30
0.0
 40
0
 41
0
  0
VERTEX
  8
0
 10
6.43457
 20
3.84511
 30
0.0
 40
0
 41
0
  0
VERTEX
  8
0
 10
6.4126
 20
3.87142
 30
0.0
 40
0
 41
0
  0
VERTEX
  8
0
 10
6.33479
 20
3.94032
 30
0.0
 40
0
 41
0
  0
VERTEX
  8
0
 10
6.21696
 20
4.01074
 30
0.0
 40
0
 41
0
  0
VERTEX
  8
0
 10
6.08539
 20
4.05447
 30
0.0
 40
0
 41
0
  0
VERTEX
  8
0
 10
5.97965
 20
4.06944
 30
0.0
 40
0
 41
0
  0
VERTEX
  8
0
 10
5.94444
 20
4.06944
 30
0.0
 40
0
 41
0
  0
VERTEX
  8
0
 10
5.90918
 20
4.06944
 30
0.0
 40
0
 41
0
  0
VERTEX
  8
0
 10
5.80344
 20
4.05447
 30
0.0
 40
0
 41
0
  0
VERTEX
  8
0
 10
5.67188
 20
4.01074
 30
0.0
 40
0
 41
0
  0
VERTEX
  8
0
 10
5.55404
 20
3.94032
 30
0.0
 40
0
 41
0
  0
VERTEX
  8
0
 10
5.47624
 20
3.87142
 30
0.0
 40
0
 41
0
  0
VERTEX
  8
0
 10
5.45432
 20
3.84511
 30
0.0
 40
0
 41
0
  0
VERTEX
  8
0
 10
5.42871
 20
3.81451
 30
0.0
 40
0
 41
0
  0
VERTEX
  8
0
 10
5.34532
 20
3.72814
 30
0.0
 40
0
 41
0
  0
VERTEX
  8
0
 10
5.24018
 20
3.6416
 30
0.0
 40
0
 41
0
  0
VERTEX
  8
0
 10
5.14242
 20
3.58789
 30
0.0
 40
0
 41
0
  0
VERTEX
  8
0
 10
5.07726
 20
3.56944
 30
0.0
 40
0
 41
0
  0
VERTEX
  8
0
 10
5.05556
 20
3.56944
 30
0.0
 40
0
 41
0
  0
VERTEX
  8
0
 10
5.03381
 20
3.56944
 30
0.0
 40
0
 41
0
  0
VERTEX
  8
0
 10
4.96864
 20
3.58789
 30
0.0
 40
0
 41
0
  0
VERTEX
  8
0
 10
4.87088
 20
3.6416
 30
0.0
 40
0
 41
0
  0
VERTEX
  8
0
 10
4.76574
 20
3.72814
 30
0.0
 40
0
 41
0
  0
VERTEX
  8
0
 10
4.68235
 20
3.81451
 30
0.0
 40
0
 41
0
  0
VERTEX
  8
0
 10
4.65679
 20
3.84511
 30
0.0
 40
0
 41
0
  0
VERTEX
  8
0
 10
4.63482
 20
3.87142
 30
0.0
 40
0
 41
0
  0
VERTEX
  8
0
 10
4.55701
 20
3.94032
 30
0.0
 40
0
 41
0
  0
VERTEX
  8
0
 10
4.43918
 20
4.01074
 30
0.0
 40
0
 41
0
  0
VERTEX
  8
0
 10
4.30761
 20
4.05447
 30
0.0
 40
0
 41
0
  0
VERTEX
  8
0
 10
4.20188
 20
4.06944
 30
0.0
 40
0
 41
0
  0
VERTEX
  8
0
 10
4.16667
 20
4.06944
 30
0.0
 40
0
 41
0
  0
VERTEX
  8
0
 10
4.1314
 20
4.06944
 30
0.0
 40
0
 41
0
  0
VERTEX
  8
0
 10
4.02567
 20
4.05447
 30
0.0
 40
0
 41
0
  0
VERTEX
  8
0
 10
3.8941
 20
4.01074
 30
0.0
 40
0
 41
0
  0
VERTEX
  8
0
 10
3.77626
 20
3.94032
 30
0.0
 40
0
 41
0
  0
VERTEX
  8
0
 10
3.69846
 20
3.87142
 30
0.0
 40
0
 41
0
  0
VERTEX
  8
0
 10
3.67654
 20
3.84511
 30
0.0
 40
0
 41
0
  0
SEQEND
 8
0
  0
ENDSEC
  0
EOF
