  0
SECTION
  2
HEADER
  9
$ACADVER
  1
AC1009
  9
$EXTMIN
 10
0.0
 20
0.0
 30
0.0
  9
$EXTMAX
 10
1000.0
 20
1000.0
 30
0.0
  9
$FILLMODE
 70
 0
  9
$SPLFRAME
 70
 1
  0
ENDSEC
  0
SECTION
  2
TABLES
  0
TABLE
  2
LAYER
 70
1
  0
LAYER
  2
0
 70
     0
 62
     7
  6
CONTINUOUS
  0
ENDTAB
  0
ENDSEC
  0
SECTION
  2
ENTITIES
  0
POLYLINE
  8
0
 62
     0
 66
     1
 10
0
 20
0
 30
0.0
 70
     1
 40
0
 41
0
  0
VERTEX
  8
0
 10
0.318956
 20
0.20166
 30
0.0
 40
0
 41
0
  0
VERTEX
  8
0
 10
0.318956
 20
0.405057
 30
0.0
 40
0
 41
0
  0
VERTEX
  8
0
 10
0.318956
 20
0.412978
 30
0.0
 40
0
 41
0
  0
VERTEX
  8
0
 10
0.312554
 20
0.436632
 30
0.0
 40
0
 41
0
  0
VERTEX
  8
0
 10
0.295139
 20
0.462349
 30
0.0
 40
0
 41
0
  0
VERTEX
  8
0
 10
0.269368
 20
0.479764
 30
0.0
 40
0
 41
0
  0
VERTEX
  8
0
 10
0.245714
 20
0.486111
 30
0.0
 40
0
 41
0
  0
VERTEX
  8
0
 10
0.237847
 20
0.486111
 30
0.0
 40
0
 41
0
  0
VERTEX
  8
0
 10
0.229926
 20
0.486111
 30
0.0
 40
0
 41
0
  0
VERTEX
  8
0
 10
0.206272
 20
0.479764
 30
0.0
 40
0
 41
0
  0
VERTEX
  8
0
 10
0.180501
 20
0.462349
 30
0.0
 40
0
 41
0
  0
VERTEX
  8
0
 10
0.163086
 20
0.436632
 30
0.0
 40
0
 41
0
  0
VERTEX
  8
0
 10
0.156739
 20
0.412978
 30
0.0
 40
0
 41
0
  0
VERTEX
  8
0
 10
0.156739
 20
0.405057
 30
0.0
 40
0
 41
0
  0
VERTEX
  8
0
 10
0.156739
 20
0.20166
 30
0.0
 40
0
 41
0
  0
VERTEX
  8
0
 10
0.151747
 20
0.196615
 30
0.0
 40
0
 41
0
  0
VERTEX
  8
0
 10
0.133409
 20
0.166288
 30
0.0
 40
0
 41
0
  0
VERTEX
  8
0
 10
0.125
 20
0.13406
 30
0.0
 40
0
 41
0
  0
VERTEX
  8
0
 10
0.125
 20
0.123318
 30
0.0
 40
0
 41
0
  0
VERTEX
  8
0
 10
0.125
 20
0.112359
 30
0.0
 40
0
 41
0
  0
VERTEX
  8
0
 10
0.133843
 20
0.0794814
 30
0.0
 40
0
 41
0
  0
VERTEX
  8
0
 10
0.15804
 20
0.0436199
 30
0.0
 40
0
 41
0
  0
VERTEX
  8
0
 10
0.193901
 20
0.0194228
 30
0.0
 40
0
 41
0
  0
VERTEX
  8
0
 10
0.226779
 20
0.0105252
 30
0.0
 40
0
 41
0
  0
VERTEX
  8
0
 10
0.237793
 20
0.0105252
 30
0.0
 40
0
 41
0
  0
VERTEX
  8
0
 10
0.248753
 20
0.0105252
 30
0.0
 40
0
 41
0
  0
VERTEX
  8
0
 10
0.281629
 20
0.0194228
 30
0.0
 40
0
 41
0
  0
VERTEX
  8
0
 10
0.317492
 20
0.0436199
 30
0.0
 40
0
 41
0
  0
VERTEX
  8
0
 10
0.341743
 20
0.0794814
 30
0.0
 40
0
 41
0
  0
VERTEX
  8
0
 10
0.35064
 20
0.112359
 30
0.0
 40
0
 41
0
  0
VERTEX
  8
0
 10
0.35064
 20
0.123318
 30
0.0
 40
0
 41
0
  0
VERTEX
  8
0
 10
0.35064
 20
0.13406
 30
0.0
 40
0
 41
0
  0
VERTEX
  8
0
 10
0.342176
 20
0.166288
 30
0.0
 40
0
 41
0
  0
VERTEX
  8
0
 10
0.323893
 20
0.196615
 30
0.0
 40
0
 41
0
  0
VERTEX
  8
0
 10
0.318956
 20
0.20166
 30
0.0
 40
0
 41
0
  0
SEQEND
 8
0
  0
POLYLINE
  8
0
 62
     0
 66
     1
 10
0
 20
0
 30
0.0
 70
     1
 40
0
 41
0
  0
VERTEX
  8
0
 10
0.237739
 20
0.041721
 30
0.0
 40
0
 41
0
  0
VERTEX
  8
0
 10
0.229818
 20
0.041721
 30
0.0
 40
0
 41
0
  0
VERTEX
  8
0
 10
0.206054
 20
0.0481771
 30
0.0
 40
0
 41
0
  0
VERTEX
  8
0
 10
0.180122
 20
0.0656467
 30
0.0
 40
0
 41
0
  0
VERTEX
  8
0
 10
0.162651
 20
0.0915799
 30
0.0
 40
0
 41
0
  0
VERTEX
  8
0
 10
0.15625
 20
0.115343
 30
0.0
 40
0
 41
0
  0
VERTEX
  8
0
 10
0.15625
 20
0.123264
 30
0.0
 40
0
 41
0
  0
VERTEX
  8
0
 10
0.15625
 20
0.132433
 30
0.0
 40
0
 41
0
  0
VERTEX
  8
0
 10
0.164822
 20
0.159939
 30
0.0
 40
0
 41
0
  0
VERTEX
  8
0
 10
0.183322
 20
0.184299
 30
0.0
 40
0
 41
0
  0
VERTEX
  8
0
 10
0.188314
 20
0.187989
 30
0.0
 40
0
 41
0
  0
VERTEX
  8
0
 10
0.188314
 20
0.316949
 30
0.0
 40
0
 41
0
  0
VERTEX
  8
0
 10
0.223415
 20
0.316949
 30
0.0
 40
0
 41
0
  0
VERTEX
  8
0
 10
0.225206
 20
0.316949
 30
0.0
 40
0
 41
0
  0
VERTEX
  8
0
 10
0.23074
 20
0.32015
 30
0.0
 40
0
 41
0
  0
VERTEX
  8
0
 10
0.233832
 20
0.325792
 30
0.0
 40
0
 41
0
  0
VERTEX
  8
0
 10
0.233832
 20
0.327636
 30
0.0
 40
0
 41
0
  0
VERTEX
  8
0
 10
0.233832
 20
0.329536
 30
0.0
 40
0
 41
0
  0
VERTEX
  8
0
 10
0.23074
 20
0.335124
 30
0.0
 40
0
 41
0
  0
VERTEX
  8
0
 10
0.225206
 20
0.338271
 30
0.0
 40
0
 41
0
  0
VERTEX
  8
0
 10
0.223415
 20
0.338271
 30
0.0
 40
0
 41
0
  0
VERTEX
  8
0
 10
0.188314
 20
0.338271
 30
0.0
 40
0
 41
0
  0
VERTEX
  8
0
 10
0.188314
 20
0.363932
 30
0.0
 40
0
 41
0
  0
VERTEX
  8
0
 10
0.223415
 20
0.363932
 30
0.0
 40
0
 41
0
  0
VERTEX
  8
0
 10
0.226019
 20
0.363932
 30
0.0
 40
0
 41
0
  0
VERTEX
  8
0
 10
0.233832
 20
0.37169
 30
0.0
 40
0
 41
0
  0
VERTEX
  8
0
 10
0.233832
 20
0.37424
 30
0.0
 40
0
 41
0
  0
VERTEX
  8
0
 10
0.233832
 20
0.376844
 30
0.0
 40
0
 41
0
  0
VERTEX
  8
0
 10
0.226019
 20
0.384494
 30
0.0
 40
0
 41
0
  0
VERTEX
  8
0
 10
0.223415
 20
0.384494
 30
0.0
 40
0
 41
0
  0
VERTEX
  8
0
 10
0.188314
 20
0.384494
 30
0.0
 40
0
 41
0
  0
VERTEX
  8
0
 10
0.188314
 20
0.405057
 30
0.0
 40
0
 41
0
  0
VERTEX
  8
0
 10
0.188314
 20
0.409939
 30
0.0
 40
0
 41
0
  0
VERTEX
  8
0
 10
0.192165
 20
0.424425
 30
0.0
 40
0
 41
0
  0
VERTEX
  8
0
 10
0.202746
 20
0.440267
 30
0.0
 40
0
 41
0
  0
VERTEX
  8
0
 10
0.218479
 20
0.450956
 30
0.0
 40
0
 41
0
  0
VERTEX
  8
0
 10
0.232964
 20
0.454861
 30
0.0
 40
0
 41
0
  0
VERTEX
  8
0
 10
0.237847
 20
0.454861
 30
0.0
 40
0
 41
0
  0
VERTEX
  8
0
 10
0.242676
 20
0.454861
 30
0.0
 40
0
 41
0
  0
VERTEX
  8
0
 10
0.257161
 20
0.450956
 30
0.0
 40
0
 41
0
  0
VERTEX
  8
0
 10
0.272894
 20
0.440267
 30
0.0
 40
0
 41
0
  0
VERTEX
  8
0
 10
0.283475
 20
0.424425
 30
0.0
 40
0
 41
0
  0
VERTEX
  8
0
 10
0.287381
 20
0.409939
 30
0.0
 40
0
 41
0
  0
VERTEX
  8
0
 10
0.287381
 20
0.405057
 30
0.0
 40
0
 41
0
  0
VERTEX
  8
0
 10
0.287381
 20
0.187662
 30
0.0
 40
0
 41
0
  0
VERTEX
  8
0
 10
0.292318
 20
0.183919
 30
0.0
 40
0
 41
0
  0
VERTEX
  8
0
 10
0.310656
 20
0.159668
 30
0.0
 40
0
 41
0
  0
VERTEX
  8
0
 10
0.319119
 20
0.132378
 30
0.0
 40
0
 41
0
  0
VERTEX
  8
0
 10
0.319119
 20
0.123264
 30
0.0
 40
0
 41
0
  0
VERTEX
  8
0
 10
0.319119
 20
0.115343
 30
0.0
 40
0
 41
0
  0
VERTEX
  8
0
 10
0.312717
 20
0.0915799
 30
0.0
 40
0
 41
0
  0
VERTEX
  8
0
 10
0.295247
 20
0.0656467
 30
0.0
 40
0
 41
0
  0
VERTEX
  8
0
 10
0.269422
 20
0.0481771
 30
0.0
 40
0
 41
0
  0
VERTEX
  8
0
 10
0.24566
 20
0.041721
 30
0.0
 40
0
 41
0
  0
VERTEX
  8
0
 10
0.237739
 20
0.041721
 30
0.0
 40
0
 41
0
  0
SEQEND
 8
0
  0
POLYLINE
  8
0
 62
     0
 66
     1
 10
0
 20
0
 30
0.0
 70
     1
 40
0
 41
0
  0
VERTEX
  8
0
 10
0.263889
 20
0.168782
 30
0.0
 40
0
 41
0
  0
VERTEX
  8
0
 10
0.263889
 20
0.292046
 30
0.0
 40
0
 41
0
  0
VERTEX
  8
0
 10
0.211806
 20
0.292046
 30
0.0
 40
0
 41
0
  0
VERTEX
  8
0
 10
0.211806
 20
0.168782
 30
0.0
 40
0
 41
0
  0
VERTEX
  8
0
 10
0.207736
 20
0.166504
 30
0.0
 40
0
 41
0
  0
VERTEX
  8
0
 10
0.192492
 20
0.149957
 30
0.0
 40
0
 41
0
  0
VERTEX
  8
0
 10
0.185385
 20
0.129937
 30
0.0
 40
0
 41
0
  0
VERTEX
  8
0
 10
0.185385
 20
0.123264
 30
0.0
 40
0
 41
0
  0
VERTEX
  8
0
 10
0.185385
 20
0.118164
 30
0.0
 40
0
 41
0
  0
VERTEX
  8
0
 10
0.189453
 20
0.10281
 30
0.0
 40
0
 41
0
  0
VERTEX
  8
0
 10
0.200683
 20
0.0861003
 30
0.0
 40
0
 41
0
  0
VERTEX
  8
0
 10
0.217393
 20
0.0748699
 30
0.0
 40
0
 41
0
  0
VERTEX
  8
0
 10
0.232693
 20
0.0706922
 30
0.0
 40
0
 41
0
  0
VERTEX
  8
0
 10
0.237847
 20
0.0706922
 30
0.0
 40
0
 41
0
  0
VERTEX
  8
0
 10
0.242947
 20
0.0706922
 30
0.0
 40
0
 41
0
  0
VERTEX
  8
0
 10
0.258247
 20
0.0748699
 30
0.0
 40
0
 41
0
  0
VERTEX
  8
0
 10
0.274903
 20
0.0861003
 30
0.0
 40
0
 41
0
  0
VERTEX
  8
0
 10
0.286133
 20
0.10281
 30
0.0
 40
0
 41
0
  0
VERTEX
  8
0
 10
0.290256
 20
0.118164
 30
0.0
 40
0
 41
0
  0
VERTEX
  8
0
 10
0.290256
 20
0.123264
 30
0.0
 40
0
 41
0
  0
VERTEX
  8
0
 10
0.290256
 20
0.129937
 30
0.0
 40
0
 41
0
  0
VERTEX
  8
0
 10
0.283094
 20
0.149957
 30
0.0
 40
0
 41
0
  0
VERTEX
  8
0
 10
0.267904
 20
0.166504
 30
0.0
 40
0
 41
0
  0
VERTEX
  8
0
 10
0.263889
 20
0.168782
 30
0.0
 40
0
 41
0
  0
SEQEND
 8
0
  0
ENDSEC
  0
EOF
